<?xml version="1.0" encoding="utf-8"?>
<!-- Generator: Adobe Illustrator 24.3.0, SVG Export Plug-In . SVG Version: 6.00 Build 0)  -->
<svg version="1.1" id="Layer_1" xmlns="http://www.w3.org/2000/svg" xmlns:xlink="http://www.w3.org/1999/xlink" x="0px" y="0px"
	 viewBox="0 0 530 530" style="enable-background:new 0 0 530 530;" xml:space="preserve">
<style type="text/css">
	.st0{fill:#D33732;}
</style>
<path class="st0" d="M408.32,145.84c0-3.02-1.55-5.67-3.87-7.4L290.81,29.74c-0.9-0.86-2-1.54-3.16-1.97
	c-0.39-0.19-0.84-0.37-1.29-0.37c-0.77-0.31-1.61-0.37-2.45-0.37H61.42c-5.34,0-9.67,4.14-9.67,9.25v420.63
	c0,5.11,4.33,9.25,9.67,9.25h166.88c5.29,0,9.57-4.1,9.57-9.16v-0.19c0-5.06-4.29-9.16-9.57-9.16H71.08V45.53h203.23v100.32
	c0,5.12,4.32,9.25,9.67,9.25h104.89l0.11,39.42c0,5.06,4.29,9.16,9.57,9.16h0.19c5.29,0,9.57-4.1,9.57-9.16l-0.13-47.47
	C408.31,146.68,408.32,146.27,408.32,145.84z M293.65,136.6v-78l81.54,78H293.65z"/>
<g>
	<path class="st0" d="M455.82,213.48H270.38c-12.33,0-22.37,9.63-22.37,21.46v246.57c0,11.83,10.03,21.45,22.37,21.45h185.44
		c12.37,0,22.43-9.62,22.43-21.45V234.94C478.25,223.11,468.19,213.48,455.82,213.48z M458.92,481.52c0,1.6-1.42,2.96-3.09,2.96
		H270.38c-1.67,0-3.03-1.32-3.03-2.96V234.94c0-1.63,1.36-2.96,3.03-2.96h185.44c1.68,0,3.09,1.35,3.09,2.96V481.52z"/>
	<path class="st0" d="M431.97,245.11h-138.9c-9.78,0-17.73,7.61-17.73,16.96v23c0,9.35,7.95,16.96,17.73,16.96h138.9
		c9.78,0,17.73-7.61,17.73-16.96v-23C449.7,252.72,441.75,245.11,431.97,245.11z M430.36,283.53H294.68v-19.92h135.68V283.53z"/>
	<path class="st0" d="M433.85,316.39l-47.54-0.01h0h-47.54h-47.55c-5.34,0-9.67,4.14-9.67,9.25v45.48v45.39
		c0,0.03-0.01,0.06-0.01,0.09v45.5c0,5.11,4.33,9.25,9.67,9.25h47.57h47.5h47.57c5.34,0,9.67-4.14,9.67-9.25v-91.01v-45.44
		C443.51,320.54,439.18,316.39,433.85,316.39z M424.17,361.84l-28.21-0.01v-26.95l28.21,0.01V361.84z M300.88,380.36h28.21v26.98
		h-28.21V380.36z M348.42,334.88h28.18v26.98h-28.18V334.88z M348.42,407.34v-26.98h28.21v26.98H348.42z M300.88,334.88h28.21v26.98
		h-28.21V334.88z M300.87,425.84h28.23v27h-28.23V425.84z M348.44,425.84h28.17v27h-28.17V425.84z M424.17,452.84h-28.23v-36.01
		c0-0.08,0.03-0.16,0.03-0.24v-36.27l12.16,0c0.02,0,0.04,0.01,0.07,0.01h15.98V452.84z"/>
</g>
<g>
	<path class="st0" d="M143.83,127.33h46.93v5.48h-37.22v15.82h31.44v5.48h-31.44v18.37h38.37v5.48h-48.08V127.33z"/>
	<path class="st0" d="M138.98,204.49h11.79l10.63,21.61l3.7,8.18h0.46l3.58-8.18l10.75-21.61h11.79v50.62h-9.25V229.8
		c0-4.94,1.16-13.58,1.62-17.9h-0.35l-4.28,9.88l-10.86,19.91h-6.94L151,221.78l-4.39-9.88h-0.23c0.69,4.32,1.62,12.96,1.62,17.9
		v25.31h-9.02V204.49z"/>
	<path class="st0" d="M141.64,326.79h18.84v-39.66h-18.84v-5.48h47.39v5.48h-18.84v39.66h18.84v5.48h-47.39V326.79z"/>
</g>
<g>
</g>
<g>
</g>
<g>
</g>
<g>
</g>
<g>
</g>
<g>
</g>
</svg>
