<svg id="Layer_1" data-name="Layer 1" xmlns="http://www.w3.org/2000/svg" viewBox="0 0 426.51 441.28"><defs><style>.cls-1{fill:#d33732;}</style></defs><path class="cls-1" d="M473.36,258.43H326.23c20.33-4.53,41.92-10.91,58.14-19.68,18.71-10.12,30.37-21.55,34.64-34,8.21-23.93-12.66-49-52.34-34.94,32.74-52.17,8.45-70.48,3.25-73.63-3.36-2-12.58-6.26-25.66-1.8-12.15,4.15-24.1,14.67-35.6,31.29.22-3.47.37-6.87.37-10.06,0-67.84-36.68-71.27-44-71.27s-44,3.43-44,71.27c0,3.19.15,6.58.37,10.06-11.49-16.62-23.45-27.14-35.6-31.29-13.09-4.47-22.31-.22-25.66,1.8-5.2,3.15-29.49,21.46,3.19,73.53-39.72-14-60.48,11.16-52.28,35,4.27,12.43,15.93,23.86,34.64,34,16.22,8.77,37.81,15.15,58.14,19.68H56.64a4.84,4.84,0,0,0-4.89,4.79v51.63a4.84,4.84,0,0,0,4.89,4.79H77V480.85a4.84,4.84,0,0,0,4.89,4.79H448.09a4.84,4.84,0,0,0,4.89-4.79V319.64h20.38a4.84,4.84,0,0,0,4.89-4.79V263.22A4.84,4.84,0,0,0,473.36,258.43ZM286.8,359.67l40.82-40h34.25L286.8,393.26Zm0-13.56V319.64h27Zm122-160.59c.94,1.68,3.81,7.82.93,16.19-3.41,9.94-13.81,19.84-30.09,28.64-28,15.16-73.55,22.93-98,26.2,24.65-19.68,54.69-46.66,74.11-71.33C394.52,164.69,406.73,181.84,408.8,185.52Zm-61.32-82.06c21.63-7.37,40.48,14.13,10.92,61.24-18.18,29-55.1,62-81.93,83.58,11.22-27.52,23.93-67.43,29.34-98.85C314.16,133.05,329.84,109.48,347.48,103.46ZM265,54c5.72,0,34.25,3,34.25,61.68,0,40.39-19,97.57-34.25,135.07C249.71,213,230.75,156,230.75,115.63,230.75,56.92,259.28,54,265,54Zm-90.56,48.1c20.87,0,40.39,29,49.75,47.38,5.87,34.18,19.47,74.31,29.34,98.85-24.17-19.41-53.21-45.5-72.11-69.71C147.14,134.69,151.32,102.05,174.44,102.05Zm-54.17,99.66c-4.91-14.27,4.62-26.4,21.63-26.4,7.85,0,18.39,2.5,32.39,9.91,19.36,24.6,49.51,51.69,74.11,71.33-24.49-3.27-70-11-98-26.2C134.08,221.55,123.68,211.65,120.27,201.71ZM61.53,268H243.2v42H61.53ZM86.8,412.83l95-93.19h34.27L86.8,446.44ZM168,319.64,86.8,399.26V319.64ZM86.8,460,229.9,319.64h13.3v69.22l-88.92,87.19H86.8Zm81.31,16,75.09-73.62V436l-40.82,40Zm75.09-26.47v26.47h-27ZM253,268h24v208H253Zm60.93,208L443.2,349.25v33.61l-95,93.19Zm48.1,0,81.19-79.62v79.62ZM443.2,335.69,300.07,476.05H286.8V406.82l88.9-87.18h67.5Zm25.27-25.64H286.8V268H468.47Z" transform="translate(-51.75 -44.36)"/></svg>