<?xml version="1.0" encoding="utf-8"?>
<!-- Generator: Adobe Illustrator 24.3.0, SVG Export Plug-In . SVG Version: 6.00 Build 0)  -->
<svg version="1.1" id="Layer_1" xmlns="http://www.w3.org/2000/svg" xmlns:xlink="http://www.w3.org/1999/xlink" x="0px" y="0px"
	 viewBox="0 0 530 530" style="enable-background:new 0 0 530 530;" xml:space="preserve">
<style type="text/css">
	.st0{fill-rule:evenodd;clip-rule:evenodd;fill:#D33732;}
</style>
<path class="st0" d="M407.82,261.25c-7.31,0-12.15,4.5-12.15,11.89v164.71h-87.57v-66.76c0-5.9-4.84-11.89-10.86-11.89h-63.14
	c-7.32,0-13.45,5.99-13.45,11.89v66.76h-86.28V279.04c0-7.4-6.02-11.9-12.16-11.9c-7.31,0-12.15,4.5-12.15,11.9v172.2
	c0,5.9,4.84,11.89,12.15,11.89h111.88c6.02,0,10.87-6,10.87-11.89v-68.26h38.93v68.26c0,5.9,6.03,11.89,13.34,11.89h110.59
	c6.03,0,12.16-6,12.16-11.89v-178.1C419.97,265.75,413.84,261.25,407.82,261.25L407.82,261.25z M122.31,87.45L122.31,87.45
	c6.14,0,11.2,6.19,11.2,13.69v90.65L255.92,71.26c2.37-3,6.03-4.4,9.68-4.4c2.48,0,4.96,1.4,7.32,4.4
	c71.64,69.76,121.45,118.73,201.7,198.89l0,0c4.84,4.5,4.84,13.39,0,17.79c-2.36,1.5-4.84,3-8.5,3c-3.65,0-7.31-1.5-8.49-3
	L265.6,96.55L72.4,284.94c-4.85,5.99-12.16,5.99-17,0c-2.48-1.4-3.66-4.4-3.66-7.4c0-2.9,1.18-5.9,3.66-8.89l55.62-54.77V101.14
	C111.02,93.65,116.08,87.45,122.31,87.45L122.31,87.45z"/>
<g>
</g>
<g>
</g>
<g>
</g>
<g>
</g>
<g>
</g>
<g>
</g>
</svg>
