<svg id="Layer_1" data-name="Layer 1" xmlns="http://www.w3.org/2000/svg" viewBox="0 0 426.51 475.94"><defs><style>.cls-1{fill:#d33732;}</style></defs><path class="cls-1" d="M153.2,238.52A18.25,18.25,0,1,1,135,220.27,18.25,18.25,0,0,1,153.2,238.52Z" transform="translate(-51.75 -27.03)"/><path class="cls-1" d="M414.38,163H384c.18-2.7.22-126.72.22-126.72A9.27,9.27,0,0,0,375,27H152.48a9.27,9.27,0,0,0-9.27,9.26V163H115.62a64,64,0,0,0-63.87,63.88v113.3a63.94,63.94,0,0,0,63.87,63.89V385.53a45.38,45.38,0,0,1-45.33-45.34V226.89a45.37,45.37,0,0,1,45.33-45.33H414.38a45.37,45.37,0,0,1,45.33,45.33v113.3a45.38,45.38,0,0,1-45.33,45.34v18.55a63.94,63.94,0,0,0,63.87-63.89V226.89A64,64,0,0,0,414.38,163ZM161.74,45.58h204V156.82c0,1-.23,3.49-.41,6.19H161.74Z" transform="translate(-51.75 -27.03)"/><path class="cls-1" d="M415.17,281.65H112.31c-5.13,0-9.29,4.68-9.29,9.79s4.16,9.79,9.29,9.79h31.34V493.71c0,5.11,3.72,9.26,8.83,9.26H375c5.11,0,8.82-4.15,8.82-9.26V301.23h31.35c5.13,0,9.28-4.68,9.28-9.79S420.3,281.65,415.17,281.65Zm-49,202.77H161.3s.57-182,0-183.19H366.17Z" transform="translate(-51.75 -27.03)"/><rect class="cls-1" x="135.89" y="309.46" width="154.73" height="19.59"/><rect class="cls-1" x="135.89" y="360.38" width="154.73" height="17.63"/></svg>