<svg id="Layer_1" data-name="Layer 1" xmlns="http://www.w3.org/2000/svg" viewBox="0 0 256 256"><defs><style>.cls-1{fill:#d33732;}</style></defs><path class="cls-1" d="M147.3,104.79A7.76,7.76,0,0,0,139.54,97h-31a7.76,7.76,0,0,0-7.75,7.76V213.4H147.3Zm65.94,15.52a7.75,7.75,0,0,0-7.76-7.76h-31a7.75,7.75,0,0,0-7.75,7.76V213.4h46.54Zm31,112.48H11.54a11.64,11.64,0,0,0,0,23.28H244.27a11.64,11.64,0,0,0,0-23.28ZM81.36,143.58a7.75,7.75,0,0,0-7.76-7.76h-31a7.75,7.75,0,0,0-7.75,7.76V213.4H81.36Z" transform="translate(0.09 -0.07)"/><path class="cls-1" d="M224.49.14l-34.88,5a6.88,6.88,0,0,0-3.89,11.68l8.06,8.06L165.64,53,119.42,17.94a11.66,11.66,0,0,0-14.41.28L31.31,78.8a11.64,11.64,0,0,0,14.77,18L112.68,42l47,35.63a11.63,11.63,0,0,0,15.26-1l35.31-35.31,5.38,5.38a6.89,6.89,0,0,0,11.69-3.9l5-34.87A6.88,6.88,0,0,0,224.49.14Z" transform="translate(0.09 -0.07)"/></svg>