<svg id="Layer_1" data-name="Layer 1" xmlns="http://www.w3.org/2000/svg" viewBox="0 0 426.51 475.94"><defs><style>.cls-1{fill:#d33732;}</style></defs><path class="cls-1" d="M408.32,145.84a9.22,9.22,0,0,0-3.87-7.39L290.81,29.74a9.25,9.25,0,0,0-3.15-2,3.05,3.05,0,0,0-1.29-.37,6.55,6.55,0,0,0-2.45-.37H61.42a9.47,9.47,0,0,0-9.67,9.25V456.91a9.47,9.47,0,0,0,9.67,9.25H228.29a9.37,9.37,0,0,0,9.57-9.16v-.18a9.37,9.37,0,0,0-9.57-9.16H71.08V45.53H274.31V145.84a9.45,9.45,0,0,0,9.67,9.25H388.87l.11,39.42a9.37,9.37,0,0,0,9.57,9.16h.2a9.37,9.37,0,0,0,9.57-9.16l-.13-47.46A4,4,0,0,0,408.32,145.84ZM293.65,136.6v-78l81.54,78Z" transform="translate(-51.75 -27.03)"/><path class="cls-1" d="M455.82,213.48H270.38c-12.33,0-22.37,9.63-22.37,21.46V481.52c0,11.83,10,21.45,22.37,21.45H455.82c12.37,0,22.43-9.62,22.43-21.45V234.94C478.25,223.11,468.19,213.48,455.82,213.48Zm3.1,268a3.07,3.07,0,0,1-3.1,3H270.38a3,3,0,0,1-3-3V234.94a3,3,0,0,1,3-3H455.82a3.07,3.07,0,0,1,3.1,3Z" transform="translate(-51.75 -27.03)"/><path class="cls-1" d="M432,245.11H293.07c-9.78,0-17.72,7.61-17.72,17v23c0,9.35,7.94,17,17.72,17H432c9.78,0,17.73-7.61,17.73-17v-23C449.7,252.72,441.75,245.11,432,245.11Zm-1.61,38.42H294.68V263.61H430.36Z" transform="translate(-51.75 -27.03)"/><path class="cls-1" d="M433.85,316.39H291.21a9.47,9.47,0,0,0-9.67,9.25V416.5s0,.06,0,.09v45.5a9.47,9.47,0,0,0,9.67,9.25H433.84a9.47,9.47,0,0,0,9.67-9.25V325.64A9.47,9.47,0,0,0,433.85,316.39Zm-9.68,45.45-28.2,0V334.88h28.2ZM300.88,380.36h28.21v27H300.88Zm47.54-45.48h28.19v27H348.42Zm0,72.46v-27h28.21v27Zm-47.54-72.46h28.21v27H300.88Zm0,91H329.1v27H300.87Zm47.57,0h28.17v27H348.44Zm75.73,27H395.94v-36c0-.08,0-.15,0-.24V380.32h28.2Z" transform="translate(-51.75 -27.03)"/><path class="cls-1" d="M154.7,198.14c0,27.77-13.53,41.55-29.31,41.55-15.21,0-28.37-13.18-28.55-39.72,0-26.35,13.34-41.14,29.49-41.14C143.43,158.83,154.7,173,154.7,198.14ZM110,199.36c-.38,16.82,5.45,29.58,15.78,29.58,10.89,0,15.78-12.56,15.78-30,0-16-4.32-29.38-15.78-29.38C115.44,169.57,110,182.74,110,199.36ZM124.27,295,196,158.83h10.52L134.79,295Zm109.9-42.35c0,27.76-13.53,41.54-29.12,41.54-15.22,0-28.37-13.17-28.56-39.52,0-26.55,13.34-41.34,29.5-41.34C223.08,213.34,234.17,227.53,234.17,252.66Zm-44.71,1.21c-.19,16.82,5.82,29.59,16,29.59,10.9,0,15.78-12.57,15.78-30,0-16-4.32-29.39-15.78-29.39C195.09,224.08,189.46,237.25,189.46,253.87Z" transform="translate(-51.75 -27.03)"/></svg>