<svg id="Layer_1" data-name="Layer 1" xmlns="http://www.w3.org/2000/svg" viewBox="0 0 263.53 300"><defs><style>.cls-1{fill:#d33732;}</style></defs><path class="cls-1" d="M267.29,253.62l-.71-.11c.08-3.72.12-7.72.12-12.37,0-110.69-58.56-146.41-97.6-161H127.31c-36.3,14.64-94.86,43-94.86,161,0,4.64,0,8.67.16,12.36l-.75.12a16.57,16.57,0,0,0,1,32.87l32.13,1.73c21.32,7.06,51.32,11.48,84.64,11.48s63.31-4.42,84.64-11.48l32.13-1.73a16.57,16.57,0,0,0,.94-32.87Zm-123-83.71,19,9.78a26.19,26.19,0,0,1,14,27.87,25.4,25.4,0,0,1-16.48,20.19V232a9.15,9.15,0,0,1-18.3,0v-3.66a32,32,0,0,1-21-18.14,9.15,9.15,0,0,1,16.79-7.3,13.65,13.65,0,0,0,13.85,8.24L153,211a7.24,7.24,0,0,0,6.23-6.33,8.08,8.08,0,0,0-4.3-8.71l-19-9.78a26.31,26.31,0,0,1-13.86-28.43A25.51,25.51,0,0,1,142.51,137v-3.85a9.15,9.15,0,0,1,18.3,0V139a31.77,31.77,0,0,1,16.88,16.63,9.15,9.15,0,1,1-16.78,7.3,13.7,13.7,0,0,0-13.86-8.24,7.63,7.63,0,0,0-7,6.38A7.91,7.91,0,0,0,144.29,169.91Z" transform="translate(-17.81 0.3)"/><path class="cls-1" d="M180.66,1.3c-6.34-4.06-17.21-.1-26.33,8.61a11.26,11.26,0,0,1-15.68,0C129.52,1.2,118.75-2.6,112.31,1.3c-21.3,12.91,7.38,57.82,10,60.41h48.29C173.28,59.12,200.82,14.21,180.66,1.3Z" transform="translate(-17.81 0.3)"/></svg>