<svg id="Layer_1" data-name="Layer 1" xmlns="http://www.w3.org/2000/svg" xmlns:xlink="http://www.w3.org/1999/xlink" viewBox="0 0 1920 474.14"><defs><style>.cls-1{fill:url(#linear-gradient);}.cls-2{fill:none;}.cls-3{clip-path:url(#clip-path);}.cls-4{mask:url(#mask);}.cls-10,.cls-11,.cls-12,.cls-13,.cls-14,.cls-15,.cls-16,.cls-17,.cls-18,.cls-19,.cls-20,.cls-21,.cls-22,.cls-23,.cls-24,.cls-25,.cls-26,.cls-5,.cls-6,.cls-7,.cls-8,.cls-9{fill:#b2b2b2;}.cls-6{opacity:0.96;}.cls-7{opacity:0.92;}.cls-8{opacity:0.88;}.cls-9{opacity:0.83;}.cls-10{opacity:0.79;}.cls-11{opacity:0.75;}.cls-12{opacity:0.71;}.cls-13{opacity:0.67;}.cls-14{opacity:0.63;}.cls-15{opacity:0.59;}.cls-16{opacity:0.54;}.cls-17{opacity:0.5;}.cls-18{opacity:0.46;}.cls-19{opacity:0.42;}.cls-20{opacity:0.38;}.cls-21{opacity:0.34;}.cls-22{opacity:0.3;}.cls-23{opacity:0.25;}.cls-24{opacity:0.21;}.cls-25{opacity:0.17;}.cls-26{opacity:0.13;}</style><linearGradient id="linear-gradient" x1="6.11" y1="396.99" x2="1935.75" y2="396.99" gradientTransform="translate(-25.65 -142.37)" gradientUnits="userSpaceOnUse"><stop offset="0" stop-color="#231f20"/><stop offset="0.07" stop-color="#383536"/><stop offset="0.2" stop-color="#706d6e"/><stop offset="0.4" stop-color="#c8c7c7"/><stop offset="0.51" stop-color="#fff"/><stop offset="0.54" stop-color="#ebeaeb"/><stop offset="0.63" stop-color="#afadae"/><stop offset="0.72" stop-color="#7d7a7b"/><stop offset="0.81" stop-color="#565354"/><stop offset="0.88" stop-color="#3a3637"/><stop offset="0.95" stop-color="#292526"/><stop offset="1" stop-color="#231f20"/></linearGradient><clipPath id="clip-path" transform="translate(0 -85.86)"><rect class="cls-2" x="0.97" y="-0.51" width="1920" height="560"/></clipPath><mask id="mask" x="-62.2" y="-323.84" width="2014.96" height="985.19" maskUnits="userSpaceOnUse"><g transform="translate(0 -85.86)"><rect class="cls-1" x="-19.54" y="-75.45" width="1929.65" height="660.14" transform="translate(1920.42 341.22) rotate(170)"/></g></mask></defs><g class="cls-3"><g class="cls-4"><path class="cls-5" d="M1881,253.52c-1-.53-102.55-53.69-268.22-86-152.9-29.79-393.24-47.38-670,38C820.5,243.31,701.1,263,587.92,264.15c-90.55.9-177.34-10-258-32.47-137.3-38.22-210-97.47-210.75-98.06l.86-1c.72.59,73.28,59.68,210.33,97.82,126.49,35.21,335.35,59.25,612-26.12,122.32-37.74,247.8-58.7,373-62.31a1355.83,1355.83,0,0,1,297.7,24.27c165.86,32.32,267.53,85.55,268.54,86.08Z" transform="translate(0 -85.86)"/><path class="cls-6" d="M1876,245.56c-1-.5-103.77-50.83-270.44-80.07-153.82-27-395.09-41-671,45.39C815,248.33,698.2,268.4,587.54,270.52c-89.1,1.71-174.59-8.15-254.12-29.31C202.26,206.32,129.06,152,115.72,141.45l-.36-.28.37-.51-.11-.68c.29,0,.37,0,.91.44,13.3,10.51,86.31,64.71,217.23,99.53C514.45,288,716.45,277.82,934.15,209.63a1443.5,1443.5,0,0,1,372.77-65.21,1404,1404,0,0,1,298.86,19.79c166.85,29.28,269.73,79.68,270.75,80.18Z" transform="translate(0 -85.86)"/><path class="cls-7" d="M1870.9,237.6c-1-.48-105-48-272.67-74.18-154.74-24.19-396.93-34.67-672,52.76-118.29,37.6-233.7,58-343,60.74-88.24,2.18-172.92-7.13-251.68-27.66-126.93-33.09-200-84.92-219.35-100-.4-.32-.64-.51-.72-.56l.33-.49-.11-.66c.29,0,.29,0,1.27.72C132.3,163.31,205.18,215,331.88,248c178.64,46.57,378.5,35.45,594-33.06a1486.22,1486.22,0,0,1,372.56-68.11,1455,1455,0,0,1,300,15.31c167.83,26.24,271.91,73.8,272.94,74.28Z" transform="translate(0 -85.86)"/><path class="cls-8" d="M1865.84,229.64c-1-.45-106.21-45.12-274.88-68.29C1435.3,140,1192.19,133,918,221.49,800.77,259.3,686.48,280.1,578.28,283.31c-87.49,2.6-171.43-6.24-249.49-26.26-126-32.32-200.32-84.73-220.09-100-.61-.47-1-.75-1.08-.82l.29-.47-.11-.66c.29-.05.29-.05,1.63,1,19.73,15.26,93.87,67.55,219.66,99.81,176.82,45.35,374.83,33.39,588.53-35.54a1531.91,1531.91,0,0,1,372.35-71,1510.67,1510.67,0,0,1,301.2,10.85c168.82,23.2,274.11,67.92,275.15,68.37Z" transform="translate(0 -85.86)"/><path class="cls-9" d="M1860.79,221.67c-1.06-.42-107.44-42.25-277.11-62.39-156.58-18.59-400.62-22-674,67.51C841.82,249,778.06,264.53,718.56,274.67c-364.2,62-570.81-77.11-613.39-109.87-.73-.56-1.31-1-1.43-1.07l.26-.45-.11-.64c.3,0,.3,0,2,1.25,49.46,38,320.63,219.84,803.47,61.8a1573.08,1573.08,0,0,1,674.51-67.56c169.81,20.16,276.3,62.05,277.36,62.47Z" transform="translate(0 -85.86)"/><path class="cls-10" d="M1855.73,213.71c-1.06-.39-108.66-39.4-279.32-56.5-157.51-15.79-402.46-15.61-675,74.89-115.39,38.32-227.76,59.84-334,64-86.13,3.36-168.71-4.65-245.45-23.79-120.81-30.15-194.36-79.78-220.37-99.72-.91-.7-1.63-1.25-1.78-1.33l.23-.42-.11-.63c.31-.06.31-.06,2.33,1.5,26,19.9,99.36,69.43,220,99.52C495.76,314.49,690.49,301,901.08,231a1630.71,1630.71,0,0,1,675.48-74.94c170.79,17.12,278.49,56.17,279.56,56.57Z" transform="translate(0 -85.86)"/><path class="cls-11" d="M1850.68,205.74c-1.08-.36-109.89-36.54-281.55-50.61-158.42-13-404.3-9.24-676,82.28-114.57,38.59-226.06,60.48-331.38,65-85.48,3.72-167.42-3.91-243.52-22.66C202.62,251.31,130.68,205.25,98.1,180.33c-1.09-.83-1.95-1.49-2.12-1.57l.2-.4-.11-.62c.32-.05.32-.05,2.67,1.75,32.52,24.87,104.32,70.83,219.76,99.28,171.9,42.35,365.12,28.09,574.31-42.37a1682.72,1682.72,0,0,1,371.74-79.74,1699.79,1699.79,0,0,1,304.71-2.58C1741,168.16,1849.94,204.37,1851,204.74Z" transform="translate(0 -85.86)"/><path class="cls-12" d="M1845.62,197.78c-1.09-.34-111.11-33.68-283.77-44.72-159.34-10.18-406.14-2.89-677,89.65-113.8,38.88-224.46,61.13-328.9,66.13-84.87,4.06-166.18-3.2-241.66-21.58-85.08-20.71-163.13-55.93-219.76-99.18-1.26-1-2.26-1.72-2.45-1.81l.17-.37-.11-.61c.32-.06.33-.06,3,2,56.53,43.17,134.44,78.33,219.39,99,170.36,41.47,362.13,26.49,570-44.53a1738.65,1738.65,0,0,1,371.54-82.65,1772.69,1772.69,0,0,1,305.87-7c172.77,11,282.88,44.42,284,44.76Z" transform="translate(0 -85.86)"/><path class="cls-13" d="M1840.56,189.81c-1.1-.31-112.33-30.82-286-38.82-160.26-7.38-408,3.46-678,97C763.53,287.2,653.67,309.8,550.07,315.21c-84.27,4.4-165-2.5-239.83-20.52C225.77,274.36,147.91,239.25,91,195.83c-1.43-1.09-2.56-2-2.78-2.06l.15-.33-.1-.6c.32-.06.42,0,3.32,2.22,56.81,43.35,134.54,78.4,218.88,98.69,168.87,40.63,359.23,24.94,565.81-46.65a1798.15,1798.15,0,0,1,371.34-85.55,1848.75,1848.75,0,0,1,307-11.52c173.75,8,285.07,38.54,286.17,38.85Z" transform="translate(0 -85.86)"/><path class="cls-14" d="M1835.5,181.84c-1.11-.28-113.56-28-288.21-32.92-161.18-4.58-409.82,9.82-679,104.4C756,292.81,646.87,315.77,544.09,321.58c-83.68,4.73-163.77-1.83-238-19.5-83.86-19.95-161.5-54.93-218.62-98.51-1.6-1.22-2.86-2.18-3.11-2.29l.13-.3-.1-.59c.33-.06.5.06,3.64,2.45,68.15,52,325.82,209.22,780,49.62A1860.35,1860.35,0,0,1,1239.15,164a1932.24,1932.24,0,0,1,308.2-16c174.74,5,287.26,32.67,288.37,32.95Z" transform="translate(0 -85.86)"/><path class="cls-15" d="M1830.44,173.88c-1.13-.26-114.78-25.11-290.43-27-162.1-1.78-411.66,16.17-680,111.78C748.36,298.42,640,321.74,538,328c-83.11,5.06-162.6-1.17-236.28-18.5-84.45-19.87-159.8-53.81-217.9-98.14-1.76-1.35-3.16-2.42-3.43-2.52l.11-.28-.1-.57c.35-.06.57.09,4,2.67,58,44.27,133.24,78.15,217.57,98,166,39,353.62,22,557.78-50.79,118.53-42.24,243.33-73,370.94-91.37A2019.52,2019.52,0,0,1,1540.05,146c175.73,1.92,289.45,26.8,290.58,27.05Z" transform="translate(0 -85.86)"/><path class="cls-16" d="M1825.38,165.91c-1.14-.22-116-22.25-292.65-21.14-163,1-413.5,22.54-681,119.17-111,40.09-218.61,63.77-319.83,70.37-82.53,5.38-161.44-.51-234.53-17.52C238.93,303.19,153.81,275.18,80.28,219a43.33,43.33,0,0,0-3.74-2.73l.09-.25-.1-.56c.36-.06.67.16,4.25,2.89,73.41,56.06,158.41,84,216.8,97.61,164.53,38.29,350.89,20.51,553.89-52.83,118.16-42.68,242.9-74.39,370.74-94.27A2114.27,2114.27,0,0,1,1532.75,144c176.72-1.11,291.65,20.93,292.79,21.15Z" transform="translate(0 -85.86)"/><path class="cls-17" d="M1820.31,157.94c-1.15-.2-117.22-19.39-294.86-15.24-164,3.83-415.35,28.89-682,126.54-110.35,40.42-217.25,64.45-317.71,71.43-82,5.7-160.31.13-232.81-16.56-58-13.36-142.66-41.09-216.25-97.35a45.94,45.94,0,0,0-4-3l.06-.22-.09-.54c.38-.06.87.29,4.55,3.11,73.48,56.17,158,83.87,216,97.21,163.13,37.54,348.21,19.09,550.08-54.84,115.47-42.29,237.56-74.55,363-95.91,2.51-.43,5-.86,7.54-1.27a2216,2216,0,0,1,311.71-29.41c177.71-4.15,293.84,15,295,15.25Z" transform="translate(0 -85.86)"/><path class="cls-18" d="M1815.25,150c-1.16-.17-118.45-16.53-297.08-9.34-164.87,6.63-417.19,35.25-683,133.92C725.47,315.28,619.27,339.67,519.56,347c-81.43,6-159.19.76-231.12-15.62C234.9,319.22,185,301,140.19,277.34c-35.8-18.91-57.72-35.69-67.08-42.86a43.65,43.65,0,0,0-4.36-3.17l0-.71c.4-.07,1,.35,4.84,3.31,69.19,53,243.4,151.54,536.62,101.59,68.4-11.65,143.23-31.36,224.77-61.63,117.4-43.59,242-77.26,370.33-100.09a2325.3,2325.3,0,0,1,312.89-33.88c178.69-7.18,296,9.19,297.19,9.35Z" transform="translate(0 -85.86)"/><path class="cls-19" d="M1810.18,142c-1.17-.14-119.67-13.67-299.3-3.45-165.78,9.44-419,41.61-684,141.3-109.11,41.06-214.61,65.8-313.6,73.53-80.89,6.33-158.08,1.39-229.43-14.68-53.19-12-102.73-30-147.26-53.52a451.53,451.53,0,0,1-67.1-43,42.73,42.73,0,0,0-4.67-3.39l0-.66c.41-.07,1.08.42,5.12,3.51,68.41,52.48,240.24,149.78,529.29,100.54,69.08-11.76,144.79-31.87,227.45-63,117-44,241.56-78.69,370.14-103a2442.36,2442.36,0,0,1,314-38.35c179.68-10.23,298.23,3.31,299.4,3.45Z" transform="translate(0 -85.86)"/><path class="cls-20" d="M588.75,349.34q-41.54,7.08-81.72,10.39c-80.36,6.64-157,2-227.77-13.76-52.82-11.76-102-29.59-146.26-53a450.65,450.65,0,0,1-67.08-43.07,42.49,42.49,0,0,0-5-3.59l-.06-.62c.43-.08,1.21.49,5.4,3.71,67.63,52,237.07,148,522,99.5C658,337,734.63,316.52,818.4,284.58c116.66-44.49,241.12-80.12,369.94-105.9a2570.58,2570.58,0,0,1,315.22-42.83c180.68-13.26,300.43-2.56,301.61-2.45l-.05.63c-1.19-.11-120.9-10.81-301.53,2.45-166.7,12.24-420.86,48-685,148.68C739.69,315.27,662.69,336.75,588.75,349.34Z" transform="translate(0 -85.86)"/><path class="cls-21" d="M577.32,356.18q-38.91,6.63-76.61,9.9c-79.82,6.94-155.9,2.61-226.11-12.85-52.46-11.56-101.33-29.2-145.25-52.45a450.1,450.1,0,0,1-67-43.16,42.44,42.44,0,0,0-5.26-3.8l-.06-.57c.46-.08,1.56.74,5.67,3.91,66.85,51.5,233.89,146.31,514.79,98.47,70.36-12,147.81-32.9,232.69-65.7,116.27-44.94,240.67-81.55,369.74-108.81a2706.06,2706.06,0,0,1,316.39-47.29c181.66-16.3,302.62-8.43,303.82-8.35l0,.58c-1.2-.08-122.12-8-303.74,8.34-60.57,5.44-132.59,14-212.25,27.61-140.81,24-305.58,63.48-473.72,128.46C730.22,321.43,652.15,343.43,577.32,356.18Z" transform="translate(0 -85.86)"/><path class="cls-22" d="M566,363q-36.35,6.19-71.59,9.41c-79.3,7.24-154.83,3.21-224.48-12-52.1-11.35-100.62-28.82-144.23-51.92a446.9,446.9,0,0,1-67-43.22c-3-2.31-5.15-4-5.55-4l-.07-.52c.49-.08,1.72.85,5.94,4.11,83,64.1,321.5,195.37,742.85,30.37,115.9-45.38,240.23-83,369.54-111.71A2852.84,2852.84,0,0,1,1489,131.8c182.65-19.33,304.81-14.3,306-14.25l0,.54c-1.21-.06-123.34-5.09-306,14.24-168.55,17.84-424.54,60.68-687,163.45C720.78,327.61,641.65,350.13,566,363Z" transform="translate(0 -85.86)"/><path class="cls-23" d="M554.67,369.87q-33.84,5.76-66.68,8.9c-78.78,7.54-153.76,3.82-222.85-11.07-51.73-11.14-99.91-28.43-143.21-51.39A444.34,444.34,0,0,1,55.08,273c-3.15-2.44-5.43-4.2-5.84-4.2l-.07-.48c.51-.09,1.8.89,6.2,4.3,82.38,63.8,319.2,194.23,738.23,28C909.13,254.8,1033.39,216.23,1163,186a3013.36,3013.36,0,0,1,318.73-56.23c183.65-22.38,307-20.17,308.24-20.15v.49c-1.23,0-124.57-2.23-308.18,20.14-169.46,20.65-426.37,67-687.95,170.82C711.34,333.79,631.19,356.83,554.67,369.87Z" transform="translate(0 -85.86)"/><path class="cls-24" d="M543.44,376.72q-31.35,5.34-61.85,8.4c-78.26,7.83-152.7,4.4-221.24-10.19C209,364,161.15,346.87,118.17,324.05a436.86,436.86,0,0,1-66.72-43.32c-3.31-2.57-5.7-4.43-6.12-4.4l-.07-.43c.53-.09,2,1,6.46,4.49,81.75,63.5,316.87,193.12,733.62,25.6,115.15-46.29,239.34-85.83,369.14-117.53a3184.63,3184.63,0,0,1,319.91-60.71c184.63-25.41,309.2-26,310.44-26v.43c-1.23,0-125.78.64-310.39,26-30.69,4.23-64.25,9.32-100.11,15.43-163.27,27.8-375.06,76.85-588.83,162.78C701.92,340,620.77,363.55,543.44,376.72Z" transform="translate(0 -85.86)"/><path class="cls-25" d="M532.28,383.58q-28.93,4.92-57.11,7.87c-77.75,8.14-151.65,5-219.64-9.31-51-10.74-98.49-27.68-141.14-50.36a433.89,433.89,0,0,1-66.57-43.35c-3.47-2.71-6-4.66-6.4-4.6l-.07-.38c.56-.09,2.16,1.13,6.71,4.68,81.11,63.2,314.51,192,729,23.21C891.84,264.6,1016,224.08,1146,190.91c104-26.54,212.06-48.47,321.08-65.18,185.62-28.45,311.4-31.91,312.65-31.94v.38c-1.25,0-127,3.5-312.61,31.94-17.41,2.67-35.74,5.62-54.86,8.88-169.06,28.79-401.6,81.63-635.07,176.71C692.53,346.18,610.38,370.27,532.28,383.58Z" transform="translate(0 -85.86)"/><path class="cls-26" d="M547.29,385.62c67.05-13.48,140.76-35.62,221.52-68.93C883.2,269.51,1007.27,228,1137.56,193.35c102.43-27.24,208.93-50.35,316.6-68.69l5.65-1c186.61-31.48,313.6-37.78,314.86-37.84l0,.34c-1.27.06-128.23,6.36-314.83,37.84l-5.41.91C1282.24,154.29,1025.29,211.27,768.93,317,692.55,348.51,618.3,371.48,547.29,385.62Zm-317.11-.93A517.94,517.94,0,0,1,110.57,339.5a432,432,0,0,1-66.38-43.37c-3.62-2.83-6.23-4.87-6.69-4.79l0-.34c.57-.1,2.23,1.17,6.95,4.86C84.71,327.38,145.68,363.52,230.18,384.69Z" transform="translate(0 -85.86)"/><path class="cls-25" d="M529.69,397.76q-28.28,4.82-55.86,7.73c-77.95,8.25-152.35,5.21-221.11-9-51.54-10.68-99.69-27.56-143.13-50.17a446.62,446.62,0,0,1-67.62-43c-3.38-2.57-5.82-4.42-6.23-4.38l0-.38c.53-.06,2.08,1.1,6.51,4.45,65.06,49.42,225,138.91,489.15,93.92,73.23-12.47,154.43-35.27,243.89-72.12,113.81-46.88,237.53-88,367.73-122.12,104.16-27.32,212.68-50.29,322.54-68.26,187-30.6,314.8-36.17,316.07-36.22v.38c-1.27.06-129,5.62-316,36.22-7.32,1.2-14.82,2.45-22.44,3.75-172.22,29.33-421,84.94-667.75,186.61C690.7,360,608.3,384.37,529.69,397.76Z" transform="translate(0 -85.86)"/><path class="cls-24" d="M538.22,405.08q-30.06,5.12-59.43,8.13c-78.69,8.05-154.15,4.8-224.27-9.69C202.08,392.69,152.91,375.69,108.38,353a468.4,468.4,0,0,1-68.69-42.57c-3.09-2.28-5.33-3.94-5.71-3.94l0-.44c.48,0,1.82.95,6,4C107.2,359.8,271.87,450,538.87,404.51,612.08,392,693,369.38,781.69,332.87c113.22-46.58,236.6-87.26,366.72-120.9,104.09-26.91,212.71-49.42,322.82-66.87,187.49-29.72,316-34.56,317.27-34.61l0,.44c-1.28,0-129.76,4.88-317.23,34.6q-18.9,3-39.17,6.44c-171.73,29.25-412.57,83.51-650.27,181.31C698.25,367.67,616.56,391.73,538.22,405.08Z" transform="translate(0 -85.86)"/><path class="cls-23" d="M546.75,412.4q-31.92,5.43-63.17,8.53c-79.46,7.86-156,4.36-227.53-10.39-53.35-11-103.53-28.13-149.14-50.92a480.82,480.82,0,0,1-69.57-42.07,41.35,41.35,0,0,0-5.13-3.48v-.49c.43,0,1.64.86,5.4,3.57,69.4,50.05,238.78,141,508.64,95,73.22-12.47,153.82-35,241.87-71.19,112.63-46.29,235.67-86.55,365.7-119.69,104-26.51,212.73-48.55,323.11-65.48,187.93-28.85,317.2-33,318.48-33l0,.48c-1.29,0-130.54,4.15-318.43,33-173.42,26.61-433.67,80.34-688.7,185.13C705.8,375.32,624.82,399.1,546.75,412.4Z" transform="translate(0 -85.86)"/><path class="cls-22" d="M555.3,419.72q-33.9,5.77-67.13,8.94-9,.85-18,1.53c94.29-7.2,202.48-31.1,324.4-81.13,112-46,234.74-85.84,364.69-118.47,104-26.11,212.76-47.67,323.39-64.09,188.36-28,318.4-31.35,319.69-31.38l0,.53c-1.3,0-131.31,3.41-319.64,31.37-173.82,25.81-434.27,78.42-687.95,182.53C713.34,383,633.06,406.48,555.3,419.72Zm-309.08-4.58c-50.19-11.2-97.61-27.67-141.11-49a497.06,497.06,0,0,1-70.2-41.51,45,45,0,0,0-4.47-3l0-.53c.37,0,1.43.77,4.72,3.09C74.62,352,145.18,392.31,246.22,415.14Z" transform="translate(0 -85.86)"/><path class="cls-21" d="M563.87,427q-36,6.13-71.39,9.37c-81.15,7.41-160,3.36-234.48-12C198.49,412.09,111.05,386,32.4,331.68a44.06,44.06,0,0,0-3.74-2.47l.1-.57c.31.05,1.2.66,4,2.57,58.12,40.15,242.68,144.31,532.06,95C637.1,413.91,715.92,392,801,357.15,912.46,311.47,1034.82,272,1164.69,239.9c103.89-25.7,212.79-46.8,323.67-62.7,188.8-27.09,319.6-29.74,320.9-29.77V148c-1.3,0-132.07,2.68-320.84,29.76-174.2,25-434.86,76.49-687.2,179.92C720.87,390.62,641.32,413.85,563.87,427Z" transform="translate(0 -85.86)"/><path class="cls-20" d="M572.44,434.37q-38.33,6.53-76,9.81c-82.1,7.14-162.27,2.76-238.26-13-85.7-17.8-166.8-50.63-228.36-92.45-1.58-1.07-2.72-1.85-2.93-1.92l.17-.61a25.38,25.38,0,0,1,3.11,2c74.4,50.54,350.31,201.84,777.3,27.06,110.86-45.37,232.88-84.42,362.66-116a3266.62,3266.62,0,0,1,324-61.32c189.24-26.2,320.8-28.13,322.11-28.14v.63c-1.31,0-132.84,1.94-322,28.14-174.62,24.18-435.46,74.56-686.46,177.3C728.4,398.28,649.56,421.24,572.44,434.37Z" transform="translate(0 -85.86)"/><path class="cls-19" d="M581,441.7q-40.9,7-81.26,10.28c-83.18,6.84-164.72,2-242.37-14.24C135.15,412.1,55.62,364.81,27.1,345.66c-1-.7-1.87-1.26-2-1.32l.25-.63c.18.08.66.39,2.15,1.39,28.49,19.12,107.93,66.36,230.06,92,175.59,36.83,362.78,15.38,556.35-63.74,110.28-45.08,231.95-83.71,361.65-114.83a3227.36,3227.36,0,0,1,324.25-59.92c189.67-25.32,322-26.52,323.31-26.53v.68c-1.32,0-133.61,1.21-323.25,26.52-175,23.37-436,72.65-685.71,174.7C735.91,405.94,657.81,428.62,581,441.7Z" transform="translate(0 -85.86)"/><path class="cls-18" d="M589.64,449q-44.07,7.51-87.65,10.84C417.54,466.3,334.42,461,255,444,126.78,416.6,46,367.09,24.31,352.57c-.55-.36-.94-.63-1-.67l.34-.64,1.08.71c21.68,14.5,102.35,63.95,230.4,91.3C435.33,481.77,625.5,461,820.33,381.43c109.69-44.78,231-83,360.63-113.61a3188.72,3188.72,0,0,1,324.54-58.53c190.11-24.44,323.2-24.91,324.52-24.91v.72c-1.32,0-134.37.47-324.44,24.91-175.42,22.56-436.65,70.72-685,172.09C743.42,413.61,666.05,436,589.64,449Z" transform="translate(0 -85.86)"/><path class="cls-17" d="M598.48,456.35c-350.17,59.64-574.33-95-577-96.9l.45-.63c3.21,2.27,326.87,225.56,804.84,30.7,109.1-44.48,230.09-82.29,359.62-112.39C1290,253.05,1399.3,233.83,1511.21,220c190.55-23.56,324.4-23.3,325.73-23.3v.77c-1.33,0-135.14-.26-325.65,23.3-175.82,21.74-437.24,68.79-684.22,169.48C746.19,423.2,669.72,444.21,598.48,456.35Z" transform="translate(0 -85.86)"/><path class="cls-16" d="M607,463.71C254.47,523.76,21.94,369.08,19.67,367l.56-.6c.57.51,83.18,56.88,229.37,89.14,130.57,28.82,337.81,42.16,583.62-57.91,108.5-44.17,229.15-81.58,358.6-111.17,103.55-23.67,212.93-42.43,325.1-55.75,191-22.69,325.6-21.7,326.94-21.69v.83c-1.33,0-135.91-1-326.84,21.67-176.22,20.93-437.84,66.87-683.48,166.87C753.76,430.85,677.94,451.63,607,463.71Z" transform="translate(0 -85.86)"/><path class="cls-15" d="M615.51,471a983.07,983.07,0,0,1-103.27,12.07,945.58,945.58,0,0,1-259.83-19.32c-75.84-16.44-135.14-39.49-171.54-55.92-39.17-17.69-62.23-32.4-63-33.34l.66-.56c.49.48,86,57,234.88,89.15C386,491.72,595.38,505,839.66,405.7c107.92-43.87,228.23-80.86,357.59-109.95,103.48-23.27,213-41.56,325.39-54.37,191.42-21.8,326.8-20.08,328.14-20.06v.87c-1.35,0-136.68-1.74-328,20.06C1346.1,262.37,1084.29,307.19,840,406.51,765.9,436.63,690.74,458.21,615.51,471Z" transform="translate(0 -85.86)"/><path class="cls-14" d="M624.15,478.36a995.69,995.69,0,0,1-105.69,12.27A974.26,974.26,0,0,1,255.6,471.26c-77.22-16.43-137.78-39.41-175-55.79C39,397.13,16.59,382.87,16.06,382l.75-.52C17.9,382.69,41,397.11,82,415.1c37.25,16.33,97.85,39.22,175,55.53,134.7,28.48,346.23,41.74,589-56.83,107.33-43.58,227.3-80.16,356.57-108.74,103.42-22.87,213-40.69,325.68-53,191.86-20.92,328-18.47,329.35-18.45l0,.92c-1.35,0-137.44-2.47-329.25,18.45-177,19.3-439,63-682,161.65A1067.76,1067.76,0,0,1,624.15,478.36Z" transform="translate(0 -85.86)"/><path class="cls-13" d="M632.8,485.7a1005.79,1005.79,0,0,1-108.13,12.47,1004.33,1004.33,0,0,1-265.88-19.41C109.25,447.51,15.34,391.81,14.26,389.54l.44-.2.4-.27c2.7,3.17,97,58.29,245.55,89.08,136.78,28.34,350.5,41.59,591.89-56.26,106.74-43.27,226.37-79.45,355.56-107.52,103.35-22.46,213-39.82,326-51.59,192.3-20,329.2-16.87,330.56-16.83l0,1c-1.36,0-138.22-3.2-330.45,16.83-177.42,18.49-439.63,61.1-681.25,159A1058.91,1058.91,0,0,1,632.8,485.7Z" transform="translate(0 -85.86)"/><path class="cls-12" d="M641.44,493.14A1019.51,1019.51,0,0,1,364,502c-144.12-15-252.75-56.73-304.67-80.3C31,408.81,12.88,398.26,12.46,397.05l1-.33-.48.17.44-.26c2.4,3,99.39,58.27,250.81,89C403.07,513.88,619,527.13,859,430c106.15-43,225.44-78.74,354.55-106.31,103.28-22.05,213-38.94,326.25-50.19,192.73-19.16,330.4-15.26,331.77-15.22l0,1c-1.36,0-139-3.94-331.65,15.21-177.82,17.68-440.22,59.17-680.5,156.43A1049.82,1049.82,0,0,1,641.44,493.14Z" transform="translate(0 -85.86)"/><path class="cls-11" d="M650,500.41q-37.71,6.42-75.75,10a1056.12,1056.12,0,0,1-250.38-6.51c-158.68-23-266.81-74.16-296.17-89.29C27,414.27,11,406,10.67,404.56l.52-.12.47-.25c2.25,2.94,99.29,57.73,256,89,141,28.1,359.11,41.35,597.72-55.09C971,395.4,1089.93,360.05,1219,333c103.22-21.64,213.08-38.07,326.53-48.8,193.17-18.28,331.6-13.65,333-13.6l0,1.06c-1.38-.05-139.75-4.68-332.86,13.6-178.22,16.86-440.81,57.24-679.75,153.82A1043.25,1043.25,0,0,1,650,500.41Z" transform="translate(0 -85.86)"/><path class="cls-10" d="M658.73,507.75q-47.19,8-95.14,11.7a1089.4,1089.4,0,0,1-263.36-12.38C123,477.21,15.45,416.54,14.38,415.93c-5.37-3.07-5.44-3.55-5.49-3.86l1.1-.16-.55.08.49-.23c2.05,2.77,102.78,57.89,261.27,88.9,143.07,28,363.42,41.25,600.66-54.5,105-42.36,223.58-77.31,352.53-103.87,103.14-21.24,213.1-37.2,326.81-47.41,193.61-17.4,332.8-12.05,334.19-12l-.05,1.11c-1.38-.05-140.52-5.41-334.06,12-178.61,16-441.4,55.31-679,151.2A1034.57,1034.57,0,0,1,658.73,507.75Z" transform="translate(0 -85.86)"/><path class="cls-9" d="M667.43,515.1a1047,1047,0,0,1-104.82,12.43c-88.83,6-179.82,1-270.45-15C135.08,484.87,27.75,433.07,9.59,421.73c-2.26-1.42-2.46-1.78-2.48-2.15l.58,0,.52-.22c1.95,2.73,103.28,57.48,266.46,88.83C419.85,536,642.42,549.32,878.3,454.26,982.69,412.19,1101,377.65,1229.81,351.6c103.09-20.84,213.14-36.32,327.11-46,194-16.51,334-10.43,335.39-10.37l0,1.16c-1.39-.06-141.29-6.14-335.26,10.37-179,15.24-442,53.39-678.26,148.6A1025.67,1025.67,0,0,1,667.43,515.1Z" transform="translate(0 -85.86)"/><path class="cls-8" d="M676.12,522.45a1056.34,1056.34,0,0,1-110.4,12.84c-90.06,5.73-182.64.29-275.17-16.16C125.46,489.79,17.47,435.84,6.89,428.72c-1.32-.88-1.56-1.24-1.56-1.63H6.54a.42.42,0,0,0,0-.21c3.17,4.61,113.67,58.95,271.65,88.75,147.27,27.78,372.07,41.09,606.61-53.28,103.79-41.77,221.72-75.9,350.49-101.44,103-20.43,213.17-35.45,327.39-44.64,194.48-15.64,335.2-8.82,336.6-8.75l-.06,1.2c-1.4-.06-142.05-6.88-336.46,8.76-179.42,14.43-442.6,51.47-677.51,146A1017.71,1017.71,0,0,1,676.12,522.45Z" transform="translate(0 -85.86)"/><path class="cls-7" d="M684.81,529.8a1065.82,1065.82,0,0,1-114.45,13.14c-91,5.53-184.86-.11-279-16.78C122.74,496.3,13.38,442.25,4.72,436c-.89-.64-1.19-1-1.16-1.43l1.25.07a.41.41,0,0,0,0-.24c3.05,4.56,114.72,58.63,276.83,88.67,149.38,27.68,376.39,41,609.6-52.67C994.4,429,1112,395.26,1240.67,370.22c102.95-20,213.19-34.58,327.68-43.25,194.92-14.76,336.4-7.21,337.81-7.14l-.08,1.26c-1.4-.08-142.82-7.62-337.66,7.14-179.82,13.61-443.19,49.54-676.76,143.38A1008.92,1008.92,0,0,1,684.81,529.8Z" transform="translate(0 -85.86)"/><path class="cls-6" d="M1913,333.45c-1.41-.08-143.59-8.35-338.87,5.52-180.21,12.8-443.78,47.62-676,140.77-100.53,40.33-209,64.15-322.44,70.81-91.78,5.38-186.82-.4-282.48-17.18C130.52,504.84,14.09,452.08,2.74,443.48c-.63-.48-1-.87-1-1.35l1.3.14A.48.48,0,0,0,3,442c3,4.52,115.87,58.34,282,88.59,151.48,27.59,380.72,40.95,612.59-52.06,102.62-41.16,219.86-74.47,348.47-99,102.88-19.63,213.22-33.71,328-41.86,195.36-13.88,337.6-5.61,339-5.52Z" transform="translate(0 -85.86)"/><path class="cls-5" d="M1919.91,345.81c-1.42-.09-144.36-9.08-340.07,3.91-180.61,12-444.37,45.69-675.27,138.16-100.14,40.1-208.9,63.74-323.24,70.25-92.5,5.27-188.65-.6-285.75-17.44C127.12,511.48,10.07,458.31.85,451c-.49-.39-.92-.81-.84-1.34l1.34.21a.48.48,0,0,0,0-.29C4.16,454,118.4,507.62,288.48,538.07c153.58,27.49,385,40.88,615.59-51.45,102-40.86,218.94-73.76,347.46-97.78,102.81-19.22,213.25-32.84,328.24-40.47,195.8-13,338.81-4,340.23-3.91Z" transform="translate(0 -85.86)"/></g></g></svg>