<svg xmlns="http://www.w3.org/2000/svg" xmlns:xlink="http://www.w3.org/1999/xlink" viewBox="0 0 316.6 261.14"><defs><style>.cls-1{isolation:isolate;}.cls-2{mix-blend-mode:multiply;fill:url(#linear-gradient);}.cls-3{fill:url(#linear-gradient-2);}.cls-4{fill:url(#linear-gradient-3);}.cls-5{mix-blend-mode:screen;}.cls-6{fill:url(#linear-gradient-4);}.cls-7{fill:url(#linear-gradient-5);}.cls-8{fill:url(#linear-gradient-6);}.cls-9{fill:url(#linear-gradient-7);}.cls-10{fill:url(#linear-gradient-8);}.cls-11{fill:url(#linear-gradient-9);}.cls-12{fill:url(#linear-gradient-10);}.cls-13{fill:url(#linear-gradient-11);}.cls-14{fill:url(#linear-gradient-12);}.cls-15{fill:url(#linear-gradient-13);}.cls-16{fill:url(#linear-gradient-14);}.cls-17{fill:url(#linear-gradient-15);}.cls-18{fill:url(#linear-gradient-16);}.cls-19{fill:url(#linear-gradient-17);}.cls-20{fill:url(#linear-gradient-18);}.cls-21{fill:url(#linear-gradient-19);}.cls-22{fill:url(#linear-gradient-20);}.cls-23{fill:url(#linear-gradient-21);}.cls-24{fill:url(#linear-gradient-22);}.cls-25{fill:url(#linear-gradient-23);}.cls-26{fill:url(#linear-gradient-24);}.cls-27{fill:#1d262d;}.cls-28,.cls-38,.cls-39,.cls-41,.cls-55,.cls-58,.cls-59{fill:none;}.cls-29{fill:#f9fbfc;}.cls-30{fill:#808285;}.cls-31{fill:#e0b12f;}.cls-32{fill:url(#linear-gradient-25);}.cls-33{fill:url(#linear-gradient-26);}.cls-34{fill:#6273fd;}.cls-35{fill:url(#linear-gradient-27);}.cls-36{fill:url(#linear-gradient-28);}.cls-37{fill:#e8c8a1;}.cls-38,.cls-39,.cls-41,.cls-58,.cls-59{stroke:#e0bd96;}.cls-38,.cls-39,.cls-41,.cls-55,.cls-58,.cls-59{stroke-miterlimit:10;}.cls-38{stroke-width:0.94px;}.cls-39{stroke-width:1.03px;}.cls-40{fill:#e0bd96;}.cls-41{stroke-width:1.03px;}.cls-42{fill:blue;}.cls-43{fill:url(#linear-gradient-29);}.cls-44{fill:url(#linear-gradient-30);}.cls-45{fill:url(#linear-gradient-31);}.cls-46{fill:url(#linear-gradient-32);}.cls-47{fill:url(#linear-gradient-33);}.cls-48{fill:url(#linear-gradient-34);}.cls-49{fill:url(#linear-gradient-35);}.cls-50{fill:url(#linear-gradient-36);}.cls-51{fill:url(#linear-gradient-37);}.cls-52{fill:url(#linear-gradient-38);}.cls-53{fill:url(#linear-gradient-39);}.cls-54{fill:url(#linear-gradient-40);}.cls-55{stroke:#000;stroke-width:0.25px;}.cls-56{fill:#fff;}.cls-57{fill:#343563;}.cls-58{stroke-width:0.83px;}.cls-59{stroke-width:0.82px;}.cls-60{fill:url(#linear-gradient-41);}.cls-61{fill:#30a597;}.cls-62{fill:url(#linear-gradient-42);}.cls-63{fill:url(#linear-gradient-43);}.cls-64{fill:url(#linear-gradient-44);}.cls-65{fill:url(#linear-gradient-45);}.cls-66{fill:url(#linear-gradient-46);}.cls-67{fill:url(#linear-gradient-47);}.cls-68{fill:url(#linear-gradient-48);}.cls-69{fill:url(#linear-gradient-49);}.cls-70{fill:url(#linear-gradient-50);}.cls-71{fill:url(#linear-gradient-51);}</style><linearGradient id="linear-gradient" y1="142.73" x2="316.6" y2="142.73" gradientUnits="userSpaceOnUse"><stop offset="0" stop-color="#c8eaef"/><stop offset="0.98" stop-color="#b7ddfb"/></linearGradient><linearGradient id="linear-gradient-2" x1="264.06" y1="70.78" x2="288.61" y2="70.78" xlink:href="#linear-gradient"/><linearGradient id="linear-gradient-3" x1="244.75" y1="130.69" x2="167.48" y2="186.88" gradientUnits="userSpaceOnUse"><stop offset="0" stop-color="#26879a"/><stop offset="0.27" stop-color="#2391a1"/><stop offset="0.72" stop-color="#1badb5"/><stop offset="1" stop-color="#15c1c3"/></linearGradient><linearGradient id="linear-gradient-4" x1="-171.6" y1="738.38" x2="-108.38" y2="738.38" gradientTransform="translate(0.73 -566.75) rotate(-26.31)" gradientUnits="userSpaceOnUse"><stop offset="0.03" stop-color="#41265d"/><stop offset="1" stop-color="#290b49"/></linearGradient><linearGradient id="linear-gradient-5" x1="23.62" y1="181.3" x2="101.89" y2="181.3" gradientUnits="userSpaceOnUse"><stop offset="0" stop-color="#15c1c3"/><stop offset="0.28" stop-color="#1badb5"/><stop offset="0.73" stop-color="#2391a1"/><stop offset="1" stop-color="#26879a"/></linearGradient><linearGradient id="linear-gradient-6" x1="-2883.39" y1="-551.76" x2="-2811.24" y2="-551.76" gradientTransform="matrix(-0.91, -0.42, -0.42, 0.91, -2756.11, -523.99)" xlink:href="#linear-gradient-4"/><linearGradient id="linear-gradient-7" x1="230.82" y1="83.16" x2="150.74" y2="142.87" xlink:href="#linear-gradient-3"/><linearGradient id="linear-gradient-8" x1="233.39" y1="86.6" x2="153.31" y2="146.31" xlink:href="#linear-gradient-3"/><linearGradient id="linear-gradient-9" x1="232.67" y1="85.64" x2="152.59" y2="145.35" xlink:href="#linear-gradient-3"/><linearGradient id="linear-gradient-10" x1="224.38" y1="74.53" x2="144.3" y2="134.24" xlink:href="#linear-gradient-3"/><linearGradient id="linear-gradient-11" x1="233.26" y1="86.43" x2="153.18" y2="146.14" xlink:href="#linear-gradient-3"/><linearGradient id="linear-gradient-12" x1="223.67" y1="73.58" x2="143.6" y2="133.29" xlink:href="#linear-gradient-3"/><linearGradient id="linear-gradient-13" x1="223.8" y1="73.75" x2="143.73" y2="133.46" xlink:href="#linear-gradient-3"/><linearGradient id="linear-gradient-14" x1="229.32" y1="81.15" x2="149.24" y2="140.86" xlink:href="#linear-gradient-3"/><linearGradient id="linear-gradient-15" x1="123.22" y1="164.16" x2="45.95" y2="104.81" xlink:href="#linear-gradient-5"/><linearGradient id="linear-gradient-16" x1="119.41" y1="169.13" x2="42.14" y2="109.78" xlink:href="#linear-gradient-5"/><linearGradient id="linear-gradient-17" x1="119.31" y1="169.26" x2="42.04" y2="109.9" xlink:href="#linear-gradient-5"/><linearGradient id="linear-gradient-18" x1="128.83" y1="156.86" x2="51.56" y2="97.51" xlink:href="#linear-gradient-5"/><linearGradient id="linear-gradient-19" x1="117.77" y1="171.26" x2="40.5" y2="111.91" xlink:href="#linear-gradient-5"/><linearGradient id="linear-gradient-20" x1="128.67" y1="157.08" x2="51.4" y2="97.72" xlink:href="#linear-gradient-5"/><linearGradient id="linear-gradient-21" x1="127.56" y1="158.51" x2="50.3" y2="99.16" xlink:href="#linear-gradient-5"/><linearGradient id="linear-gradient-22" x1="121.56" y1="166.33" x2="44.29" y2="106.97" xlink:href="#linear-gradient-5"/><linearGradient id="linear-gradient-23" x1="78.03" y1="140.64" x2="183.86" y2="140.64" gradientUnits="userSpaceOnUse"><stop offset="0.06" stop-color="#41265d"/><stop offset="1" stop-color="#290b49"/></linearGradient><linearGradient id="linear-gradient-24" x1="82.04" y1="140.64" x2="179.84" y2="140.64" xlink:href="#linear-gradient"/><linearGradient id="linear-gradient-25" x1="232.79" y1="181.88" x2="232.79" y2="216.9" gradientUnits="userSpaceOnUse"><stop offset="0" stop-color="#fcee21"/><stop offset="1" stop-color="#fbb03b"/></linearGradient><linearGradient id="linear-gradient-26" x1="241.82" y1="211.33" x2="278.28" y2="211.33" xlink:href="#linear-gradient-25"/><linearGradient id="linear-gradient-27" x1="232.79" y1="241.31" x2="232.79" y2="214.81" xlink:href="#linear-gradient-25"/><linearGradient id="linear-gradient-28" x1="187.29" y1="211.33" x2="223.74" y2="211.33" gradientUnits="userSpaceOnUse"><stop offset="0" stop-color="#fbb03b"/><stop offset="1" stop-color="#fcee21"/></linearGradient><linearGradient id="linear-gradient-29" x1="53.45" y1="160.51" x2="57.4" y2="160.51" xlink:href="#linear-gradient-25"/><linearGradient id="linear-gradient-30" x1="53.86" y1="152.68" x2="57.47" y2="152.68" xlink:href="#linear-gradient-25"/><linearGradient id="linear-gradient-31" x1="33.65" y1="152.68" x2="37.24" y2="152.68" xlink:href="#linear-gradient-25"/><linearGradient id="linear-gradient-32" x1="33.71" y1="160.51" x2="37.67" y2="160.51" xlink:href="#linear-gradient-25"/><linearGradient id="linear-gradient-33" x1="45.56" y1="138.45" x2="45.56" y2="180.87" xlink:href="#linear-gradient-25"/><linearGradient id="linear-gradient-34" x1="53.45" y1="160.52" x2="57.45" y2="160.52" xlink:href="#linear-gradient-25"/><linearGradient id="linear-gradient-35" x1="33.67" y1="160.52" x2="37.67" y2="160.52" xlink:href="#linear-gradient-25"/><linearGradient id="linear-gradient-36" x1="62.14" y1="138.45" x2="62.14" y2="180.87" xlink:href="#linear-gradient-25"/><linearGradient id="linear-gradient-37" x1="55.45" y1="138.45" x2="55.45" y2="180.87" xlink:href="#linear-gradient-25"/><linearGradient id="linear-gradient-38" x1="35.66" y1="138.57" x2="35.66" y2="179.11" xlink:href="#linear-gradient-25"/><linearGradient id="linear-gradient-39" x1="28.97" y1="138.45" x2="28.97" y2="180.87" xlink:href="#linear-gradient-25"/><linearGradient id="linear-gradient-40" x1="33.44" y1="206.54" x2="57.67" y2="206.54" xlink:href="#linear-gradient-23"/><linearGradient id="linear-gradient-41" x1="236.65" y1="137.18" x2="256.08" y2="137.18" xlink:href="#linear-gradient-23"/><linearGradient id="linear-gradient-42" x1="232.91" y1="202.85" x2="238.32" y2="202.85" xlink:href="#linear-gradient-23"/><linearGradient id="linear-gradient-43" x1="217.37" y1="208.23" x2="223.47" y2="208.23" xlink:href="#linear-gradient-23"/><linearGradient id="linear-gradient-44" x1="219.44" y1="164.04" x2="241.98" y2="164.04" xlink:href="#linear-gradient-23"/><linearGradient id="linear-gradient-45" x1="241.54" y1="156.96" x2="257.28" y2="156.96" xlink:href="#linear-gradient-25"/><linearGradient id="linear-gradient-46" x1="220.84" y1="188.52" x2="246.86" y2="188.52" xlink:href="#linear-gradient-23"/><linearGradient id="linear-gradient-47" x1="225.53" y1="185.62" x2="257.66" y2="185.62" xlink:href="#linear-gradient-23"/><linearGradient id="linear-gradient-48" x1="244.48" y1="134.36" x2="255.16" y2="134.36" xlink:href="#linear-gradient-23"/><linearGradient id="linear-gradient-49" x1="80.98" y1="11.59" x2="104.16" y2="11.59" xlink:href="#linear-gradient-5"/><linearGradient id="linear-gradient-50" x1="121.03" y1="12.66" x2="144.2" y2="12.66" gradientTransform="translate(31.38 -73.93) rotate(35.09)" xlink:href="#linear-gradient-5"/><linearGradient id="linear-gradient-51" x1="161.08" y1="12.66" x2="184.25" y2="12.66" gradientTransform="translate(59.53 -118.38) rotate(45)" xlink:href="#linear-gradient-5"/></defs><g class="cls-1"><g id="Layer_1" data-name="Layer 1"><path class="cls-2" d="M295.65,211.13c1.6,8.14,5.89,14.83,8.71,22.49,2.59,7,.46,14.39-6.89,17.28-4.73,1.85-10,1.94-15,2.43-50,4.91-99.47,8.8-149.76,7.59l-3.05-.08q-11.37-.3-22.74-.89c-20.12-1-40.33-2.62-60.23-5.89a148.7,148.7,0,0,1-19.34-4.18c-2.8-.86-7.7-2-9.48-4.63a2.71,2.71,0,0,1-.63-1.53c0-.49-.21-1.59-.18-1.73,1.36-8.16,7.78-11,12.86-15.18s11.22-9,10.76-15.46c-.7-10.1-15.62-14-22-20-8.19-7.62-13.61-18-16.21-28.8-4.37-18.14-4.09-43.1,9.66-57.3,7.83-8.08,20.9-6.76,27.91-16,5.59-7.41,5.25-17.56,8.47-26,2.12-5.53,5.55-10.74,10.53-14,4.22-2.72,9.29-3.85,14.3-4.2A52.64,52.64,0,0,1,96.72,48.8a64.46,64.46,0,0,0,23.9,4.67,104.67,104.67,0,0,0,28-3.84c9-2.34,18.64-3.19,26.95-7.74,11.76-6.43,20.2-15.21,34.05-17.13,14.82-2.05,31.33,3.09,41.42,14.38a31.07,31.07,0,0,1,7.55,27.56c-1.32,6.2-4.43,13,.37,18.55,3.18,3.65,8.33,4.82,13.16,5.19,13,1,24.36,3.61,33.74,13.42s10.05,19.07,10.63,31.79c.27,5.71.38,11.56-1.43,17-2.46,7.39-8.18,13.24-12.37,19.85A53.6,53.6,0,0,0,295.65,211.13Z" transform="translate(0 0)"/><path class="cls-3" d="M288.61,70.78a12,12,0,0,1-.15,1.91,12.28,12.28,0,1,1,.15-1.91Z" transform="translate(0 0)"/><path class="cls-4" d="M182.34,187.35c-1.15-.68-2.2-.52-3.45-.86-2-.54-3.31-1.72-5-3a25.19,25.19,0,0,1-6.13-6.1,29.64,29.64,0,0,1-4.51-17.79c.55-7.65,4.29-12.71,8.65-18.37a57.37,57.37,0,0,1,4.88,12.47c.81,2.83,2.92,11.54,6.94,11.28,5.71-.37-4-13.68-4.8-15.21-1.79-3.58-2.48-7.45-4.14-10.92,4.38-2.58,7.45-8.13,12.43-9.88-.64,3.84-1.32,22,5.89,21.21,5-.54.18-10-.79-12.64-1.2-3.23-2.77-6.78-2.82-10.27,3,0,6.56-4.36,9.64-5.33,0,3,1.22,19,6.27,17.28,4.23-1.4-1.65-13.54-.78-16.91.54-2.09,2.11-3,4.07-3.83,5.32-2.28,10.76-3.79,16.19-5.67-.23,4.09,1.21,8.51,2.53,12.33,1,2.86,2.69,7.3,1,10.32-2.75,5-11.42,2.74-14.47,7.9,2,2,7.1.25,9.47.06,2.71-.21,5-.11,7.34-1.6.37,3.86,1,8.41.65,12.24-4.08-1-8.72.23-12.77.91-2.77.47-9.38,1.19-10.07,4.93-.88,4.74,8.25,2.31,10.38,1.5a43.85,43.85,0,0,1,12.22-3.11c.09,4.25.17,9.29-.65,13.49-5.12-2.43-12.29-1.57-17.83-.53-2.19.41-9.82,1.22-10.19,4.34-.24,2.06,3.05,3.34,4.46,3.79,4.83,1.55,9.69.2,14.37-1.07,2.86-.77,6.14-1.62,9.1-1.16-3.93,13.76-20.27,26-35,22.56-3.7-.85-11.57-3.47-12.8-7.61C182.14,190.38,182.92,188.34,182.34,187.35Z" transform="translate(0 0)"/><g class="cls-5"><path class="cls-6" d="M202,149.78c-.75-7.19-3.67-13.9-6-20.66-.07-.19-.39-.08-.34.11,1.9,6.91,5,13.49,5.68,20.68C201.38,150.37,202.08,150.23,202,149.78ZM201.91,185c1,.38,1.89.79,2.84,1.23A15.12,15.12,0,0,0,201.91,185Zm4.1,1.81-1.26-.58a10.1,10.1,0,0,1,1.15.78C206,187.06,206.16,186.84,206,186.76Zm18.47-38.63c-6.86-2.52-13.7.26-20.34,2.3,2.52-4.38,5.18-8.68,7.77-13,2.94-4.95,5.54-10,8.59-14.92a.29.29,0,0,0-.45-.35c-2,2-3.32,4.67-4.66,7.1-1.63,3-3.33,5.87-5.14,8.73-2.79,4.41-5.64,8.79-8.49,13.16h0a.26.26,0,0,0-.19.35l-.57.86a132.52,132.52,0,0,0-7.71,14.57c.21-2.62-2.38-6-3.26-8-1.93-4.52-3.64-9.71-7.32-13.15-.07-.07-.18.05-.12.13,2.95,3.68,4.68,7.87,6.39,12.22.64,1.63,1.29,3.24,2.08,4.8s1.87,3.31,1.1,4.94c-.16.34.13.57.42.55-1.27,2.56-2.54,5.11-3.9,7.63-.39.74-.84,1.45-1.29,2.15a199.85,199.85,0,0,1-15.53-13c-.26-.23-.57.19-.33.42,4.87,4.74,10.07,9.09,15,13.71l0,0a27.4,27.4,0,0,0-1.81,3.09c-.31.64.7,1.1,1,.45a21.82,21.82,0,0,1,2-3.2,34.16,34.16,0,0,0,7.84,3.59c1.94.56,4.21,1,6.31,1.67-1.61-.65-3.24-1.23-5-1.75a36.67,36.67,0,0,1-8.78-4c.71-1,1.42-1.93,2-2.93,1.37-2.22,2.64-4.48,3.86-6.78,6.64-1.36,13.4-1.63,20.13-2.26a.13.13,0,0,0,0-.25c-6.51.45-13,.62-19.53,1.45,2.65-5.1,5.22-10.21,8-15.23.35-.64.72-1.26,1.07-1.89,6.71-2.09,13.65-5.22,20.64-2.74C224.57,148.62,224.74,148.23,224.48,148.13Z" transform="translate(0 0)"/></g><path class="cls-7" d="M80.72,215.64c1.29-.79,2.49-.65,3.91-1.06,2.3-.67,3.74-2.05,5.59-3.52a28.63,28.63,0,0,0,6.85-7.12,33.89,33.89,0,0,0,4.68-20.4c-.81-8.71-5.21-14.4-10.33-20.75a66,66,0,0,0-5.25,14.35c-.85,3.25-3,13.25-7.64,13.05-6.52-.27,4.27-15.71,5.11-17.48,1.94-4.12,2.64-8.56,4.44-12.56-5.06-2.83-8.71-9.09-14.44-11,.83,4.36,2.06,25.07-6.17,24.35-5.68-.5-.47-11.43.58-14.44,1.29-3.72,3-7.81,3-11.8-3.47,0-7.59-4.81-11.13-5.84.09,3.42-.92,21.67-6.72,19.88-4.86-1.49,1.55-15.49.46-19.32-.66-2.36-2.47-3.35-4.73-4.26-6.13-2.47-12.38-4-18.62-6.07.37,4.66-1.17,9.75-2.58,14.13-1.05,3.29-2.88,8.41-.93,11.81,3.27,5.67,13.11,2.84,16.71,8.66-2.24,2.31-8.09.45-10.8.3-3.1-.17-5.73,0-8.41-1.64-.33,4.42-.94,9.62-.44,14,4.63-1.21,10,0,14.6.72,3.17.46,10.72,1.12,11.61,5.37,1.12,5.38-9.35,2.85-11.81,2a49.39,49.39,0,0,0-14-3.23c0,4.84,0,10.6,1.08,15.37,5.78-2.9,14-2.1,20.34-1.06,2.51.41,11.24,1.15,11.73,4.7.33,2.34-3.39,3.89-5,4.44-5.46,1.89-11.05.46-16.42-.86-3.28-.81-7-1.69-10.41-1.1,4.83,15.6,23.78,29.12,40.55,24.86,4.2-1.06,13.12-4.25,14.41-9C81,219.09,80.08,216.79,80.72,215.64Z" transform="translate(0 0)"/><g class="cls-5"><path class="cls-8" d="M58.1,173.4c.63-8.22,4-15.81,5.95-23.73.06-.23-.31-.34-.38-.12-2.53,7.77-5.7,15.5-6.37,23.72C57.26,173.79,58.06,173.93,58.1,173.4Zm.22,40a17.61,17.61,0,0,0-3.2,1.47C56.19,214.35,57.25,213.86,58.32,213.4Zm-4.49,2.39a11.09,11.09,0,0,1,1.29-.92l-1.43.7A.13.13,0,1,0,53.83,215.79Zm38.72-25.21c.27-.27-.09-.74-.38-.47-5.58,5.24-11.31,10.5-17.39,15.17-.54-.8-1.07-1.6-1.54-2.43-1.61-2.83-3.13-5.72-4.64-8.61.33,0,.66-.25.47-.63-.92-1.84.33-4,1.13-5.66s1.56-3.66,2.25-5.53c1.84-5,3.71-9.84,7-14.12.06-.08-.06-.22-.15-.14-4.11,4-5.93,10-8,15.19-1,2.4-3.83,6.27-3.52,9.26-2.89-5.6-5.6-11.21-9.17-16.43-.22-.32-.44-.65-.67-1a.3.3,0,0,0-.23-.4h0c-3.37-4.91-6.73-9.83-10-14.79-2.14-3.22-4.15-6.5-6.08-9.84-1.59-2.74-3.18-5.78-5.5-8a.32.32,0,0,0-.5.41c3.6,5.48,6.69,11.23,10.17,16.8,3.07,4.89,6.21,9.73,9.19,14.67-7.63-2.17-15.5-5.16-23.26-2.12-.3.12-.1.56.2.45,7.91-3,15.91.38,23.62,2.6.42.71.86,1.41,1.27,2.13,3.29,5.66,6.35,11.43,9.5,17.17-7.41-.78-14.88-.81-22.32-1.15-.18,0-.21.27,0,.28,7.7.55,15.42.69,23,2.07,1.45,2.6,3,5.15,4.57,7.64.73,1.13,1.57,2.21,2.4,3.3A42,42,0,0,1,64,211.28c-2,.64-3.83,1.34-5.66,2.12,2.38-.84,5-1.37,7.16-2.06a39.32,39.32,0,0,0,8.87-4.3,24.45,24.45,0,0,1,2.34,3.61c.37.72,1.51.18,1.14-.54a30.49,30.49,0,0,0-2.14-3.49l0,0C81.29,201.2,87.11,196.11,92.55,190.58Z" transform="translate(0 0)"/></g><path class="cls-9" d="M228.65,83.52c10.53,5.18-5,14-17.47,11.75C211.18,95.27,218.11,78.34,228.65,83.52Z" transform="translate(0 0)"/><path class="cls-10" d="M198.86,102.49c9.19-6.19,24.46-3.56,20.54,3.84S198.86,102.49,198.86,102.49Z" transform="translate(0 0)"/><path class="cls-11" d="M184.11,112.78c7.37-5.84,25.07-8,21.15,1.28S184.11,112.78,184.11,112.78Z" transform="translate(0 0)"/><path class="cls-12" d="M203.35,82c10.74-3,7.34,12.06-4.49,20.49C198.86,102.49,192.62,85,203.35,82Z" transform="translate(0 0)"/><path class="cls-13" d="M190.66,124.35c-1.36,13.09-20.27-.26-20.27-.26C179.89,117,191.47,116.55,190.66,124.35Z" transform="translate(0 0)"/><path class="cls-14" d="M187.73,91.39c8-2.46,6.78,12.25-3.62,21.39C184.11,112.78,176.11,95,187.73,91.39Z" transform="translate(0 0)"/><path class="cls-15" d="M168.24,104.71c8.93-5.57,9.56,6.73,2.15,19.38C170.39,124.09,159.31,110.27,168.24,104.71Z" transform="translate(0 0)"/><path class="cls-16" d="M151.52,141.82a190,190,0,0,1,27.35-27.19c10.09-8,21-15.18,32.87-20.21.95-.38,1.41.66.53,1.12-11.15,6.14-21.4,13.78-31.32,21.69s-19.32,16.55-28.48,25.46C151.69,143.43,150.86,142.6,151.52,141.82Z" transform="translate(0 0)"/><path class="cls-17" d="M47.87,104.32C36.6,108.61,51.62,119.18,64.6,118,64.6,118,59.15,100.05,47.87,104.32Z" transform="translate(0 0)"/><path class="cls-18" d="M76.51,126.59c-8.81-7.21-24.68-6-21.38,2S76.51,126.59,76.51,126.59Z" transform="translate(0 0)"/><path class="cls-19" d="M90.61,138.55c-7-6.69-24.88-10.61-21.76-.74S90.61,138.55,90.61,138.55Z" transform="translate(0 0)"/><path class="cls-20" d="M73.9,105.21c-10.7-4.14-8.68,11.63,2.61,21.38C76.51,126.59,84.58,109.35,73.9,105.21Z" transform="translate(0 0)"/><path class="cls-21" d="M82.79,149.75c.13,13.52,20.76,1.69,20.76,1.69C94.51,143.32,82.72,141.69,82.79,149.75Z" transform="translate(0 0)"/><path class="cls-22" d="M89,116.32c-7.91-3.29-8.12,11.87,1.64,22.23C90.61,138.55,100.51,121.1,89,116.32Z" transform="translate(0 0)"/><path class="cls-23" d="M107.62,131.82c-8.6-6.55-10.43,6-4.07,19.62C103.55,151.44,116.22,138.37,107.62,131.82Z" transform="translate(0 0)"/><path class="cls-24" d="M121.15,171.39A196,196,0,0,0,95.79,141c-9.55-9.16-20-17.55-31.68-23.85-.93-.48-1.5.55-.64,1.1,10.81,7.35,20.56,16.15,29.94,25.21s18.17,18.79,26.68,28.78C120.82,173,121.74,172.25,121.15,171.39Z" transform="translate(0 0)"/><path class="cls-25" d="M170.5,39.51H91.39A13.36,13.36,0,0,0,78,52.87V228.41a13.36,13.36,0,0,0,13.36,13.36H170.5a13.36,13.36,0,0,0,13.36-13.36V52.87A13.36,13.36,0,0,0,170.5,39.51Z" transform="translate(0 0)"/><path class="cls-26" d="M179.84,54.08V227.2a10.45,10.45,0,0,1-10.38,10.52h-77A10.45,10.45,0,0,1,82,227.19V54.08A10.46,10.46,0,0,1,92.42,43.55h16.89a1.29,1.29,0,0,1,1.28,1.3v2.07a4.07,4.07,0,0,0,4,4.1h32.62a4.08,4.08,0,0,0,4.05-4.1V44.85a1.29,1.29,0,0,1,1.28-1.3h16.88A10.46,10.46,0,0,1,179.84,54.08Z" transform="translate(0 0)"/><path class="cls-27" d="M133.85,45.8H123.58a.8.8,0,1,0,0,1.59h10.27a.8.8,0,1,0,0-1.59Zm4.35-.11a.91.91,0,1,0,.9.91A.9.9,0,0,0,138.2,45.69Z" transform="translate(0 0)"/><path class="cls-28" d="M170.21,45H153.67v1.41a6.11,6.11,0,0,1-6.1,6.1H114.32a6.1,6.1,0,0,1-6.1-6.1V45H91.67a8.6,8.6,0,0,0-8.61,8.61v174a8.6,8.6,0,0,0,8.61,8.61h78.54a8.6,8.6,0,0,0,8.61-8.6v-174A8.6,8.6,0,0,0,170.21,45Z" transform="translate(0 0)"/><rect class="cls-29" x="91.26" y="93.87" width="79.37" height="12.22"/><path class="cls-30" d="M97.09,101.4h-.54l-1.19-2.49c0,.24.06.6.06,1.14v1.35H95V98.46h.53l1.2,2.5c0-.07,0-.54,0-.9v-1.6h.37Z" transform="translate(0 0)"/><path class="cls-30" d="M99.63,101.18l-.09.27a.46.46,0,0,1-.44-.34.76.76,0,0,1-.67.34.66.66,0,0,1-.72-.68c0-.48.37-.74,1-.74h.35v-.17c0-.32-.16-.44-.47-.44a1.92,1.92,0,0,0-.61.12l-.09-.28a2,2,0,0,1,.77-.16.69.69,0,0,1,.79.75v1C99.44,101.07,99.51,101.13,99.63,101.18Zm-.58-.38v-.51h-.3c-.41,0-.62.15-.62.46a.35.35,0,0,0,.39.4A.57.57,0,0,0,99.05,100.8Z" transform="translate(0 0)"/><path class="cls-30" d="M103.11,99.79v1.61h-.39V99.84c0-.33-.15-.43-.32-.43s-.37.16-.53.39v1.6h-.39V99.84c0-.33-.14-.43-.31-.43s-.38.16-.53.39v1.6h-.39V99.15h.33l0,.33a.76.76,0,0,1,.64-.38.56.56,0,0,1,.57.41.77.77,0,0,1,.67-.41A.62.62,0,0,1,103.11,99.79Z" transform="translate(0 0)"/><path class="cls-30" d="M105.58,100.41h-1.43c0,.52.28.72.61.72a.91.91,0,0,0,.58-.2l.17.24a1.24,1.24,0,0,1-.78.28c-.63,0-1-.44-1-1.15s.35-1.2.93-1.2.92.42.92,1.11A1.15,1.15,0,0,1,105.58,100.41Zm-.37-.32c0-.43-.18-.68-.53-.68s-.5.21-.53.71h1.06Z" transform="translate(0 0)"/><rect class="cls-29" x="91.26" y="111.8" width="79.37" height="12.22"/><path class="cls-30" d="M96.58,116.72H95.44v1h1V118h-1v1h1.22v.33H95v-2.94h1.59Z" transform="translate(0 0)"/><path class="cls-30" d="M100.12,117.72v1.61h-.4v-1.56c0-.33-.14-.43-.31-.43s-.38.16-.53.4v1.59h-.39v-1.56c0-.33-.15-.43-.32-.43s-.37.16-.52.4v1.59h-.39v-2.25h.33l0,.33a.74.74,0,0,1,.64-.38.57.57,0,0,1,.57.41.77.77,0,0,1,.67-.41A.62.62,0,0,1,100.12,117.72Z" transform="translate(0 0)"/><path class="cls-30" d="M102.61,119.11l-.09.27a.46.46,0,0,1-.44-.34.76.76,0,0,1-.67.34.66.66,0,0,1-.72-.68c0-.48.37-.74,1-.74H102v-.16c0-.33-.16-.45-.47-.45a1.92,1.92,0,0,0-.61.12l-.09-.28a2,2,0,0,1,.77-.16.69.69,0,0,1,.79.75v1C102.42,119,102.49,119.06,102.61,119.11Zm-.58-.37v-.52h-.3c-.41,0-.62.15-.62.46a.35.35,0,0,0,.39.4A.58.58,0,0,0,102,118.74Z" transform="translate(0 0)"/><path class="cls-30" d="M103.69,116.27a.26.26,0,0,1-.27.27.27.27,0,0,1-.28-.27.26.26,0,0,1,.28-.26A.25.25,0,0,1,103.69,116.27Zm-.07,3.06h-.39v-2.25h.39Z" transform="translate(0 0)"/><path class="cls-30" d="M104.41,118.88v-2.7l.39-.05v2.75c0,.12,0,.17.14.17a.32.32,0,0,0,.14,0l.1.27a.59.59,0,0,1-.31.08A.44.44,0,0,1,104.41,118.88Z" transform="translate(0 0)"/><rect class="cls-29" x="91.26" y="129.73" width="79.37" height="57.68"/><path class="cls-30" d="M97.66,137.26h-.39l-.1-1.33c0-.46-.07-1-.08-1.19l-.63,2.18h-.38l-.67-2.19c0,.35,0,.8,0,1.23l-.1,1.3h-.38l.24-2.94h.54l.62,2.14.59-2.14h.55Z" transform="translate(0 0)"/><path class="cls-30" d="M100,136.27H98.59c0,.52.28.72.6.72a1,1,0,0,0,.59-.2l.17.24a1.27,1.27,0,0,1-.79.28c-.62,0-1-.44-1-1.15s.35-1.2.93-1.2.93.42.93,1.11C100,136.15,100,136.22,100,136.27Zm-.38-.32c0-.43-.17-.68-.53-.68s-.49.21-.52.71h1Z" transform="translate(0 0)"/><path class="cls-30" d="M102,135.22l-.17.24a1.08,1.08,0,0,0-.58-.19c-.26,0-.42.12-.42.3s.12.26.49.36.74.31.74.7-.43.68-.88.68a1.24,1.24,0,0,1-.85-.3l.21-.23a1,1,0,0,0,.63.21c.29,0,.48-.13.48-.34s-.11-.3-.55-.42-.67-.34-.67-.65.34-.62.81-.62A1.22,1.22,0,0,1,102,135.22Z" transform="translate(0 0)"/><path class="cls-30" d="M104,135.22l-.16.24a1.11,1.11,0,0,0-.58-.19c-.26,0-.42.12-.42.3s.12.26.48.36.75.31.75.7-.43.68-.89.68a1.21,1.21,0,0,1-.84-.3l.2-.23a1.06,1.06,0,0,0,.63.21c.3,0,.48-.13.48-.34s-.11-.3-.54-.42-.68-.34-.68-.65.35-.62.81-.62A1.18,1.18,0,0,1,104,135.22Z" transform="translate(0 0)"/><path class="cls-30" d="M106.25,137l-.09.28a.46.46,0,0,1-.44-.34.75.75,0,0,1-.67.34.65.65,0,0,1-.71-.68c0-.48.36-.74,1-.74h.34v-.17c0-.32-.16-.44-.47-.44a1.92,1.92,0,0,0-.6.12l-.1-.28a2,2,0,0,1,.77-.16c.55,0,.79.28.79.75v1C106.06,136.93,106.13,137,106.25,137Zm-.58-.37v-.51h-.29c-.42,0-.62.15-.62.46a.35.35,0,0,0,.38.4A.57.57,0,0,0,105.67,136.66Z" transform="translate(0 0)"/><path class="cls-30" d="M108.64,135.12a2.6,2.6,0,0,1-.66.06.61.61,0,0,1,.4.57.77.77,0,0,1-.86.76.86.86,0,0,1-.28,0,.27.27,0,0,0-.12.21c0,.1.07.18.3.18h.36c.46,0,.76.26.76.62s-.35.68-1.05.68-1-.22-1-.68h.35c0,.26.12.38.61.38s.66-.13.66-.35-.17-.32-.45-.32h-.36c-.4,0-.58-.2-.58-.43a.48.48,0,0,1,.25-.39.66.66,0,0,1-.38-.63.8.8,0,0,1,.87-.78,1.93,1.93,0,0,0,1-.2Zm-1.61.62a.46.46,0,0,0,.47.51.45.45,0,0,0,.48-.51c0-.33-.16-.5-.48-.5A.45.45,0,0,0,107,135.74Z" transform="translate(0 0)"/><path class="cls-30" d="M110.66,136.27h-1.43c0,.52.28.72.61.72a.93.93,0,0,0,.58-.2l.17.24a1.24,1.24,0,0,1-.78.28c-.63,0-1-.44-1-1.15s.36-1.2.94-1.2.92.42.92,1.11A1.15,1.15,0,0,1,110.66,136.27Zm-.38-.32c0-.43-.17-.68-.53-.68s-.49.21-.52.71h1Z" transform="translate(0 0)"/><path class="cls-30" d="M114.52,78.94l-.4.47a1.19,1.19,0,0,0-.78-.3c-.58,0-1,.42-1,1.56s.44,1.55,1,1.55a1.36,1.36,0,0,0,.85-.34l.38.47a1.75,1.75,0,0,1-1.26.51c-1.08,0-1.84-.77-1.84-2.19s.8-2.18,1.83-2.18A1.73,1.73,0,0,1,114.52,78.94Z" transform="translate(0 0)"/><path class="cls-30" d="M119.06,80.67c0,1.38-.71,2.19-1.83,2.19s-1.83-.78-1.83-2.18.71-2.19,1.83-2.19S119.06,79.27,119.06,80.67Zm-2.82,0c0,1.13.38,1.57,1,1.57s1-.44,1-1.58-.36-1.57-1-1.57S116.24,79.55,116.24,80.68Z" transform="translate(0 0)"/><path class="cls-30" d="M123.51,82.77h-1L121,79.38a13.87,13.87,0,0,1,.11,1.68v1.71h-.73V78.58h1l1.46,3.4a11.52,11.52,0,0,1-.11-1.43v-2h.73Z" transform="translate(0 0)"/><path class="cls-30" d="M127.7,79.22h-1.09v3.55h-.8V79.22h-1.13v-.64h3.11Z" transform="translate(0 0)"/><path class="cls-30" d="M130.57,81.8h-1.39l-.26,1h-.83l1.31-4.19h1l1.3,4.19h-.85Zm-.16-.61-.54-2-.53,2Z" transform="translate(0 0)"/><path class="cls-30" d="M135.51,78.94l-.4.47a1.18,1.18,0,0,0-.78-.3c-.58,0-1,.42-1,1.56s.44,1.55,1,1.55a1.36,1.36,0,0,0,.86-.34l.37.47a1.75,1.75,0,0,1-1.26.51c-1.08,0-1.84-.77-1.84-2.19s.8-2.18,1.83-2.18A1.73,1.73,0,0,1,135.51,78.94Z" transform="translate(0 0)"/><path class="cls-30" d="M139.29,79.22H138.2v3.55h-.81V79.22h-1.13v-.64h3.11Z" transform="translate(0 0)"/><path class="cls-30" d="M145.67,81.4a1.4,1.4,0,0,1-1.56,1.46,1.38,1.38,0,0,1-1.55-1.46V78.58h.8v2.78c0,.59.23.88.75.88s.76-.29.76-.88V78.58h.8Z" transform="translate(0 0)"/><path class="cls-30" d="M149.75,79l-.39.45a1.41,1.41,0,0,0-.94-.36c-.38,0-.65.17-.65.5s.16.44.86.66,1.24.53,1.24,1.32-.58,1.28-1.58,1.28a2.07,2.07,0,0,1-1.51-.58l.41-.46a1.6,1.6,0,0,0,1.08.42c.45,0,.77-.22.77-.62s-.18-.51-.83-.71c-.88-.27-1.26-.62-1.26-1.26s.6-1.16,1.42-1.16A1.85,1.85,0,0,1,149.75,79Z" transform="translate(0 0)"/><rect class="cls-31" x="187.28" y="181.88" width="90.99" height="58.9"/><polygon class="cls-32" points="277.05 181.88 188.52 181.88 232.78 216.47 277.05 181.88"/><polygon class="cls-33" points="278.28 182.84 241.82 211.33 278.28 239.82 278.28 182.84"/><polygon class="cls-34" points="278.28 182.37 278.28 181.88 277.89 181.88 278.28 182.37"/><polygon class="cls-35" points="277.04 240.77 240.59 212.29 232.78 218.39 224.97 212.28 188.53 240.77 277.04 240.77"/><polygon class="cls-34" points="277.9 240.77 278.28 240.77 278.28 240.28 277.9 240.77"/><polygon class="cls-34" points="187.68 181.88 187.29 181.88 187.29 182.37 187.68 181.88"/><polygon class="cls-34" points="187.29 240.28 187.29 240.77 187.68 240.77 187.29 240.28"/><polygon class="cls-36" points="223.75 211.33 187.29 182.84 187.29 239.82 223.75 211.33"/><path class="cls-37" d="M38.67,203.42c-6.05-3.59-4.65,24.8-2.91,32s2.9-.46,3.85-12.09S41.05,204.83,38.67,203.42Z" transform="translate(0 0)"/><path class="cls-38" d="M42.7,175.08a4.24,4.24,0,0,1,4.61,4.17,27.64,27.64,0,0,1-1.14,7.86c-2.28,8.18-2.71,18.21-6,19.34s-6.4-3.92-5.73-12.14c.61-7.43.24-16.76,2.53-18A18.19,18.19,0,0,1,42.7,175.08Z" transform="translate(0 0)"/><path class="cls-37" d="M52,203.34c5.87-3.75,5.12,24.66,3.57,31.87s-2.86-.38-4.06-12S49.66,204.81,52,203.34Z" transform="translate(0 0)"/><path class="cls-38" d="M48.74,175.08a4.22,4.22,0,0,0-4.6,4.17,27.21,27.21,0,0,0,1.13,7.86c2.28,8.18,2.71,18.21,6,19.34s6.4-3.92,5.73-12.14c-.6-7.43-.24-16.76-2.53-18A18.13,18.13,0,0,0,48.74,175.08Z" transform="translate(0 0)"/><path class="cls-39" d="M53,142.32a3.11,3.11,0,0,0-.12,3c2.08,4.2,9.28,18.15,12.28,16.55,3.52-1.89-3.56-13.81-6-17C57.08,142.32,54.41,140.15,53,142.32Z" transform="translate(0 0)"/><path class="cls-40" d="M38,142.32a3.11,3.11,0,0,1,.12,3c-2.08,4.2-9.28,18.15-12.28,16.55-3.52-1.89,3.56-13.81,6-17C33.85,142.32,36.52,140.15,38,142.32Z" transform="translate(0 0)"/><path class="cls-41" d="M51.54,140.28a19.61,19.61,0,0,0-6.25-.94,19.59,19.59,0,0,0-6.24.94c-6.81,2.33-5.17,7.49-5.09,11.8s.44,24.65,1,26.55c.31.94,5.25,1.59,10.29,1.61s10-.67,10.3-1.61c.6-1.9.95-22.24,1-26.55S58.35,142.61,51.54,140.28Z" transform="translate(0 0)"/><rect class="cls-37" x="43.36" y="135.75" width="4.47" height="5.28"/><path class="cls-37" d="M50.76,131.19c0,3.35-2.3,6.06-5.15,6.06s-5.16-2.71-5.16-6.06,2.31-6.06,5.16-6.06S50.76,127.84,50.76,131.19Z" transform="translate(0 0)"/><line class="cls-28" x1="58.06" y1="156.34" x2="57.86" y2="156.38"/><line class="cls-28" x1="33.23" y1="156.44" x2="33.04" y2="156.37"/><path class="cls-42" d="M54.35,156l3.1.73c0,1,0,2.57-.05,4.37-2.21-.93-3.95-1.76-3.95-1.76Z" transform="translate(0 0)"/><path class="cls-43" d="M57.4,161.05c0,.22,0,.45,0,.68a17.28,17.28,0,0,1-3.94-2.44S55.19,160.12,57.4,161.05Z" transform="translate(0 0)"/><path class="cls-44" d="M57.47,155.34c0,.07,0,.33,0,.74-1.78-1.81-3.48-6.45-3.6-6.8C54.66,150.65,56.39,153.54,57.47,155.34Z" transform="translate(0 0)"/><path class="cls-45" d="M37.24,149.28c-.12.35-1.82,5-3.58,6.8,0-.42,0-.68,0-.74h0C34.73,153.53,36.44,150.65,37.24,149.28Z" transform="translate(0 0)"/><path class="cls-46" d="M37.67,159.28a17.53,17.53,0,0,1-4,2.46c0-.24,0-.47,0-.69C35.92,160.12,37.67,159.28,37.67,159.28Z" transform="translate(0 0)"/><path class="cls-42" d="M36.76,156l.91,3.33s-1.75.84-4,1.77c0-1.8,0-3.34-.05-4.37Z" transform="translate(0 0)"/><path class="cls-47" d="M57.47,155.34c-1.08-1.8-2.81-4.69-3.61-6.06.12.35,1.82,5,3.6,6.8,0,.17,0,.37,0,.6l-3.1-.73-.9,3.34a17.28,17.28,0,0,0,3.94,2.44c-.1,6.54-.34,15.93-.81,17.31-.38,1.09-5.54,1.83-10.8,2h-.44c-5.27-.2-10.43-.94-10.81-2-.47-1.38-.7-10.77-.81-17.3a17.53,17.53,0,0,0,4-2.46L36.76,156l-3.1.73v-.6c1.76-1.81,3.46-6.45,3.58-6.8-.8,1.37-2.51,4.25-3.59,6.05h0l-.93,1.56.94-.22c0,1,0,2.57.05,4.37-3.45,1.46-8,3.14-8.87,2.24-1.36-1.48-.25-6.23,1.61-10.6a28.75,28.75,0,0,1,7.77-11c3-2.48,11.54-3.54,11.54-3.54h.11c.82,0,8.1,1.12,11,3.53a28.57,28.57,0,0,1,7.77,11c1.85,4.37,3,9.12,1.62,10.6-.84.91-5.43-.78-8.88-2.24,0-1.8.05-3.34.05-4.37l.95.22Z" transform="translate(0 0)"/><path class="cls-37" d="M64.64,162.18a2.23,2.23,0,0,1-1.71.09c-2.44-1-11.24-4.44-11-5.51.33-1.25,13.44,3.24,13.44,3.89C65.4,161.15,65.56,161.75,64.64,162.18Z" transform="translate(0 0)"/><path class="cls-37" d="M26.29,162.18a2.23,2.23,0,0,0,1.71.09c2.44-1,11.24-4.44,11-5.51-.33-1.25-13.44,3.24-13.44,3.89C25.53,161.15,25.37,161.75,26.29,162.18Z" transform="translate(0 0)"/><path class="cls-37" d="M37.81,157.25c-.34-.63.81-1.09,1.21-1.23.65-.23,1.59,0,1.69.25s-1.42.69-1.45.77.73-.07.8.18-.91.57-1.35.55A.91.91,0,0,1,37.81,157.25Z" transform="translate(0 0)"/><path class="cls-37" d="M53,157.22c.34-.63-.82-1.09-1.22-1.23-.65-.23-1.58,0-1.68.25s1.42.69,1.45.77-.73-.07-.8.18.91.57,1.35.54A.89.89,0,0,0,53,157.22Z" transform="translate(0 0)"/><path class="cls-28" d="M53.85,149.26a0,0,0,0,0,0,0h0c.12.35,1.82,5,3.6,6.8h0" transform="translate(0 0)"/><path class="cls-28" d="M45.87,138.12c.45.06,8.1,1.12,11,3.53a28.57,28.57,0,0,1,7.77,11c1.85,4.37,3,9.12,1.62,10.6-.84.91-5.43-.78-8.88-2.24-2.21-.93-3.95-1.76-3.95-1.76l.9-3.34,3.1.73.95.22-.93-1.56c-1.08-1.8-2.81-4.69-3.61-6.06" transform="translate(0 0)"/><path class="cls-28" d="M57.47,155.32v0c0,.07,0,.33,0,.74,0,.17,0,.37,0,.6,0,1,0,2.57-.05,4.37,0,.22,0,.45,0,.68-.1,6.54-.34,15.93-.81,17.31-.38,1.09-5.54,1.83-10.8,2h-.44c-5.27-.2-10.43-.94-10.81-2-.47-1.38-.7-10.77-.81-17.3,0-.24,0-.47,0-.69,0-1.8,0-3.34-.05-4.37v-.6c0-.42,0-.68,0-.74" transform="translate(0 0)"/><path class="cls-48" d="M53.45,159.29a17.28,17.28,0,0,0,3.94,2.44l.06,0" transform="translate(0 0)"/><path class="cls-28" d="M37.24,149.28c-.8,1.37-2.51,4.25-3.59,6.05h0l-.93,1.56.94-.22,3.1-.73.91,3.33s-1.75.84-4,1.77c-3.45,1.46-8,3.14-8.87,2.24-1.36-1.48-.25-6.23,1.61-10.6a28.75,28.75,0,0,1,7.77-11c3-2.48,11.49-3.52,11.49-3.52" transform="translate(0 0)"/><path class="cls-28" d="M33.65,156.09h0c1.76-1.81,3.46-6.45,3.58-6.8h0a0,0,0,0,0,0,0" transform="translate(0 0)"/><path class="cls-49" d="M37.67,159.28a17.53,17.53,0,0,1-4,2.46l0,0" transform="translate(0 0)"/><path class="cls-50" d="M66.28,163.29c-.84.91-5.43-.78-8.88-2.24,0-1.8.05-3.34.05-4.37l.95.22s-.12-.21-.34-.56l7.39-1.65C66.8,158.43,67.42,162,66.28,163.29Z" transform="translate(0 0)"/><path class="cls-51" d="M57.45,156.68c0,1,0,2.57-.05,4.37-2.21-.93-3.95-1.76-3.95-1.76l.9-3.34Z" transform="translate(0 0)"/><path class="cls-52" d="M37.67,159.28s-1.75.84-4,1.77c0-1.8,0-3.34-.05-4.37l3.1-.73Z" transform="translate(0 0)"/><path class="cls-53" d="M33.71,161.05c-3.45,1.46-8,3.14-8.87,2.24a3.25,3.25,0,0,1-.6-2.2c0-.21,0-.44,0-.68a16.7,16.7,0,0,1,.57-3.1c0-.15.08-.3.12-.44.1-.34.2-.69.32-1s.18-.57.28-.85.25-.7.39-1L33,156.37l-.32.53.94-.22C33.67,157.71,33.69,159.25,33.71,161.05Z" transform="translate(0 0)"/><path class="cls-54" d="M45.67,193.25c-3.12,13.8-7.16,40.8-7.16,40.8l-3.2,0c-1.69-16.18-1.6-19.69-1.65-28,0-1.08-.19-6.61-.21-7.51-.16-7.83,1.08-19.51,1.08-19.51h22s1.23,11.68,1.07,19.51c0,.9-.19,6.43-.2,7.51a203.58,203.58,0,0,1-1.5,27.8l-3.29-.05S48.8,207.05,45.67,193.25Z" transform="translate(0 0)"/><line class="cls-55" x1="34.53" y1="179.04" x2="56.58" y2="179.04"/><polygon class="cls-56" points="52.29 158.18 38.73 158.18 39.44 149.21 51.58 149.21 52.29 158.18"/><path class="cls-37" d="M50.31,129.77s1.66-.91,1.83.57-1.87,2.94-1.87,2.94" transform="translate(0 0)"/><path class="cls-37" d="M41,129.77s-1.66-.91-1.83.57,1.87,2.94,1.87,2.94" transform="translate(0 0)"/><path d="M40.21,127.24a2.44,2.44,0,0,1,.12-1,1.91,1.91,0,0,1,.76-.81,1.48,1.48,0,0,0,.39-.31,2.23,2.23,0,0,0,.23-.73,1.34,1.34,0,0,1,1.1-.92,8.61,8.61,0,0,1,1.56.26,3.47,3.47,0,0,0,1.45-.28L47,123a1.69,1.69,0,0,1,1.69,0c.4.35.41,1,.61,1.48a1.83,1.83,0,0,0,1.54,1.12,1.62,1.62,0,0,1,.93.14,1.17,1.17,0,0,1,.35.81,5,5,0,0,1,0,1.73,2.19,2.19,0,0,1-.86,1.45.61.61,0,0,0-.21.18.67.67,0,0,0-.07.24c-.09.63-.18,1.26-.26,1.9a.27.27,0,0,1-.26-.19,1,1,0,0,1,0-.35,5.49,5.49,0,0,0-1.2-3.91,1.33,1.33,0,0,0-.45-.4,1.47,1.47,0,0,0-.62-.13,5.22,5.22,0,0,0-1.42.13,4.58,4.58,0,0,1-2.12.28c-.32-.09-.61-.27-.93-.33a2.63,2.63,0,0,0-1.54.31,2.32,2.32,0,0,0-.95.61,2.5,2.5,0,0,0-.43,1,8.19,8.19,0,0,0-.3,1.7,3.89,3.89,0,0,1-.07,1.13c-.32-.29-.15-1.77-.17-2.23Z" transform="translate(0 0)"/><path class="cls-57" d="M53.15,235.72a4.88,4.88,0,0,1-.55,2.49c-.92,1.58-.92,1.26-.71,1.84s4,.08,4,.08l-.33-4.44A15.41,15.41,0,0,0,53.15,235.72Z" transform="translate(0 0)"/><path class="cls-57" d="M35.77,235.72a4.83,4.83,0,0,1-.56,2.49c-.91,1.58-.92,1.26-.7,1.84s3.94.08,3.94.08l-.33-4.44A15.26,15.26,0,0,0,35.77,235.72Z" transform="translate(0 0)"/><path class="cls-58" d="M251.25,141.86a8,8,0,0,0-3.54.77c-2.06,1.81-5.82,6.25-5.65,10,.2,4.58,1.94,5.35,1.94,8.61s-1.25,9.79-1.25,10.62,13.4.49,13.68.14-.16-24.38-1-26.73S253.9,142.37,251.25,141.86Z" transform="translate(0 0)"/><path class="cls-59" d="M254.76,177.28a3.72,3.72,0,0,1-3.12,4.47,24,24,0,0,1-7-.12c-7.38-1.09-16.17-.35-17.52-3.13s2.72-6,10-6.32c6.54-.3,14.63-1.64,16,.21A15.9,15.9,0,0,1,254.76,177.28Z" transform="translate(0 0)"/><path class="cls-59" d="M252.3,174.49a3.71,3.71,0,0,1-1.65,5.19,24.13,24.13,0,0,1-6.69,2c-7.38,1.16-15.55,4.47-17.66,2.23s.8-6.55,7.61-9c6.16-2.22,13.49-5.91,15.34-4.54A15.83,15.83,0,0,1,252.3,174.49Z" transform="translate(0 0)"/><path class="cls-60" d="M255.05,143.63c.84-2,.83-4.36,1-6.53a17.35,17.35,0,0,0-.68-6.76c-1.05-3-3.22-5.55-6.58-5.84a5.61,5.61,0,0,0-2.81.42,4.32,4.32,0,0,0-2,1.93c-.49,1-.6,2.09-1.08,3.06a21.21,21.21,0,0,0-1.16,2.63,9.83,9.83,0,0,1-.93,2.36,7.89,7.89,0,0,1-1.91,1.87c-1,.77-2.36,1.65-2.2,3.14.08.73.5,1.37.64,2.09a5.57,5.57,0,0,1-.34,2.45,4.39,4.39,0,0,0,1.21,4,5,5,0,0,0,3.55,1.42,11.45,11.45,0,0,0,2.34-.12,3,3,0,0,0,1.9-1.29l4.26-5.12,1-1.23a4.06,4.06,0,0,1,.56-.67c.36-.25.12-.22.52-.05A14.47,14.47,0,0,1,255.05,143.63Z" transform="translate(0 0)"/><rect class="cls-37" x="247.33" y="138.63" width="3.3" height="4.86" transform="translate(497.96 282.12) rotate(180)"/><path class="cls-37" d="M246.88,139.29s-3.12.28-3.54-.73-.62-6.38,1.67-8.81,6.38-1.84,7.84.38-1.63,9.13-3.43,9.2A15.65,15.65,0,0,1,246.88,139.29Z" transform="translate(0 0)"/><path class="cls-58" d="M243.37,152.88" transform="translate(0 0)"/><path class="cls-61" d="M253.3,142.14" transform="translate(0 0)"/><path class="cls-37" d="M255.52,143.6" transform="translate(0 0)"/><path class="cls-37" d="M227.06,175.47c4.72-4.2,10.15,18.34,10.25,24.35s-2.78.3-6.41-8.58S225.2,177.12,227.06,175.47Z" transform="translate(0 0)"/><path class="cls-62" d="M235.53,201.14a11.36,11.36,0,0,1-1.32,2.36c-1,1.41-1.38,1.31-1.29,1.68s5.4-1.71,5.4-1.71l-1.07-3A13.84,13.84,0,0,0,235.53,201.14Z" transform="translate(0 0)"/><path class="cls-37" d="M227.11,180.06c6.2-1.28-.35,20.95-3.26,26.21s-2.57-1.12-1.28-10.63S224.68,180.56,227.11,180.06Z" transform="translate(0 0)"/><path class="cls-63" d="M221.65,206.53a12.14,12.14,0,0,1-2.32,1.39c-1.55.73-1.85.44-2,.81s5.53,1.21,5.53,1.21l.57-3.12A13.8,13.8,0,0,0,221.65,206.53Z" transform="translate(0 0)"/><path class="cls-64" d="M241,171.62H226l-6.42-13.81a.95.95,0,1,1,1.72-.8l5.92,12.71H241a1,1,0,1,1,0,1.9Z" transform="translate(0 0)"/><path class="cls-65" d="M250.81,141.07s5.45-.21,5.7,5.86c0,0,1,24.83.71,25.46s-14.81.64-15.12-.1,2.14-9.73,1.34-12.82-1.93-5.68-1.9-8.37C241.57,148.87,245.18,141.71,250.81,141.07Z" transform="translate(0 0)"/><path class="cls-66" d="M242.1,172.29s-14,3.59-16.42,6.92-4.84,24.67-4.84,24.67l4,.87c2.61-5.47,5.79-18.24,7.13-18.72s14.62-3.22,14.62-3.22l.22-7.72Z" transform="translate(0 0)"/><path class="cls-67" d="M242,171.92c-5.63-.72-15.43-1.22-16.33,2.23-1.5,5.71,8.48,25.68,8.48,25.68l3.41-1.19c-1.11-9.43-3.84-17-3.41-17.68s10,3.49,18.18,2.54,4.5-10.95,4.5-10.95Z" transform="translate(0 0)"/><path class="cls-37" d="M249.26,145.86a2.41,2.41,0,0,1,2.25,1.14c2.18,3.4,9.32,14.9,6.91,16.66-2.83,2.06-8.55-8.51-9.81-11.78C247.55,149.16,247.09,146.12,249.26,145.86Z" transform="translate(0 0)"/><path class="cls-37" d="M257.67,161.19a2.58,2.58,0,0,0-2.33-.63c-4.15.84-19.17,4-19.61,5.77-.51,2.1,21.33-1.42,21.82-2.46C257.93,163.06,258.62,162.15,257.67,161.19Z" transform="translate(0 0)"/><path class="cls-37" d="M237.85,165.83c-.24-1.3-2.43-.64-3.16-.38-1.21.41-2.3,1.8-2.15,2.28s2.84-.62,3-.54-1.13.74-.93,1.18,2-.23,2.56-.77A1.66,1.66,0,0,0,237.85,165.83Z" transform="translate(0 0)"/><path class="cls-68" d="M254.82,143.23s.33-4.7-1.82-6.18-7.14-3.74-8.52-7.2c0,0,.28-4.64,3.91-4.35s6.67,5.4,6.76,7.5S254.82,143.23,254.82,143.23Z" transform="translate(0 0)"/><circle class="cls-69" cx="92.57" cy="11.59" r="11.59"/><polygon class="cls-56" points="99.73 7.05 85.41 7.05 92.57 11.25 99.73 7.05"/><polygon class="cls-56" points="92.57 11.92 85.17 7.59 85.17 16.12 99.97 16.12 99.97 7.59 92.57 11.92"/><circle class="cls-70" cx="132.62" cy="12.66" r="11.59" transform="translate(16.82 78.53) rotate(-35.09)"/><path class="cls-56" d="M128.89,10.07a3.08,3.08,0,0,0,1-.9l-2.15-3.54a2.37,2.37,0,0,0-1.3.48Z" transform="translate(0 0)"/><path class="cls-56" d="M135.21,16.39l4,2.45a2.37,2.37,0,0,0,.48-1.3l-3.54-2.15A2.85,2.85,0,0,0,135.21,16.39Z" transform="translate(0 0)"/><path class="cls-56" d="M136,19.52a2.46,2.46,0,0,0,3.21-.68l-4-2.45a1.51,1.51,0,0,0-.18.45,32.42,32.42,0,0,1-3.65-2.94,32.42,32.42,0,0,1-2.94-3.65,1.63,1.63,0,0,0,.45-.18l-2.45-4a2.46,2.46,0,0,0-.68,3.21,11.24,11.24,0,0,0,.88,1.64c.15.24.3.48.46.72a23.46,23.46,0,0,0,3,3.55A26.43,26.43,0,0,0,133,17.7,14.9,14.9,0,0,0,136,19.52Z" transform="translate(0 0)"/><circle class="cls-71" cx="172.67" cy="12.66" r="11.59" transform="translate(41.62 125.8) rotate(-45)"/><path class="cls-56" d="M169.81,5.07a8.14,8.14,0,0,0-4.26,3.68h3A13,13,0,0,1,169.81,5.07Zm6.8,7.89H173v3h3.35A20.34,20.34,0,0,0,176.61,13Zm-8.41,0h-3.65a8.21,8.21,0,0,0,.72,3h3.18A20.34,20.34,0,0,1,168.2,13Zm.24-3.61h-3.19a8.19,8.19,0,0,0-.7,3h3.65A20.29,20.29,0,0,1,168.44,9.35Zm8.78,3h3.56a8,8,0,0,0-.71-3H177A21.63,21.63,0,0,1,177.22,12.36Zm2.55-3.61a8.14,8.14,0,0,0-4.16-3.66,12.57,12.57,0,0,1,1.25,3.66Zm-4.91-3.91A8,8,0,0,0,173,4.55v4.2h3.25A12.1,12.1,0,0,0,174.86,4.84Zm1.5,4.51H173v3h3.6A20.2,20.2,0,0,0,176.36,9.35Zm-7.21-.6h3.25V4.55a8.11,8.11,0,0,0-1.85.28A12.33,12.33,0,0,0,169.15,8.75Zm6.44,11.49a8.14,8.14,0,0,0,4.18-3.66h-2.91A12.27,12.27,0,0,1,175.59,20.24ZM173,16.58v4.19a8.42,8.42,0,0,0,1.83-.28,11.88,11.88,0,0,0,1.41-3.91Zm4-.6h3.09a8,8,0,0,0,.72-3h-3.56A20.34,20.34,0,0,1,177,16Zm-7.91,0h3.35V13h-3.6A21.78,21.78,0,0,0,169.05,16Zm1.53,4.52a7.77,7.77,0,0,0,1.82.28v-4.2h-3.24A11.74,11.74,0,0,0,170.58,20.5Zm-5-3.92a8.14,8.14,0,0,0,4.27,3.69,12.55,12.55,0,0,1-1.28-3.69Zm3.24-4.22h3.6v-3h-3.35A20.2,20.2,0,0,0,168.8,12.36Z" transform="translate(0 0)"/></g></g></svg>