<svg xmlns="http://www.w3.org/2000/svg" viewBox="0 0 1615.69 967.98"><defs><style>.cls-1{opacity:0.05;}.cls-2{fill:#2d2a27;}.cls-3{fill:#eed5b9;}.cls-4{fill:#37404e;}.cls-5{fill:#7f634a;}.cls-6{fill:none;}.cls-7{fill:#756758;}.cls-8{fill:#2f435f;}.cls-9{fill:#edd4b9;}.cls-10{fill:#41352b;}.cls-11{fill:#dde9ed;}.cls-12{fill:#686867;}.cls-13{fill:#d33633;}.cls-14{fill:#9c897a;}.cls-15{fill:#515151;}.cls-16{fill:#efd9c5;}.cls-17{fill:#5a7991;}.cls-18{fill:#62849e;}.cls-19{fill:#4a5669;}.cls-20{fill:#383e49;}.cls-21{fill:#89a89b;}.cls-22{fill:#bf9e6c;}.cls-23{fill:#4f4141;}.cls-24{fill:#d1d6d6;}.cls-25{fill:#766a5a;}.cls-26{fill:#b0cdd1;}.cls-27{fill:#94b5a7;}.cls-28{fill:#4a936c;}</style></defs><g id="shadow"><g class="cls-1"><path class="cls-2" d="M1383.27,870.4c56.6,3.25,113.4-1.79,169.91,4.18,27.79,2.94,56.41,8,81.3,20,9.18,4.44,25.14,11.37,27.23,21.44,2.24,10.82-9.68,14.65-10.65,24.37-.66,6.57,8.07,15.92,9,23.44,1.9,15.82-6.87,30.15-16.94,42.44-18.88,23-7.08,42.53-16.15,71-3.37,10.59-4.21,22.35-8.91,32.18-26.23,54.84-363.31,50.51-450.15,51.11-197,1.35-394-.91-590.88-4.41-58.61-1-117.25-2.8-175.89-4-34.32-.72-68.63-1.28-102.93-1.41-51.48-.21-110.73,11-159.41-14.65-85-44.85,24.38-88.58,3-138.33l0,0c-9.44-21.94-48.38-24.57-65.71-30.05-8-2.53-16.44-5.38-22-12.69-29.7-38.82,33.91-80.08,58-85.53,48.88-11.05,102.11-5.69,151.62-6.52C637.21,856.59,1011.78,849.08,1383.27,870.4Z" transform="translate(-46.3 -193)"/></g></g><g id="object"><polygon class="cls-3" points="920.45 294.57 901.7 288.24 904.05 280.11 917.85 281.6 917.18 277.24 932.56 284.61 931.26 293.39 920.45 294.57"/><polygon class="cls-4" points="1065.49 220.2 1013.47 277 924.64 278.36 924.46 296 1029.7 317.64 1103.31 254.44 1065.49 220.2"/><path class="cls-3" d="M1162.28,379.75c2.19-4.46,2.54-9.69,1.88-14.66-1.41-10.64-7.92-21-17.71-24.75-15.06-5.82-32,4.73-47.68.94-1.38,6.34-2.72,12.79-2.4,19.29.66,13.87,9.53,27,21.94,32.54a36.3,36.3,0,0,0,38-5.88A24.61,24.61,0,0,0,1162.28,379.75Z" transform="translate(-46.3 -193)"/><polygon class="cls-5" points="1055.68 153.72 1105.63 156.03 1108.92 195.03 1124.58 186.35 1127.62 123.94 1058.73 110.97 1025.88 123.56 1024.23 141.37 1048 163.83 1055.68 153.72"/><path class="cls-4" d="M1112.4,410.07l56.12-9.16S1217.21,451,1244.08,527s-15.52,187.48-15.52,187.48-154.43-21.71-179.76-25.07l39.8-157.73Z" transform="translate(-46.3 -193)"/><path class="cls-3" d="M1145.37,390.79a58.63,58.63,0,0,0,6.17,12.75L1129.88,408q-1.56-7.62-3.13-15.25l16.16-1.09Z" transform="translate(-46.3 -193)"/><path class="cls-6" d="M701.59,267.46c-1.22,1.68-1.65,4.54-1.66,7.86C700.48,272.7,701,270.08,701.59,267.46Z" transform="translate(-46.3 -193)"/><polygon class="cls-7" points="549.03 653.03 547.96 656.43 544.4 667.71 563.41 686.09 578.25 678.36 570.52 663.53 569.68 662.72 568.89 663.94 549.03 653.03"/><path class="cls-8" d="M698,548.43c-10.61,2-21.42,4.88-30.87,10.28A88,88,0,0,0,655,567.46l-.84,127.38-60,150.58,1.1.61,2.49-7.88L616,855.72,726,686.07l5.82-20.71L711.91,546.05C707.24,546.74,702.58,547.53,698,548.43Z" transform="translate(-46.3 -193)"/><polygon class="cls-8" points="549.03 653.03 568.89 663.94 569.68 662.72 551.51 645.14 549.03 653.03"/><path class="cls-8" d="M741.69,630.08l-9.89,35.28,2.26,13.58,13.81,179.59H748v-2.6h22.13l28.06-192-1.36-117.52c-5.13-.54-28.38-2.88-44.6-3.22Z" transform="translate(-46.3 -193)"/><path class="cls-8" d="M752.23,543.15c-2.16,0-4.2-.06-6.05,0a270.09,270.09,0,0,0-34.27,2.93L731.8,665.36l9.89-35.28Z" transform="translate(-46.3 -193)"/><polygon class="cls-7" points="701.7 665.53 701.7 674.75 725.36 686.58 737.18 674.75 725.36 662.93 723.83 662.93 723.45 665.53 701.7 665.53"/><polygon class="cls-7" points="701.7 665.53 723.45 665.53 723.83 662.93 701.7 662.93 701.7 665.53"/><path class="cls-9" d="M730.41,316.24c.84-3.09,1.71-6.09,4.37-7.64,2.41-1.42,5.47-1,8.11-1.93,5-1.72,7.12-7.44,8.64-12.48q2-6.57,4-13.14a59.19,59.19,0,0,0,1.57-6.06c-7.56-2.82-14.63-8-22.53-10-8.85-2.22-25-5.5-32.51,1.92a4.65,4.65,0,0,0-.45.53c-.55,2.62-1.11,5.24-1.66,7.86,0,7.4,2,17.07,1.72,21a18.45,18.45,0,0,1-3.15-1.42c2.31,3.73,7.13,6.06,11.47,7.77a102.33,102.33,0,0,0-1.71,16.2l.78.11c7.2-.93,14.41-1.59,20.73-2.64Z" transform="translate(-46.3 -193)"/><path class="cls-10" d="M697.74,285.7l2.19-10.38c0-3.32.44-6.18,1.66-7.86.33-1.55.66-3.11,1-4.67.56-2.64,1.15-5.36,2.68-7.58,2.68-3.91,7.67-5.47,12.36-6.11,12-1.63,24.85,1.43,33.79,9.56a18.47,18.47,0,0,1,5.48,7.81,17.17,17.17,0,0,1,.2,8.52,31.71,31.71,0,0,0,5.17,1.49c6.9,1.31,15.9-1.77,21.94-5.14,7.45-4.17,11.32-17,15.85-23.82a49.13,49.13,0,0,1,4-5.36c3.19-3.65,7.07-6.74,9.68-10.83s3.68-9.71.87-13.66c-1.81-2.56-4.85-3.91-7.81-4.9a58,58,0,0,0-30.51-1.69c-9.6,2.07-18.26,5.76-27.7,1.84-8.87-3.69-15.42-2.57-24.94.44-10.31,3.26-24,3.61-33.39,8.39a27.22,27.22,0,0,0-9.64,8.84,41,41,0,0,0-1.71,43.27,58.44,58.44,0,0,0,6.08,8.27c3.84,4.49,8.32,9.85,13.49,12.77a9,9,0,0,1-1.3-3.59A16.9,16.9,0,0,1,697.74,285.7Z" transform="translate(-46.3 -193)"/><path class="cls-10" d="M699.93,275.32l-2.19,10.38a16.9,16.9,0,0,0-.54,5.61,9,9,0,0,0,1.3,3.59,18.45,18.45,0,0,0,3.15,1.42C701.9,292.39,699.9,282.72,699.93,275.32Z" transform="translate(-46.3 -193)"/><path class="cls-10" d="M756.88,266.47a18.47,18.47,0,0,0-5.48-7.81c-8.94-8.13-21.81-11.19-33.79-9.56-4.69.64-9.68,2.2-12.36,6.11-1.53,2.22-2.12,4.94-2.68,7.58-.32,1.56-.65,3.12-1,4.67a4.65,4.65,0,0,1,.45-.53c7.48-7.42,23.66-4.14,32.51-1.92,7.9,2,15,7.16,22.53,10A17.17,17.17,0,0,0,756.88,266.47Z" transform="translate(-46.3 -193)"/><polygon class="cls-9" points="567.46 26.4 572.09 16.78 570.55 14.76 567.99 16.55 569.55 7.47 565.82 0.98 555.91 0 547.22 5.49 547.28 15.43 553.27 25.63 554.55 29.64 568.61 29.55 567.46 26.4"/><path class="cls-7" d="M888.18,501.57c-3.64-5.26-16-8.78-21.62-12-12.47-7.21-24.46-15.44-35-25.33a127.84,127.84,0,0,1-33-50.71,220.24,220.24,0,0,1-8.1-30.13c-.76-3.68-1.43-7.38-2.09-11.09l44-1.08L774.22,311l-.21,3.25a16.19,16.19,0,0,1,.21-3.25c-14.79,5.88-28.83,2.88-43.81,5.2l-.64.1c-6.32,1.05-13.53,1.71-20.73,2.64-8,1-16.07,2.39-22.75,5a23.48,23.48,0,0,0-5.75,3.28l-42.1-36.68-17.75-68.06-5.78,0-14.06.09-5.05,0,11.87,109L651,391.92c-2.67,11.5-4.93,23-5.94,29.62-2.51,16.58-4.84,33.2-6.66,49.88-2,18.62-3.41,37.31-3.7,56,0,2.08-.34,7.91-.49,14.89-.3,14.7.14,34.5,5.43,35.23a4.67,4.67,0,0,0,2.81-.89A97.16,97.16,0,0,0,655,567.46a88,88,0,0,1,12.07-8.75c9.45-5.4,20.26-8.27,30.87-10.28,4.62-.9,9.28-1.69,13.95-2.38a270.09,270.09,0,0,1,34.27-2.93c1.85,0,3.89,0,6.05,0,16.22.34,39.47,2.68,44.6,3.22l1,.11c9.86-1.77,19.28-5.39,28.73-8.76,16.22-5.77,32.8-10.86,48-19C879.52,516.18,893,508.51,888.18,501.57Z" transform="translate(-46.3 -193)"/><path class="cls-11" d="M994.57,514.83c-4.36,0-8.67.16-13,.45-14.47-82.92-87.71-146-175.9-146A179.31,179.31,0,0,0,698.3,404.72a188.39,188.39,0,0,0-163.67-94.15c-103.84,0-188,83-188,185.48a185,185,0,0,0,1,19.22c-4.27-.28-8.57-.44-12.9-.44-103.84,0-188,83-188,185.48s84.18,185.48,188,185.48H994.57c103.84,0,188-83,188-185.48S1098.41,514.83,994.57,514.83Z" transform="translate(-46.3 -193)"/><path class="cls-9" d="M801.55,364.87l13.69-4.78s10.55.86,12.93,3.7l4.15,11-15.08,12.59-13.34-6.69Z" transform="translate(-46.3 -193)"/><polygon class="cls-12" points="731.06 577.53 391.59 577.53 391.59 456.1 442.72 456.1 442.72 526.22 679.93 526.22 679.93 456.1 731.06 456.1 731.06 577.53"/><polygon class="cls-13" points="618.46 395.67 618.46 268.21 504.19 268.21 504.19 395.67 455.15 395.67 561.33 502.22 667.5 395.67 618.46 395.67"/><path class="cls-6" d="M232.85,550.51a35.1,35.1,0,0,0,11,6.93c.23,3,.65,6.47,1.64,8.49-4.41.43-8.66.9-12.57,1.26-.13-3.07-.25-6.12-.37-9.17A48.25,48.25,0,0,1,232.85,550.51Z" transform="translate(-46.3 -193)"/><polygon class="cls-14" points="177.4 890.72 178.28 891.3 187.09 902.2 176.82 911.18 158.47 899.31 159.2 889.37 159.42 886.37 177.07 891.92 177.4 890.72"/><path class="cls-15" d="M223.63,866.94l-18.9,212.13,1,.3,17.65,5.55.32-1.2L267.6,921.28l-.26-55.34Q245.5,866.69,223.63,866.94Z" transform="translate(-46.3 -193)"/><path class="cls-15" d="M320.66,871.4l-11.05,214.91-17.86.49.06,2.2h-.1l-17.1-212.87C276.84,876,307.57,874.09,320.66,871.4Z" transform="translate(-46.3 -193)"/><polygon class="cls-14" points="263.31 891.31 264.54 891.27 274.36 901.02 265.09 911.28 245.73 901.8 245.51 894 263.06 893.52 263.31 891.31"/><path class="cls-16" d="M286.84,511.93a108.34,108.34,0,0,0-1.43-10.81c-1.61-8.83-5.49-15.16-10.65-19.28-1.19,4.59-4.45,8.36-7.7,11.89l-.38.42c-8.43,9.11-17,18.23-23.54,28.76-5.24,8.39-9.16,17.84-10.29,27.6a35.1,35.1,0,0,0,11,6.93c.23,3,.65,6.47,1.64,8.49a3.9,3.9,0,0,0,.83,1.21c2.59,2.42,11.05.46,14.37-.2a5,5,0,0,0,2.56-1.05,2.64,2.64,0,0,0,.6-1.08c.57-1.69.55-4.64.65-7.34,9.95-3.73,17.21-13.09,20.33-23.31A60.06,60.06,0,0,0,286.84,511.93Z" transform="translate(-46.3 -193)"/><path class="cls-17" d="M375.2,857.26c-17.57-22.92-16.67-61.65-20.73-88.94-4.17-28.1-8.36-56.27-15.3-83.8-.66-2.64-1.34-5.28-2.06-7.92q-2.42-8.82-5.26-17.52a392.43,392.43,0,0,0-15.17-39.46c-6.29-14-14-37.08-25.36-47.7-.38-.35-.77-.68-1.18-1-6.15-4.8-15.83-6.16-26.29-6.1a2.64,2.64,0,0,1-.6,1.08,5,5,0,0,1-2.56,1.05c-3.32.66-11.78,2.62-14.37.2a3.9,3.9,0,0,1-.83-1.21c-4.41.43-8.66.9-12.57,1.26.9,21.32,2.3,43,8.36,63.68.15.5.29,1,.44,1.52,7.78,25.48,14.1,51.5,21.14,77.19.62,2.27,1.24,4.55,1.83,6.84,2.42,9.43,4.25,19.05,3,28.64a37.68,37.68,0,0,1-1.55,6.91,34.12,34.12,0,0,1-8.65,14.16,25,25,0,0,1-7.38,4.91,23.51,23.51,0,0,1-3,1c-4.39-6.73-15.24-.26-17.9,7.32s-3.17,17.17-10.15,21.17c-5.51,3.15-12.55,1.74-19.52.8-4.32-.58-8.62-1-12.5,0-3.65.93-7.11,3-10.4,4.15-6.54,19.05-17.46,34.76-34.37,50.09-3.57,3.24-7.68,7.43-6.46,12.1.74,2.82,3.25,4.76,5.7,6.34,24.14,15.6,54.65,16.46,83.39,16.16h.32q21.85-.24,43.72-1,7.35-.26,14.72-.57l6.68-.27a253.5,253.5,0,0,0,39.36-4.46c15.92-3.27,31.3-8.76,44.35-18.15,1.5-1.08,3.1-2.46,3.16-4.31C377.26,859.87,376.16,858.52,375.2,857.26Z" transform="translate(-46.3 -193)"/><polygon class="cls-16" points="393.02 458.54 401 452.37 403.17 453.4 402.01 456.12 410.1 452.89 416.82 455.07 419.67 464.03 416.31 473.14 407.11 475.03 396.51 471.5 390.34 470.88 392.02 458.4 393.02 458.54"/><polygon class="cls-17" points="392.81 474.36 392.25 453.81 301.07 431.18 243.84 377.91 240.26 434.92 288.79 467.12 392.81 474.36"/><polygon class="cls-16" points="369.28 504.94 377.42 499 379.56 500.08 378.33 502.77 386.5 499.77 393.17 502.12 395.77 511.16 392.15 520.18 382.91 521.81 372.42 517.99 366.26 517.21 368.28 504.77 369.28 504.94"/><polygon class="cls-18" points="369.27 520.75 368.71 500.2 277.54 477.58 186.62 374.19 150.28 425.59 265.25 513.52 369.27 520.75"/><path class="cls-15" d="M291.38,491.43A31.79,31.79,0,0,0,275,467.79c-.76.4-1.5.83-2.23,1.28a23.23,23.23,0,0,0-2.5-3.69c-5.62-6.75-12.32-10.14-20.88-10.41-30-1-52.78,16.65-61.53,45.94-7.4,24.75-4.21,51.23-2.8,77,2.13,38.79-6.17,83.55-29.15,115.34-9.37,13-19.59,25.94-23.48,41.44s.62,34.5,14.76,41.94c5.53,2.91,12.11,3.89,16.91,7.88a10.4,10.4,0,0,1,.76,15.75c3.63,6.45,7.55,6.66,11.75,5.24,3.29-1.11,6.75-3.22,10.4-4.15,3.88-1,8.18-.59,12.5,0,7,.94,14,2.35,19.52-.8,7-4,7.49-13.58,10.15-21.17s13.51-14,17.9-7.32a23.51,23.51,0,0,0,3-1,25,25,0,0,0,7.38-4.91A34.12,34.12,0,0,0,266.16,752a37.68,37.68,0,0,0,1.55-6.91c1.23-9.59-.6-19.21-3-28.64-.59-2.29-1.21-4.57-1.83-6.84-7-25.69-13.36-51.71-21.14-77.19-.15-.51-.29-1-.44-1.52-6.06-20.67-7.46-42.36-8.36-63.68-.13-3.07-.25-6.12-.37-9.17a48.25,48.25,0,0,1,.3-7.51c1.13-9.76,5.05-19.21,10.29-27.6,6.56-10.53,15.11-19.65,23.54-28.76l.38-.42c3.25-3.53,6.51-7.3,7.7-11.89,5.16,4.12,9,10.45,10.65,19.28a108.34,108.34,0,0,1,1.43,10.81A31.78,31.78,0,0,0,291.38,491.43Z" transform="translate(-46.3 -193)"/><polygon class="cls-3" points="979.64 351.69 959.89 352.88 959.01 344.47 972.36 340.65 970.09 336.86 987.12 337.89 989.21 346.52 979.64 351.69"/><polygon class="cls-19" points="1091.82 235.2 1065.95 308.12 981.47 335.61 986.5 352.52 1093.44 342.16 1153.23 247.23 1122.22 207.91 1091.82 235.2"/><polygon class="cls-20" points="1495.2 621.75 1470.61 730.96 1448.01 860.89 1425.16 860.89 1415.81 544.75 1491.38 546.12 1495.2 621.75"/><polygon class="cls-20" points="1350.51 615.08 1347.34 721.08 1379.26 860.89 1399.78 860.89 1401.87 713.45 1424.32 592.78 1429.9 554.26 1366.98 546.84 1350.51 615.08"/><path class="cls-21" d="M1446.58,522.9l71.33,5.26,38.54,66.45c-11.34,40.38-6.76,26.24-13.65,62.74l20.39,100.5-26.61,7.75-96.7,1.72-31.8-5.56,8.69-95.89-4.51-128Z" transform="translate(-46.3 -193)"/><polygon class="cls-21" points="1386.22 382.14 1350.35 437.52 1251.17 448.37 1248.31 432.04 1327.49 401.18 1365.96 344.82 1386.22 382.14"/><path class="cls-22" d="M1450.36,461.38c10.81-31.45,52.34-19.66,60.9,8.34,5.58,18.27-8.53,42-27.46,47.23a18.57,18.57,0,0,0-.14,2,63.12,63.12,0,0,1-.81,8.75c-.17,1.09-16.73-2.09-18.58-2.45a2.5,2.5,0,0,1-1.71-.85c-.67-1,.41-4.1.54-5.26l.42-4.09c-9.33-4.56-15.22-14.27-16.87-24.15S1447.1,470.84,1450.36,461.38Z" transform="translate(-46.3 -193)"/><path class="cls-23" d="M1480.16,432.07c2,2.42,2.68,5.63,3.09,8.7a13,13,0,0,1-.09,5.48c-2.08,7-9.11,6.09-14.74,8A36.54,36.54,0,0,0,1451,467c-6.62,8.94-4.88,21.24-3.27,31.78.56,3.72,1.85,9.28-1.23,12.32s-9.75,2.08-13.06.11c-3-1.8-5.4-4.87-8.82-5.71-3.61-.9-8.68.34-10.13-3.15-.4-1-.36-2.12-.89-3-1.81-3-7.1,0-9.79-2.3-1.66-1.38-1.44-4.06-.69-6.13s1.92-4.13,1.67-6.32c-.22-1.87-1.44-3.43-2.14-5.18a9.87,9.87,0,0,1,2.16-10.35c4.9-4.88,13.55-3.22,18.75-7.76,2.72-2.37,4-6,5.17-9.4s2.61-7,5.48-9.17c3.55-2.67,8.31-1.8,11.85-5,2.08-1.89,3.57-4.44,5.86-6.05,3-2.11,8.74-3.49,12.37-4.41A15.6,15.6,0,0,1,1480.16,432.07Z" transform="translate(-46.3 -193)"/><path class="cls-23" d="M1502.54,484.11c-.59,10.34-6.57,21.11-2.5,30.55s15.93,12.1,26.09,13.36c1.67.2,23,3.7,23.17,3.3,2.16-7.07,4.38-14.27,8.62-20.3s10.92-10.78,18.15-10.68c-2-.52-2.9-3.14-2.5-5.27s1.66-4,2.46-6a14.49,14.49,0,0,0-2.67-14.81c-7.07-7.67-21.09-5.77-27-14.42-3.66-5.36-2.62-12.65-4.27-19-3.19-12.24-16.06-15.73-25.41-21.86-9.87-6.47-19.34-10.32-31.38-9.25-14.93,1.34-27,15.51-22.42,30.07,5.92,18.67,35.19,19.32,39.25,38.13A23,23,0,0,1,1502.54,484.11Z" transform="translate(-46.3 -193)"/><polygon class="cls-24" points="1448.01 333.49 1426.98 363.2 1417.1 362.4 1403.68 330.13 1448.01 333.49"/><polygon class="cls-25" points="1425.16 860.89 1412.98 876.56 1424.32 888.96 1440.22 874.92 1448.01 860.89 1425.16 860.89"/><polygon class="cls-25" points="1377.65 860.89 1365.47 876.56 1376.81 888.96 1392.72 874.92 1400.51 860.89 1377.65 860.89"/><path class="cls-26" d="M936.41,778.52q4.68,0,9.29.32c10.38-59.48,62.91-104.73,126.17-104.73a128.54,128.54,0,0,1,77.05,25.43A135.13,135.13,0,0,1,1266.33,632c74.48,0,134.86,59.57,134.86,133a133.59,133.59,0,0,1-.71,13.79c3-.21,6.14-.32,9.25-.32,74.49,0,134.87,59.57,134.87,133.05s-60.38,133-134.87,133H936.41c-74.49,0-134.87-59.57-134.87-133S861.92,778.52,936.41,778.52Z" transform="translate(-46.3 -193)"/><path class="cls-22" d="M1268,626.12l13.68-4.78s10.56.85,12.93,3.7l4.15,11-15.08,12.59L1270.34,642Z" transform="translate(-46.3 -193)"/><polygon class="cls-22" points="1302.87 507.69 1282.95 509.89 1282.1 516.77 1269.59 525.31 1274.9 533.34 1300.72 525.09 1302.87 507.69"/><polygon class="cls-27" points="1510.15 401.61 1438.04 477.51 1405.39 489.85 1299.16 527.91 1301.18 503.58 1407.91 446.93 1469.27 335.18 1497.43 350.67 1510.15 401.61"/><path class="cls-28" d="M896.35,844.72q16.33,0,27.29,10.6t10.94,28.84q0,18.24-10.07,27.41t-26,9.17q-11,0-22.66-1.14V845.41Q884.58,844.72,896.35,844.72Zm2.18,71.21q13.94,0,22.38-7.91t8.45-23.86q0-15.93-9.54-25.34a32.11,32.11,0,0,0-23.47-9.4q-9.92,0-15.25.46v65.24A148.17,148.17,0,0,0,898.53,915.93Z" transform="translate(-46.3 -193)"/><path class="cls-13" d="M898.53,923.24c-7.37,0-15.08-.39-22.91-1.16a2.49,2.49,0,0,1-2.25-2.48V845.41a2.51,2.51,0,0,1,2.3-2.5c5.85-.46,12.81-.69,20.68-.69,11.51,0,21.28,3.8,29,11.31s11.7,17.83,11.7,30.63-3.66,22.68-10.89,29.26S909.72,923.24,898.53,923.24Zm-20.16-5.92,1.89.16a2.5,2.5,0,0,1-1.66-2.36V849.88a2.5,2.5,0,0,1,1.4-2.25l-1.63.1Zm5.23-4.44c3.95.36,9,.55,14.93.55,8.59,0,15.55-2.44,20.67-7.24s7.66-12.17,7.66-22c0-10-2.88-17.72-8.79-23.56s-13-8.68-21.72-8.68c-5.2,0-9.47.1-12.75.29Zm30.61-61.45a35.32,35.32,0,0,1,7.37,5.61c6.82,6.73,10.28,15.86,10.28,27.12s-3.11,19.94-9.24,25.68c-.57.54-1.17,1-1.78,1.54.68-.52,1.34-1.08,2-1.66,6.15-5.59,9.26-14.19,9.26-25.56s-3.42-20.49-10.18-27A35.17,35.17,0,0,0,914.21,851.43Z" transform="translate(-46.3 -193)"/><path class="cls-28" d="M987.64,921a33.1,33.1,0,0,1-25.39-11.12Q952,898.74,952,882.62t10.24-27.24a34.53,34.53,0,0,1,50.77,0q10.23,11.13,10.24,27.24T1013,909.85A33.1,33.1,0,0,1,987.64,921Zm.05-72a27.92,27.92,0,0,0-21.79,9.75q-8.65,9.75-8.66,23.91t8.66,23.85a29.28,29.28,0,0,0,43.52,0q8.61-9.69,8.61-23.85t-8.61-23.91A27.73,27.73,0,0,0,987.69,849Z" transform="translate(-46.3 -193)"/><path class="cls-13" d="M987.64,923.47a35.66,35.66,0,0,1-27.23-11.93c-7.23-7.85-10.9-17.58-10.9-28.92s3.67-21.07,10.9-28.93a37,37,0,0,1,54.45,0c7.23,7.86,10.9,17.59,10.9,28.93s-3.67,21.07-10.9,28.92A35.66,35.66,0,0,1,987.64,923.47Zm.05-72a25.29,25.29,0,0,0-19.92,8.91c-5.4,6.08-8,13.36-8,22.25s2.63,16.14,8,22.18a26.77,26.77,0,0,0,39.78,0c5.37-6,8-13.3,8-22.19s-2.69-16.26-8-22.26A25.15,25.15,0,0,0,987.69,851.46Zm-25.94,8.42a36.88,36.88,0,0,0-7.24,22.74c0,9.4,2.83,17.52,8.4,24.19-5.42-6.67-8.17-14.8-8.17-24.19A37.77,37.77,0,0,1,961.75,859.88Zm52.79,1.42a38.25,38.25,0,0,1,6,21.32,37.76,37.76,0,0,1-6.74,22.37,39.51,39.51,0,0,0,.75-43.69Z" transform="translate(-46.3 -193)"/><path class="cls-28" d="M1060.62,901.71,1081,846.9h3.15l17.76,55.15,2.62,9.29a67.35,67.35,0,0,1,2.72-9.17l18.08-56.76h5.23l-24.62,74.88H1103q-18.2-54.93-18.85-57.11-1-3.09-2-6.08c-.36,1.3-1.34,4-2.94,8.14l-20.59,55h-2.94l-24.84-74.88h5.56l18,55.84q1.51,4.59,2.83,10.21A102,102,0,0,1,1060.62,901.71Z" transform="translate(-46.3 -193)"/><path class="cls-13" d="M1105.94,922.79H1103a2.5,2.5,0,0,1-2.37-1.72c-10.87-32.8-17.09-51.66-18.56-56.19-.15.41-.32.83-.49,1.27l-20.58,55a2.49,2.49,0,0,1-2.34,1.63h-2.94a2.5,2.5,0,0,1-2.37-1.72l-24.84-74.88a2.5,2.5,0,0,1,2.37-3.28h5.56a2.49,2.49,0,0,1,2.38,1.73l18,55.84c.25.76.49,1.54.74,2.34.23-.63.48-1.3.74-2l20.37-54.8a2.51,2.51,0,0,1,2.35-1.63h3.15a2.49,2.49,0,0,1,2.38,1.73l17.76,55.16.28,1c.1-.3.21-.61.31-.92L1123,844.65a2.49,2.49,0,0,1,2.38-1.74h5.23a2.5,2.5,0,0,1,2.38,3.28l-24.62,74.88A2.52,2.52,0,0,1,1105.94,922.79Zm-49.76-9.08,1.07,3.23,1.23-3.31a2.45,2.45,0,0,1-1.24.33A2.5,2.5,0,0,1,1056.18,913.71Zm47.23-.13,1.06,3.18,1-3.11a2.67,2.67,0,0,1-.81.19A2.53,2.53,0,0,1,1103.41,913.58Zm-42.79-11.87h0Zm-26.27-53.8,9.15,27.58-8.88-27.58Zm47.84,6.69a2.51,2.51,0,0,1,2.33,1.58l-2-6.21-1.94,5.22a2.54,2.54,0,0,1,1.56-.59Z" transform="translate(-46.3 -193)"/><path class="cls-28" d="M1144.94,919.83V845h2.4l46.4,56.19c1.67,2,3.22,4,4.63,5.9s2.16,3,2.24,3c-.15-1.83-.22-5.43-.22-10.78V845.41h5v74.88H1203l-47.27-57.11-6-7.68q.23,2.29.22,10.78v53.55Z" transform="translate(-46.3 -193)"/><path class="cls-13" d="M1205.4,922.79H1203a2.5,2.5,0,0,1-1.92-.91l-47.28-57.11-1.36-1.74c0,1,0,2.08,0,3.25v53.55a2.5,2.5,0,0,1-2.5,2.5h-5a2.5,2.5,0,0,1-2.5-2.5V845a2.5,2.5,0,0,1,2.5-2.5h2.4a2.47,2.47,0,0,1,1.92.91l46.41,56.18c.77.91,1.51,1.83,2.23,2.74,0-.93,0-1.92,0-3V845.41a2.49,2.49,0,0,1,2.5-2.5h5a2.49,2.49,0,0,1,2.5,2.5v74.88A2.5,2.5,0,0,1,1205.4,922.79Zm-58-5.46h0V866.28c0-1.27,0-2.43,0-3.48Zm52.3-4.9,3.16,3.81v-5.16a2.5,2.5,0,0,1-3.16,1.35Zm-45.2-54.84,3.16,4L1195,906.71c-1-1.31-2.06-2.64-3.18-4Zm48.35-9.68V899.3c0,1.19,0,2.29,0,3.31ZM1147.44,849v5.5a2.5,2.5,0,0,1,3.61-1.13Z" transform="translate(-46.3 -193)"/><path class="cls-28" d="M1231.55,919.83V845.41h5V915H1269v4.82Z" transform="translate(-46.3 -193)"/><path class="cls-13" d="M1269,922.33h-37.47a2.49,2.49,0,0,1-2.5-2.5V845.41a2.49,2.49,0,0,1,2.5-2.5h5a2.49,2.49,0,0,1,2.5,2.5v67.1h30a2.5,2.5,0,0,1,2.5,2.5v4.82A2.5,2.5,0,0,1,1269,922.33Zm-35-5h1.56a2.51,2.51,0,0,1-1.55-2.32v2.32Z" transform="translate(-46.3 -193)"/><path class="cls-28" d="M1310.74,921a33.08,33.08,0,0,1-25.38-11.12q-10.24-11.11-10.24-27.23t10.24-27.24a34.52,34.52,0,0,1,50.76,0q10.25,11.13,10.24,27.24t-10.24,27.23A33.07,33.07,0,0,1,1310.74,921Zm.06-72a27.89,27.89,0,0,0-21.79,9.75q-8.65,9.75-8.66,23.91t8.66,23.85a29.28,29.28,0,0,0,43.52,0q8.6-9.69,8.6-23.85t-8.6-23.91A27.74,27.74,0,0,0,1310.8,849Z" transform="translate(-46.3 -193)"/><path class="cls-13" d="M1310.74,923.47a35.64,35.64,0,0,1-27.22-11.93c-7.23-7.85-10.9-17.58-10.9-28.92s3.67-21.07,10.9-28.93a37,37,0,0,1,54.44,0c7.24,7.86,10.9,17.59,10.9,28.93s-3.66,21.07-10.9,28.92A35.63,35.63,0,0,1,1310.74,923.47Zm.06-72a25.27,25.27,0,0,0-19.92,8.91c-5.4,6.08-8,13.36-8,22.25s2.62,16.14,8,22.18a26.78,26.78,0,0,0,39.79,0c5.37-6,8-13.3,8-22.19s-2.68-16.26-8-22.26A25.13,25.13,0,0,0,1310.8,851.46Zm-25.94,8.42a36.82,36.82,0,0,0-7.24,22.74c0,9.4,2.82,17.52,8.39,24.19-5.42-6.67-8.16-14.8-8.16-24.19A37.71,37.71,0,0,1,1284.86,859.88Zm52.78,1.42a38.25,38.25,0,0,1,6,21.32A37.83,37.83,0,0,1,1336.9,905a39.54,39.54,0,0,0,.74-43.69Z" transform="translate(-46.3 -193)"/><path class="cls-28" d="M1370.33,894l-10.13,25.8h-5.12L1384.71,845h2.94l29.85,74.88h-5.56L1401.7,894Zm15.58-40.6q-1.64,5.16-2.94,8.6l-10.9,27.52H1400l-10.78-27.4Q1386.68,855.73,1385.91,853.43Z" transform="translate(-46.3 -193)"/><path class="cls-13" d="M1417.5,922.33h-5.56a2.51,2.51,0,0,1-2.32-1.58L1400,896.53h-28l-9.51,24.21a2.51,2.51,0,0,1-2.33,1.59h-5.12a2.5,2.5,0,0,1-2.32-3.42L1382.39,844a2.47,2.47,0,0,1,2.32-1.58h2.94A2.5,2.5,0,0,1,1390,844l29.85,74.88a2.5,2.5,0,0,1-2.32,3.43Zm-3.86-5h.17l-18.32-46,6.8,17.28A2.52,2.52,0,0,1,1402,891a2.62,2.62,0,0,1-.53.57h.2a2.5,2.5,0,0,1,2.33,1.57Zm-44-27.41-.86,2.18a2.51,2.51,0,0,1,1.59-.57h.21a2.4,2.4,0,0,1-.53-.57A2.52,2.52,0,0,1,1369.6,889.92Zm6.15-2.87h20.54l-9.44-24L1386,861c-.25.7-.49,1.36-.73,2Zm10.16-36.12a2.48,2.48,0,0,1,1.7.67l-1.43-3.58-1.22,3.1a2.62,2.62,0,0,1,.93-.19Z" transform="translate(-46.3 -193)"/><path class="cls-28" d="M1452.36,844.72q16.34,0,27.29,10.6t10.94,28.84q0,18.24-10.07,27.41t-26,9.17q-11,0-22.66-1.14V845.41Q1440.6,844.72,1452.36,844.72Zm2.18,71.21q13.93,0,22.38-7.91t8.45-23.86q0-15.93-9.54-25.34a32.11,32.11,0,0,0-23.47-9.4q-9.91,0-15.25.46v65.24A148.17,148.17,0,0,0,1454.54,915.93Z" transform="translate(-46.3 -193)"/><path class="cls-13" d="M1454.54,923.24c-7.37,0-15.08-.39-22.91-1.16a2.49,2.49,0,0,1-2.25-2.48V845.41a2.51,2.51,0,0,1,2.3-2.5c5.85-.46,12.81-.69,20.68-.69,11.51,0,21.28,3.8,29,11.31s11.7,17.83,11.7,30.63-3.66,22.68-10.89,29.26S1465.73,923.24,1454.54,923.24Zm-20.16-5.92,1.89.16a2.5,2.5,0,0,1-1.66-2.36V849.88a2.5,2.5,0,0,1,1.4-2.25l-1.63.1Zm5.23-4.44c4,.36,9,.55,14.93.55,8.59,0,15.55-2.44,20.67-7.24s7.66-12.17,7.66-22c0-10-2.88-17.72-8.79-23.56s-13-8.68-21.72-8.68c-5.19,0-9.47.1-12.75.29Zm30.61-61.45a35.32,35.32,0,0,1,7.37,5.61c6.82,6.73,10.28,15.86,10.28,27.12s-3.11,19.94-9.24,25.68c-.57.54-1.17,1-1.78,1.54.68-.52,1.35-1.08,2-1.66,6.14-5.59,9.25-14.19,9.25-25.56s-3.42-20.49-10.18-27A35.17,35.17,0,0,0,1470.22,851.43Z" transform="translate(-46.3 -193)"/></g></svg>