<svg id="Layer_1" data-name="Layer 1" xmlns="http://www.w3.org/2000/svg" viewBox="0 0 663.15 530"><defs><style>.cls-1,.cls-3{fill:#382323;}.cls-1,.cls-10,.cls-22,.cls-34,.cls-7{opacity:0.5;}.cls-2{fill:#5e3f3f;}.cls-4{fill:#442c2c;}.cls-5{fill:#593c3c;}.cls-6{fill:#f95555;}.cls-30,.cls-7{fill:#ff6e6e;}.cls-10,.cls-8{fill:#ef4141;}.cls-9{fill:#2d1c1c;}.cls-11{fill:#e0a263;}.cls-12{fill:#cc8c52;}.cls-13{fill:#c17e48;}.cls-14{fill:#fff;}.cls-15{fill:#f2b47c;}.cls-16{fill:#b26f38;}.cls-17{fill:#eddcda;}.cls-18{fill:#ceb7b6;}.cls-19{fill:#ddb580;}.cls-20{fill:#4c3232;}.cls-21,.cls-22{fill:#ccbcbc;}.cls-23{fill:#c1b1b0;}.cls-24{fill:#ddcfce;}.cls-25{fill:#f4a490;}.cls-26{fill:#ffb9a4;}.cls-27{fill:#ffc9b6;}.cls-28{fill:#ffd8cc;}.cls-29{fill:#ff5e4c;}.cls-31{fill:#d3c5c5;}.cls-32{fill:#c1aeae;}.cls-33{fill:#efb078;}.cls-34{fill:#f9c193;}</style></defs><polygon class="cls-1" points="583.17 393.33 410.48 493.03 130.59 331.04 303.28 231.34 583.17 393.33"/><path class="cls-1" d="M275.55,471c-26.63,0-48.21,11.49-48.21,25.65s21.58,25.65,48.21,25.65,48.21-11.49,48.21-25.65S302.18,471,275.55,471Z" transform="translate(0)"/><path class="cls-1" d="M69.17,352.75c-18.83,0-34.1,8.13-34.1,18.14S50.34,389,69.17,389s34.11-8.13,34.11-18.15S88,352.75,69.17,352.75Z" transform="translate(0)"/><path class="cls-1" d="M98,177.32c-12.79,0-23.15,5.51-23.15,12.31S85.25,201.94,98,201.94s23.14-5.51,23.14-12.31S110.82,177.32,98,177.32Z" transform="translate(0)"/><path class="cls-1" d="M154.82,129.12c-17.83,0-32.28,7.69-32.28,17.17s14.45,17.17,32.28,17.17,32.28-7.69,32.28-17.17S172.64,129.12,154.82,129.12Z" transform="translate(0)"/><polygon class="cls-1" points="200.51 161.15 307.57 98.63 492.66 205.54 385.6 268.05 200.51 161.15"/><polygon class="cls-1" points="284.85 435.1 120.47 530 0 460.44 164.37 365.54 284.85 435.1"/><polygon class="cls-2" points="303.61 89.04 480.31 191.06 545.8 102.02 369.1 0 303.61 89.04"/><polygon class="cls-3" points="307.11 88.25 479.52 188.09 542.3 102.81 369.89 2.96 307.11 88.25"/><polygon class="cls-4" points="208.97 160.48 385.68 262.5 480.68 207.64 303.98 105.62 208.97 160.48"/><polygon class="cls-5" points="208.97 143.89 385.68 245.91 480.68 191.06 303.98 89.04 208.97 143.89"/><polygon class="cls-4" points="218.16 144.61 215.92 143.31 304.3 92.28 474.54 190.61 472.29 191.91 304.3 94.88 218.16 144.61"/><polygon class="cls-6" points="218.16 144.61 304.3 94.88 472.29 191.91 386.16 241.64 218.16 144.61"/><polygon class="cls-4" points="480.68 191.06 480.68 207.64 385.68 262.5 385.68 245.91 480.68 191.06"/><polygon class="cls-3" points="208.97 143.89 208.97 160.48 385.68 262.5 385.68 245.91 208.97 143.89"/><path class="cls-7" d="M315.54,185.11c2.14-2.23,9.16-1.36,11.2.73,8,8.21,22.95,11,20.76,15.68-1.24,2.69-6.07,2.72-8.51,2.45a42.25,42.25,0,0,1-8.07-2.18c-2.76-.87-5.62-1.44-8.35-2.43C317.42,197.5,310.08,190.79,315.54,185.11Z" transform="translate(0)"/><path class="cls-7" d="M356.88,209.12c6.78-5.93,14.58-2.61,17.58-2.88a50.31,50.31,0,0,0,13.91-3.75c7.58-3,14.91-6.85,23.07-8,5.54-.78,14.45-.73,17.83,4.79,1.81,3,3.91,9.33-8.08,16.29-6.72,3.89-13.3,9.13-21,10.69-6.87,1.4-14,0-20.6-2-5.82-1.74-14.78-2.86-20.81-5C355.73,218.15,352.55,212.91,356.88,209.12Z" transform="translate(0)"/><path class="cls-7" d="M273.79,118.54c12.34-9.31,22.95-12.6,27.08-13.1,7.06-.85,14.14,2.39,20.42,5.21a151.53,151.53,0,0,1,20.9,11.58c2.76,1.82,10.63,5.34,8.93,9.91-1.78,4.79-9.58,5.48-13.7,4.66-3.74-.73-7.07-2.05-10.95-2.06s-7.14.38-10.88-.88c-4.2-1.42-7.47-2.85-12.06-2.34-4.17.46-7.93,1.37-12.15.91-3.32-.37-6.63-1.06-9.91-1.69-3.44-.66-7.51-1.09-10.67-2.67C266,125.64,270.3,121.17,273.79,118.54Z" transform="translate(0)"/><path class="cls-8" d="M227.86,142.46a.11.11,0,0,1,.06-.11c.58-.32,1.27.44,1.56.89a3,3,0,0,1,.38,2.47.55.55,0,0,1-1.07-.29,2.45,2.45,0,0,0-.25-1.89C228.33,143.16,227.9,142.89,227.86,142.46Z" transform="translate(0)"/><path class="cls-8" d="M231.32,147.77c.17-.57.62-.88,1-1.33a8.31,8.31,0,0,1,1.18-1.5c.12-.09.36-.09.39.11a3.54,3.54,0,0,1-2,3.3A.47.47,0,0,1,231.32,147.77Z" transform="translate(0)"/><path class="cls-8" d="M236.75,139.45c1.18.36,2.9,1.35,3.34,2.56a.52.52,0,0,1-.76.59,8.16,8.16,0,0,1-1.32-1.37,15.81,15.81,0,0,0-1.54-1.3C236.25,139.74,236.49,139.37,236.75,139.45Z" transform="translate(0)"/><path class="cls-8" d="M243.32,141.38c.25,0,.48.25.27.46-.42.39-.87.72-1.3,1.11a9.06,9.06,0,0,1-1.2,1c-.28.17-.71-.12-.58-.45A3.77,3.77,0,0,1,243.32,141.38Z" transform="translate(0)"/><path class="cls-8" d="M246.75,153.59a6,6,0,0,1,2.18-.6c.36,0,.4.43.16.62a12,12,0,0,1-1.89,1,2,2,0,0,1-1.48.37.29.29,0,0,1-.21-.37C245.71,154,246.18,153.83,246.75,153.59Z" transform="translate(0)"/><path class="cls-8" d="M269.66,165.78c1,.2,2.58,2.07,1.91,3.09a.38.38,0,0,1-.51.13c-.48-.3-.5-.79-.73-1.28s-.74-.95-1-1.48A.32.32,0,0,1,269.66,165.78Z" transform="translate(0)"/><path class="cls-8" d="M279.31,168a.26.26,0,0,1,.13.48,10,10,0,0,0-1.49.92,4.11,4.11,0,0,1-1.33.8.26.26,0,0,1-.31-.31C276.52,168.59,278.16,168,279.31,168Z" transform="translate(0)"/><path class="cls-8" d="M306.49,169.67a.3.3,0,0,1,.08.58,3.89,3.89,0,0,0-1.43.84c-.31.29-.47.58-.88.71a.38.38,0,0,1-.47-.35C303.71,170.26,305.55,169.63,306.49,169.67Z" transform="translate(0)"/><path class="cls-8" d="M300.85,168.37c.64.53,1.41,1.47,1.18,2.34a.45.45,0,0,1-.74.19c-.55-.43-.79-1.38-1.12-2A.44.44,0,0,1,300.85,168.37Z" transform="translate(0)"/><path class="cls-8" d="M306.15,173.91c.78.65,2.16,2,1.73,3.11a.31.31,0,0,1-.43.18,2.33,2.33,0,0,1-.81-1.11,7.17,7.17,0,0,0-1.09-1.58A.42.42,0,0,1,306.15,173.91Z" transform="translate(0)"/><path class="cls-8" d="M291.83,178c.79-1,2.52-1.07,3.67-.86a.19.19,0,0,1,0,.37,10.64,10.64,0,0,0-1.68.44,12.71,12.71,0,0,1-1.62.69A.38.38,0,0,1,291.83,178Z" transform="translate(0)"/><path class="cls-8" d="M256.43,138.69c1.05.2,2.54,2,2.1,3.11-.09.21-.35.4-.58.24-.47-.36-.54-.85-.82-1.35s-.79-1-1.05-1.54A.32.32,0,0,1,256.43,138.69Z" transform="translate(0)"/><path class="cls-8" d="M265.88,151.42a5.88,5.88,0,0,1,3.33-.67c.3.05.28.45.07.59a14.72,14.72,0,0,1-2.89,1.29.68.68,0,0,1-.64-.17.57.57,0,0,1-.2-.47A.68.68,0,0,1,265.88,151.42Z" transform="translate(0)"/><path class="cls-8" d="M265.8,146.89c.2-.06.45.14.36.36a9.58,9.58,0,0,1-.83,1.42,6,6,0,0,1-1,1.39.38.38,0,0,1-.63-.26A3,3,0,0,1,265.8,146.89Z" transform="translate(0)"/><path class="cls-8" d="M285.63,148a3.79,3.79,0,0,1,1.52,3c.06.77-1.14.77-1.21,0a10.2,10.2,0,0,0-.81-2.6A.34.34,0,0,1,285.63,148Z" transform="translate(0)"/><path class="cls-8" d="M288.51,153.51a5.39,5.39,0,0,1,2.71-2.55c.24-.11.6.14.41.41a11.83,11.83,0,0,1-1.19,1.36,5.26,5.26,0,0,1-1.37,1.21C288.8,154.07,288.39,153.85,288.51,153.51Z" transform="translate(0)"/><path class="cls-8" d="M281.32,125.48a4.39,4.39,0,0,1,3.79-1,.27.27,0,0,1,.07.49,18.57,18.57,0,0,1-1.73.72,7.45,7.45,0,0,1-1.78.69C281.19,126.39,281.09,125.77,281.32,125.48Z" transform="translate(0)"/><path class="cls-8" d="M276.71,123.39a3.86,3.86,0,0,1,2.05,2.8.45.45,0,0,1-.76.31,5.35,5.35,0,0,1-.83-1.27c-.29-.48-.66-.89-.91-1.39A.33.33,0,0,1,276.71,123.39Z" transform="translate(0)"/><path class="cls-8" d="M266.22,128.78a3.42,3.42,0,0,1,3.16-1.48.18.18,0,0,1,.08.31,9.14,9.14,0,0,1-1.33.9,6.1,6.1,0,0,1-1.43.89C266.33,129.52,266.07,129.09,266.22,128.78Z" transform="translate(0)"/><path class="cls-8" d="M276,134c1.36.33,3,1.13,3.51,2.54a.42.42,0,0,1-.6.46,17.82,17.82,0,0,1-1.36-1.25,10.1,10.1,0,0,0-1.78-1.2C275.47,134.34,275.69,133.88,276,134Z" transform="translate(0)"/><path class="cls-8" d="M297.37,136a7,7,0,0,1,3.81-1.62c.35,0,.42.45.17.62-1.05.69-2.19,1.28-3.27,1.93a.59.59,0,0,1-.6,0,.67.67,0,0,1-.27-.35A.6.6,0,0,1,297.37,136Z" transform="translate(0)"/><path class="cls-8" d="M297.15,131.25a4.39,4.39,0,0,1,2.25-1.44.2.2,0,0,1,.23.29,4.34,4.34,0,0,1-2,1.82A.46.46,0,0,1,297.15,131.25Z" transform="translate(0)"/><path class="cls-8" d="M318.15,149.6a.34.34,0,0,1,.17.63c-.59.37-1.21.68-1.79,1.07a3.16,3.16,0,0,1-1.53.78.37.37,0,0,1-.35-.46C314.9,150.34,317,149.65,318.15,149.6Z" transform="translate(0)"/><path class="cls-8" d="M309.13,148.43a5.31,5.31,0,0,1,1.7,3.28.37.37,0,0,1-.68.19,11,11,0,0,1-.73-1.55c-.24-.52-.54-1-.8-1.52A.33.33,0,0,1,309.13,148.43Z" transform="translate(0)"/><path class="cls-8" d="M322.14,165.67c.47-.56,1.23-.52,1.91-.58a22.52,22.52,0,0,1,2.6-.06.21.21,0,0,1,.06.41,22.78,22.78,0,0,1-2.51.79,2.53,2.53,0,0,1-2,0A.39.39,0,0,1,322.14,165.67Z" transform="translate(0)"/><path class="cls-8" d="M319.89,162c.21-.26.58,0,.6.25a8.88,8.88,0,0,1-.12,1.54,4.49,4.49,0,0,1-.18,1.37.41.41,0,0,1-.74.09A3.32,3.32,0,0,1,319.89,162Z" transform="translate(0)"/><path class="cls-8" d="M320.72,141c.65-1.19,2.89-1.72,4.1-1.32a.28.28,0,0,1,.07.51,12.26,12.26,0,0,1-1.86.8,6.39,6.39,0,0,1-1.9.73A.49.49,0,0,1,320.72,141Z" transform="translate(0)"/><path class="cls-8" d="M320.63,136.73a.34.34,0,0,1,.33.56c-.61.56-.91,1.37-1.53,1.9a.35.35,0,0,1-.58-.16C318.55,137.85,319.62,137,320.63,136.73Z" transform="translate(0)"/><path class="cls-8" d="M290.92,109.63c1,.69,2.07,1.69,2,3,0,.26-.37.48-.56.24-.7-.88-1-2-1.76-2.88C290.49,109.81,290.69,109.47,290.92,109.63Z" transform="translate(0)"/><path class="cls-8" d="M296.93,109a.3.3,0,0,1,.44.18,4.17,4.17,0,0,1-.05,1.49,3,3,0,0,1-.25,1.36.41.41,0,0,1-.69,0A2.61,2.61,0,0,1,296.93,109Z" transform="translate(0)"/><path class="cls-8" d="M312.55,108.88a6.93,6.93,0,0,1,4,.11.25.25,0,0,1,0,.48,6.84,6.84,0,0,1-4,.1A.36.36,0,0,1,312.55,108.88Z" transform="translate(0)"/><path class="cls-8" d="M310.87,105.12c.32-.28.89.08.62.48a14.14,14.14,0,0,1-1.24,2.05.45.45,0,0,1-.75-.31A3.29,3.29,0,0,1,310.87,105.12Z" transform="translate(0)"/><path class="cls-8" d="M315.51,116a2.86,2.86,0,0,1,2.15,2.22c0,.34-.44.48-.66.27a7,7,0,0,1-.71-1c-.3-.41-.65-.76-1-1.14A.21.21,0,0,1,315.51,116Z" transform="translate(0)"/><path class="cls-8" d="M321.24,119.46a12.17,12.17,0,0,1,5.2-.38.3.3,0,0,1,.08.59,12.66,12.66,0,0,1-5.28.66C320.75,120.24,320.87,119.6,321.24,119.46Z" transform="translate(0)"/><path class="cls-8" d="M331,124.7a3.37,3.37,0,0,1,1.12,3.84.41.41,0,0,1-.7,0,5.61,5.61,0,0,1-.5-1.78,5.33,5.33,0,0,1-.39-1.79A.32.32,0,0,1,331,124.7Z" transform="translate(0)"/><path class="cls-8" d="M337.41,128a.32.32,0,0,1,.36.47,10.9,10.9,0,0,1-1.39,1.72.3.3,0,0,1-.5-.21A2.3,2.3,0,0,1,337.41,128Z" transform="translate(0)"/><path class="cls-8" d="M357.74,148.73c.86-1.37,3.32-1.63,4.79-1.56a.35.35,0,0,1,.09.69c-.8.22-1.6.46-2.38.76a6.21,6.21,0,0,1-2.15.72A.41.41,0,0,1,357.74,148.73Z" transform="translate(0)"/><path class="cls-8" d="M357.22,145.37a.41.41,0,0,1,.55.56,12.94,12.94,0,0,1-1.13,2,.39.39,0,0,1-.64-.16A2.25,2.25,0,0,1,357.22,145.37Z" transform="translate(0)"/><path class="cls-8" d="M354.26,133.27a3.92,3.92,0,0,1,3.53-.06.27.27,0,0,1-.06.49,6.31,6.31,0,0,1-1.67.25,5.42,5.42,0,0,1-1.7.09A.43.43,0,0,1,354.26,133.27Z" transform="translate(0)"/><path class="cls-8" d="M349.15,132.91c.91.63,2,1.79,1.65,3a.46.46,0,0,1-.82.11c-.51-.85-.54-1.81-1.21-2.61C348.56,133.15,348.84,132.69,349.15,132.91Z" transform="translate(0)"/><path class="cls-8" d="M340.6,146.51a4.27,4.27,0,0,1,3.74-1,.23.23,0,0,1,.05.42,15,15,0,0,1-1.72.68,7.25,7.25,0,0,1-1.8.57C340.52,147.21,340.4,146.73,340.6,146.51Z" transform="translate(0)"/><path class="cls-8" d="M337.22,142.15c.12-.16.38-.06.43.11a6.31,6.31,0,0,1,.12,3.14.28.28,0,0,1-.47.12A2.58,2.58,0,0,1,337.22,142.15Z" transform="translate(0)"/><path class="cls-8" d="M344,159.91a.3.3,0,0,1,.48-.13,7.27,7.27,0,0,1,.76,1.33,6.37,6.37,0,0,1,.67,1.45c.08.34-.32.76-.66.51A3.58,3.58,0,0,1,344,159.91Z" transform="translate(0)"/><path class="cls-8" d="M373.29,148.13a4.75,4.75,0,0,1,2-1.46.45.45,0,0,1,.45.77,4.72,4.72,0,0,1-2.16,1.19A.33.33,0,0,1,373.29,148.13Z" transform="translate(0)"/><path class="cls-8" d="M310.32,187.9a.1.1,0,0,1,.06-.1c.58-.32,1.27.44,1.56.88a3.06,3.06,0,0,1,.38,2.48.56.56,0,0,1-1.07-.3A2.43,2.43,0,0,0,311,189C310.79,188.61,310.36,188.34,310.32,187.9Z" transform="translate(0)"/><path class="cls-8" d="M313.78,193.22a4,4,0,0,1,1-1.34,8.6,8.6,0,0,1,1.18-1.49c.12-.09.36-.09.39.1a3.58,3.58,0,0,1-2,3.31A.47.47,0,0,1,313.78,193.22Z" transform="translate(0)"/><path class="cls-8" d="M319.21,184.9c1.18.35,2.9,1.34,3.34,2.56a.52.52,0,0,1-.76.58,7.8,7.8,0,0,1-1.32-1.37,17.35,17.35,0,0,0-1.54-1.3C318.71,185.19,319,184.82,319.21,184.9Z" transform="translate(0)"/><path class="cls-8" d="M325.78,186.83c.25,0,.48.25.27.45-.42.4-.88.73-1.3,1.11a7.78,7.78,0,0,1-1.2,1A.4.4,0,0,1,323,189,3.74,3.74,0,0,1,325.78,186.83Z" transform="translate(0)"/><path class="cls-8" d="M329.21,199a5.77,5.77,0,0,1,2.17-.6.33.33,0,0,1,.17.61,12.86,12.86,0,0,1-1.89,1,2,2,0,0,1-1.48.37.32.32,0,0,1-.22-.38C328.17,199.49,328.64,199.28,329.21,199Z" transform="translate(0)"/><path class="cls-8" d="M352.12,211.23c1,.19,2.58,2.06,1.91,3.08a.37.37,0,0,1-.51.13c-.48-.3-.5-.79-.73-1.28s-.74-.94-1-1.48A.31.31,0,0,1,352.12,211.23Z" transform="translate(0)"/><path class="cls-8" d="M361.77,213.44a.27.27,0,0,1,.13.49,9.9,9.9,0,0,0-1.49.91,4.11,4.11,0,0,1-1.33.8.26.26,0,0,1-.31-.31C359,214,360.62,213.48,361.77,213.44Z" transform="translate(0)"/><path class="cls-8" d="M389,215.11a.3.3,0,0,1,.08.59,3.87,3.87,0,0,0-1.43.83c-.32.29-.47.58-.88.72a.38.38,0,0,1-.47-.36C386.17,215.7,388,215.08,389,215.11Z" transform="translate(0)"/><path class="cls-8" d="M383.31,213.82c.64.52,1.41,1.46,1.18,2.33a.45.45,0,0,1-.74.2c-.55-.43-.79-1.38-1.12-2A.43.43,0,0,1,383.31,213.82Z" transform="translate(0)"/><path class="cls-8" d="M389,232.65c.53-1,2.61-1.35,3.59-1a.23.23,0,0,1,.06.42,12,12,0,0,1-1.67.65c-.55.23-1,.61-1.58.59A.47.47,0,0,1,389,232.65Z" transform="translate(0)"/><path class="cls-8" d="M388.61,219.35c.78.66,2.16,2,1.73,3.12a.3.3,0,0,1-.43.17,2.36,2.36,0,0,1-.81-1.1A7,7,0,0,0,388,220,.43.43,0,0,1,388.61,219.35Z" transform="translate(0)"/><path class="cls-8" d="M374.29,223.48c.79-1,2.52-1.07,3.67-.86a.19.19,0,0,1,0,.37,10,10,0,0,0-1.69.45,10.78,10.78,0,0,1-1.61.68A.38.38,0,0,1,374.29,223.48Z" transform="translate(0)"/><path class="cls-8" d="M338.89,184.14c1.05.2,2.54,2,2.1,3.11-.09.2-.35.4-.58.23-.47-.35-.54-.85-.82-1.34s-.79-1-1-1.54A.31.31,0,0,1,338.89,184.14Z" transform="translate(0)"/><path class="cls-8" d="M348.34,196.87a5.88,5.88,0,0,1,3.33-.68c.3.05.28.46.07.6a15,15,0,0,1-2.89,1.28.64.64,0,0,1-.64-.17.54.54,0,0,1-.2-.46A.65.65,0,0,1,348.34,196.87Z" transform="translate(0)"/><path class="cls-8" d="M348.26,192.33c.2-.05.45.15.36.36a9.68,9.68,0,0,1-.83,1.43,5.66,5.66,0,0,1-1,1.38.37.37,0,0,1-.62-.25A3,3,0,0,1,348.26,192.33Z" transform="translate(0)"/><path class="cls-8" d="M368.09,193.45a3.83,3.83,0,0,1,1.52,3c.06.77-1.14.77-1.21,0a10.27,10.27,0,0,0-.81-2.61A.34.34,0,0,1,368.09,193.45Z" transform="translate(0)"/><path class="cls-8" d="M371,199a5.37,5.37,0,0,1,2.71-2.56c.24-.11.6.14.41.41a11,11,0,0,1-1.19,1.36,5.26,5.26,0,0,1-1.37,1.21C371.26,199.52,370.85,199.29,371,199Z" transform="translate(0)"/><path class="cls-8" d="M363.78,170.92a4.42,4.42,0,0,1,3.79-1,.28.28,0,0,1,.07.5,18.48,18.48,0,0,1-1.73.71,7.06,7.06,0,0,1-1.78.69C363.65,171.84,363.55,171.21,363.78,170.92Z" transform="translate(0)"/><path class="cls-8" d="M359.17,168.84a3.91,3.91,0,0,1,2.05,2.79.45.45,0,0,1-.76.32,5.71,5.71,0,0,1-.84-1.27c-.28-.48-.65-.89-.9-1.4A.33.33,0,0,1,359.17,168.84Z" transform="translate(0)"/><path class="cls-8" d="M348.68,174.22a3.44,3.44,0,0,1,3.16-1.47.18.18,0,0,1,.08.31,11.08,11.08,0,0,1-1.33.9,6.1,6.1,0,0,1-1.43.89A.43.43,0,0,1,348.68,174.22Z" transform="translate(0)"/><path class="cls-8" d="M358.47,179.4c1.36.32,3,1.12,3.51,2.53a.41.41,0,0,1-.6.46,17.68,17.68,0,0,1-1.36-1.24,10.16,10.16,0,0,0-1.78-1.21C357.93,179.78,358.15,179.32,358.47,179.4Z" transform="translate(0)"/><path class="cls-8" d="M330.13,172c1.36.32,3,1.12,3.51,2.53a.41.41,0,0,1-.6.46c-.51-.35-.89-.84-1.37-1.24a9.72,9.72,0,0,0-1.77-1.21C329.59,172.33,329.81,171.87,330.13,172Z" transform="translate(0)"/><path class="cls-8" d="M379.83,181.44a6.86,6.86,0,0,1,3.81-1.62c.35,0,.42.44.17.61-1.05.69-2.19,1.28-3.27,1.93a.59.59,0,0,1-.6,0,.67.67,0,0,1-.27-.35A.58.58,0,0,1,379.83,181.44Z" transform="translate(0)"/><path class="cls-8" d="M379.61,176.7a4.33,4.33,0,0,1,2.25-1.44.2.2,0,0,1,.23.29,4.37,4.37,0,0,1-2,1.81A.45.45,0,0,1,379.61,176.7Z" transform="translate(0)"/><path class="cls-8" d="M400.61,195a.34.34,0,0,1,.17.63c-.59.38-1.21.69-1.79,1.07a3.09,3.09,0,0,1-1.53.79.37.37,0,0,1-.35-.46C397.36,195.78,399.48,195.1,400.61,195Z" transform="translate(0)"/><path class="cls-8" d="M391.59,193.88a5.25,5.25,0,0,1,1.7,3.28.37.37,0,0,1-.68.18,11,11,0,0,1-.73-1.55c-.24-.52-.54-1-.8-1.52A.33.33,0,0,1,391.59,193.88Z" transform="translate(0)"/><path class="cls-8" d="M404.6,211.11c.47-.55,1.23-.51,1.9-.57a25.27,25.27,0,0,1,2.61-.07.22.22,0,0,1,.06.42,25.08,25.08,0,0,1-2.51.78,2.49,2.49,0,0,1-2,.05A.4.4,0,0,1,404.6,211.11Z" transform="translate(0)"/><path class="cls-8" d="M402.35,207.46c.21-.27.58,0,.6.24a8.8,8.8,0,0,1-.12,1.54,4.49,4.49,0,0,1-.18,1.37.41.41,0,0,1-.74.1A3.32,3.32,0,0,1,402.35,207.46Z" transform="translate(0)"/><path class="cls-8" d="M403.18,186.48c.65-1.19,2.89-1.71,4.1-1.31a.28.28,0,0,1,.07.5,11.38,11.38,0,0,1-1.86.81,6.36,6.36,0,0,1-1.9.72A.48.48,0,0,1,403.18,186.48Z" transform="translate(0)"/><path class="cls-8" d="M403.09,182.17a.34.34,0,0,1,.33.57c-.61.55-.92,1.36-1.53,1.89a.35.35,0,0,1-.58-.15C401,183.3,402.08,182.46,403.09,182.17Z" transform="translate(0)"/><path class="cls-8" d="M373.38,155.08a3.84,3.84,0,0,1,2,3c0,.26-.37.47-.56.23-.7-.88-1-2-1.76-2.88C373,155.26,373.14,154.92,373.38,155.08Z" transform="translate(0)"/><path class="cls-8" d="M379.39,154.39a.3.3,0,0,1,.44.18,4.16,4.16,0,0,1-.05,1.49,3,3,0,0,1-.25,1.36.4.4,0,0,1-.69,0A2.6,2.6,0,0,1,379.39,154.39Z" transform="translate(0)"/><path class="cls-8" d="M395,154.33a6.84,6.84,0,0,1,4,.1.26.26,0,0,1,0,.49,6.93,6.93,0,0,1-4,.1A.36.36,0,0,1,395,154.33Z" transform="translate(0)"/><path class="cls-8" d="M393.33,150.56c.32-.27.89.08.62.48a13.14,13.14,0,0,1-1.24,2.05.44.44,0,0,1-.75-.31A3.33,3.33,0,0,1,393.33,150.56Z" transform="translate(0)"/><path class="cls-8" d="M398,161.4a2.86,2.86,0,0,1,2.15,2.21.39.39,0,0,1-.66.27,6.45,6.45,0,0,1-.71-1c-.3-.4-.65-.76-1-1.13A.21.21,0,0,1,398,161.4Z" transform="translate(0)"/><path class="cls-8" d="M403.69,164.9a12.39,12.39,0,0,1,5.21-.37.3.3,0,0,1,.08.59,12.52,12.52,0,0,1-5.29.65C403.21,165.69,403.33,165,403.69,164.9Z" transform="translate(0)"/><path class="cls-8" d="M413.47,170.15a3.37,3.37,0,0,1,1.12,3.84.42.42,0,0,1-.7,0,5.68,5.68,0,0,1-.5-1.78,5.38,5.38,0,0,1-.39-1.79A.32.32,0,0,1,413.47,170.15Z" transform="translate(0)"/><path class="cls-8" d="M419.87,173.49a.32.32,0,0,1,.36.46,10.06,10.06,0,0,1-1.39,1.72.3.3,0,0,1-.5-.2A2.29,2.29,0,0,1,419.87,173.49Z" transform="translate(0)"/><path class="cls-8" d="M440.2,194.18c.86-1.37,3.32-1.64,4.79-1.57a.35.35,0,0,1,.09.69c-.8.23-1.6.47-2.38.76a6,6,0,0,1-2.15.73A.41.41,0,0,1,440.2,194.18Z" transform="translate(0)"/><path class="cls-8" d="M439.68,190.82a.4.4,0,0,1,.55.55,12.59,12.59,0,0,1-1.13,2,.39.39,0,0,1-.64-.17A2.24,2.24,0,0,1,439.68,190.82Z" transform="translate(0)"/><path class="cls-8" d="M436.72,178.72a3.92,3.92,0,0,1,3.53-.07.28.28,0,0,1-.06.5,6.75,6.75,0,0,1-1.67.25,5.13,5.13,0,0,1-1.7.08A.42.42,0,0,1,436.72,178.72Z" transform="translate(0)"/><path class="cls-8" d="M431.61,178.35c.9.64,1.95,1.8,1.65,3a.45.45,0,0,1-.82.11c-.51-.85-.55-1.8-1.21-2.61C431,178.59,431.29,178.13,431.61,178.35Z" transform="translate(0)"/><path class="cls-8" d="M423.06,192a4.27,4.27,0,0,1,3.74-1,.22.22,0,0,1,.05.41,13.42,13.42,0,0,1-1.72.69,7.22,7.22,0,0,1-1.8.56C423,192.65,422.85,192.18,423.06,192Z" transform="translate(0)"/><path class="cls-8" d="M419.68,187.59a.26.26,0,0,1,.43.12,6.27,6.27,0,0,1,.12,3.13.29.29,0,0,1-.47.13A2.59,2.59,0,0,1,419.68,187.59Z" transform="translate(0)"/><path class="cls-8" d="M426.41,205.36a.29.29,0,0,1,.48-.13,7.19,7.19,0,0,1,.76,1.32,6.79,6.79,0,0,1,.67,1.45c.08.35-.32.76-.66.51A3.55,3.55,0,0,1,426.41,205.36Z" transform="translate(0)"/><path class="cls-8" d="M455.75,193.57a4.84,4.84,0,0,1,2-1.46c.51-.29.91.44.45.78a4.72,4.72,0,0,1-2.16,1.19C455.78,194.11,455.63,193.77,455.75,193.57Z" transform="translate(0)"/><polygon class="cls-3" points="545.8 102.02 548.2 115.35 491.48 190.76 480.31 191.06 545.8 102.02"/><polygon class="cls-9" points="369.89 2.96 371.76 13.33 315.04 88.75 307.11 88.25 369.89 2.96"/><polygon class="cls-4" points="542.3 102.81 537.62 109.23 371.76 13.33 369.89 2.96 542.3 102.81"/><polygon class="cls-4" points="315.04 88.75 481.71 185.12 479.52 188.09 307.11 88.25 315.04 88.75"/><polygon class="cls-10" points="287.9 148.57 331.56 173.78 374.75 148.7 331.09 123.49 287.9 148.57"/><polygon class="cls-11" points="292.1 141.45 331.66 164.29 370.79 141.57 331.23 118.73 292.1 141.45"/><polygon class="cls-12" points="302.62 138.88 331.8 155.73 360.67 138.97 331.49 122.12 302.62 138.88"/><polygon class="cls-12" points="331.66 164.29 331.66 171.1 292.1 148.26 292.1 141.45 331.66 164.29"/><polygon class="cls-13" points="370.79 141.57 370.79 148.38 331.66 171.1 331.66 164.29 370.79 141.57"/><path class="cls-14" d="M331.32,129.47c8,0,14.52,3.46,14.52,7.72s-6.5,7.73-14.52,7.73-14.51-3.46-14.51-7.73S323.31,129.47,331.32,129.47Z" transform="translate(0)"/><path class="cls-11" d="M331.47,127.69c7,0,12.77,3,12.77,6.79s-5.72,6.79-12.77,6.79-12.77-3-12.77-6.79S324.42,127.69,331.47,127.69Z" transform="translate(0)"/><path class="cls-14" d="M331.32,122.76c8,0,14.52,3.45,14.52,7.72s-6.5,7.72-14.52,7.72-14.51-3.46-14.51-7.72S323.31,122.76,331.32,122.76Z" transform="translate(0)"/><path class="cls-11" d="M321.46,114.53c-.41-5-4.18-10.3-4.18-10.3l7.79,1.65,6.46.37,6.46-.37,8-1.65s-3.94,5.28-4.35,10.3c-.3,3.72,2.6,9.4,2.6,12.8v0c0,.14,0,.28,0,.42,0,3.75-5.72,6.79-12.77,6.79s-12.77-3-12.77-6.79a3.84,3.84,0,0,1,.24-1.3C319.33,123,321.74,118,321.46,114.53Z" transform="translate(0)"/><path class="cls-11" d="M313.8,93.47a17.86,17.86,0,1,0,17.86-17.86A17.86,17.86,0,0,0,313.8,93.47Z" transform="translate(0)"/><path class="cls-15" d="M329.37,92.4c3,5.2,8.8,7.48,12.95,5.08s5.08-8.56,2.08-13.76-8.8-7.48-13-5.08S326.36,87.2,329.37,92.4Z" transform="translate(0)"/><path class="cls-14" d="M335.61,86.75c1.81,2.16,4.56,2.84,6.14,1.52s1.39-4.14-.41-6.31-4.55-2.84-6.14-1.52S333.81,84.59,335.61,86.75Z" transform="translate(0)"/><path class="cls-13" d="M319.07,99.27a.36.36,0,0,1,.71-.09c.23.71.35,1.46.56,2.18s.52,1.42.72,2.15a.57.57,0,0,1-1,.44A8.93,8.93,0,0,1,319.07,99.27Z" transform="translate(0)"/><path class="cls-13" d="M323.75,103.34c.15-.12.35,0,.36.2,0,.71-.31,1.38-.33,2.1a13.39,13.39,0,0,1,.13,2,.44.44,0,0,1-.74.19C322.28,106.79,322.65,104.14,323.75,103.34Z" transform="translate(0)"/><path class="cls-13" d="M322.4,123.92c.08-.26.5-.3.56,0a8.28,8.28,0,0,0,1.34,3.69.5.5,0,0,1,0,.5.47.47,0,0,1-.3.23.49.49,0,0,1-.55-.23A5,5,0,0,1,322.4,123.92Z" transform="translate(0)"/><path class="cls-13" d="M321,127.63a15.07,15.07,0,0,0,1.11,1.42,8.11,8.11,0,0,1,1.22,1.12.38.38,0,0,1-.32.57c-1.27-.1-2.37-1.73-2.48-2.92A.28.28,0,0,1,321,127.63Z" transform="translate(0)"/><path class="cls-16" d="M334.55,164.71c.93-.11,1.87-.05,2.8-.14.32,0,.39.43.15.58a3.17,3.17,0,0,1-3.12.21A.35.35,0,0,1,334.55,164.71Z" transform="translate(0)"/><path class="cls-16" d="M341.51,162.57c.38-.42.85-.73,1.21-1.18s.5-.88.84-1.26a.28.28,0,0,1,.46.12,2.81,2.81,0,0,1-2.3,2.85C341.44,163.13,341.34,162.75,341.51,162.57Z" transform="translate(0)"/><path class="cls-12" d="M300.3,138.53a.34.34,0,0,1,.53.4c-.46.8-.16,1.69-.55,2.48a.27.27,0,0,1-.38.1C298.74,140.78,299.54,139.25,300.3,138.53Z" transform="translate(0)"/><path class="cls-12" d="M300.84,143.5a4.68,4.68,0,0,1,1.71-.32c.71-.09,1.41-.22,2.11-.3.27,0,.36.38.14.5-1,.54-2.76,1.22-3.88.76C300.67,144,300.54,143.65,300.84,143.5Z" transform="translate(0)"/><path class="cls-16" d="M365.09,149.27c.55-.55,1.28-.89,1.83-1.46a7.16,7.16,0,0,0,1.35-2.08.22.22,0,0,1,.4.11c-.16,1.65-1.49,3.91-3.33,4A.36.36,0,0,1,365.09,149.27Z" transform="translate(0)"/><polygon class="cls-14" points="274.22 429.29 121.18 517.64 9.02 452.89 162.05 364.53 274.22 429.29"/><path class="cls-17" d="M165.84,370.62c.1,12.82-2,25.12-5.54,37.47-1.81,6.4-2.46,11.53-4.29,17.93-.95,3.33-1.63,8.54-3.43,11.57-1.52,2.55-6.64,5-10,6.12-5.81,2-20.13,4.18-25.43,4.9q-15.49,2.13-31.44,3.51c-22,1.91-44.44,2.56-67.09,2.77-.35,0-.33.31,0,.32,22.6.7,42.59,1.46,64.66.33,15-.77,25.48-1.46,36.34-2.43,15.46-1.38,26.7-4.16,32.78-6.7,8.24-3.44,8.44-11.4,9.08-13.67,2.09-7.51,3.65-15.89,5-23.52,2.47-14.2,3.23-24.59.21-38.56C166.69,370.32,165.84,370.28,165.84,370.62Z" transform="translate(0)"/><polygon class="cls-17" points="121.18 523.25 121.18 517.64 9.02 452.89 9.02 458.49 121.18 523.25"/><polygon class="cls-18" points="274.22 434.89 274.22 429.29 121.18 517.64 121.18 523.25 274.22 434.89"/><path class="cls-18" d="M143.51,393.27a4.05,4.05,0,0,0-2.08-2.6c-.19-.1-.51.06-.41.31a23.13,23.13,0,0,1,1.09,2.68c.23.86.06,1.89.53,2.67a.46.46,0,0,0,.7.09C144.13,395.61,143.85,394.24,143.51,393.27Z" transform="translate(0)"/><path class="cls-18" d="M168.07,474.69a.38.38,0,0,0-.2.71c.8.48,1.65.91,2.42,1.45a9.33,9.33,0,0,0,2.11,1.48.52.52,0,0,0,.64-.63C172.53,475.83,169.84,474.7,168.07,474.69Z" transform="translate(0)"/><path class="cls-19" d="M257.09,423.64a.34.34,0,0,0-.58.24c.06,1.18.48,2.32.59,3.51a17.85,17.85,0,0,0,.2,3.36.62.62,0,0,0,1.13.15C259.38,428.93,258.52,425.22,257.09,423.64Z" transform="translate(0)"/><path class="cls-18" d="M256.8,433.1c-.64-.48-1.48-.67-2.17-1.1s-1.2-1.05-1.88-1.47a.43.43,0,0,0-.62.48,4.65,4.65,0,0,0,4.52,3.2C257.23,434.12,257.16,433.37,256.8,433.1Z" transform="translate(0)"/><path class="cls-18" d="M184.52,383.86a11.85,11.85,0,0,0-7.11-.67.4.4,0,0,0,0,.76c1.17.25,2.36.3,3.53.51s2.16.54,3.25.62A.66.66,0,0,0,184.52,383.86Z" transform="translate(0)"/><path class="cls-18" d="M189,385.47c0-.32-.46-.27-.6-.08a21.21,21.21,0,0,0-1.41,2.67,9.55,9.55,0,0,0-1.38,2.52.73.73,0,0,0,1.06.81,5.27,5.27,0,0,0,1.73-2.74A6.74,6.74,0,0,0,189,385.47Z" transform="translate(0)"/><path class="cls-18" d="M120.87,507.72a11.58,11.58,0,0,1-1-5.69c0-.32-.46-.36-.54-.07a9.15,9.15,0,0,0,.12,6.15C119.81,509,121.22,508.57,120.87,507.72Z" transform="translate(0)"/><path class="cls-18" d="M128.91,507.25c-1-1.62-3.93-2.26-5.68-1.89a.28.28,0,0,0-.07.51c.84.42,1.72.73,2.57,1.13a13.76,13.76,0,0,0,2.4,1.26A.7.7,0,0,0,128.91,507.25Z" transform="translate(0)"/><path class="cls-18" d="M50,463.13c-1.08.16-2,.89-3.1,1.17s-2.17.25-3.25.49a.42.42,0,0,0-.1.76c1.9,1,6,.38,7-1.66A.52.52,0,0,0,50,463.13Z" transform="translate(0)"/><path class="cls-18" d="M56,460.53a.34.34,0,0,0-.67.09,24.32,24.32,0,0,1-.62,4.15c-.3,1.13-1,2.15-1,3.32a.57.57,0,0,0,.85.49c1.13-.79,1.43-2.37,1.67-3.67A9.14,9.14,0,0,0,56,460.53Z" transform="translate(0)"/><path class="cls-18" d="M165.31,482.89a21.84,21.84,0,0,0-2.12,1.37,24,24,0,0,1-2.25,1c-.32.14-.13.57.16.59,1.64.13,4.13-.72,5-2.25A.55.55,0,0,0,165.31,482.89Z" transform="translate(0)"/><path class="cls-20" d="M191.52,440c-3-2.12-7.35-1.38-9.37-.27-1.68-1.45-4.16-2.47-8.18-1.45-2.65-2-7-2.21-9.23-1.75-3.53-2.13-7.22-1.89-10.5-.89-2.24-.87-5.71-2.46-10.77-.45a11.71,11.71,0,0,0-8.06,0q-1,2.4-1.77,4.85c4.1,1,6.67.4,10.28-1.38,1.8.83,7.33,1.46,10.43,0,4.66,2.43,7.2.82,11,.3,2.46.77,4.8,2.47,8.57,1.94,2.75,2.32,6.66,2.14,8.56,1.76,1.73,1.88,6.3,2.34,8.55.94,4.33,2.88,6.15,3.65,6.7,2C198.75,442.58,194.78,440.1,191.52,440Z" transform="translate(0)"/><path class="cls-20" d="M140,437.36s-2,5.37-.32,10c-3.2,3.41-3.64,6.58-1,10.22-.92,3.71-.32,6.84,2.76,10.74.49,4.09.49,7.07,2.23,9.92s4.2.28,3.76-1.85-4.19-6.88-4.11-8.68c1.36-1.57.58-7.55-2-10.84,1.39-2.72,1.73-6.42-.12-9.21.79-2,5.29-6.45,4-8.32S140,437.36,140,437.36Z" transform="translate(0)"/><path class="cls-20" d="M127.67,434.24s-6.49-.67-7.92-5.95c-2.13-1.7-5.91-5.21-4.4-9.66-2.2-4.17,1-7.12,4-9.32,1.92-3.2,4.94-4.72,9.25-3.2,3.61-1.09,7.65.72,9.45,2.51,3-.49,5.82,3.75,4.73,8.62,4,4,1.77,10.13,1.77,10.13L141,426.26a14.8,14.8,0,0,1-.15-8.63c-3.37-2.48-3.88-4.77-3.88-6.72-4.15.07-5.68-.76-8.07-2.5-1.76.8-5.05,2.78-8.52,2.64a18.85,18.85,0,0,1-3.27,7.3c1.88,1.88,4.59,6.36,4.07,9,3.41-.14,6.13,2.94,7.72,3.89C131.75,432.92,127.67,434.24,127.67,434.24Z" transform="translate(0)"/><path class="cls-8" d="M171.4,432.11a12.93,12.93,0,0,1-3.67-3.52,5.72,5.72,0,0,0-2.1-2.42c-2.5-1.76-6-1.79-8.65-3.42s-4.68-3.86-7.88-3.72-5.31,3.33-8.36,3.63c-1.93.19-3.92-.3-5.67.4-3.24,1.29-3.8,4.58-6.4,6.69-1.45,1.17-3.26,1.57-4.07,3.44-.68,1.57-.08,3.58-.06,5.17,0,2.3-.31,4.19.36,6.46s1.23,2.88,3.26,4.4c2.8,2.1,7.16,5.5,10.8,5.71,1.84.1,3.41-.72,5.32-.35s2.32,1.23,4,1.59c4.32.95,7.48-1.81,11.71-2.27,3-.33,5.67.28,8-2.14a10.93,10.93,0,0,0,1.47-2.43c1.25-2.34,2.41-5.28,4.25-7.21C177,438.61,175.12,434.2,171.4,432.11Z" transform="translate(0)"/><path class="cls-6" d="M159.45,427.37c-6-3.77-13.63-3.64-24.17,1.09a11.62,11.62,0,0,0-5.48,14.81c4.23,9.94,20.63,10.41,29.63,6.34C170,444.83,169,433.37,159.45,427.37Z" transform="translate(0)"/><path class="cls-8" d="M162.43,432.87c-4.63-7.41-14.9-7.65-22.72-4.73a12.08,12.08,0,0,0-7.88,8.71c-2.52,11.18,12.69,13.57,20.25,12.93C161,449,167.89,441.61,162.43,432.87Zm-11.2,15.39c-6.81.48-20.68-1.3-17.66-11.59,2.47-8.42,17-10.37,23.71-6.87,4.39,2.29,7.3,8.76,4.54,13.51C159.73,446.91,155,448,151.23,448.26Z" transform="translate(0)"/><path class="cls-8" d="M156.19,435.75a3.06,3.06,0,0,0-.67-4.89c-1.67-.92-4.5-1.16-5.85.35a2.31,2.31,0,0,0-1.11-1.47,4.05,4.05,0,0,0-3.5,0,3.33,3.33,0,0,0-2.25,1.94,2.9,2.9,0,0,0,0,1.75,5.07,5.07,0,0,0-2.66.48,5.29,5.29,0,0,0-3.5,4.1c-.42,3.63,3.89,5.16,6.87,4.07a3.2,3.2,0,0,0,.05,1.93,3.57,3.57,0,0,0,3.23,2.27,5.46,5.46,0,0,0,4.12-1.2,2.84,2.84,0,0,0,.69-1.15c2,1.09,6.19.25,7.15-1.34A4.8,4.8,0,0,0,156.19,435.75Zm-.67-2.61c.23.87-.29,1.21-.71,1.66a8.16,8.16,0,0,0-.64-1,5.36,5.36,0,0,0-4.23-1.76C151.4,431,155,431.33,155.52,433.14Zm-10.93-1.92c.93-.53,4.36-1.52,4,.71,0,.06,0,.09,0,.15a8.58,8.58,0,0,0-2.3.61,6.85,6.85,0,0,0-2.51,1.68C143.71,433.26,143.47,431.86,144.59,431.22Zm-6.66,7.52a3.52,3.52,0,0,1,1.67-3.2c.81-.57,2.65-1.68,3.56-.87a.3.3,0,0,0,.32.05l0,0a4.47,4.47,0,0,0-1,2.24,4.07,4.07,0,0,0,1.29,3.53C141.78,441.22,138.23,441.56,137.93,438.74Zm6-.79a3,3,0,0,1,.89-3,18.38,18.38,0,0,1,4.33-1.63,6.5,6.5,0,0,1,1.69.12.27.27,0,0,0,.18,0l.17,0a4,4,0,0,1,2.77,4.46c-.2,1.74-1.49,2.62-3.13,3.06C148.51,441.56,144.6,440.73,144,438Zm6.07,5.8a3.27,3.27,0,0,1-2.52.83c-1,0-2-.22-2.35-1.29a4.48,4.48,0,0,1,0-1.83,8.91,8.91,0,0,0,5,1A1.17,1.17,0,0,1,150,443.75Zm7.81-2.85c-.39,2.62-4.35,2.57-6.08,1.18,2.61-.94,4.09-3.19,3.65-5.65a5.89,5.89,0,0,1,1.75,1.19A4.35,4.35,0,0,1,157.83,440.9Z" transform="translate(0)"/><path class="cls-21" d="M126.48,136.36v6.51c0,8.55,13,15.48,29.1,15.48s29.1-6.93,29.1-15.48v-6.51Z" transform="translate(0)"/><path class="cls-17" d="M155.58,121.85c-16.08,0-29.1,6.93-29.1,15.48s13,15.48,29.1,15.48,29.1-6.93,29.1-15.48S171.65,121.85,155.58,121.85Z" transform="translate(0)"/><path class="cls-22" d="M155.47,124.58c-11.67,0-21.13,5-21.13,11.24s9.46,11.24,21.13,11.24,21.12-5,21.12-11.24S167.13,124.58,155.47,124.58Z" transform="translate(0)"/><path class="cls-17" d="M155.58,126.5c-7.14,0-12.93,3.08-12.93,6.88s5.79,6.88,12.93,6.88,12.92-3.08,12.92-6.88S162.72,126.5,155.58,126.5Z" transform="translate(0)"/><path class="cls-23" d="M146.56,120.88v10.69c0,2.64,4,4.79,9,4.79s9-2.15,9-4.79V120.88Z" transform="translate(0)"/><path class="cls-4" d="M155.47,120.62c-5.33,0-9.65,2.3-9.65,5.14s4.32,5.13,9.65,5.13,9.64-2.3,9.64-5.13S160.79,120.62,155.47,120.62Z" transform="translate(0)"/><path class="cls-3" d="M155.58,116.84c-6.06,0-11,2.61-11,5.83s4.91,5.84,11,5.84,11-2.61,11-5.84S161.63,116.84,155.58,116.84Z" transform="translate(0)"/><path class="cls-4" d="M155.47,115.49c-5.33,0-9.65,2.3-9.65,5.13s4.32,5.14,9.65,5.14,9.64-2.3,9.64-5.14S160.79,115.49,155.47,115.49Z" transform="translate(0)"/><path class="cls-3" d="M155.58,63.47a17.6,17.6,0,0,0-17.58,17,1.45,1.45,0,0,0,0,.3v.37c0,4.18.45,7,4.11,14.6a71.65,71.65,0,0,1,4.16,11.5,54.56,54.56,0,0,1,1.46,11.15,6.44,6.44,0,0,0,.09.75c.53,2,3.76,3.54,7.68,3.54,4.08,0,7.43-1.67,7.73-3.8,0-.11,0-.8,0-1.14a46.37,46.37,0,0,1,1.38-10.5,71.65,71.65,0,0,1,4.16-11.5,44.1,44.1,0,0,0,3.6-9.35,17.63,17.63,0,0,0-16.79-22.91Z" transform="translate(0)"/><path class="cls-4" d="M154.89,78.48c-2.27,3.93-6.65,5.65-9.79,3.84s-3.84-6.47-1.57-10.4,6.65-5.65,9.79-3.84S157.16,74.55,154.89,78.48Z" transform="translate(0)"/><path class="cls-14" d="M150.17,74.21c-1.37,1.63-3.44,2.15-4.63,1.15s-1.06-3.13.31-4.77,3.43-2.14,4.63-1.14S151.53,72.58,150.17,74.21Z" transform="translate(0)"/><path class="cls-21" d="M115.74,176.74c-3.55-3.28-10.2-1.07-17.82-1.07s-14.27-2.21-17.82,1.07H77.34v9.88c0,6,9.21,10.94,20.58,10.94s20.57-4.9,20.57-10.94v-9.88Z" transform="translate(0)"/><ellipse class="cls-17" cx="97.92" cy="177.7" rx="20.57" ry="10.94"/><path class="cls-24" d="M97.92,168.75c-8.29,0-15,3.58-15,8s6.73,8,15,8,15-3.57,15-8S106.21,168.75,97.92,168.75Z" transform="translate(0)"/><path class="cls-23" d="M87.45,162.22v12.41c0,3.07,4.69,5.57,10.47,5.57s10.46-2.5,10.46-5.57V162.22Z" transform="translate(0)"/><path class="cls-4" d="M110.64,156.66l-4.8.41-.57,1.19a17.68,17.68,0,0,0-14.72,0l-.57-1.2-4.8-.41s-.21,1,1.07,2.71a4.8,4.8,0,0,1,1.2,2.85c0,3.08,4.69,5.57,10.47,5.57s10.46-2.49,10.46-5.57c0,0,0-.07,0-.1a5.16,5.16,0,0,1,1.21-2.75C110.85,157.7,110.64,156.66,110.64,156.66Z" transform="translate(0)"/><path class="cls-3" d="M97.92,149.88c-7,0-12.74,3-12.74,6.78s5.7,6.77,12.74,6.77,12.74-3,12.74-6.77S105,149.88,97.92,149.88Z" transform="translate(0)"/><path class="cls-4" d="M97.79,148.06c-6.19,0-11.2,2.67-11.2,6s5,6,11.2,6,11.2-2.67,11.2-6S104,148.06,97.79,148.06Z" transform="translate(0)"/><path class="cls-3" d="M97.92,143.66c-7,0-12.74,3-12.74,6.78s5.7,6.77,12.74,6.77,12.74-3,12.74-6.77S105,143.66,97.92,143.66Z" transform="translate(0)"/><path class="cls-4" d="M97.79,141.61c-6.19,0-11.2,2.67-11.2,6s5,6,11.2,6,11.2-2.67,11.2-6S104,141.61,97.79,141.61Z" transform="translate(0)"/><path class="cls-3" d="M113.59,135.29a15.67,15.67,0,1,1-15.67-15.68A15.68,15.68,0,0,1,113.59,135.29Z" transform="translate(0)"/><path class="cls-4" d="M97.79,115.07c-6.19,0-11.2,2.66-11.2,6s5,6,11.2,6,11.2-2.66,11.2-6S104,115.07,97.79,115.07Z" transform="translate(0)"/><path class="cls-3" d="M97.92,110.67c-7,0-12.74,3-12.74,6.78s5.7,6.77,12.74,6.77,12.74-3,12.74-6.77S105,110.67,97.92,110.67Z" transform="translate(0)"/><path class="cls-4" d="M97.79,109.11c-6.19,0-11.2,2.67-11.2,6s5,6,11.2,6,11.2-2.67,11.2-6S104,109.11,97.79,109.11Z" transform="translate(0)"/><path class="cls-3" d="M97.92,48.7A20.43,20.43,0,0,0,77.51,68.43a1.86,1.86,0,0,0,0,.34v.43c0,4.86.52,8.13,4.78,17a83.6,83.6,0,0,1,4.82,13.35,62.37,62.37,0,0,1,1.7,12.95,6,6,0,0,0,.11.87c.62,2.32,4.37,4.12,8.91,4.12,4.74,0,8.63-2,9-4.43,0-.12,0-.92,0-1.31a53.9,53.9,0,0,1,1.61-12.2,82.67,82.67,0,0,1,4.83-13.35,51.24,51.24,0,0,0,4.18-10.86,20.44,20.44,0,0,0-19.5-26.6Z" transform="translate(0)"/><path class="cls-4" d="M97.12,66.13c-2.63,4.56-7.72,6.56-11.37,4.45s-4.46-7.5-1.82-12.07S91.66,52,95.3,54.05,99.76,61.56,97.12,66.13Z" transform="translate(0)"/><path class="cls-14" d="M91.64,61.17c-1.58,1.89-4,2.49-5.38,1.33S85,58.87,86.62,57s4-2.49,5.38-1.33S93.23,59.27,91.64,61.17Z" transform="translate(0)"/><polygon class="cls-14" points="576.98 390.16 409.96 486.59 139.25 329.92 306.27 233.49 576.98 390.16"/><polygon class="cls-4" points="317.12 254.55 177.31 335.27 168.39 330.12 308.2 249.4 317.12 254.55"/><polygon class="cls-4" points="335.25 265.02 195.44 345.74 190.63 342.96 330.44 262.24 335.25 265.02"/><polygon class="cls-4" points="346.69 271.62 206.88 352.34 202.06 349.56 341.88 268.84 346.69 271.62"/><polygon class="cls-4" points="358.12 278.22 218.31 358.94 213.5 356.16 353.31 275.44 358.12 278.22"/><polygon class="cls-4" points="320.84 307.39 224.93 362.76 229.74 365.54 325.65 310.17 320.84 307.39"/><polygon class="cls-4" points="394.17 299.04 254.36 379.75 249.55 376.98 389.36 296.26 394.17 299.04"/><polygon class="cls-4" points="405.6 305.64 265.79 386.36 260.98 383.58 400.79 302.86 405.6 305.64"/><polygon class="cls-4" points="383.12 326.26 272.41 390.18 277.22 392.95 387.93 329.04 383.12 326.26"/><polygon class="cls-4" points="441.49 326.35 301.68 407.07 296.87 404.3 436.68 323.58 441.49 326.35"/><polygon class="cls-4" points="452.92 332.95 313.11 413.67 308.3 410.89 448.11 330.18 452.92 332.95"/><polygon class="cls-4" points="441.02 408.18 372.31 447.85 377.12 450.63 445.83 410.96 441.02 408.18"/><polygon class="cls-4" points="430.43 353.58 319.73 417.5 324.54 420.27 435.24 356.36 430.43 353.58"/><path class="cls-8" d="M426.31,359.89c-.57.51-8.9,24.5-10.89,30.36a20.52,20.52,0,0,0-.68,11.39c.27,1.65,2.51-.39,3.57-4s12.34-37.53,12.34-37.53Z" transform="translate(0)"/><path class="cls-25" d="M445.93,340.45s5.43,6.51,11.92.34c2.15-2,4.74-10.63,4.74-10.63s9.53-1.47,16.29-5.29c3.63,3.82,4.71,11.59,17.75,14.49,15.51,3.44,1.45-36.77,1.45-36.77l-35.49-2-22.46,24.63Z" transform="translate(0)"/><path class="cls-26" d="M426.85,349.74s10.25,4.26,16.91,0,7.62-20.81,7.62-20.81,7.1-1.29,10.6-5.55a72.75,72.75,0,0,1,5.92-6.48s7.73,4,15.93,2.9c1.45,2.9,8.21,16.9,15,21.73s18.58-36.34,18.58-36.34l-45.14-17.65s-27.52,6-29,7.52-14.2,26.1-14.2,26.1Z" transform="translate(0)"/><path class="cls-27" d="M616.61,351.15c-15.12-5.43-27.92-11.8-34.9-17.89-12.65-11-28.44-29.82-43.31-42.19-8.93-7.43-15.57-13.17-21-16.42-11.33-6.76-17.56-1.65-22.51-2.89-13.45-3.38-17.8,3.17-22.75,7.77-6.88.09-21.91,1.53-26,7.23-6.22,8.64-26.22,21.4-27.83,32.54-1.58,11-2.57,22.83-5.31,33.92-.89,3.61-2.29,5.19.61,6a28.27,28.27,0,0,0,4.11-.07c-2.08,3.78-3.12,7.72-2.1,11,1.52,5,10.7,2.39,14.93,3,7.41,1.05,15.81-1.47,24.82,1.79,3.29,1.2,13.94,4.39,29.7,10.1,16.66,6,38.11,3,53.36-1.31,7.92,5.78,45,22.55,53.42,27C599.79,399.2,617,358.56,616.61,351.15ZM462.23,309.4a43.87,43.87,0,0,0,22.48,2.79c2.53,5.07,8.74,13,9.75,18,1.74,8.7-2.13,12.4-9.42,15.75-8.88,4.09-24.86,4.56-30.42,4-9.22-.94-15.21-1.53-19.92,1.09,1.66-4.13,5.72-12.55,4.59-23.06C454.29,323.65,457.88,317.2,462.23,309.4Z" transform="translate(0)"/><path class="cls-26" d="M583.51,393.27c0,15.5,9.42,22.62,21,15.91s21.05-24.72,21.05-40.22-9.42-22.63-21.05-15.92S583.51,377.76,583.51,393.27Z" transform="translate(0)"/><path class="cls-26" d="M548.3,354.81s-6.28,4.35-8.94,10.87a17.47,17.47,0,0,0,0,12.55s1-8.93,2.9-12.55S548.3,354.81,548.3,354.81Z" transform="translate(0)"/><path class="cls-28" d="M430.52,361.33c-7.36.72-12.06,3.77-12.9,8.81s7.48,3.07,12.24,2.78C431.08,368,430.52,361.33,430.52,361.33Z" transform="translate(0)"/><path class="cls-29" d="M661.69,133.5c-1-.9-1.62-1.64-3-2.83,1.33.08,2.67.1,4,.07.46,0,.93-4.44-.57-6.34a17.3,17.3,0,0,0-5.61-.9c.09-.19,1.91-2.55,2.71-3.54A7.13,7.13,0,0,0,657,118c-10.37.36-20.46,6.13-30.59,12.71,2.46-4.24,5-8.9,7.25-12.9a19.7,19.7,0,0,0-2.72,1.26c-2.94,1.72-4.69,4.69-7.24,6.75a28.22,28.22,0,0,1,1.75-6.66C618.6,124.66,608,135.87,604,144c-.88-4,.67-10.41,2.4-14.89a74.51,74.51,0,0,0-11,9.12c-3.87,4.14-6.53,8.9-9.76,13.49,0,0,0,0,0,0,.82-6.62,1.82-11.6,3.47-15.73a133.17,133.17,0,0,0-12.81,8.19c-4.12,3.07-6.26,7-9.34,10.69.07-2,.16-4,.19-6a15.06,15.06,0,0,0-3.49,1c-7.43,11.24-13.18,26.75-15,32.38-3.64-5.71-2.17-13.8-1.54-18-5.9,8.55-10.23,19-13.13,32.41-3.29-1.84-5.2-20.93-3.62-25.79-9.15,13-15.78,26.26-18.47,42.18-3-11.7-1.05-25.73,5-37.64a59.75,59.75,0,0,0-7,5.77c-13.16,12.75-19.11,31.88-24.86,49.5a70,70,0,0,1,.4-7.93c.57-5,4.24-22.48,7.82-29.13-2.21.64-5.26,2.61-8.58,5.37-8.35,18.78-7.14,40-1.72,59.36-5.76-5.41-10.74-18.62-11.42-29.53-5.66,12.85-8,26.16-5.84,40.49-6.21-8.36-8.56-20.72-7.07-33a48.57,48.57,0,0,0-1.83,5.87c-4,17.27-5.21,35.8-2.62,51.89-5.42-10.39-8-23.79-2.15-43,.16-.51-.61-.67-.85-.26-12.49,21.64-8.33,38.38-3,55.69-2.61-2.92-10.92-27.86-10.61-37.59a.23.23,0,0,0-.46-.07c-4.49,17.5,1.65,33.46,11.49,48.58.49.75,13.64,2,19.44,1.1,7.64-1.18,14.77-3.13,21.4-7.25a59.39,59.39,0,0,0,10.95-8.89c-11.21,1-25.82-6.79-28.66-11.22,10.67-.55,21.82-1.51,31.88-4.7-7.86.76-19.4-5.29-23.28-7,13.82-.52,27.33-1.55,40.16-6.34l1.49-2.71c-2.91-.33-10.47-1.93-15.07-2.42,10.83-2.84,21.08-7.18,29.25-15.43,7.38-7.45,13.18-16.4,20.28-24.13.73-.79,1.53-1.63,2.36-2.5-9.4-2-25-5.2-31-6.65A119.69,119.69,0,0,1,561.4,215c-7.65-3.21-18.12-4.46-24.72-6.58,9.37-3,24.34-4.49,33.1-1.81a96.31,96.31,0,0,0-16.67-10.09c8.61,1.67,19.81,4.08,28.15,8,2.32-2.07,4-3.55,4.67-4-.16-1.37-3-4-3.55-5,.7.2,4.93,2.1,5.58,2.07,3-2.59,12.94-10.16,15.63-12.28l.81-.66c-10-2.61-21-7.53-28.82-10.15,10.91-.27,23.59-.37,33.44-1.09a199.39,199.39,0,0,1-20.95-10.2c12.81-.78,25.43,2,38.15,1.11,2.95-3,5.14-5.35,5.91-6.32l-5.49-6a31.93,31.93,0,0,0,27-7.18C657.41,141.6,660.57,137,661.69,133.5Z" transform="translate(0)"/><path class="cls-8" d="M609,173.41c-9.85.72-22.53.82-33.44,1.09,7.86,2.62,18.79,7.54,28.82,10.15a291.68,291.68,0,0,0,21.82-20.33c-12.72.91-25.34-1.89-38.15-1.11A199.39,199.39,0,0,0,609,173.41Z" transform="translate(0)"/><path class="cls-8" d="M569.78,206.57c-8.76-2.68-23.73-1.15-33.1,1.81,6.6,2.12,17.07,3.37,24.72,6.58a119.69,119.69,0,0,0-33.58,4.27c6,1.45,21.58,4.64,31,6.65,6.71-6.95,16.57-16.11,22.46-21.36-8.34-4-19.54-6.37-28.15-8A96.31,96.31,0,0,1,569.78,206.57Z" transform="translate(0)"/><path class="cls-8" d="M480.33,279.41c3.88,1.71,15.42,7.76,23.28,7-10.06,3.19-21.21,4.15-31.88,4.7,2.84,4.43,17.45,12.24,28.66,11.22,8.27-8.42,14.4-18.94,20.1-29.26C507.66,277.86,494.15,278.89,480.33,279.41Z" transform="translate(0)"/><path class="cls-30" d="M585.63,151.72c3.23-4.59,5.89-9.35,9.76-13.49a74.51,74.51,0,0,1,11-9.12c-1.73,4.48-3.28,10.89-2.4,14.89,4-8.13,14.58-19.34,21.38-24.83-7.13-.29-23.52,9.51-33.57,15.24l-2.77,1.6c-1.65,4.13-2.65,9.11-3.47,15.73C585.6,151.73,585.62,151.74,585.63,151.72Z" transform="translate(0)"/><path class="cls-30" d="M657,118c-4.4-2.62-12.26-2.57-17.63-1.67a30.14,30.14,0,0,0-5.71,1.48c-2.21,4-4.79,8.66-7.25,12.9C636.49,124.14,646.58,118.37,657,118Z" transform="translate(0)"/><path class="cls-30" d="M511.88,213.05c2.69-15.92,9.32-29.21,18.47-42.18-1.58,4.86.33,23.95,3.62,25.79,2.9-13.45,7.23-23.86,13.13-32.41-.63,4.18-2.1,12.27,1.54,18,1.79-5.63,7.54-21.14,15-32.38-7.82,3-22.59,11.9-32.05,16.9a132.78,132.78,0,0,0-14.64,8.66C510.83,187.32,508.86,201.35,511.88,213.05Z" transform="translate(0)"/><path class="cls-30" d="M465.67,269.31c-2.16-14.33.18-27.64,5.84-40.49.68,10.91,5.66,24.12,11.42,29.53-5.42-19.39-6.63-40.58,1.72-59.36-6.74,5.61-14.63,14.52-19,22.4a114.26,114.26,0,0,0-7.07,14.91C457.11,248.59,459.46,261,465.67,269.31Z" transform="translate(0)"/><path class="cls-8" d="M656.11,124.35c-49.84,14.76-94,47.12-129.72,84.09A475,475,0,0,0,475.79,271c-11.52,16.85-23.7,34.85-33.18,53.5-1.07,2.1-12,23.93-12.69,28.22,1.53-.22,2.11-1.07,4.78-1.65.92-4.45,10-23.18,11.2-25.42,3.14-6.05,6.23-12.13,9.62-18q10.37-18,22-35.19a473,473,0,0,1,48.58-60.64,354.86,354.86,0,0,1,130.17-87C656.59,124.7,656.41,124.26,656.11,124.35Z" transform="translate(0)"/><path class="cls-14" d="M470.69,219.19c.05-.12-.12-.19-.19-.08-6.4,10.83-13.06,23.91-8.62,36.69a.17.17,0,0,0,.32-.08C460.25,242.21,465.12,231.19,470.69,219.19Z" transform="translate(0)"/><path class="cls-14" d="M477.47,246.11c-1.58-11-3.66-21.67-.46-32.57.05-.17-.23-.25-.29-.09-4,10.74-2.6,21.9.26,32.78C477.05,246.51,477.51,246.39,477.47,246.11Z" transform="translate(0)"/><path class="cls-14" d="M509.56,186.07c.2-.39-.41-.79-.66-.42a91.89,91.89,0,0,0-15.54,47.18.3.3,0,0,0,.6.1A160,160,0,0,1,509.56,186.07Z" transform="translate(0)"/><path class="cls-14" d="M525.76,172.6c.07-.1-.06-.26-.16-.17C519,178.25,514,187.5,514.11,196.5c0,.27.37.23.43,0C517.11,187.48,519.94,180.12,525.76,172.6Z" transform="translate(0)"/><path class="cls-14" d="M542.1,165.19a.14.14,0,0,0-.22-.18c-5.21,5.77-8.92,13.39-9.28,21.25a.5.5,0,0,0,1,.15C535.14,178.51,537.43,171.84,542.1,165.19Z" transform="translate(0)"/><path class="cls-14" d="M583.5,141.88a.07.07,0,1,0-.11-.1,32.33,32.33,0,0,0-9.84,19.15c0,.15.22.24.27.08A66.2,66.2,0,0,1,583.5,141.88Z" transform="translate(0)"/><path class="cls-14" d="M594.47,135.23c-2.68,2.69-5.52,6.26-6.12,10.12a.27.27,0,0,0,.51.15c2-3.45,3.33-6.89,6-9.91C595.15,135.32,594.72,135,594.47,135.23Z" transform="translate(0)"/><path class="cls-14" d="M616.42,123.72c-4,2.6-7.95,6.41-9.61,11-.13.36.37.75.62.39,2.87-4.1,5.33-7.82,9.21-11.1A.19.19,0,0,0,616.42,123.72Z" transform="translate(0)"/><path class="cls-14" d="M644.47,118a19.67,19.67,0,0,0-10,5.5c-.18.19.11.5.31.34a36.46,36.46,0,0,1,9.8-5.52C644.71,118.25,644.65,118,644.47,118Z" transform="translate(0)"/><path class="cls-8" d="M484.84,306.22a50.15,50.15,0,0,1-10.15,1.95c-3.52.22-6.77-.4-10.22-.85-.86-.11-1.32,1.19-.45,1.51,6.58,2.42,15.08,1.36,21-2.27C485.22,306.44,485,306.17,484.84,306.22Z" transform="translate(0)"/><path class="cls-8" d="M529.22,249.09a51.74,51.74,0,0,1-12.08,2.75c-4.16.32-8.23-.31-12.37-.55-.49,0-.77.65-.26.87,7.7,3.31,18,1.7,25.1-2.35C530,249.57,529.65,249,529.22,249.09Z" transform="translate(0)"/><path class="cls-8" d="M529.1,240.82c-6.42,3.77-13.69,4.32-21,3.62-.55-.05-.85.74-.29,1,7.43,3.07,15.54.78,21.57-4.13A.28.28,0,0,0,529.1,240.82Z" transform="translate(0)"/><path class="cls-8" d="M589.2,186.25c-8-1.15-16-1.87-23.77-3.84a.27.27,0,0,0-.21.48c6.4,4.21,16.48,4.81,23.95,4.4A.53.53,0,0,0,589.2,186.25Z" transform="translate(0)"/><path class="cls-8" d="M647.47,141.4c-5.66.72-11.09.15-16.74.12-.51,0-.61.79-.15,1,5.31,2.07,11.79,1.5,17.18.12C648.45,142.43,648.16,141.31,647.47,141.4Z" transform="translate(0)"/><path class="cls-8" d="M465.14,279.11c-1.28-2.26-3.17-4-4.29-6.4a17.84,17.84,0,0,1-1.66-8c0-.9-1.34-1.16-1.41-.23-.39,5.15,1.31,13.24,6.6,15.58A.62.62,0,0,0,465.14,279.11Z" transform="translate(0)"/><path class="cls-8" d="M477.16,261.94c-1-2.62-2.44-4.94-3.2-7.67a70.45,70.45,0,0,1-1.69-9,.54.54,0,0,0-1.07.11c.45,5.31.71,13.39,5.1,17.19A.55.55,0,0,0,477.16,261.94Z" transform="translate(0)"/><path class="cls-8" d="M503.65,224.11a56.78,56.78,0,0,1,.28-10.67c.59-3.56,2-6.82,3.15-10.21.08-.23-.22-.46-.39-.24-4.44,5.61-6,14.53-4.08,21.36C502.78,225,503.66,224.68,503.65,224.11Z" transform="translate(0)"/><path class="cls-8" d="M375.85,410.29c1.52,3.71,5.84,6.39,9.3,9.67,2.43,2.29,3.82,4.68,4,7.21a8.59,8.59,0,0,1-.61,4c-.64,1.45-7.47,6.38-11.41,3.4-.58-.44-1.83-.22-1.43.29,1.21,1.51,3.14,1.65,5,1.63,4.65-.05,8.54-2.59,9.6-5a9.34,9.34,0,0,0-1.4-9.74c-3.28-4.14-9.63-7.27-12.57-11.53C376.2,410.06,375.78,410.11,375.85,410.29Z" transform="translate(0)"/><path class="cls-8" d="M422,395.8a23.29,23.29,0,0,1,.35,6.7c-.19,1.4,0,2.95-3.09,3.82-2.22.62-4.88-.94-6.88-2.92a15.85,15.85,0,0,0-2.21-2.47c-.48-.4-1.66-.23-1.31.26.48.69,2.86,2.72,3.73,5.12.52,1.43.47,4.41-3.31,4.18a11.19,11.19,0,0,1-4.37-2c-1.1-3.67-3.73-8-8.66-8.91-1.46-.26-1.7.58-1.09,1.38a29.79,29.79,0,0,0,7.86,7.31,25.81,25.81,0,0,1,.56,4.35c.22,3-.88,3.92-2.23,3.7a11.78,11.78,0,0,1-4.68-2.71,13.08,13.08,0,0,0-3.9-3.52c-.65-.35-1.65,0-1.14.48a33.44,33.44,0,0,1,3.13,2.68,4.52,4.52,0,0,1,.94,3.87c-.11,1.36.27,3.54-3.91,2.74-3-.58-6.5-4.77-7.91-6.35-.59-.66-1.8-.64-1,.49,1.31,1.94,7.3,8.55,12.36,7.32,2.37-.57,2.12-3.41,2.16-4.68a6.05,6.05,0,0,0-.14-1.54c2.79,2.59,6.74,3.69,7.86.63a11.75,11.75,0,0,0,.12-6.07c2,1.18,4.87,2.67,7.1,2.15,3.09-.72,2.87-3.29,1.64-5.82a8.4,8.4,0,0,0,6.07,1.51c5.46-1.1,4-9,3-11.7C422.85,395.42,421.92,395.46,422,395.8Zm-21,9.68c-1.35-1.17-4.83-4.45-4.34-4.73,1.14-.66,3.25,1.2,4.47,2.75a12.4,12.4,0,0,1,1.47,3.27C401.85,406.24,401.29,405.77,400.94,405.48Z" transform="translate(0)"/><path class="cls-18" d="M139.25,329.92l62.82-37.58s9.42,26.32-11.44,37.58S147.83,333.87,139.25,329.92Z" transform="translate(0)"/><path class="cls-17" d="M139.25,329.92S164.64,338,185,327.58c2.28-1.18,6.87-6.59,8-8.42,9.11-15.17-5.47-37.41-41.55-26.82s-72.32-3.52-84.52-10.83a117.93,117.93,0,0,1-28.17-23.26l147.43-84.39s59,22.83,117.24,22.62c19-.07,37.3,21.83,34.68,36.7-2.82,15.89-11.33,24.17-24.89,32.43-25.95,15.8-85.2,52.72-128.56,69.66C161.91,344.14,139.25,329.92,139.25,329.92Z" transform="translate(0)"/><path class="cls-3" d="M233.13,456.3v37c0,12.46,19,22.56,42.42,22.56S318,505.77,318,493.31v-37Z" transform="translate(0)"/><path class="cls-4" d="M275.55,433.74c-23.43,0-42.42,10.1-42.42,22.56s19,22.57,42.42,22.57S318,468.76,318,456.3,299,433.74,275.55,433.74Z" transform="translate(0)"/><path class="cls-3" d="M275.55,433.78c-14.84,0-26.87,6.39-26.87,14.29s12,14.29,26.87,14.29,26.87-6.4,26.87-14.29S290.39,433.78,275.55,433.78Z" transform="translate(0)"/><path class="cls-4" d="M257.32,423.23v21c0,5.35,8.16,9.69,18.23,9.69s18.23-4.34,18.23-9.69v-21Z" transform="translate(0)"/><path class="cls-3" d="M275.55,409.35c-11.6,0-21,5.28-21,11.79s9.4,11.78,21,11.78,21-5.28,21-11.78S287.15,409.35,275.55,409.35Z" transform="translate(0)"/><path class="cls-9" d="M275.55,411.07c-8.46,0-15.32,3.65-15.32,8.15s6.86,8.14,15.32,8.14,15.31-3.65,15.31-8.14S284,411.07,275.55,411.07Z" transform="translate(0)"/><path class="cls-14" d="M246.22,442.8c-3.44.8-6.35,3.81-8.11,6.63-1.63,2.6-3.53,8.06-1.52,10.93a.7.7,0,0,0,1.3-.35c.33-3.74.91-6.71,3.05-9.9a42.08,42.08,0,0,1,5.86-6.5C247.17,443.23,246.81,442.67,246.22,442.8Z" transform="translate(0)"/><path class="cls-14" d="M237.28,469.82a.13.13,0,0,0-.25,0c-1.39,4.46-1.6,24-.59,28.59a.51.51,0,0,0,1,0C238.3,493.77,238.42,474.35,237.28,469.82Z" transform="translate(0)"/><path class="cls-9" d="M313.87,489.61c-.18-.24-.63-.19-.62.17,0,.88.26,1.72.23,2.6a17.47,17.47,0,0,1-.56,2.81.65.65,0,0,0,1.18.5A6.32,6.32,0,0,0,313.87,489.61Z" transform="translate(0)"/><path class="cls-9" d="M305.39,499.29c-.3,0-.53.4-.23.6.73.49,1.54.81,2.24,1.36a16.77,16.77,0,0,1,1.94,2.1.64.64,0,0,0,1.09-.66A6.3,6.3,0,0,0,305.39,499.29Z" transform="translate(0)"/><path class="cls-3" d="M310.57,448.53c-.2,0-.44.19-.33.39.37.71.95,1.27,1.36,2a26.17,26.17,0,0,1,1,2.6.74.74,0,0,0,1.42-.31C314.1,451.43,312.33,448.86,310.57,448.53Z" transform="translate(0)"/><path class="cls-3" d="M304.47,451c-.42.13-.37.82.1.79a10.68,10.68,0,0,1,5.5,1.08.88.88,0,0,0,1-.14.68.68,0,0,0,.23-.39.88.88,0,0,0-.4-.95A8.74,8.74,0,0,0,304.47,451Z" transform="translate(0)"/><path class="cls-3" d="M296,469.29c-.73-.28-1.45.81-1.81,1.29a8.21,8.21,0,0,0-1.45,2.93c-.22.93,1.19,1.64,1.62.68s.9-2.23,1.43-3.32C295.88,470.58,296.54,469.53,296,469.29Z" transform="translate(0)"/><path class="cls-3" d="M302,470.74c-.61,0-1,.32-1.51.58a9.8,9.8,0,0,1-1.91.66c-.12,0-1.68.26-1.43.7.42.76,1.88.42,2.57.27,1-.21,2.36-.61,2.75-1.59C302.58,471.05,302.26,470.75,302,470.74Z" transform="translate(0)"/><path class="cls-9" d="M305,505.85a10,10,0,0,0-2.63-4.34.31.31,0,0,0-.52.3,19.8,19.8,0,0,0,1.92,4.56A.68.68,0,0,0,305,505.85Z" transform="translate(0)"/><path class="cls-9" d="M314.26,471.29c-.42,1.44-1.16,2.71-1.7,4.1a.71.71,0,0,0,.18.69.61.61,0,0,0,.31.18.73.73,0,0,0,.8-.33,7.24,7.24,0,0,0,1.15-4.54A.38.38,0,0,0,314.26,471.29Z" transform="translate(0)"/><path class="cls-3" d="M291.05,441.85c-.13-.47-.74-.31-.79.11a22.34,22.34,0,0,1-.47,2.93,9.61,9.61,0,0,0-.71,2.39c0,.33.42.64.72.42C291.29,446.59,291.47,443.51,291.05,441.85Z" transform="translate(0)"/><path class="cls-3" d="M287.78,445.49a12.73,12.73,0,0,1-2.49,2,15.05,15.05,0,0,0-2.43,1.36c-.42.39,0,1,.47,1a5.09,5.09,0,0,0,2.94-1.44,8.41,8.41,0,0,0,2-2.51C288.46,445.53,288,445.25,287.78,445.49Z" transform="translate(0)"/><path class="cls-3" d="M289.56,432c-1,.79-2.24.91-3.39,1.45a.25.25,0,0,0,0,.42c1.29.74,3,0,4-.78C290.85,432.59,290.21,431.48,289.56,432Z" transform="translate(0)"/><path class="cls-4" d="M38.48,361v5.23c0,9,13.74,16.32,30.69,16.32s30.69-7.31,30.69-16.32V361Z" transform="translate(0)"/><path class="cls-31" d="M69.17,344.65c-17,0-30.69,7.3-30.69,16.32S52.22,377.3,69.17,377.3,99.86,370,99.86,361,86.12,344.65,69.17,344.65Z" transform="translate(0)"/><path class="cls-21" d="M69.17,346c-15.81,0-28.64,6.76-28.64,15.09s12.83,15.1,28.64,15.1,28.64-6.76,28.64-15.1S85,346,69.17,346Z" transform="translate(0)"/><path class="cls-31" d="M68.9,373.58c-14.59,0-26-5.65-26-12.87s11.43-12.86,26-12.86,26,5.65,26,12.86S83.49,373.58,68.9,373.58Zm0-24.32c-13.57,0-24.61,5.14-24.61,11.45s11,11.46,24.61,11.46S93.51,367,93.51,360.71,82.47,349.26,68.9,349.26Z" transform="translate(0)"/><path class="cls-24" d="M45.56,300.73H38.48v60.43c0,4,2.67,7.6,7.08,10.42Z" transform="translate(0)"/><polygon class="cls-32" points="89.75 292.69 88.17 292.69 88.17 349.79 89.75 348.84 89.75 292.69"/><path class="cls-24" d="M82.9,288.4v59.43c1.62.54,3.25,1.1,5.27,2V288.4Z" transform="translate(0)"/><path class="cls-24" d="M92.94,294.48v58a16.88,16.88,0,0,1,5.27,7.88V294.48Z" transform="translate(0)"/><polygon class="cls-32" points="99.8 300.74 98.21 300.74 98.21 357.84 99.8 356.89 99.8 300.74"/><path class="cls-24" d="M49.09,313.88v59.43a37.46,37.46,0,0,0,5.27,2V313.88Z" transform="translate(0)"/><path class="cls-24" d="M59.13,313.75v62.66c1.7.31,3.46.55,5.27.7V313.75Z" transform="translate(0)"/><polygon class="cls-4" points="98.09 306.73 98.09 360.35 98.3 362.14 99.8 360.35 99.8 306.73 98.09 306.73"/><path class="cls-17" d="M69.17,313.88v63.56h0c17,0,30.69-7.31,30.69-16.33v-4.5s-.63,3.35-6.35,8.09c-4.05,3.36-9.75,5-13.58,4.24-2.81-.56-4.05-2.37-4.05-4.24,0-5.74-.24-10-.3-15.2.15-10.56,10.18-13.27,16.16-16.7s8.12,0,8.12,0V313.88Z" transform="translate(0)"/><path class="cls-4" d="M93.51,364.7c-4.05,3.36-9.75,5-13.58,4.24-2.81-.56-4.05-2.37-4.05-4.24v2.46c0,1.87,1.24,3.68,4.05,4.24,3.83.76,9.53-.89,13.58-4.24,5.72-4.75,6.35-8.1,6.35-8.1v-4.17S99.23,360,93.51,364.7Z" transform="translate(0)"/><polygon class="cls-32" points="55.95 318.17 54.36 318.17 54.36 375.27 55.95 374.33 55.95 318.17"/><polygon class="cls-32" points="47.15 314.48 45.56 314.48 45.56 371.58 47.15 370.64 47.15 314.48"/><polygon class="cls-32" points="65.99 320.01 64.4 320.01 64.4 377.11 65.99 376.16 65.99 320.01"/><path class="cls-12" d="M99.86,255.55H38.48V316c0,9,13.74,16.32,30.69,16.32a56.14,56.14,0,0,0,6.71-.4V319.4c13.27-1.58,23.3-7.71,24-15.16l0,0Z" transform="translate(0)"/><path class="cls-17" d="M99.83,304.24c-.65,7.45-10.68,13.58-24,15.16v12.51c13.72-1.62,24-8.14,24-15.92V304.22Z" transform="translate(0)"/><path class="cls-4" d="M99.83,300.75c-.65,7.44-10.68,13.6-24,15.18v6.25c13.72-1.63,24-8.14,24-15.92v-5.51Z" transform="translate(0)"/><path class="cls-11" d="M69.17,239.22c-17,0-30.69,7.31-30.69,16.33s13.74,16.32,30.69,16.32,30.69-7.31,30.69-16.32S86.12,239.22,69.17,239.22Z" transform="translate(0)"/><path class="cls-33" d="M69.41,239.4c-14.77,0-26.74,6.36-26.74,14.22s12,14.22,26.74,14.22,26.74-6.37,26.74-14.22S84.17,239.4,69.41,239.4Z" transform="translate(0)"/><path class="cls-34" d="M69.41,239.47c-9.34,0-16.91,4-16.91,9s7.57,9,16.91,9,16.9-4,16.9-9S78.74,239.47,69.41,239.47Z" transform="translate(0)"/><path class="cls-4" d="M69.17,278.62c-16,0-29.15-6.52-30.56-14.85h-.13V269c0,9,13.74,16.33,30.69,16.33S99.86,278,99.86,269v-5.23h-.13C98.33,272.1,85.18,278.62,69.17,278.62Z" transform="translate(0)"/><path class="cls-14" d="M85.11,305c0,2.29,2.9,2.46,6.49.39s6.49-5.6,6.49-7.88-2.91-2.46-6.49-.39S85.11,302.69,85.11,305Z" transform="translate(0)"/><path class="cls-8" d="M414.56,465.67l-9.47-7.1,3.28-1.85,7.43,5.57,5.13-2.92,2,1.53Z" transform="translate(0)"/><path class="cls-8" d="M432.93,455.24l-2.56-.9L425.76,457l1.06,1.75-3.27,1.86-5.33-9.45,4.43-2.51,13.61,4.75Zm-10.39-3.78-.1.06,2.14,3.55,3.08-1.75Z" transform="translate(0)"/><path class="cls-8" d="M437.53,452.47l-1.88-1.4q2.46-1.19,4-2.07a12.92,12.92,0,0,0,1.36-.85,1.34,1.34,0,0,0,.51-.53.3.3,0,0,0,0-.33,1.87,1.87,0,0,0-.4-.36,2.23,2.23,0,0,0-.57-.33.89.89,0,0,0-.51,0,5.83,5.83,0,0,0-.91.36l-2.61,1.19a7.74,7.74,0,0,1-2.42.75,4.06,4.06,0,0,1-1.84-.19,6.76,6.76,0,0,1-1.69-1c-.81-.62-1.22-1.2-1.23-1.75a2.08,2.08,0,0,1,.83-1.57,15.13,15.13,0,0,1,2.46-1.66c.79-.45,1.54-.84,2.24-1.18s1.5-.69,2.37-1.06l1.83,1.38c-1.61.75-2.89,1.4-3.84,1.94a7.06,7.06,0,0,0-1.79,1.24.31.31,0,0,0-.08.35,1.5,1.5,0,0,0,.36.36,2.39,2.39,0,0,0,.56.33.91.91,0,0,0,.49,0,7.31,7.31,0,0,0,.87-.35l3-1.37a8.7,8.7,0,0,1,1.61-.59,4,4,0,0,1,1.5-.05,5.29,5.29,0,0,1,2.43,1.1,3.16,3.16,0,0,1,1.44,1.86,1.77,1.77,0,0,1-.67,1.55,13.09,13.09,0,0,1-2.33,1.59A53.55,53.55,0,0,1,437.53,452.47Z" transform="translate(0)"/><path class="cls-8" d="M451.94,444.45l-7.43-5.57-3.58,2-2-1.52,10.43-5.93,2,1.53-3.59,2,7.43,5.57Z" transform="translate(0)"/><path class="cls-8" d="M474.91,431.41l-7.62-3.16-.11.07,3.75,5.36L466.79,436l-12.44-5.41,3.27-1.85,8.57,3.87.1-.05-4.47-6.2,3.34-1.9L474,428.2l.11-.06-4.83-6,3.25-1.85,6.5,8.79Z" transform="translate(0)"/><path class="cls-8" d="M483.17,426.73l-9.47-7.1,3.27-1.85,9.47,7.09Z" transform="translate(0)"/><path class="cls-8" d="M489.15,423.34l-9.47-7.1,3.27-1.86,7.43,5.57,5.13-2.91,2,1.53Z" transform="translate(0)"/><path class="cls-8" d="M499.35,417.54l-9.46-7.1,3.27-1.85,7.43,5.57,5.13-2.92,2,1.53Z" transform="translate(0)"/></svg>