<?xml version="1.0" encoding="utf-8"?>
<!-- Generator: Adobe Illustrator 22.1.0, SVG Export Plug-In . SVG Version: 6.00 Build 0)  -->
<svg version="1.1" id="New" xmlns="http://www.w3.org/2000/svg" xmlns:xlink="http://www.w3.org/1999/xlink" x="0px" y="0px"
	 viewBox="0 0 1236.2 1190.7" style="enable-background:new 0 0 1236.2 1190.7;" xml:space="preserve">
<style type="text/css">
	.st0{fill:#D9DDDD;}
	.st1{fill:#B5EFDC;}
	.st2{fill:#4D827E;}
	.st3{fill:#586357;}
	.st4{fill:#FFFFFF;}
	.st5{opacity:0.95;fill:#FFFFFF;enable-background:new    ;}
	.st6{opacity:0.4;fill:#191919;enable-background:new    ;}
	.st7{fill:#825C37;}
	.st8{fill:#5E533D;}
	.st9{fill:#93814D;}
	.st10{fill:#DD9933;}
	.st11{fill:#9B672A;}
	.st12{fill:#726346;}
	.st13{opacity:0.8;fill:#3B5363;enable-background:new    ;}
	.st14{fill:#B5B5B5;}
	.st15{fill:#202943;}
	.st16{fill:#F4F4F4;}
	.st17{clip-path:url(#SVGID_2_);}
	.st18{fill:#3466B7;}
	.st19{fill:#D6D7D8;}
	.st20{fill:#A0A0A0;}
	.st21{fill:#D3D3D3;}
	.st22{fill:#09AFA7;}
	.st23{fill:#8B8C8E;}
	.st24{fill:#747577;}
	.st25{fill:#A2A3A5;}
	.st26{fill:#A59C46;}
	.st27{fill:#ADA95C;}
	.st28{fill:#BCB66C;}
	.st29{fill:#9B5773;}
	.st30{fill:#AF5B79;}
	.st31{fill:#B76385;}
	.st32{fill:#A4D0D8;}
	.st33{fill:#2B2B2B;}
	.st34{fill:#C5E3EA;}
	.st35{fill:#B3E9F7;}
	.st36{fill:#2C7DBF;}
	.st37{fill:#4791EA;}
	.st38{fill:#3D4E5E;}
	.st39{fill:#34414C;}
	.st40{fill:#316793;}
	.st41{fill:#355F7C;}
</style>
<title>Home Page_Man&amp;amp;Machine_New</title>
<path class="st0" d="M1096.7,1154c13-6.8,29.1-13.4,42.2-19.9c22.2-11,45.4-15,66.4-28.1c-12.5,1.3-24.9,3.9-37,7.6
	c-58.9,17.9-109.4,55.9-167.6,75.2C1011,1190.9,1083.4,1160.9,1096.7,1154z"/>
<path class="st0" d="M1232.9,1112.5c-0.9,0.4,1.7,0-10.4,3.7c-58.9,17.9-52.5,33-110.7,52.3
	C1122,1170.5,1211.9,1125.5,1232.9,1112.5z"/>
<path class="st0" d="M1304.7,1008.8L222,673.8c0.1,2.5-1.4,5-4.5,5c-13.4-0.1-25.9,7.3-37.2,13.9c-11.9,7.1-24.4,13.1-37.4,17.8
	c-7.4,2.6-14.9,5-22,8.2c-7.1,3.2-13.9,6.8-20.9,10.2c-6.8,3.2-13.3,6.3-20.8,7.1c-3,0.3-6.4,0.3-8.8,2.4c-1.6,1.4-2.7,3.6-3.9,5.5
	c3.8,2.3,7.1,5.4,11.1,8c7.4,4.7,16.2,6.6,24.3,9.6c16.1,6,31.2,14.7,46.5,22.3c16.5,8.2,32.7,17.2,49.3,25.2
	c15.2,7.4,30.5,13.7,44.6,23.2c1.5,1,3.1,2.1,4.6,3.2c28.4,2.2,53,21.5,77.5,34.2c15.2,7.9,31,14.8,46.3,22.5
	c11.5,5.8,23.2,11.4,35.1,16.4c33.1,14.1,66.7,27,99,42.7c13.8,6.7,26.9,14.6,40,22.4c12.6,7.5,25.4,14.4,38.6,20.7
	c29.7,14.1,58.7,29.6,89.7,40.5c0.8,0.3,1.5,0.8,2.1,1.4c8.2,2.3,15.8,6.8,22.9,11.6c2.9,2,5.7,4,8.5,6.1
	c7.9,3.1,15.3,7.4,22.6,11.8c1.1,0.6,2.1,1.3,3.2,1.9l47.8,22.7c20.7,8.2,41.8,15.7,61.3,26.6c19.2,7.9,37.9,17,56.3,26.5
	c3.1,1.6,6.1,3.2,9.2,4.9c18.5,4,43,8.8,54.1,23.4c8.5,2.8,18.5,6,26.8,11.2c15.4-4.5,30.5-10.2,45.1-17
	C1094.2,1137.8,1304.7,1008.8,1304.7,1008.8z"/>
<path class="st1" d="M1231.4,163.1c-2.7-2.4-5.8-4.5-9-6.2l-969-47.8c0,0-2.7,320.1-2.6,305.5c0.6-112.1,0.1,0.8,0.2,1.3l0,0l0,0
	c1,8.1-0.2,15.6-2.2,23.2c0,0.5,0.1,0.9,0.1,1.4c0.2,1.4-0.4,2.7-1.5,3.5c-0.8,2.7-1.7,5.5-2.5,8.2c-4,13-3.6,25.5-3.3,39
	c0.8,29.1-1.6,58.6-8.3,87c-0.3,1.5-1.4,2.7-2.8,3.2c-0.1,2.6-0.1,5.3-0.1,7.9c0,0.4-0.1,0.8-0.2,1.2l0,0c-4.2,25-7.9,50.3-8,75.7
	c0,0.9-0.3,1.8-0.8,2.6l-0.2,2.7c0.4,0.7,0.6,1.5,0.7,2.3l812.5,250.4c3.1-6.9,41-126,44.8-158.4c2.1-17.8,12.1-34.1,19.1-50.5
	c6.9-16.2,11.8-33,18.6-49.1c12.6-29.7,45.3-116,46.7-123.5c1.9-9.8,3.5-58,5-61.7c9.4-23.4,8.7-109,15.4-131c2-6.6,4.6-13.1,7-19.6
	c2.5-13.6,6-26.9,10.3-40l0.4-1.2c2.7-19.3,16.7-73.8,17.9-82.5c2.1-14.7,5.5-29,11.5-42.6c0.1-0.3,0.3-0.6,0.5-0.9L1231.4,163.1z"
	/>
<path class="st1" d="M535,74.2l-91.9-7.4L445,28l1,0.1l91,4.4L535,74.2z M445.3,64.9l87.9,7.1l1.7-37.7l-88-4.3L445.3,64.9z"/>
<path class="st1" d="M628.3,80.3l-91.9-7.4l1.8-38.8h1l91,4.4L628.3,80.3z M538.5,71l87.9,7.1l1.7-37.7l-88-4.3L538.5,71z"/>
<path class="st1" d="M590.2,118.9l-91.9-7.4l1.9-40.4l91.9,6.1L590.2,118.9z M500.4,109.7l87.9,7.1l1.7-37.7l-87.9-5.8L500.4,109.7z
	"/>
<path class="st1" d="M931.8,96.6L840,93.3l1.8-38.8l92,3.4L931.8,96.6z M842.1,91.4l87.9,3.2l1.7-34.7l-88-3.3L842.1,91.4z"/>
<path class="st1" d="M1025.1,101.7l-1-0.1l-90.9-5.3l1.9-37.8L1027,61L1025.1,101.7z M935.3,94.5l87.9,5.1l1.7-36.7l-88-2.3
	L935.3,94.5z"/>
<path class="st1" d="M987,143.4l-91.9-4.4l1.9-42.4h1l90.9,3L987,143.4z M897.2,137.1l87.9,4.1l1.7-39.6l-87.9-2.9L897.2,137.1z"/>
<path class="st1" d="M1080.7,148.4l-91.9-4.3l1.8-43.8l92,4.5L1080.7,148.4z M990.9,142.1l87.9,4.2l1.8-39.7l-88-4.3L990.9,142.1z"
	/>
<path class="st1" d="M1117.5,106.2l-91.9-5.4l1.9-40.8h1l90.9,4.4L1117.5,106.2z M1027.8,99l87.9,5.1l1.7-37.7l-87.9-4.3L1027.8,99z
	"/>
<path class="st1" d="M1179.6,764.3l-91.9-23.7l1.9-40.8l91.9,22.8L1179.6,764.3z M1089.8,739.1l87.9,22.7l1.8-37.7l-88-21.9
	L1089.8,739.1z"/>
<path class="st1" d="M1225.5,818.9l-91.8-24.8l1.9-40.8l91.9,23.9L1225.5,818.9z M1135.7,792.6l87.9,23.7l1.7-37.7l-88-22.8
	L1135.7,792.6z"/>
<path class="st1" d="M1170.8,847.4l-91.8-25.8l1.8-40.8l91.9,24.9L1170.8,847.4z M1081,820.1l87.9,24.7l1.7-37.7l-88-23.8
	L1081,820.1z"/>
<path class="st1" d="M1079.1,822.2l-91.8-33l1.9-40.9l91.9,32L1079.1,822.2z M989.3,787.9l87.9,31.5l1.7-37.6l-88-30.7L989.3,787.9z
	"/>
<path class="st1" d="M1133.5,794.6l-91.8-25.8l1.9-40.8l91.9,24.9L1133.5,794.6z M1043.8,767.3l87.9,24.7l1.7-37.7l-88-23.8
	L1043.8,767.3z"/>
<path class="st1" d="M1225.6,505l-1.2-0.2l-90.7-18.4l1.8-40.8l91.9,17.7L1225.6,505z M1135.8,484.7l87.9,17.8l1.7-37.7l-88-17
	L1135.8,484.7z"/>
<path class="st1" d="M1205.7,544.6l-91.9-19.7l1.9-40.8l91.9,18.8L1205.7,544.6z M1115.9,523.3l87.8,18.8l1.8-37.7l-88-18
	L1115.9,523.3z"/>
<path class="st1" d="M1090.2,514.4l-91.8-33l1.8-40.9l91.9,32L1090.2,514.4z M1000.4,480l87.9,31.6l1.7-37.6l-88-30.7L1000.4,480z"
	/>
<path class="st1" d="M1144.6,486.8l-91.8-25.8l1.8-40.8l91.9,24.9L1144.6,486.8z M1054.8,459.5l87.9,24.7l1.7-37.7l-88-23.8
	L1054.8,459.5z"/>
<path class="st1" d="M1133.8,196.1l-91.9-7.4l1.9-40.4l91.9,6.1L1133.8,196.1z M1044,186.9l87.9,7.1l1.7-37.7l-87.9-5.8L1044,186.9z
	"/>
<path class="st1" d="M450.3,155.6l-91.9-7.4l1.9-40.4l91.9,6.1L450.3,155.6z M360.5,146.4l87.9,7.1l1.7-37.7l-87.9-5.8L360.5,146.4z
	"/>
<path class="st1" d="M358.6,148.8l-1-0.1l-92.2-7.4l1.9-41.2l93.2,6.9L358.6,148.8z M267.5,139.5l89.2,7.1l1.8-37.7l-89.2-6.6
	L267.5,139.5z"/>
<path class="st1" d="M389.3,191.8l-1-0.1l-92.2-7.4l1.8-39.6l93.2,6.1L389.3,191.8z M298.2,182.5l89.2,7.1l1.7-36.9l-89.3-5.9
	L298.2,182.5z"/>
<path class="st1" d="M277.1,505.9l-68.4-23.2l2.2-41.3l69.8,22.8L277.1,505.9z M210.8,481.4l64.5,21.8l3.3-37.6l-65.8-21.5
	L210.8,481.4z"/>
<path class="st1" d="M367.6,511.9l-1-0.2l-90.4-12.9l3.5-41l91.7,10L367.6,511.9z M278.3,497.1l87.5,12.5l3.4-40.1l-87.7-9.5
	L278.3,497.1z"/>
<path class="st1" d="M420.9,558.1l-1-0.1l-90.6-8.4l3.6-42.7l91.6,11.7L420.9,558.1z M331.4,547.8l87.7,8.1l3.2-35.7l-87.6-11.2
	L331.4,547.8z"/>
<path class="st1" d="M329.9,550.3l-1-0.2l-90.4-12.9l3.6-42.6l91.6,11.7L329.9,550.3z M240.6,535.5l87.5,12.5l3.4-40.1l-87.6-11.2
	L240.6,535.5z"/>
<path class="st1" d="M352.3,596l-91.5-11.3l3.6-42.7l91.6,11.7L352.3,596z M263,583l87.6,10.8l3.3-38.3l-87.6-11.2L263,583z"/>
<path class="st1" d="M238.8,537.8l-79.5-27.7l3.6-42.8l79.5,27.1L238.8,537.8z M161.4,508.8l75.6,26.3l3.3-39.2l-75.7-25.8
	L161.4,508.8z"/>
<path class="st1" d="M261,591.6L180.2,563l3.7-43.6l80.8,28.1L261,591.6z M182.3,561.6l76.8,27.2l3.4-40l-76.9-26.7L182.3,561.6z"/>
<path class="st1" d="M248,86.2l-79.5-7.1l3.6-42.7l79.6,6.6L248,86.2z M170.6,77.2l75.6,6.8l3.3-39.3l-75.6-6.2L170.6,77.2z"/>
<path class="st1" d="M270.2,134l-80.8-8.1l3.7-43.5l80.8,7.6L270.2,134z M191.6,124.1l76.8,7.8l3.4-40.1l-76.8-7.2L191.6,124.1z"/>
<polygon class="st2" points="913.2,537.9 264.7,463.9 264.2,98.4 905.2,121.4 "/>
<path class="st3" d="M913.8,538.6l-655.1-69.3l3.1-370.6l645.9,22.4L913.8,538.6z M270.8,458.5l630.8,66.7l-5.8-392.5l-622.1-21.6
	L270.8,458.5z"/>
<path class="st4" d="M501.3,210.4c-1.1,0.2-2.3,0.2-3.4,0c-1.7-0.6-2.6-2.4-2-4.1c0.1-0.2,0.2-0.4,0.3-0.6c0.9-1.5,2.7-2.1,4.3-1.3
	c2,1.2,0.6,2.8,0,4.2c-1.5,3.4,2.7,4,5.1,3.3c0.4-0.1,0.6-0.6,0.4-1c-0.1-0.3-0.5-0.5-0.8-0.5c-1.1,0.3-3.7,1-3.3-1.4
	c0.1-0.5,0.7-1.1,0.9-1.6c0.4-1,0.4-2.1-0.1-3c-1.3-1.9-3.8-2.5-5.8-1.4c-2.2,1.3-3.2,4-2.1,6.4c1.2,2.6,4.1,2.6,6.6,2.4
	C502.3,211.9,502.3,210.4,501.3,210.4L501.3,210.4z"/>
<path class="st4" d="M501.8,201c0.3-0.8,1.5-0.3,0.7,0.5c-0.5,0.5-1.1,0.8-1.5,1.2c-0.7,0.6,0.2,1.5,0.9,1.2c0.6-0.2,1.3-0.2,1.9,0
	c0.5,0.2,0.8,0.6,1.4,0.7c1.4,0.2,1.2-1.6,1.2-2.4s-1.5-1-1.5,0c0,0.5,0,0.9-0.1,1.4l0.3-0.5c0.2-0.1,0.2,0-0.1-0.2
	c-0.1-0.1-0.3-0.2-0.5-0.2c-0.4-0.2-0.8-0.3-1.2-0.4c-0.8-0.1-1.6,0-2.3,0.4l0.9,1.2c1-1,3-1.8,2.1-3.6c-0.5-1-1.7-1.4-2.7-1
	c-0.5,0.2-0.8,0.6-1,1C500.1,201.1,501.4,201.9,501.8,201L501.8,201z"/>
<path class="st4" d="M512.8,210.1l17.2,0.5c1,0,1-1.5,0-1.5l-17.2-0.6c-0.4,0-0.8,0.3-0.8,0.8S512.3,210.1,512.8,210.1L512.8,210.1z
	"/>
<path class="st4" d="M520.5,202.7c-0.6,4.1-0.5,8.3,0.1,12.4c0.2,1,1.6,0.5,1.5-0.4c-0.6-3.8-0.6-7.8-0.1-11.6
	C522.1,202.2,520.7,201.8,520.5,202.7L520.5,202.7z"/>
<path class="st4" d="M535.8,204.1l-0.3,9.2h1.5l-0.2-9.4l-0.5,0.7c1.5-0.6,3.2,0.1,3.9,1.6c0,0,0,0.1,0,0.1c0.3,0.5,0.4,1.1,0.3,1.8
	c0.2,1.3-0.5,2-2.1,2.1l-0.2,1.2c1.3-1,3-1.1,4.4-0.3c1.4,0.9,2.3,3,0.3,3.5c-2.2,0.7-4.8-0.8-6.3-2.3c-0.7-0.7-1.8,0.4-1.1,1.1
	c1.6,1.7,3.8,2.7,6.1,2.8c1.5,0.1,3.4-0.1,3.8-1.8c1.2-4.6-5.1-6.3-8.1-4.2c-0.4,0.2-0.5,0.7-0.3,1c0,0.1,0.1,0.1,0.1,0.1
	c2.4,2.2,4.6-0.8,4.7-3.2c0-3.3-2.8-6.1-6.2-4.9c-0.3,0.1-0.5,0.4-0.5,0.7l0.2,9.4c0,0.4,0.3,0.8,0.8,0.8s0.8-0.3,0.8-0.8l0.3-9.2
	C537.3,203.1,535.8,203.1,535.8,204.1z"/>
<path class="st4" d="M543,201.7c1-0.6,2.3-0.4,3.1,0.5c1,1.2,0.3,2.9-0.6,3.9l0.9-0.1c-1.1-0.6,0.6-1.2,1-1.3c0.7,0,1.5,0.1,2.1,0.4
	c0.4,0.1,0.8-0.1,0.9-0.5c0-0.1,0-0.3,0-0.4l-0.7-2.2c-0.3-0.9-1.7-0.5-1.4,0.4l0.7,2.2l0.9-0.9c-1.5-0.5-3.7-1-4.8,0.6
	c-0.7,0.9-0.5,2.1,0.3,2.8c0.1,0.1,0.2,0.1,0.3,0.2c0.3,0.2,0.7,0.1,0.9-0.1c1.4-1.5,2.2-3.9,0.8-5.8c-1.2-1.6-3.4-2-5.1-1
	C541.5,200.9,542.2,202.2,543,201.7L543,201.7z"/>
<path class="st4" d="M561.8,209.6l9,0.3c0.4,0,0.8-0.3,0.8-0.8s-0.3-0.8-0.8-0.8l-9-0.3c-0.4,0-0.8,0.3-0.8,0.8
	S561.3,209.6,561.8,209.6z"/>
<path class="st4" d="M562.5,214.2l8,0.2c1,0,1-1.5,0-1.5l-8-0.2c-0.4,0-0.8,0.3-0.8,0.8S562.1,214.2,562.5,214.2z"/>
<path class="st4" d="M583.2,205.3c-3.4-0.9-6.2,2-6.3,5.3c-0.1,4.3,4.4,4.7,7.7,4.3c1-0.1,1-1.6,0-1.5c-2.1,0.2-5.6,0.6-6.1-2.2
	c-0.5-2.5,1.7-5.1,4.3-4.5c0.4,0.1,0.8-0.2,0.9-0.6C583.8,205.8,583.6,205.4,583.2,205.3z"/>
<path class="st4" d="M585.4,203.5c0.5-0.5,0.7,0.6,0.7,0.9c0,0.1-0.1,1.3-0.3,1.2l0.2,1.4c0.9-0.7,2.2-0.8,3.2-0.4
	c0.4,0.1,0.8-0.1,1-0.5c0-0.1,0-0.2,0-0.2c0-0.8-0.2-1.6-0.5-2.4c-0.4-0.9-1.7-0.1-1.3,0.8c0.2,0.5,0.3,1.1,0.3,1.6l1-0.7
	c-1.5-0.5-3.1-0.3-4.4,0.6c-0.5,0.3-0.5,1.3,0.2,1.4c1.8,0.3,2.4-1.8,2.2-3.3s-2.1-2.6-3.2-1.3C583.7,203.2,584.8,204.2,585.4,203.5
	L585.4,203.5z"/>
<path class="st4" d="M596.3,210.6c1.7-0.1,3.4-0.1,5.1,0c1,0.1,1-1.4,0-1.5c-1.7-0.1-3.4-0.1-5.1,0
	C595.3,209.2,595.3,210.7,596.3,210.6z"/>
<path class="st4" d="M596,213.8l5.9,0.2c1,0,1-1.5,0-1.5l-5.9-0.2c-0.4,0-0.8,0.3-0.8,0.8S595.6,213.8,596,213.8z"/>
<path class="st4" d="M606.8,213c0.6,1.1,1.4,2,2.4,2.8c0.3,0.3,0.8,0.3,1.1-0.1c0.2-0.2,0.2-0.4,0.2-0.7c-0.4-3.1-1.4-8.9,1.2-11
	c1.9-1.6,6-1.2,8.4-1.4c5.7-0.4,11.5-0.5,17.2-0.4c0.4,0,0.8-0.3,0.8-0.8s-0.3-0.8-0.8-0.8c-8.9-0.2-17.8,0.3-26.7,1.3
	c-0.3,0-0.6,0.2-0.7,0.5c-1.2,4.2-1.5,8.6-0.8,12.9l1.2-0.7c-0.9-0.6-1.7-1.5-2.2-2.5c-0.2-0.3-0.7-0.4-1-0.2
	C606.7,212.2,606.6,212.6,606.8,213L606.8,213z"/>
<path class="st4" d="M622.3,212.9c-0.6,0.1-1.3,0-1.8-0.5c-0.5-0.5-0.6-1.3-0.1-1.8c0.1-0.1,0.1-0.1,0.2-0.2
	c0.5-0.4,1.3-0.3,1.8,0.1c0.6,0.6,0.3,1.4,0.1,2c-0.1,0.4,0.1,0.8,0.5,0.9c0,0,0,0,0,0l2.1,0.3c0.9,0.1,1.3-1.3,0.4-1.5l-2.1-0.3
	l0.5,0.9c0.7-1.3,0.4-2.8-0.7-3.8c-1-0.7-2.4-0.7-3.5,0c-1,0.8-1.4,2.1-0.9,3.3c0.7,1.3,2.1,2,3.5,1.8
	C623.3,214.3,623.3,212.8,622.3,212.9L622.3,212.9z"/>
<path class="st4" d="M623.9,208.8l2.4-0.4l-0.9-0.5c0.1,0.6,0,1.2-0.5,1.6c-0.5,0.5,0,1.5,0.7,1.3c0.5-0.2,1.1-0.3,1.7-0.2
	c0.9,0.1,1.4-1.3,0.4-1.4c-0.8-0.2-1.7-0.1-2.5,0.2l0.7,1.2c0.8-0.8,1.1-2,0.8-3.1c-0.1-0.4-0.5-0.6-0.9-0.5l-2.4,0.4
	C622.6,207.5,623,208.9,623.9,208.8L623.9,208.8z"/>
<path class="st4" d="M630.7,211.8l5.6,0.2c0.4,0,0.8-0.3,0.8-0.8s-0.3-0.8-0.8-0.8l-5.6-0.2C629.7,210.3,629.7,211.7,630.7,211.8z"
	/>
<path class="st4" d="M632.6,206.9c-0.2,2.2-0.2,4.5,0.2,6.7c0.2,1,1.6,0.5,1.4-0.4c-0.4-2.1-0.4-4.2-0.2-6.3
	C634.2,205.9,632.7,205.9,632.6,206.9L632.6,206.9z"/>
<path class="st4" d="M639.3,214.8l1.5-3.2c0.5-0.8,0.8-1.6,1.1-2.5c0.2-1.4-1.7-1.9-2.7-2.4c-0.4-0.2-0.8-0.1-1,0.3
	c-0.1,0.1-0.1,0.2-0.1,0.3c-0.2,1.7-2,11.5,2.7,9.4c1.5-0.9,2.4-2.5,2.4-4.2c0-1.8-2-1.5-3.2-1.3c-1,0.1-0.6,1.6,0.4,1.4
	c0.6-0.1,1.1-0.1,1.7,0.1l-0.4-0.6c0,0.8-0.2,1.6-0.5,2.3l-0.4,0.6l-1.5-0.3c-0.2-0.2,0-1.1,0-1.4c0-2,0.2-3.9,0.4-5.8l-1.1,0.6
	c0.5,0.2,1.1,0.5,1.5,0.8c0.4,0.6-0.1,1.1-0.3,1.7L638,214C637.6,214.9,638.9,215.7,639.3,214.8L639.3,214.8z"/>
<path class="st4" d="M642.5,206.8c0.6-0.4,1.6,0.3,0.8,0.8c-0.6,0.4-0.4,1.5,0.4,1.4l2.4-0.2c0.9-0.1,1-1.6,0-1.5l-2.4,0.2l0.4,1.4
	c1-0.5,1.3-1.7,0.8-2.7c0,0,0-0.1-0.1-0.1c-0.7-0.9-2-1.2-3-0.6c-0.4,0.2-0.5,0.7-0.3,1C641.8,206.9,642.2,207,642.5,206.8
	L642.5,206.8z"/>
<path class="st4" d="M455.6,229l-146.2-6.7l4.4-50.7c0.1-0.9,0.6-1.8,1.4-2.2c0.9-0.6,2.1-0.6,3.1-0.2L455.6,229z M310.6,221.3
	l139.7,6.4L318,170.1c-0.7-0.3-1.5-0.3-2.2,0.1c-0.5,0.3-0.9,0.8-1,1.5L310.6,221.3z"/>
<polygon class="st4" points="321.9,222.5 320.9,222.4 321.3,210 310.7,209.7 310.8,208.7 322.3,209 "/>
<path class="st4" d="M300.1,166.5l-0.9-0.4c2.5-6.5,5.6-12.7,9.2-18.7l0.8,0.5C305.7,153.9,302.7,160.1,300.1,166.5z"/>
<path class="st4" d="M315.2,161.5c-0.2-2.7-0.7-5.5-1.4-8.1c-0.2-1-0.6-2-1-2.9c-0.6-1.2-1.3-2.2-2.3-3.1v0.2h-1v-2.3l0.8,0.6
	c1.5,1.1,2.6,2.5,3.4,4.2c0.4,1,0.8,2,1,3c0.7,2.7,1.2,5.5,1.4,8.3L315.2,161.5z"/>
<path class="st4" d="M303.2,157.3l-0.2-1c4-0.8,8.1-1.3,12.2-1.4v1C311.1,156,307.1,156.5,303.2,157.3z"/>
<path class="st4" d="M463.8,232.7c-0.4,0-0.8,0-1.2,0c-0.6,0-1.2-0.2-1.6-0.5c-0.4-0.4-0.6-1-0.5-1.6c0.1-4.2,0.2-8.5,0.4-12.7h1
	c-0.1,4.2-0.3,8.4-0.4,12.7c-0.1,0.3,0,0.6,0.2,0.9c0.3,0.2,0.6,0.3,1,0.2c2.8,0.2,4.4-0.3,5-1.4s-0.1-2.5-1.9-4.2
	c-0.2-0.2-0.4-0.4-0.7-0.6c-0.6,0.1-1.2,0.2-1.8,0.2l-0.9,0.1l0.4-0.8c0.4-0.7,1.3-1,2.1-0.7c0.1,0,0.3,0.1,0.4,0.2
	c1.2-0.1,2.3-0.8,2.9-1.8c0.5-1.2-0.4-2.7-1.5-3.4c-1.4-0.8-3-1.2-4.6-1.3l0.1-1c1.8,0.1,3.5,0.6,5,1.4c1.5,0.9,2.6,2.9,1.9,4.6
	c-0.6,1.1-1.6,1.9-2.8,2.2l0.2,0.1c0.8,0.8,3.2,3.2,2.1,5.4C467.8,232.1,466.2,232.7,463.8,232.7z"/>
<path class="st4" d="M308.6,235.3c-1.1-0.1-2.3-0.4-3.3-0.9c-0.7-0.3-1.4-0.7-2-1.3c-0.4-0.5-0.6-1.1-0.7-1.7
	c-0.4-1.5-0.2-3.2,0.7-4.5c0.6-0.8,1.5-1.3,2.5-1.4c0.8-0.1,1.5,0.1,2.1,0.6l-0.3,0.4c-0.5-0.4-1.1-0.5-1.8-0.4
	c-0.8,0.1-1.6,0.5-2.1,1.2c-0.8,1.2-1,2.8-0.6,4.2c0.1,0.5,0.3,1.1,0.6,1.5c0.5,0.5,1.1,0.9,1.8,1.2c2.2,1,3.7,1.1,4.6,0.3
	c0.6-0.7,0.9-1.7,0.7-2.7h0.5c0.2,1.1-0.2,2.2-0.9,3.1C310,235.1,309.3,235.3,308.6,235.3z"/>
<path class="st4" d="M311.8,221l-0.8-0.5c9.5-14.4,20.6-27.6,33.1-39.5l0.7,0.7C332.3,193.4,321.2,206.6,311.8,221z"/>
<path class="st4" d="M335.7,191.3c-3.3-1-6.3-2.7-9-4.8c-0.4-0.2-0.6-0.6-0.6-1c0-0.4,0.2-0.7,0.5-0.9l7.9-8l0.7,0.7l-7.9,8
	c-0.1,0.1-0.1,0.1-0.2,0.2c0,0,0.1,0,0.2,0.2c2.6,2,5.5,3.6,8.7,4.6L335.7,191.3z"/>
<path class="st4" d="M429.8,226.8c-0.6-2.5,0.2-5.2,2.1-7l0.7,0.7c-1.7,1.5-2.4,3.8-1.8,6L429.8,226.8z"/>
<path class="st4" d="M377.3,238.4l-0.9-0.3c1-2.8,1.5-5.8,1.3-8.8l1-0.1C378.8,232.3,378.4,235.5,377.3,238.4z"/>
<path class="st4" d="M383.1,236.7c-0.8-2.6-2.5-4.7-4.8-6.1l0.5-0.9c2.5,1.5,4.4,3.9,5.3,6.7L383.1,236.7z"/>
<path class="st4" d="M379.4,235.9c-0.6,0-1.1,0-1.7-0.1l0.1-1c1.2,0.2,2.4,0.1,3.6-0.1l0.2,1C380.9,235.9,380.1,235.9,379.4,235.9z"
	/>
<rect x="379.5" y="184.7" transform="matrix(2.931734e-02 -0.9996 0.9996 2.931734e-02 184.3072 560.2515)" class="st4" width="2.2" height="1"/>
<path class="st4" d="M384.9,189.5c-0.7,0-1.4-0.1-2-0.3c-1.4-0.4-2.5-1.4-2.9-2.8l1-0.3c0.4,1,1.2,1.8,2.3,2.1
	c1.2,0.3,2.4,0.3,3.5,0c0.3-0.1,0.6-0.2,0.8-0.4c0.2-0.1,0.3-0.3,0.3-0.5c-0.1-0.7-0.4-1.4-0.9-1.9c-0.5-0.6-1.1-1.1-1.8-1.4
	c-0.4-0.2-0.8-0.3-1.3-0.2c-0.3,0.1-0.5,0.2-0.8,0.3l-0.5-0.9c0.3-0.2,0.7-0.3,1.1-0.4c0.4-0.1,0.7-0.2,1.1-0.2
	c0.5-0.1,1-0.2,1.4-0.3c0.9-0.3,1.9-1,1.9-1.9s-1.1-1.4-2-1.4l0,0c-1,0.1-2,0.5-2.8,1.2c-0.3,0.3-0.7,0.6-1,0.9
	c-0.5,0.5-1,0.9-1.6,1.3l-0.6-0.8c0.5-0.4,1-0.8,1.5-1.2c0.3-0.3,0.7-0.6,1.1-0.9c1-0.9,2.2-1.4,3.5-1.4c1.4,0,2.9,1,3,2.4
	s-1.2,2.4-2.6,2.9l-0.5,0.1c0.6,0.4,1.2,0.9,1.7,1.4c0.7,0.7,1.1,1.6,1.1,2.6c0,0.5-0.2,0.9-0.6,1.2c-0.4,0.3-0.8,0.5-1.3,0.6
	C386.3,189.4,385.6,189.5,384.9,189.5z"/>
<path class="st4" d="M306.9,201.7c-2.2,0-4.3-0.1-6.5-0.4c-0.7,0-1.4-0.3-1.8-0.8c-0.1-0.2-0.2-0.4-0.2-0.6c0-0.1,0-0.3-0.1-0.4
	c-0.1-0.1-0.2-0.3-0.2-0.4c-0.1-0.2-0.2-0.3-0.3-0.5c-0.1-0.3-0.1-0.7,0.1-1c0.4-0.7,1.1-1.2,1.9-1.4c1.7-0.5,3.5-0.6,5.2-0.3
	l-0.1,0.5c-1.7-0.3-3.4-0.2-5,0.3c-0.7,0.2-1.2,0.6-1.6,1.1c-0.1,0.2-0.1,0.4,0,0.6c0.1,0.2,0.2,0.3,0.3,0.4
	c0.1,0.2,0.2,0.3,0.3,0.5c0.1,0.2,0.1,0.3,0.1,0.5c0,0.2,0.1,0.3,0.2,0.5c0.2,0.4,0.8,0.5,1.4,0.6c2.1,0.2,4.3,0.3,6.5,0.4
	L306.9,201.7z"/>
<path class="st4" d="M331.2,204.2l-1.2-1.4c-0.2-0.3-0.3-0.7-0.2-1.1c0,0,0-0.1,0-0.1c-0.1-1.1-0.1-2.3,0.1-3.4l1,0.1
	c-0.1,0.7-0.1,1.4-0.1,2.2c0.7-0.3,1.4-0.4,2.1-0.3h0.9c0.3,0,0.6,0,0.8,0.2c0.4,0.3,0.5,0.8,0.4,1.3l-0.3,1.8l-1-0.2l0.3-1.8
	c0-0.1,0-0.2,0-0.3h-1.1c-0.6-0.1-1.1,0-1.7,0.2c-0.1,0.1-0.3,0.2-0.3,0.3c0,0.2,0,0.5,0.1,0.7L331.2,204.2z"/>
<path class="st5" d="M462.3,386.1l-0.4,12.3c0,0.4,0.3,0.8,0.8,0.8s0.8-0.3,0.8-0.8l0.4-12.3c0-0.4-0.3-0.8-0.8-0.8
	S462.3,385.7,462.3,386.1z"/>
<path class="st5" d="M463.5,387c1.7-0.2,7.3-0.6,5.9,3.3c-0.9,2.3-4.7,2-6.7,1.9v1.5c1.4-0.2,5.6-0.9,6.2,1l-1,3.1
	c-0.8,0.2-1.6,0.2-2.3,0c-0.9-0.3-1.7-0.7-2.5-1.2c-0.4-0.2-0.8,0-1,0.3c-0.2,0.3-0.1,0.8,0.2,1c2.4,1.5,7.6,2.8,8.6-1.2
	c1.1-4.6-5.5-4.8-8.2-4.5c-0.4,0-0.8,0.3-0.8,0.8s0.3,0.8,0.8,0.8c3,0.1,8.3-0.2,8.5-4.3c0.1-3.9-4.9-4.2-7.7-3.9
	C462.4,385.6,462.4,387.1,463.5,387L463.5,387z"/>
<path class="st5" d="M471.2,384.7c-0.3-0.7,1-0.8,1.3-0.5c0.3,0.3,0.4,0.7,0.4,1.1c-0.1,1-1.3,1.5-2.1,1.8c-0.4,0.1-0.6,0.5-0.5,0.9
	c0.1,0.3,0.4,0.5,0.7,0.5c1.5,0.2,3.2,0.3,4.6-0.5c1.1-0.6,1.6-1.8,1.4-3c-0.1-1-1.6-0.5-1.4,0.4s-1.1,1.6-1.9,1.7
	c-0.9,0.1-1.8,0.1-2.6-0.1l0.2,1.5c1.3-0.3,2.4-1.1,3-2.3c0.4-1,0.2-2.2-0.5-3c-1.6-1.7-4.8,0-3.8,2.2
	C470.3,386.3,471.6,385.6,471.2,384.7L471.2,384.7z"/>
<path class="st5" d="M479.8,392.5l8.7,0.3c1,0,1-1.5,0-1.5l-8.7-0.3C478.8,391,478.8,392.5,479.8,392.5z"/>
<path class="st5" d="M479.6,396.1c2.6,0,5.2-0.1,7.8-0.5c0.9-0.1,1-1.6,0-1.5c-2.6,0.3-5.2,0.5-7.8,0.5c-0.4,0-0.8,0.3-0.8,0.8
	S479.2,396.1,479.6,396.1z"/>
<path class="st5" d="M504.9,383.4c-4.5,0.8-9.6,4.5-8,9.7c1.1,3,4.4,4.6,7.4,3.5c0.8-0.3,1.5-0.7,2.1-1.3c0.7-0.7-0.4-1.8-1.1-1.1
	c-2.6,2.8-7.3,0.7-7.3-3s3.9-5.8,7.2-6.4C506.3,384.7,505.8,383.2,504.9,383.4L504.9,383.4z"/>
<path class="st5" d="M508.2,383.5c0.3,4.1,0.8,8.1,1.6,12.1c0.2,0.9,1.6,0.5,1.5-0.4c-0.8-3.9-1.3-7.8-1.5-11.7
	C509.6,382.5,508.1,382.5,508.2,383.5L508.2,383.5z"/>
<path class="st5" d="M513,384c0,4.1,0.7,8.2,1.9,12.1c0.3,0.9,1.7,0.5,1.5-0.4c-1.2-3.8-1.8-7.8-1.8-11.7c0-0.4-0.3-0.8-0.8-0.8
	S513,383.6,513,384L513,384z"/>
<path class="st5" d="M509.2,391l3.9,0.1c1,0,1-1.5,0-1.5l-3.9-0.1C508.2,389.5,508.2,391,509.2,391z"/>
<path class="st4" d="M497.9,230.5c0.1,0.1,0.1,0.2,0,0.4c-0.1,0.1-0.2,0.2-0.3,0.3c-0.1,0.1-0.3,0.1-0.5,0.2c-0.1,0-0.3,0-0.4-0.1
	c-0.4-0.3-1-0.6-1.5-0.7c-0.7-0.1-1.4-0.1-2.1,0c-0.8,0.1-1.5,0.4-2.2,0.8c-0.6,0.4-1.3,0.8-1.8,1.3c-0.4,0.4-0.8,0.8-1,1.3
	c-0.2,0.4-0.1,0.6,0.2,0.7c0.5,0.2,1,0.2,1.5,0.1c0.6-0.1,1.2-0.2,1.7-0.3c0.5-0.1,1-0.3,1.5-0.6c0.4-0.1,0.7-0.3,1-0.6
	c0.2-0.3,0.6-0.5,1-0.5c0.3,0,0.5,0.1,0.5,0.3c0,0.4,0.1,0.8,0.1,1.1c0,0.3,0,0.7,0,1c0,0.1-0.1,0.3-0.4,0.4
	c-0.2,0.2-0.6,0.1-0.7-0.1c-0.2-0.2-0.3-0.3-0.3-0.5c0-0.2-0.1-0.4-0.1-0.5c-0.3,0.2-0.6,0.4-1,0.5c-0.5,0.2-1.1,0.4-1.6,0.5
	c-0.6,0.1-1.2,0.2-1.9,0.3c-0.6,0.1-1.1,0.1-1.7,0c-0.4-0.1-0.7-0.2-1.1-0.4c-0.3-0.1-0.4-0.4-0.4-0.7c0.1-0.6,0.3-1.1,0.7-1.6
	c0.4-0.6,0.9-1.2,1.5-1.7c0.6-0.6,1.4-1,2.1-1.4c0.8-0.4,1.7-0.7,2.6-0.8c0.9-0.2,1.8-0.2,2.6,0
	C496.8,229.4,497.5,229.9,497.9,230.5z"/>
<path class="st4" d="M506.3,221.5c0.2-0.1,0.3,0,0.4,0.1c0.1,0.1,0.1,0.3,0,0.4c-0.9,0.8-2,1.4-3.1,1.9c-1.1,0.5-2.3,0.8-3.4,1
	c-0.2,0.1-0.4,0-0.5-0.1c-0.1-0.1-0.1-0.3,0-0.4c0.3-0.7,0.7-1.4,1-2.1c0.3-0.8,0.6-1.5,0.9-2.3c0.2-0.8,0.4-1.6,0.6-2.4
	c0.1-0.8,0.2-1.6,0.1-2.3c0-0.5-0.1-1-0.3-1.4c-0.1-0.3-0.4-0.5-0.7-0.6c-0.3-0.1-0.6-0.1-0.8,0.1c-0.3,0.1-0.6,0.3-0.8,0.6
	c-0.1,0.1-0.2,0.2-0.3,0.2c-0.1,0-0.2,0.1-0.3,0c-0.1,0-0.2,0-0.2-0.1c0,0-0.1-0.1,0-0.1c0.1-0.3,0.3-0.6,0.6-0.8
	c0.3-0.3,0.6-0.5,1-0.6c0.4-0.1,0.8-0.1,1.1,0c0.4,0.2,0.8,0.6,1,1c0.2,0.3,0.3,0.7,0.3,1.1c0,0.5,0,1,0,1.5c0,0.5-0.1,1.1-0.2,1.6
	c-0.1,0.5-0.2,1-0.3,1.5c-0.2,0.8-0.5,1.6-0.7,2.3c-0.3,0.8-0.6,1.6-1,2.4c1-0.3,2-0.6,2.9-1.1L506.3,221.5z"/>
<path class="st4" d="M528.7,223.4c0-0.2,0.1-0.3,0.3-0.5c0.1-0.1,0.3-0.2,0.5-0.2c0.1-0.1,0.3-0.1,0.5,0c0.1,0.1,0.2,0.2,0.2,0.4
	s0,0.6-0.1,1.4s-0.2,1.6-0.3,2.6c0.2,0,0.4,0,0.5,0h0.5c0.8,0,1.6,0,2.4,0c0.8,0,1.6,0.1,2.3,0.5c0.1,0,0.1,0.1,0.1,0.2
	c0,0.1,0,0.2-0.1,0.2c-0.8,0.3-1.6,0.4-2.4,0.3c-0.8-0.1-1.6-0.1-2.4,0h-1.2c-0.1,0.7-0.2,1.5-0.3,2.2s-0.2,1.4-0.3,2
	s-0.2,1.1-0.2,1.4s-0.1,0.5-0.2,0.5c-0.1,0-0.1,0-0.2,0c-0.1,0-0.1,0-0.2,0c-0.1,0-0.1-0.1-0.1-0.2c0-0.2,0-0.4,0-0.6
	c0-0.1,0-0.4,0-0.7s0-0.8,0.1-1.3s0.1-1,0.1-1.6s0.1-1.2,0.1-1.8c-0.6,0-1.2,0-1.8,0s-1.2,0-1.8,0c-0.2,0-0.3-0.1-0.4-0.2
	c-0.1-0.1-0.2-0.2-0.2-0.3c0-0.1,0.1-0.3,0.2-0.3c0.1-0.1,0.3-0.2,0.4-0.2l1.9-0.1h1.8c0.1-0.9,0.1-1.8,0.1-2.5
	C528.5,224.2,528.6,223.8,528.7,223.4z"/>
<path class="st4" d="M564.3,233.5c0.3-0.1,0.5-0.1,0.5,0c0.1,0.1,0.1,0.2,0.1,0.3c0,0.2-0.1,0.3-0.2,0.5c-0.1,0.1-0.2,0.2-0.3,0.3
	c-0.5,0.1-1,0.3-1.7,0.5l-2,0.4c-0.7,0.1-1.3,0.2-1.9,0.3l-1.6,0.2c0.2,0.7,0.1,1.4-0.2,2c-0.3,0.5-0.7,0.9-1.2,1.1
	c-0.6,0.3-1.2,0.4-1.8,0.5c-0.6,0-1.2,0-1.8,0c-1-0.1-2-0.3-2.9-0.6c-0.9-0.3-1.8-0.7-2.6-1.3c-0.8-0.5-1.5-1.2-2.1-2
	c-0.6-0.8-1-1.7-1.3-2.7c-0.4-1.3-0.5-2.6-0.3-3.9c0.2-1.2,0.5-2.4,1-3.5c0.2-0.3,0.3-0.6,0.5-0.9c0.2-0.3,0.5-0.6,0.8-0.9
	c0.3-0.2,0.6-0.4,1-0.4c0.4,0,0.8,0.1,1.1,0.4c0.3,0.3,0.5,0.6,0.7,0.9c0.3,0.4,0.5,0.8,0.7,1.2c0.2,0.4,0.4,0.9,0.6,1.4
	c0.2,0.5,0.3,0.9,0.4,1.2c0.3,1.1,0.5,2.3,0.7,3.5c0.2,1.2,0.3,2.4,0.3,3.6c0,0.1,0,0.2-0.1,0.2c-0.1,0.1-0.2,0.1-0.3,0.1
	c-0.1,0-0.2,0-0.3-0.1c-0.1,0-0.1-0.2-0.1-0.3c0-0.8,0-1.6-0.1-2.4c-0.1-0.9-0.2-1.8-0.4-2.6c-0.2-0.9-0.5-1.8-0.8-2.6
	c-0.3-0.8-0.7-1.5-1.2-2.2c-0.1-0.2-0.2-0.3-0.4-0.5c-0.1-0.1-0.2-0.2-0.4-0.3c-0.1-0.1-0.3-0.1-0.4,0c-0.5,0.3-0.9,0.8-1.2,1.3
	c-0.3,0.7-0.6,1.5-0.7,2.2c-0.2,0.8-0.2,1.6-0.2,2.4c0,0.7,0.1,1.3,0.3,1.9c0.5,1.5,1.6,2.9,2.9,3.8c1.2,0.8,2.6,1.4,4.1,1.7
	c0.5,0.1,1,0.1,1.5,0.1c0.5,0,1.1,0,1.6-0.1c0.4-0.1,0.7-0.3,1-0.6c0.2-0.3,0-0.7-0.5-1.3c-0.1-0.2-0.1-0.3-0.1-0.5
	c0-0.2,0.1-0.3,0.2-0.4c0.1-0.1,0.2-0.2,0.4-0.3c0.1-0.1,0.2-0.1,0.3-0.1l1.7-0.2c0.7-0.1,1.3-0.2,2.1-0.3s1.5-0.3,2.3-0.4
	S563.6,233.7,564.3,233.5z"/>
<path class="st4" d="M569.5,223.4c0.2-0.1,0.3,0,0.4,0.1c0.1,0.1,0.1,0.2,0,0.4c-0.9,0.8-2,1.4-3.1,1.9c-1.1,0.5-2.3,0.8-3.4,1
	c-0.2,0.1-0.4,0-0.5-0.1c-0.1-0.1-0.1-0.3,0-0.4c0.3-0.7,0.7-1.4,1-2.1c0.3-0.8,0.6-1.5,0.9-2.3c0.2-0.8,0.4-1.6,0.6-2.4
	c0.1-0.8,0.2-1.6,0.1-2.3c0-0.5-0.1-1-0.3-1.4c-0.1-0.3-0.4-0.5-0.7-0.6c-0.3-0.1-0.5-0.1-0.8,0.1c-0.3,0.1-0.6,0.3-0.8,0.6
	c-0.1,0.1-0.2,0.2-0.3,0.2c-0.1,0-0.2,0-0.3,0c-0.1,0-0.2,0-0.2-0.1c0,0,0-0.1,0-0.1c0.1-0.3,0.3-0.6,0.6-0.8c0.3-0.3,0.6-0.5,1-0.6
	c0.4-0.1,0.8-0.1,1.1,0c0.4,0.2,0.8,0.6,1,1c0.2,0.3,0.3,0.7,0.3,1.1c0,0.5,0,1,0,1.5c0,0.5-0.1,1.1-0.2,1.6c-0.1,0.5-0.2,1-0.3,1.5
	c-0.2,0.8-0.5,1.5-0.7,2.4s-0.6,1.6-1,2.3c1-0.2,2-0.6,2.9-1.1C567.8,224.3,568.6,223.8,569.5,223.4z"/>
<path class="st4" d="M574.4,234.4c-0.2,0-0.3-0.1-0.3-0.3s0.1-0.3,0.2-0.3h1.8c0.9,0,1.8,0,2.8,0s1.9,0.1,2.8,0.1
	c0.6,0,1.3,0.1,1.9,0.2c0.1,0.1,0.2,0.2,0.2,0.3c0,0.1-0.1,0.2-0.2,0.2c-0.7,0.1-1.4,0.2-2.1,0.2c-0.8,0-1.6,0-2.4-0.1
	s-1.7-0.1-2.5-0.2L574.4,234.4z M575.3,230.6c-0.2,0-0.3-0.1-0.2-0.4c0.1-0.2,0.2-0.3,0.3-0.3c0.7,0,1.5,0.1,2.2,0.2
	c0.8,0.1,1.5,0.2,2.3,0.3s1.4,0.1,2,0.1c0.6,0,1.2,0.1,1.8,0.3c0.2,0.1,0.4,0.2,0.3,0.3s-0.1,0.2-0.4,0.3c-0.7,0.1-1.3,0.2-2,0.2
	c-0.7,0-1.5-0.1-2.2-0.2c-0.7-0.1-1.5-0.2-2.2-0.4S575.9,230.8,575.3,230.6L575.3,230.6z"/>
<path class="st4" d="M621.9,239.4c0.1-0.1,0.3-0.1,0.4,0c0.1,0.1,0.1,0.1,0.2,0.2c0,0.1,0,0.2,0,0.3c0,0.1-0.1,0.2-0.2,0.2
	c-0.6,0.3-1.1,0.5-1.6,0.7s-0.9,0.3-1.4,0.5c-0.5,0.1-1,0.2-1.4,0.3c-0.6,0.1-1.2,0.1-1.8,0.1c-0.4,0-0.8,0-1.2-0.1
	c-0.5-0.1-1-0.2-1.5-0.3c-0.5-0.1-1-0.3-1.4-0.5c-0.4-0.1-0.7-0.4-1-0.7c-0.3-0.3-0.5-0.7-0.5-1.2c0-0.5,0.1-0.9,0.3-1.4
	c0.2-0.5,0.5-0.9,0.8-1.3c0.3-0.4,0.7-0.7,1.2-1c1-0.7,2.1-1.2,3.2-1.6c1.3-0.4,2.7-0.6,4.1-0.6c1.5,0,3,0.1,4.4,0.4
	c1.5,0.3,3,0.9,4.3,1.6c0.3,0.1,0.3,0.3,0.2,0.5c-0.1,0.2-0.4,0.2-0.6,0.1c-1.4-0.6-2.9-1-4.4-1.2c-1.4-0.2-2.9-0.3-4.3-0.2
	c-1.3,0.1-2.5,0.3-3.7,0.7c-1,0.3-1.9,0.7-2.7,1.4c-0.7,0.5-1.2,1.3-1.2,2.1c0,0.7,0.4,1.3,1.4,1.6c1.4,0.4,2.9,0.5,4.3,0.3
	C619.1,240.3,620.5,239.9,621.9,239.4z"/>
<path class="st4" d="M633.6,225.2c0.2-0.1,0.3,0,0.4,0.1c0.1,0.1,0.1,0.3,0,0.4c-0.9,0.8-2,1.4-3.1,1.9c-1.1,0.5-2.3,0.8-3.4,1
	c-0.2,0.1-0.4,0-0.5-0.1c-0.1-0.1-0.1-0.3,0-0.4c0.3-0.7,0.7-1.4,1-2.1c0.3-0.8,0.6-1.5,0.9-2.3c0.2-0.8,0.4-1.6,0.6-2.4
	c0.1-0.8,0.2-1.6,0.1-2.3c0-0.5-0.1-1-0.3-1.4c-0.1-0.3-0.4-0.5-0.7-0.6c-0.3-0.1-0.5-0.1-0.8,0.1c-0.3,0.1-0.6,0.3-0.8,0.6
	c-0.1,0.1-0.2,0.2-0.3,0.2c-0.1,0-0.2,0.1-0.3,0c-0.1,0-0.2,0-0.2-0.1c0,0-0.1-0.1,0-0.1c0.1-0.3,0.3-0.6,0.6-0.8
	c0.3-0.3,0.6-0.5,1-0.6c0.4-0.1,0.8-0.1,1.1,0c0.4,0.2,0.8,0.6,1,1c0.2,0.3,0.3,0.7,0.3,1.1c0,0.5,0,1,0,1.5c0,0.5-0.1,1.1-0.2,1.6
	c-0.1,0.5-0.2,1-0.3,1.5c-0.2,0.8-0.5,1.6-0.8,2.4c-0.3,0.8-0.6,1.6-1,2.4c1-0.3,2-0.6,2.9-1.1L633.6,225.2z"/>
<path class="st4" d="M670.3,308c-1.5-0.1-2.9-0.3-4.3-0.6c-1-0.1-2-0.5-2.9-1.2c-0.8-0.7-1.3-1.8-1.3-2.9c-0.3-0.1-0.6-0.2-0.8-0.3
	c-0.5-0.1-0.9-0.4-1.2-0.8c-0.2-0.5-0.3-1-0.1-1.5c0.3-1.5,1-3.5,3-3.9c0.6-0.1,1.2-0.1,1.8,0l2.4,0.4c2.3,0.2,4.5,0.9,6.5,2
	c1.9,1.2,3.4,3.8,2.3,6c-0.9,1.6-2.6,2.6-4.5,2.7C670.9,308,670.6,308,670.3,308z M662.8,303.7c0.1,0.7,0.4,1.3,0.9,1.8
	c0.7,0.5,1.6,0.8,2.5,1c1.6,0.4,3.3,0.6,4.9,0.6c1.5-0.1,2.9-0.9,3.7-2.2c0.8-1.7-0.4-3.7-2-4.7c-1.9-1-4-1.6-6.1-1.8l-2.4-0.4
	c-0.5-0.1-1-0.1-1.4-0.1c-1,0.2-1.7,1.2-2.2,3.1c-0.1,0.2-0.1,0.5,0,0.7c0.2,0.2,0.4,0.3,0.7,0.4l0.5,0.2c0.1-0.6,0.1-1.1,0.2-1.6
	l1,0.2c-0.1,0.6-0.2,1.1-0.3,1.7c1.4,0.4,2.8,0.5,3.8-0.2c0.5-0.5,0.9-1.1,1.2-1.8c0.3-0.7,0.6-1.3,1.1-1.8l0.8,0.7
	c-0.4,0.5-0.7,1-0.9,1.6c-0.3,0.9-0.8,1.6-1.5,2.2C665.9,304,664.3,304.2,662.8,303.7L662.8,303.7z"/>
<rect x="670.8" y="298.9" transform="matrix(1.466018e-02 -0.9999 0.9999 1.466018e-02 349.44 978.675)" class="st4" width="1" height="26.3"/>
<path class="st4" d="M674.3,347.7l-0.2-0.4c-1.8-3.7-1.8-8.2,0-14c0.4-1.3,0.8-2.5,1.3-3.8c0.2-0.6,0.4-1.2,0.6-1.8
	c-0.2-0.9-0.5-1.7-0.8-2.6c-0.1,1.1-0.5,2.1-1,3c-1.1,1.9-3.2,2.8-5.3,2.3c-1-0.3-1.8-1-2.2-1.9c-0.7-1.8-0.7-3.7,0.1-5.5
	c0.5-1.7,1.6-3.3,3-4.4c1.6-1.3,3.8-1.5,5.7-0.7l-0.4,0.9c-1.5-0.6-3.3-0.4-4.6,0.6c-1.3,1-2.2,2.4-2.7,4c-0.6,1.5-0.7,3.2-0.1,4.7
	c0.3,0.7,0.9,1.2,1.6,1.4c1.6,0.4,3.3-0.4,4.2-1.8c0.7-1.5,1.1-3.2,1-4.9l0.1-2.3l0.9,2.2c0.5,1.1,0.9,2.3,1.2,3.4
	c0.7-2,1.1-4.1,1.3-6.2l1,0.1c-0.3,2.6-0.9,5.2-1.8,7.8c1.1,3.9,1.7,7.8,1.8,11.9c0,2-0.2,6.9-4.2,8L674.3,347.7z M676.5,329.4
	c0,0.1-0.1,0.3-0.1,0.4c-0.4,1.2-0.9,2.5-1.2,3.7c-1.6,5.4-1.7,9.5-0.2,12.9c2.9-1.1,3.1-5.1,3-6.9
	C677.8,336.2,677.3,332.8,676.5,329.4z"/>
<path class="st4" d="M589.8,315c-1.2,0-2.3-0.4-3.3-1c-1.1-0.6-1.8-1.7-2-2.9c-0.1-1.4,0.5-2.8,1.7-3.6c1.2-0.9,2.8-1.2,4.2-0.6
	l-0.4,0.9c-1.1-0.4-2.3-0.2-3.1,0.5c-0.9,0.6-1.4,1.6-1.3,2.6c0.2,0.9,0.7,1.7,1.5,2.2c1.1,0.7,2.5,1,3.9,0.7l0.3,1
	C590.7,314.9,590.3,315,589.8,315z"/>
<path class="st4" d="M598.3,314.3c-0.2,0-0.4,0-0.6-0.1c-1.4-0.5-2.4-1.6-2.8-3c-1.5-3.3-1.9-7-1.2-10.6l1,0.2
	c-0.7,3.4-0.3,6.9,1.1,10c0.6,1.4,1.3,2.1,2.2,2.4c0.6,0.1,1.2-0.1,1.7-0.5c0.2-0.2,0.2-0.4,0.1-0.7l0.9-0.4
	c0.3,0.6,0.2,1.3-0.3,1.8C599.9,314,599.2,314.3,598.3,314.3z"/>
<path class="st4" d="M594.6,307.1c-0.7,0-1.4-0.1-2.1-0.2l0.2-1c1.4,0.3,2.9,0.2,4.3-0.1l0.2,1C596.4,307,595.5,307.1,594.6,307.1z"
	/>
<path class="st4" d="M610.8,322.9c-0.7,0-1.5-0.2-2.1-0.7c-1.3-1.1-1.7-2.9-1.1-4.5c0.6-1.4,1.6-2.7,2.8-3.6
	c0.5-0.5,1.1-0.9,1.7-1.4l-0.1-1.3c-1.1,0-2.2-0.2-3.2-0.6c-1.2-0.5-1.9-1.6-1.9-2.9c0.3-1.3,1.5-2.3,2.9-2.4
	c1.2-0.1,2.5,0.1,3.6,0.5l-0.3,1c-1-0.4-2.1-0.5-3.2-0.5c-0.9,0.1-1.9,0.7-2,1.5c0,0.8,0.6,1.6,1.3,1.8c0.9,0.3,1.8,0.5,2.7,0.5
	l-0.3-3.4l0.7,0.2c1.1,0.3,2.1,1.1,2.6,2.1c0.1,0.5,0,1-0.2,1.3c-0.4,0.5-1.1,0.8-1.7,0.8l0.1,0.6c0.4-0.3,0.8-0.5,1.2-0.8l0.5,0.9
	c-0.6,0.3-1.1,0.7-1.6,1.1l0.5,6c0.1,0.7,0.1,1.5-0.2,2.2c-0.4,0.7-1,1.2-1.8,1.3C611.4,322.8,611.1,322.9,610.8,322.9z
	 M612.2,313.9c-0.4,0.3-0.8,0.6-1.1,0.9c-1.1,0.8-2,1.9-2.5,3.2c-0.5,1.2-0.2,2.5,0.8,3.4c0.6,0.4,1.3,0.5,2,0.4
	c0.5-0.1,0.9-0.4,1.1-0.8c0.2-0.5,0.2-1.1,0.1-1.7L612.2,313.9z M612.7,308.5l0.2,1.9c0.4,0,0.7-0.1,1-0.4c0.1-0.1,0.1-0.3,0.1-0.4
	C613.7,309.1,613.2,308.7,612.7,308.5z"/>
<path class="st4" d="M623.3,311.4c-0.5,0-1-0.2-1.4-0.5c-0.7-0.5-1.1-1.3-1.1-2.1c0.1-1.3,0.6-2.5,1.5-3.5l0.8,0.6
	c-0.7,0.8-1.2,1.8-1.3,2.9c0,0.5,0.3,1,0.7,1.3c0.3,0.3,0.7,0.4,1.1,0.3c0.5-0.1,1-0.6,1.3-1.5c0.3-0.6,0.5-1.1,0.6-1.7
	c-0.8-3.2-1.1-6.5-1.2-9.8v-2l1,1.7c1.7,3.1,2.1,6.6,1.2,10c0.2,0.9,0.5,1.9,0.8,2.8c0,0.1,0.1,0.4,0.2,0.4s0.3,0,0.7-0.2l2.8-1.7
	l0.5,0.9l-2.8,1.7c-0.5,0.4-1.1,0.5-1.6,0.3c-0.4-0.2-0.6-0.6-0.7-1c-0.1-0.4-0.3-0.9-0.4-1.3c0,0.1-0.1,0.2-0.2,0.4
	c-0.3,0.9-1.1,1.7-2,2C623.7,311.3,623.5,311.4,623.3,311.4z M625.5,300.2c0.1,1.4,0.3,2.8,0.5,4.2C626,303,625.9,301.5,625.5,300.2
	L625.5,300.2z"/>
<polygon class="st4" points="644.6,311.3 639.7,309.1 640.1,308.2 645,310.4 "/>
<path class="st4" d="M645.2,314.6c-0.7-0.7-1.7-1-2.6-0.7l-0.3-1c1.3-0.4,2.7,0,3.6,1L645.2,314.6z"/>
<path class="st4" d="M576.5,446.4c-1.6-0.1-3.3-0.5-4.8-1.2c-0.8-0.2-1.5-0.7-2-1.4c-0.2-0.5-0.3-1-0.2-1.5l0.7-24.1h1l-0.7,24.1
	c0,0.3,0,0.7,0.1,1c0.4,0.5,0.9,0.8,1.5,1c1.4,0.7,2.9,1.1,4.4,1.2l0,0c1.3,0,2.9-0.7,3.3-1.9l1,0.3
	C580.2,445.5,578.1,446.4,576.5,446.4L576.5,446.4z"/>
<polygon class="st4" points="576.5,438.4 568.8,438.1 568.8,437.6 576.5,437.9 "/>
<path class="st4" d="M596.8,469.1h-0.1c-0.6-0.1-1.1-0.4-1.4-0.8c-2.6-2.8-3.8-6.8-3.4-12.1c0.3-4.4,1.4-8.7,3.3-12.7
	c-0.7-2-1.5-3.8-2.4-5.6c-1.2,1.2-3,1.6-4.8,1.8c-1.2,0.2-2.5,0.1-3.6-0.3c-0.7-0.4-1.2-1.1-1.3-1.9c-0.1-0.6,0.1-1.2,0.6-1.5
	l0.7,0.8c-0.2,0.2-0.3,0.4-0.2,0.7c0.1,0.5,0.4,0.9,0.8,1.1c1,0.4,2,0.5,3,0.2c1.7-0.2,3.4-0.5,4.3-1.6c0.1-0.1,0.1-0.1,0.1-0.2
	c-0.5-1-1-2-1.5-2.9l-0.4-0.8h0.9c0.9,0,1.7,0.6,2,1.4c0.3,0.7,0.4,1.5,0.1,2.2c0.8,1.7,1.6,3.5,2.3,5.4c1.1-2.2,2.5-4.3,4-6.2
	l0.8,0.6c-1.7,2.1-3.1,4.4-4.3,6.9c2.5,6.9,4,15,2.5,23.3C598.4,468.3,597.7,469.1,596.8,469.1z M595.6,444.9
	c-1.6,3.6-2.5,7.5-2.8,11.4c-0.3,5,0.7,8.8,3.2,11.3c0.2,0.2,0.5,0.4,0.8,0.5c0.6,0,0.9-0.8,1-1.4
	C598.8,459.4,598.1,451.9,595.6,444.9z"/>
<path class="st4" d="M624.5,439.4c-1.5,0.1-3-0.3-4.2-1.1c-0.4-0.3-0.8-0.6-1.1-1c-2.2,1.3-4.8,1.7-7.4,1.2
	c-3.8-0.7-6.9-3.7-7.7-7.5c-0.2-0.6-0.1-1.2,0.2-1.8c0.3-0.5,0.8-0.9,1.4-1.1c3-1.2,6.3,0.1,8.3,1.6c1.7,1.4,3.1,3,4.3,4.8l1,1.3
	l0.1,0.1c0.8-0.5,1.5-1.2,2-1.9l0.8,0.6c-0.6,0.8-1.3,1.5-2.1,2.1c0.3,0.3,0.5,0.5,0.8,0.8c1.7,1.2,4.2,1,6.5,0.7l0.1,1
	C626.5,439.3,625.5,439.4,624.5,439.4z M608.1,428.6c-0.7,0-1.4,0.1-2.1,0.4c-0.4,0.1-0.7,0.3-0.9,0.7c-0.2,0.4-0.2,0.7-0.1,1.1
	c0.8,3.4,3.5,6,6.9,6.7c2.2,0.4,4.5,0.1,6.5-1l0,0l-1-1.3c-1.2-1.7-2.6-3.3-4.2-4.6C611.8,429.4,610,428.7,608.1,428.6z"/>
<path class="st4" d="M621,435l-0.9-0.5c1-1.7,2.3-3.1,3.8-4.3l0.6,0.8C623.1,432.1,621.9,433.5,621,435z"/>
<rect x="637.9" y="426.9" transform="matrix(2.949183e-02 -0.9996 0.9996 2.949183e-02 185.5909 1059.4045)" class="st4" width="1" height="14.4"/>
<path class="st4" d="M645.4,439.5c-2.9-0.7-5.9-1.4-8.9-1.9l0.2-1c3,0.5,6.1,1.2,9,1.9L645.4,439.5z"/>
<path class="st4" d="M664.4,429.1c-1.3,0-2.6-0.4-3.7-1.1c-0.7-0.5-1.3-1.1-1.8-1.7c-2.4-0.3-4.5-1.7-5.8-3.7
	c-0.2-0.2-0.2-0.5-0.2-0.7c0-0.6,0.6-1,1.5-1c0.6,0,1.3,0,1.9,0.1l0,0l-0.5-1.4l1-0.3l0.5,1.3l0.2,0.5c1.9,0.3,3.8,0.9,5.6,1.8
	c0.3-0.7,0.1-1.6-0.4-2.2l0.7-0.7c0.8,0.9,1.1,2.2,0.6,3.3l0,0c1.7,0.8,3.4,1.8,4.8,2.7l0.4,0.2l-0.2,0.4c-0.5,1.1-1.4,2-2.6,2.3
	C665.7,429,665,429.1,664.4,429.1z M660.2,426.3c0.3,0.3,0.7,0.7,1.1,0.9c1.4,0.9,3.1,1.1,4.7,0.7c0.7-0.2,1.4-0.6,1.8-1.3
	c-1.4-0.8-2.8-1.6-4.4-2.4C662.6,425.3,661.5,426.1,660.2,426.3z M657.8,422.2c0.4,1.1,1,2.2,1.6,3.2c0.2,0,0.4,0,0.6,0
	c1-0.2,1.9-0.7,2.4-1.5C661,423.1,659.4,422.5,657.8,422.2z M653.8,422C653.8,422,653.8,422,653.8,422c1,1.6,2.5,2.7,4.2,3.2
	c-0.6-1-1.1-2.1-1.5-3.2c-0.7-0.1-1.5-0.1-2.2-0.1C654.2,421.9,654,421.9,653.8,422z"/>
<rect x="666.5" y="423.1" transform="matrix(2.949183e-02 -0.9996 0.9996 2.949183e-02 212.97 1088.4941)" class="st4" width="1" height="23"/>
<path class="st4" d="M666,466.9c-0.6,0-1.1-0.1-1.6-0.4c-1-0.8-1.6-1.9-1.7-3.2c-0.5-3-0.2-6.1,0.8-9c-0.8,0.6-1.8,0.9-2.8,0.9
	c-0.5-0.1-1-0.3-1.3-0.7c-0.3-0.4-0.4-0.9-0.4-1.4c-0.1-2.1,0-4.1,0.3-6.1c0.1-1,0.4-1.9,0.9-2.7c1.4-1.8,4.1-2,8.2-0.7l-0.3,1
	c-2.5-0.8-5.7-1.4-7.1,0.4c-0.4,0.7-0.7,1.4-0.7,2.2c-0.3,2-0.4,4-0.3,6c0,0.3,0.1,0.6,0.2,0.9c0.1,0.2,0.3,0.3,0.6,0.3
	c0.9-0.1,1.8-0.4,2.5-1.1l0.9-0.8c1.3-2.8,3.2-5.3,5.5-7.3l0.6,0.8c-1.6,1.3-3,2.9-4.1,4.7l2-1.7l1.6,10.7c0.2,1.6,0.5,3.5-0.3,5.2
	c-0.6,1-1.5,1.8-2.6,2.1C666.7,466.9,666.4,466.9,666,466.9z M665.1,452.9c-1.4,3.2-1.9,6.7-1.4,10.2c0,1,0.5,1.9,1.3,2.5
	c0.5,0.3,1.2,0.4,1.8,0.2c0.8-0.2,1.6-0.8,2-1.5c0.7-1.4,0.4-3.2,0.2-4.6l-1.3-8.9L665.1,452.9z"/>
<path class="st4" d="M800.4,231.2L800.4,231.2l-88.1-2.3c-0.6,0-1-0.4-1-1s0.4-1,1-1l88,2.3c0.5,0,0.9-0.2,1.3-0.4
	c-0.2-0.3-0.3-0.7-0.1-1c0.2-0.5,0.8-0.7,1.3-0.5c0.7,0.3,1.2,1,1,1.8C803.6,230.2,801.8,231.2,800.4,231.2z"/>
<path class="st4" d="M750.8,261.6c-0.6,0-1-0.4-1-1c-0.3-18.1,0.1-36.5,1.2-54.7c0-0.5,0.5-0.9,1-0.9c0.6,0,1,0.5,0.9,1.1
	c0,0,0,0,0,0c-1.1,18.1-1.4,36.4-1.2,54.5C751.7,261.1,751.3,261.6,750.8,261.6L750.8,261.6z"/>
<path class="st4" d="M728.1,242.6c-0.5,0-0.9-0.4-1-0.9l-2.1-17.3c-0.3-1.6-0.2-3.3,0.5-4.9c0.9-1.3,2.1-2.4,3.5-3.2
	c4.1-2.6,8.6-5.1,13.3-4.5c8.7,1.1,12,11,12.9,15.3c1.1,4.9,2.5,9.4,6.5,10.7c1.9,0.5,3.8,0.2,5.5-0.8c2.2-1.3,3.7-3.3,4.3-5.8
	c0.9-4.5-1.2-9.2-3-13.1c-0.2-0.5,0.1-1.1,0.6-1.3c0.5-0.2,1,0,1.2,0.5c1.8,4.1,4.1,9.2,3.1,14.3c-0.7,3-2.6,5.5-5.2,7.1
	c-2.1,1.3-4.7,1.7-7.1,1c-5.4-1.7-6.9-8-7.8-12.1c-0.9-3.8-3.7-12.8-11.2-13.8c-4.1-0.5-8,1.7-12,4.2c-1.1,0.6-2.1,1.4-2.8,2.4
	c-0.5,1.2-0.5,2.5-0.2,3.7l2.1,17.3C729.1,242.1,728.7,242.6,728.1,242.6L728.1,242.6z"/>
<path class="st4" d="M679.4,376.3c-1.1-0.1-2-0.7-2.5-1.7c-1.1-1.9-1.1-4.1-0.1-6c0.6-1.1,1.9-2,3-1.4l-0.4,0.9
	c-0.6-0.3-1.4,0.4-1.7,1c-0.8,1.6-0.8,3.5,0.1,5c0.4,0.8,1.3,1.4,2,1.1c0.2-0.1,0.4-0.2,0.5-0.4c1.3-1.2,2.1-2.9,2.3-4.6
	c-0.2-0.4-0.3-0.8-0.4-1.2l-0.1-0.2l0.1-0.2c0.1-0.2,0.3-0.3,0.5-0.3c0.3,0,0.5,0.1,0.7,0.3c0.2,0.2,0.3,0.5,0.2,0.8
	c0,0.2,0,0.5,0,0.7c0.7,1.6,1.5,3.1,2.5,4.5c0.2,0.3,0.4,0.5,0.7,0.7c0.1,0,0.2,0,0.3-0.1l1-0.1c0,0.3-0.1,0.6-0.3,0.8
	c-0.3,0.3-0.8,0.4-1.2,0.3c-0.5-0.2-1-0.5-1.2-1c-0.8-1.1-1.4-2.2-2-3.3c-0.4,1.4-1.3,2.8-2.3,3.8c-0.2,0.2-0.5,0.4-0.8,0.6
	C679.9,376.2,679.7,376.3,679.4,376.3z"/>
<path class="st4" d="M686,367.3c-0.3,0-0.6,0-0.9,0l-0.6-0.1l0.2-0.6c0.3-0.9,0.6-1.8,0.6-2.8c0-0.2,0-0.4-0.1-0.6
	c0,0-0.1-0.1-0.2-0.1l-0.6-0.8c0.2-0.2,0.5-0.3,0.8-0.2c0.3,0,0.6,0.2,0.8,0.5c0.2,0.4,0.3,0.8,0.2,1.2c-0.1,0.8-0.2,1.6-0.5,2.4
	c0.5,0,1,0,1.5-0.2l0.2,1C687.1,367.3,686.6,367.3,686,367.3z"/>
<path class="st4" d="M702.3,370.7c-2.5,0-5-0.1-7.5-0.2l0.1-1c3.1,0.2,6.3,0.2,9.4,0.2v1L702.3,370.7z"/>
<path class="st4" d="M697.8,376.7c-0.3-3.3-0.3-6.7-0.1-10l1,0.1c-0.2,3.3-0.2,6.6,0.1,9.9L697.8,376.7z"/>
<path class="st4" d="M712,382.4c-0.4,0-0.8-0.1-1.2-0.2c-1-0.4-1.7-1.3-2-2.3c-0.8-2.4,0-4.8,1.2-7.2l-0.7-0.4
	c-0.5-0.3-0.9-0.7-1.2-1.2c-0.2-0.5-0.3-1.1-0.2-1.7c0.2-1.8,0.5-3.6,0.9-5.3c0.1-0.6,0.4-1.1,0.7-1.5c0.9-1,2.5-0.8,3.8-0.6l-0.2,1
	c-1-0.2-2.3-0.3-2.9,0.3c-0.2,0.3-0.4,0.7-0.5,1.1c-0.4,1.7-0.7,3.4-0.9,5.2c-0.1,0.4,0,0.8,0.1,1.1c0.2,0.3,0.5,0.6,0.9,0.8
	l0.7,0.4l0.4-0.7l4.4-7.9l0.9,0.5l-4.4,7.9l-0.3,0.6c0.4,0.2,0.9,0.4,1.4,0.6l0.7,0.2c1.5,0.5,3,1.1,3.8,2.5
	c0.6,1.2,0.6,2.6-0.1,3.7c-0.7,1.1-1.7,1.9-2.8,2.5C713.6,382.2,712.8,382.4,712,382.4z M710.9,373.2c-1.1,2.1-1.8,4.3-1.1,6.4
	c0.2,0.7,0.7,1.3,1.4,1.7c0.9,0.3,1.9,0.1,2.7-0.3c1-0.4,1.8-1.1,2.4-2c0.5-0.8,0.5-1.8,0.1-2.7c-0.6-1-2-1.5-3.3-2l-0.7-0.3
	C711.9,373.7,711.4,373.5,710.9,373.2z"/>
<path class="st4" d="M716.6,361.7h-0.3h-0.8l0.4-0.7c0.9-1.5,1.5-3.1,2-4.8c0.1-0.3,0.1-0.7,0.1-1.1c-0.1-0.3-0.3-0.4-0.6-0.5
	c-0.3-0.1-0.6-0.1-0.9,0l-0.4-0.9c0.6-0.2,1.2-0.2,1.8,0c0.5,0.2,0.9,0.6,1.1,1.1c0.2,0.5,0.2,1.1,0,1.6c-0.4,1.5-1,2.9-1.7,4.2
	c1.4-0.1,2.9-0.5,4.1-1.1l0.5,0.9C720.2,361.3,718.4,361.7,716.6,361.7z"/>
<rect x="723.9" y="369.5" transform="matrix(2.949183e-02 -0.9996 0.9996 2.949183e-02 332.2048 1084.2211)" class="st4" width="1" height="3"/>
<rect x="724.6" y="373" transform="matrix(2.966619e-02 -0.9996 0.9996 2.966619e-02 328.7417 1088.6663)" class="st4" width="1" height="4.1"/>
<path class="st4" d="M747.2,375.6H747c-1.4-0.1-2.7-0.6-3.8-1.3c-1.1-0.6-1.9-1.4-2.4-2.5c-0.2-0.6-0.3-1.3-0.2-2
	c0-1.7,0.9-3.3,2.4-4.1c1.3-0.5,2.7-0.5,4-0.2l-0.1,1c-1.1-0.3-2.3-0.2-3.4,0.2c-1.5,0.7-1.8,2.5-1.9,3.3c-0.1,0.5,0,1.1,0.1,1.6
	c0.4,0.9,1.1,1.6,2,2c1,0.7,2.2,1.1,3.4,1.2c1.1,0.1,2.2-0.3,3-1.2l0.8,0.6C750,375.1,748.6,375.7,747.2,375.6z"/>
<path class="st4" d="M757.5,372.2c-1.2-1.5-2.6-3-3.9-4.5l0.7-0.7c1.4,1.5,2.7,3,4,4.6L757.5,372.2z"/>
<polygon class="st4" points="753.9,373.1 753.2,372.4 757.7,367.7 758.4,368.4 "/>
<rect x="759" y="368.1" transform="matrix(2.931734e-02 -0.9996 0.9996 2.931734e-02 371.6621 1119.9321)" class="st4" width="6.9" height="1"/>
<path class="st4" d="M765.9,376.1c-0.3-2.3-0.5-4.5-0.8-6.8l-2.9-0.1v-1l2.8,0.1c-0.1-1-0.2-2.1-0.3-3.2l-0.1-0.8l0.7,0.2
	c0.8,0.3,1.4,1,1.6,1.8c0.1,0.7,0.1,1.4-0.1,2.1c0,0.3-0.2,0.6-0.4,0.7c-0.1,0-0.2,0.1-0.3,0.1l0.8,6.7L765.9,376.1z M765.8,366.4
	c0,0.4,0.1,0.8,0.1,1.2c0.1-0.3,0.1-0.6,0-0.9C765.9,366.6,765.9,366.5,765.8,366.4z"/>
<rect x="765.6" y="369.7" transform="matrix(2.931734e-02 -0.9996 0.9996 2.931734e-02 377.1265 1128.7899)" class="st4" width="8.3" height="1"/>
<path class="st4" d="M770,378.7c-0.4,0-0.8,0-1.2-0.2c-0.8-0.2-1.4-0.7-1.7-1.5c-0.4-1.2,0.6-2.3,1.1-2.8l0.8,0.7
	c-0.6,0.6-1,1.3-0.8,1.9c0.2,0.4,0.6,0.7,1,0.8c0.6,0.1,1.1,0.2,1.7,0.1c1.5-0.2,3.3-0.8,3.7-2.2c0.1-0.2,0.1-0.4,0-0.5
	c-0.1-0.3-0.6-0.4-1.2-0.5c-0.9-0.1-1.9-0.2-2.8-0.1c-0.6,0.1-1.2,0.1-1.8,0.1l-0.1-1c0.6-0.1,1.2-0.1,1.8-0.1
	c0.7-0.1,1.4-0.3,2-0.8c0.7-0.7,1.1-1.7,1.1-2.7c0.2-0.5,0.2-1,0-1.5c-0.3-0.7-1.3-1-3-0.9v-1c1.3,0,3.2,0.1,3.9,1.4
	c0.3,0.7,0.3,1.4,0.1,2.1c-0.1,1.2-0.6,2.4-1.4,3.3l-0.2,0.1l0.5,0.1c0.8,0,1.5,0.4,2,1c0.2,0.4,0.2,0.9,0.1,1.3
	c-0.7,2.3-3.7,2.8-4.6,2.9C770.6,378.6,770.3,378.7,770,378.7z"/>
<rect x="783.7" y="364.8" transform="matrix(2.949183e-02 -0.9996 0.9996 2.949183e-02 390.8423 1143.2859)" class="st4" width="1" height="11.1"/>
<rect x="781.4" y="369.4" transform="matrix(2.931734e-02 -0.9996 0.9996 2.931734e-02 391.1849 1142.61)" class="st4" width="4.9" height="1"/>
<rect x="782.7" y="372" transform="matrix(2.931734e-02 -0.9996 0.9996 2.931734e-02 388.3133 1144.8958)" class="st4" width="2" height="1"/>
<path class="st4" d="M800.4,371.9c-0.6,0-1.2-0.1-1.8-0.2c-0.9-0.1-1.7-0.5-2.4-1c-0.9-0.8-1.3-1.9-1.2-3.1c0.1-1.1,0.5-2.1,1.1-3
	c0.2-0.5,0.6-0.9,1-1.3c0.7-0.4,1.6-0.5,2.4-0.3c0.4,0,0.8,0,1.3,0l0.1,1c-0.5,0.1-1,0.1-1.5,0c-0.6-0.1-1.2-0.1-1.8,0.2
	c-0.3,0.2-0.5,0.5-0.7,0.9c-0.5,0.8-0.8,1.7-0.9,2.6c-0.1,0.9,0.2,1.7,0.8,2.3c0.6,0.4,1.3,0.7,2,0.8c1.6,0.3,2.7,0.2,3.4-0.3
	l0.6,0.8C802,371.6,801.2,371.9,800.4,371.9z"/>
<path class="st4" d="M813.9,369c-1.5-1.7-3.5-2.9-5.7-3.5l0.3-1c2.4,0.6,4.5,2,6.2,3.8L813.9,369z"/>
<path class="st4" d="M810.5,370.5l-0.7-0.7c1.2-1.3,2.3-2.7,3.1-4.2l0.9,0.5C812.9,367.7,811.8,369.2,810.5,370.5z"/>
<path class="st4" d="M813.2,366.9l-0.8-0.6c0.5-0.7,0.9-1.5,1.3-2.3l0.9,0.4C814.2,365.3,813.7,366.2,813.2,366.9z"/>
<path class="st4" d="M823,373.7h-1c0.1-3.7-0.9-7.3-2.8-10.4c-0.3-0.5-0.7-0.9-1-0.8s-0.3,0.4-0.4,1l-0.2,6.2h-1l0.2-6.2
	c0-1,0.4-1.7,1-1.9s1.6,0.2,2.2,1.2C822.1,366,823.2,369.8,823,373.7z"/>
<path class="st4" d="M821,368.3c-1.2-0.2-2.4-0.3-3.7-0.2v-1c1.3,0,2.6,0,3.8,0.2L821,368.3z"/>
<rect x="822.2" y="364.7" transform="matrix(2.931734e-02 -0.9996 0.9996 2.931734e-02 435.9963 1179.272)" class="st4" width="6.1" height="1"/>
<path class="st4" d="M829.4,371.4h-1l0.2-6.2c-0.3,0.4-0.7,0.7-1.2,0.9c-0.6,0.3-1.4,0.3-2,0l0.5-0.9c0.3,0.2,0.7,0.2,1,0
	c0.4-0.2,0.7-0.5,1-0.8l0.7-0.7v-0.6c0-0.9,0.5-1.1,0.7-1.2h0.1h0.1c0.3,0.1,0.5,0.3,0.6,0.6c0.1,0.5-0.1,1-0.5,1.4l-0.2,0.2
	L829.4,371.4z"/>
<path class="st4" d="M718.9,461.2c-1.3,0-2.6-0.1-3.9-0.4l0.2-1c3.4,0.7,6.9,0.4,10.1-0.8c1.2-0.4,2.2-1.1,3-2.1
	c0.6-1.1,0.8-2.3,0.6-3.6c-0.4-3.1-1.1-6.2-2.1-9.2c-0.9-2.7-1.6-5.5-2-8.3c-0.8-6,1.4-13.5,7.9-15.6l0.3,1c-6,2-8,9-7.3,14.6
	c0.4,2.8,1.1,5.5,2,8.2c1,3.1,1.8,6.2,2.2,9.5c0.2,1.4,0,2.9-0.7,4.2c-0.9,1.2-2.1,2.1-3.5,2.5C723.5,460.7,721.2,461.1,718.9,461.2
	z"/>
<path class="st4" d="M726.2,417.1c-0.5,0-1-0.1-1.4-0.4c-0.5-0.2-0.8-0.7-0.9-1.2l0.4-0.1l-0.1-0.1c-1.1-2.2-1.4-4.8-0.8-7.2l1,0.3
	c-0.5,1.8-0.4,3.7,0.2,5.4c0.4-0.9,1-1.7,1.9-2.2c0.9-0.5,2-0.4,2.9,0.1c0.6,0.3,0.9,0.9,0.9,1.6c-0.1,0.6-0.4,1.2-0.8,1.7
	c-0.6,0.9-1.5,1.6-2.5,2.1C726.8,417.1,726.5,417.1,726.2,417.1z M725.1,415.6c0.1,0.1,0.2,0.2,0.3,0.2c0.4,0.2,1,0.3,1.4,0.1
	c0.8-0.4,1.5-1,2-1.7c0.3-0.3,0.5-0.7,0.6-1.1c0-0.3-0.2-0.5-0.4-0.7c-0.6-0.3-1.3-0.4-1.9-0.1c-0.9,0.7-1.6,1.7-1.8,2.8
	L725.1,415.6z"/>
<path class="st4" d="M724.3,473.2c-0.6,0-1.2-0.2-1.7-0.5c-0.6-0.4-1-0.9-1.3-1.6c-0.2,0.5-0.6,0.9-1,1.1c-0.6,0.3-1.4,0.3-2,0
	c-0.8-0.3-1.4-1-1.7-1.9c-0.2-1.3,0.1-2.6,0.8-3.8l0.9,0.4c-0.6,0.9-0.8,2-0.7,3.1c0.2,0.5,0.6,1,1.1,1.2c0.3,0.2,0.8,0.2,1.1,0
	c0.6-0.3,0.7-1.2,0.8-2l0.1-2.7l0.9,2.5c0.2,1,0.8,2,1.6,2.7c0.5,0.3,1.2,0.4,1.8,0.2c0.3-0.1,0.5-0.3,0.7-0.5l0.9,0.3
	c-0.2,0.6-0.7,1-1.3,1.1C724.9,473.1,724.6,473.2,724.3,473.2z"/>
<path class="st4" d="M752.2,450.9l-3.5-13.4c-0.5-1.9-0.9-3.8,0-5.5c0.6-1.1,1.7-1.8,3-2c0.9-0.1,1.9,0.2,2.5,0.9l-0.8,0.6
	c-0.4-0.4-1-0.6-1.6-0.5c-0.9,0.1-1.8,0.6-2.2,1.4c-0.7,1.4-0.3,3.1,0.1,4.8l3.5,13.4L752.2,450.9z"/>
<path class="st4" d="M753.9,442.6c-3.7-0.6-7.4-0.8-11.2-0.6v-1c3.8-0.2,7.6,0,11.4,0.6L753.9,442.6z"/>
<path class="st4" d="M760.2,449.6c-1.2,0-2.3-0.5-3.2-1.3c-1.1-1-1.8-2.5-1.9-4c-0.1-2.6,1.4-5,2.5-7l0.9,0.5
	c-1.2,1.9-2.5,4.1-2.4,6.4c0,1.3,0.6,2.5,1.6,3.4c0.7,0.7,1.7,1,2.6,1v1H760.2z"/>
<path class="st4" d="M767.8,446.6c-1.1-2.6-3.2-4.6-5.9-5.5l0.3-1c3,1,5.4,3.2,6.5,6.1L767.8,446.6z"/>
<path class="st4" d="M762.5,445.3l-0.4-0.9c1.8-0.8,3.1-2.3,3.7-4.2l1,0.2C766.1,442.6,764.6,444.4,762.5,445.3z"/>
<path class="st4" d="M769.5,451.8h-0.1c-0.3,0-0.5-0.2-0.6-0.5l0.9-0.4c0-0.1-0.1-0.1-0.2-0.1l0,0c0.2,0,0.3-0.1,0.4-0.3
	c1.3-1.6,3-3.6,3.1-5.9c0.1-1.8-0.9-3.6-1.9-5.3c-0.6-0.9-2.1-3-3.9-2.5l-0.2-1c1.7-0.4,3.5,0.6,5,3c1.1,1.8,2.2,3.7,2.1,5.9
	c-0.1,2.6-1.9,4.7-3.3,6.5C770.5,451.5,770,451.7,769.5,451.8z"/>
<path class="st4" d="M782.3,446.3c-1.1,0-2.2-0.5-2.8-1.4c-0.7-1.3-0.6-3,0.4-4.1c0.9-1,2.1-1.9,3.4-2.4l0.4,0.9
	c-1.2,0.5-2.2,1.2-3.1,2.2c-0.8,0.8-0.9,2-0.4,3c0.7,0.9,1.8,1.2,2.9,0.8c0.6-0.3,1.1-0.9,1.3-1.5c-0.3-0.9-0.5-1.8-0.6-2.7
	c-0.2-2.9-0.2-5.8,0.2-8.7h1l0.6,8.2c0.1,1,0.1,2.1-0.2,3.1c0.1,0.1,0.2,0.3,0.3,0.4c0.6,0.9,1.8,1.2,2.8,0.8l0.5,0.9
	c-1.1-1.4-3.2-1.7-4.6-0.6c-0.4,0.3-0.7,0.6-0.9,1C783.2,446.2,782.8,446.3,782.3,446.3z"/>
<path class="st4" d="M795.1,444.1c-2.3-1.4-4.3-3.1-6-5.2l0.8-0.6c1.6,2,3.6,3.6,5.7,4.9L795.1,444.1z"/>
<path class="st4" d="M790.3,444.6l-0.9-0.3c0.8-2.2,2.4-4.1,4.4-5.4l0.6,0.8C792.5,440.8,791.1,442.6,790.3,444.6z"/>
<path class="st4" d="M468.9,368.8h-1.7c-13.5-0.3-26.5-5.6-36.3-15c-9.5-9.3-14.6-21.4-14.2-34.1c0.8-26.2,24.7-46.8,53.3-46
	s51.3,22.9,50.5,49.1l0,0C519.8,348.4,496.8,368.8,468.9,368.8z M468.3,274.6c-27.3,0-49.9,19.9-50.6,45.1
	c-0.3,12.6,4.8,24.7,13.9,33.3c9.6,9.2,22.3,14.4,35.6,14.7h1.7c27.3,0,49.9-19.9,50.6-45.1c0.8-25.7-21.5-47.2-49.6-48L468.3,274.6
	z"/>
<path class="st4" d="M488,326.4c-6.3,0-12.7-0.4-19.8-1c-0.3,0-0.5-0.3-0.5-0.5s0.3-0.5,0.5-0.5l0,0c18.2,1.8,31.9,1.3,52.1-1.8
	c0.3,0,0.5,0.1,0.6,0.4c0,0.3-0.1,0.5-0.4,0.6c0,0,0,0,0,0C509.8,325.4,498.9,326.3,488,326.4z"/>
<path class="st4" d="M468.9,323.7c-0.3,0-0.5-0.2-0.5-0.5c-0.5-7.8-0.4-15.8-0.3-23.5s0.3-15.6-0.3-23.4c0-0.3,0.2-0.5,0.5-0.5
	c0.3,0,0.5,0.2,0.5,0.5c0.5,7.8,0.4,15.8,0.3,23.5s-0.3,15.6,0.3,23.4C469.4,323.5,469.2,323.7,468.9,323.7L468.9,323.7z"/>
<path class="st4" d="M436.5,345.1c-0.2,0-0.3-0.1-0.4-0.2c-0.1-0.2-0.1-0.5,0.2-0.7l30.5-19.8c0.2-0.2,0.5-0.1,0.7,0.1c0,0,0,0,0,0
	c0.2,0.2,0.1,0.5-0.1,0.7L436.8,345C436.7,345,436.6,345.1,436.5,345.1z"/>
<polygon class="st4" points="482.4,380.4 481.9,380.3 482.6,356.3 483.1,356.3 "/>
<path class="st4" d="M500,301.3c-0.2,0-0.5-0.2-0.5-0.4c0-0.3,0.1-0.5,0.4-0.6c0,0,0,0,0,0c7.8-1.1,15.3-3.8,22.1-7.9
	c0.2-0.1,0.5-0.1,0.7,0.2c0,0,0,0,0,0c0.1,0.2,0.1,0.5-0.2,0.7c0,0,0,0,0,0C515.7,297.4,508,300.1,500,301.3L500,301.3z"/>
<path class="st4" d="M531.9,290.1L531.9,290.1c-0.9-0.1-1.7-0.6-2.1-1.4c-0.4-0.6-0.4-1.4-0.1-2.1c0.1-0.2,0.4-0.4,0.7-0.2
	c0,0,0,0,0,0c0.2,0.1,0.3,0.4,0.2,0.7c0,0,0,0,0,0c-0.2,0.4-0.1,0.9,0.1,1.2c0.1,0.2,0.3,0.4,0.5,0.6c-0.4-2.8,1.2-5.4,3.8-6.4
	c0.3-0.1,0.5,0,0.7,0.3c0.1,0.3,0,0.5-0.3,0.6c0,0,0,0,0,0c-2.5,0.9-3.8,3.6-3,6.1c0.1,0.2,0,0.3-0.1,0.5
	C532.2,290,532.1,290.1,531.9,290.1z"/>
<path class="st4" d="M534.5,288.6c-0.1,0-0.3-0.1-0.4-0.2c-0.2-0.2-0.2-0.5,0-0.7c0,0,0,0,0,0c1.4-1.3,3.4-1.7,5.2-1.1
	c0.3,0.1,0.4,0.4,0.3,0.6c-0.1,0.3-0.4,0.4-0.6,0.3c-1.4-0.5-3-0.1-4.2,0.9C534.8,288.6,534.7,288.6,534.5,288.6z"/>
<path class="st4" d="M527.6,309.3c-0.3,0-0.7-0.1-1-0.2c-0.2-0.1-0.3-0.4-0.2-0.7c0,0,0,0,0,0c0.1-0.2,0.4-0.3,0.7-0.2c0,0,0,0,0,0
	c0.4,0.2,0.8,0.2,1.1-0.1c0.6-0.3,1-0.9,1-1.6c-0.1-0.8-0.3-1.7-0.8-2.4c-0.2-0.4-0.4-0.9-0.6-1.4c-0.7-2-0.4-4.2,0.8-6
	c0.2-0.2,0.5-0.3,0.7-0.1c0.2,0.1,0.3,0.4,0.1,0.7c0,0,0,0,0,0c-1,1.5-1.3,3.4-0.7,5.1c0.2,0.4,0.3,0.8,0.5,1.2
	c0.5,0.9,0.8,1.8,0.8,2.8c0,1-0.6,1.9-1.5,2.5C528.4,309.2,528,309.3,527.6,309.3z"/>
<path class="st4" d="M534.1,300.7c-0.3,0.1-0.5-0.1-0.6-0.4c-0.1-0.3,0.1-0.5,0.4-0.6c2.5-1,5-1.8,7.6-2.4c0.3-0.1,0.5,0.1,0.6,0.4
	c0.1,0.3-0.1,0.5-0.4,0.6c-2.5,0.5-5,1.3-7.4,2.3C534.2,300.7,534.1,300.7,534.1,300.7z"/>
<path class="st4" d="M536.6,301.8c-0.3,0-0.5-0.2-0.5-0.5c-0.1-1.3-0.1-2.7,0-4c0-0.3,0.3-0.5,0.5-0.5c0.3,0,0.5,0.3,0.5,0.5
	c-0.1,1.3-0.1,2.5,0,3.8C537.2,301.5,537,301.8,536.6,301.8L536.6,301.8z"/>
<path class="st4" d="M548.1,301.5h-0.2c-1.1-0.1-2-0.8-2.4-1.9c-0.3-0.9-0.4-1.8-0.4-2.7c0-0.1,0-0.1,0-0.2c-0.4-0.1-0.7-0.6-0.6-1
	l0.1-2.6c0-0.3,0.2-0.5,0.5-0.5l0,0c0.3,0,0.5,0.2,0.5,0.5l-0.1,2.6c0,0,0,0,0,0.1h0.1c1.7,0.2,3.4,0.1,5-0.2c0.3-0.1,0.5-0.1,0.8,0
	c0.4,0.2,0.6,0.6,0.5,1c0.1,1.4-0.5,2.8-1.5,3.8C549.8,301,549,301.4,548.1,301.5z M546.1,296.9L546.1,296.9c-0.1,0.8,0,1.6,0.3,2.4
	c0.3,0.7,0.9,1.2,1.6,1.2c0.7,0,1.3-0.3,1.8-0.8c0.8-0.8,1.2-1.9,1.2-3c0-0.1,0-0.1,0-0.1s-0.1,0-0.1,0
	C549.3,296.9,547.7,297,546.1,296.9L546.1,296.9z M545.5,295.9L545.5,295.9z"/>
<path class="st4" d="M552.7,293.3c-0.1,0-0.2,0-0.3-0.1c-0.2-0.2-0.3-0.5-0.1-0.7c0.7-0.8,1.5-1.5,2.5-1.9c0.3-0.1,0.5,0,0.7,0.3
	c0.1,0.3,0,0.5-0.3,0.7c0,0,0,0,0,0c-0.8,0.4-1.5,0.9-2.1,1.6C553,293.3,552.8,293.3,552.7,293.3z"/>
<path class="st4" d="M554.4,295c-0.1,0-0.3-0.1-0.4-0.2c-0.2-0.2-0.1-0.5,0.1-0.7c0,0,0,0,0,0c0.5-0.4,1-0.6,1.6-0.7
	c0.3,0,0.5,0.1,0.6,0.4c0,0.3-0.1,0.5-0.4,0.6c-0.4,0.1-0.8,0.2-1.1,0.5C554.6,294.9,554.5,295,554.4,295z"/>
<path class="st4" d="M559.8,286.1c-0.5,0-0.9-0.1-1.2-0.4c-0.6-0.6-0.8-1.6-0.5-2.4c0-0.3,0.3-0.5,0.6-0.4c0.3,0,0.5,0.3,0.4,0.6
	c-0.1,0.6-0.2,1.2,0.2,1.5s1.4,0,1.8-0.1c2-0.9,3.8-2.3,5.2-4.1c0.3-0.3,0.4-0.7,0.5-1.1c-0.1-0.3-0.2-0.5-0.5-0.7
	c-1.1-1.2-2.6-1.9-4.2-1.9v0c0,0.3,0,0.5,0,0.8c0,0.2,0,0.5,0,0.8c0,1.1-0.6,2.2-1.5,2.9c-0.7,0.6-1.8,0.8-2.7,0.5
	c-1-0.6-1.4-1.9-0.8-3c0.8-1.6,2.4-2.7,4.2-2.9c0.2-0.3,0.5-0.6,0.8-0.8c0.3-0.1,0.5,0,0.7,0.3c0.1,0.2,0.1,0.4-0.1,0.5
	c1.6,0.2,3.1,1,4.2,2.2c0.4,0.3,0.6,0.8,0.7,1.3c0,0.7-0.2,1.4-0.7,1.9c-1.5,1.9-3.4,3.4-5.6,4.4
	C560.9,285.9,560.4,286.1,559.8,286.1z M561.1,277c-1.3,0.2-2.4,1-3,2.2c-0.2,0.5-0.2,1.4,0.3,1.7c0.6,0.2,1.2,0.1,1.6-0.4
	c0.7-0.5,1-1.3,1.1-2.1c0-0.2,0-0.4,0-0.6C561.2,277.6,561.1,277.3,561.1,277z"/>
<path class="st6" d="M967.8,535.9L293.1,457l95.4,210.6l68.4,21.7l59.2,21.5c-28.5,4.9-205.3,36.6-243,74.5
	c-11.4,11.5-17.1,0.7-27.6,8.8c-2.3,0.9-4.3,2.3-6.1,4c-0.2,0.1-0.3,0.3-0.4,0.5c-1.4,7.1-0.4,12.4,6.3,16.4
	c5.6,3.3,11.1,6,18.4,1.8c12.3-7,22.2-0.6,31-9.2c2.8-1,6.1-2.3,10.1-4.1c8-3.6,14.4-7.5,22.2-11c-8.1,4-16.1,8.1-24.1,12.1
	c10-4.9,20.4-9.1,31-12.7c-1.9,5.7,7.4,16.3,6.1,23c-0.6,3.2-3,15.1-5.7,16.4c-5.3,29.8,258.1-16.1,293.2-21.5
	c42.5-6.5,83-13.8,108.1-19l183.3,67l53-163.6l33.1-104.5L967.8,535.9z M288.1,796.5c-0.9,0.2-1.8,0.3-2.8,0.3
	C288,795.2,288.5,795.4,288.1,796.5z M467.8,782.3c-65,17.6-103.5,9.2-123.2,20.1c-3.4-5.4,17.7-11.8,22-13.8
	c23.9-11.5,103.6-22.2,114.1-23.5c0.3-0.7,85.5-10.4,108-10.3C588.8,754.8,500.3,773.5,467.8,782.3z"/>
<path class="st6" d="M481,765.2c1.3-0.2,1.1-0.2-0.3,0C480.7,765.1,480.8,765.2,481,765.2z"/>
<polygon class="st7" points="243.1,531.4 243.2,567.7 841,660.6 841,618.6 "/>
<polygon class="st8" points="841,660.6 943.7,579.9 944.4,542.4 841,618.6 "/>
<polygon class="st9" points="377.4,469.7 968.4,542.4 865,623.6 239.1,544.4 "/>
<polygon class="st10" points="358.4,471.7 967.4,537.4 863,618.6 243.1,528.4 "/>
<polygon class="st11" points="967.4,537.4 965.4,555.4 918.1,592.2 857,636.6 354.4,559.3 355,544.5 858,618.6 "/>
<polygon class="st12" points="858,618.6 857,636.6 965.4,555.4 967.4,537.4 "/>
<path class="st13" d="M361.6,535l88.4,24.4c0,0,26,9.6,34.9,13.2c11.8,4.8,24.8,14.1,28.5,8.7l4.5-12.7c19.2-19,37.2-44.8,37.2-44.8
	L397,494l-60,32.4L361.6,535z"/>
<path class="st14" d="M431.4,407.2l142.9,22.7c3.9,0.7,6.4,4.4,5.7,8.3c0,0.2-0.1,0.4-0.1,0.6l-24.1,87.6L397,494l26.3-81.9
	C424.4,408.6,427.9,406.5,431.4,407.2z"/>
<path class="st15" d="M432.3,409.9l137.8,21.5c4,0.7,6.6,4.5,5.9,8.5c0,0.2-0.1,0.4-0.1,0.6L553,523.7l-154-31l25.1-77.9
	C425.2,411.4,428.7,409.2,432.3,409.9z"/>
<polygon class="st16" points="428.6,416.1 570,438.6 547.3,518.4 405,489.2 "/>
<g>
	<defs>
		<polygon id="SVGID_1_" points="431.6,416.1 570,438.6 547.3,518.4 409,490.2 		"/>
	</defs>
	<clipPath id="SVGID_2_">
		<use xlink:href="#SVGID_1_"  style="overflow:visible;"/>
	</clipPath>
	<g class="st17">
		<ellipse class="st18" cx="518.2" cy="495.9" rx="23.9" ry="22.5"/>
		<rect x="517.7" y="473.3" class="st19" width="1" height="22.5"/>
		<rect x="518.2" y="495.4" class="st19" width="23.9" height="1"/>
	</g>
</g>
<path class="st20" d="M399.8,491.7L337,523.7v2l169.9,46.6c3.1,0.9,6.5-0.1,8.7-2.5l40.4-44.1L399.8,491.7z"/>
<path class="st21" d="M401,492.7l-64,31l167.4,44.5c3.5,0.9,7.2-0.1,9.7-2.6l40.9-41.9L401,492.7z"/>
<polygon class="st22" points="422.4,491.7 434,461.7 443,463.7 431,493.7 "/>
<polygon class="st22" points="434.4,494.7 449,457.7 458,459.7 443,496.7 "/>
<polygon class="st22" points="446.4,495.7 458,465.7 467,467.7 455,497.7 "/>
<polygon class="st22" points="458.4,498.7 473,461.7 482,463.7 467,500.7 "/>
<polygon class="st22" points="418,488.7 472.9,500.7 471.9,503 416.7,491.8 "/>
<polygon class="st22" points="418.2,492.1 415.2,491.5 432.9,446.9 436,447.2 "/>
<path class="st23" d="M403.4,496l136.4,29.6c1.1,0.2,1.8,1.3,1.6,2.4c-0.1,0.4-0.3,0.8-0.6,1l-23.2,22.1c-1.5,1.4-3.6,2-5.6,1.5
	l-145.3-36.4c-0.5-0.1-0.9-0.7-0.7-1.2c0.1-0.3,0.3-0.5,0.5-0.6l35.5-18.1C402.5,496,403,495.9,403.4,496z"/>
<path class="st24" d="M523.9,527.9L520,527l0.5-2l3.9,0.9L523.9,527.9z M514.1,525.7l-3.9-0.9l0.5-2l3.9,0.9L514.1,525.7z
	 M504.4,523.4l-3.9-0.9l0.5-2l3.9,0.9L504.4,523.4z M494.6,521.2l-3.9-0.9l0.5-2l3.9,0.9L494.6,521.2z M484.9,518.9L481,518l0.5-2
	l3.9,0.9L484.9,518.9z M475.2,516.7l-3.9-0.9l0.5-2l3.9,0.9L475.2,516.7z M465.4,514.5l-3.9-0.9l0.5-2l3.9,0.9L465.4,514.5z
	 M455.7,512.2l-3.9-0.9l0.4-2l3.9,0.9L455.7,512.2z M445.9,510l-3.9-0.9l0.5-2l3.9,0.9L445.9,510z M436.2,507.8l-3.9-0.9l0.5-2
	l3.9,0.9L436.2,507.8z M426.4,505.5l-3.9-0.9l0.4-2l3.9,0.9L426.4,505.5z M416.7,503.3l-3.9-0.9l0.5-2l3.9,0.9L416.7,503.3z
	 M406.9,501l-3.9-0.9l0.5-2l3.9,0.9L406.9,501z"/>
<path class="st24" d="M527.1,534.7l-5.8-1.3l0.9-3.9l5.8,1.3L527.1,534.7z M517.4,532.4l-5.8-1.3l0.9-3.9l5.8,1.3L517.4,532.4z
	 M507.7,530.2l-5.8-1.3l0.9-3.9l5.8,1.3L507.7,530.2z M497.9,527.9l-5.9-1.3l0.9-3.9l5.8,1.3L497.9,527.9z M488.2,525.7l-5.8-1.3
	l0.9-3.9l5.8,1.3L488.2,525.7z M478.4,523.5l-5.8-1.3l0.9-3.9l5.8,1.3L478.4,523.5z M468.7,521.2l-5.8-1.3l0.9-3.9l5.8,1.3
	L468.7,521.2z M458.9,519l-5.8-1.3l0.9-3.9l5.8,1.3L458.9,519z M449.2,516.8l-5.8-1.3l0.9-3.9l5.8,1.3L449.2,516.8z M439.4,514.5
	l-5.8-1.3l0.9-3.9l5.8,1.3L439.4,514.5z M429.7,512.3l-5.8-1.3l0.9-3.9l5.8,1.3L429.7,512.3z M419.9,510l-5.8-1.3l0.9-3.9l5.8,1.3
	L419.9,510z M410.2,507.8l-5.8-1.3l0.9-3.9l5.8,1.3L410.2,507.8z M400.4,505.6l-5.8-1.3l0.9-3.9l5.8,1.3L400.4,505.6z"/>
<path class="st24" d="M522.5,539.4l-5.8-1.3l0.9-3.9l5.8,1.3L522.5,539.4z M512.8,537.1l-5.8-1.3l0.9-3.9l5.8,1.3L512.8,537.1z
	 M503,534.9l-5.8-1.3l0.9-3.9l5.8,1.3L503,534.9z M493.2,532.6l-5.8-1.3l0.9-3.9l5.8,1.3L493.2,532.6z M483.5,530.4l-5.8-1.3
	l0.9-3.9l5.8,1.3L483.5,530.4z M473.8,528.2l-5.8-1.3l0.9-3.9l5.8,1.3L473.8,528.2z M464,525.9l-5.9-1.3l0.9-3.9l5.8,1.3L464,525.9z
	 M454.3,523.7l-5.8-1.3l0.9-3.9l5.8,1.3L454.3,523.7z M444.5,521.5l-5.8-1.3l0.9-3.9l5.8,1.3L444.5,521.5z M434.8,519.2l-5.8-1.3
	l0.9-3.9l5.8,1.3L434.8,519.2z M425,517l-5.9-1.4l0.9-3.9l5.8,1.3L425,517z M415.3,514.7l-5.8-1.3l0.9-3.9l5.8,1.3L415.3,514.7z
	 M405.5,512.5l-5.8-1.3l0.9-3.9l5.8,1.3L405.5,512.5z M395.8,510.3l-5.8-1.3l0.9-3.9l5.8,1.3L395.8,510.3z"/>
<path class="st24" d="M515.1,545l-3.9-0.9l0.9-3.9l3.9,0.9L515.1,545z M507.4,543.2l-5.8-1.3l0.9-3.9l5.8,1.3L507.4,543.2z
	 M497.6,541l-5.9-1.4l0.9-3.9l5.8,1.3L497.6,541z M487.9,538.7l-5.8-1.3l0.9-3.9l5.8,1.3L487.9,538.7z M478.1,536.5l-5.8-1.3
	l0.9-3.9l5.8,1.3L478.1,536.5z M468.4,534.3l-5.8-1.3l0.9-3.9l5.8,1.3L468.4,534.3z"/>
<rect x="444.9" y="510.8" transform="matrix(0.2278 -0.9737 0.9737 0.2278 -168.4099 842.3679)" class="st24" width="4" height="33.1"/>
<path class="st24" d="M433.3,526.2l-5.8-1.3l0.9-3.9l5.8,1.3L433.3,526.2z M423.6,524l-5.8-1.4l0.9-3.9l5.8,1.3L423.6,524z
	 M413.8,521.7l-5.8-1.3l0.9-3.9l5.8,1.3L413.8,521.7z M404.1,519.5l-5.8-1.3l0.9-3.9l5.8,1.3L404.1,519.5z M394.3,517.3l-5.8-1.3
	l0.9-3.9l5.8,1.3L394.3,517.3z M384.6,515l-5.9-1.3l0.9-3.9l5.8,1.3L384.6,515z"/>
<path class="st25" d="M404.8,535.8l5.4-4.8c0.2-0.2,0.6-0.3,0.9-0.2l43.9,11.4c0.5,0.1,0.9,0.7,0.7,1.2c0,0.2-0.1,0.3-0.2,0.4
	l-5.7,5.8c-0.3,0.3-0.6,0.4-1,0.3l-43.6-12.4c-0.5-0.1-0.9-0.7-0.7-1.2C404.5,536.1,404.6,535.9,404.8,535.8z"/>
<path class="st19" d="M474,430.8h-0.2l-31-5.5c-0.6-0.1-0.9-0.6-0.8-1.2c0.1-0.6,0.6-0.9,1.2-0.8l31,5.5c0.6,0,1,0.5,0.9,1.1
	C475,430.4,474.5,430.8,474,430.8L474,430.8z"/>
<path class="st19" d="M473.3,434.5h-0.2l-31-5.5c-0.6-0.1-0.9-0.6-0.8-1.2s0.6-0.9,1.2-0.8l31,5.5c0.6,0,1,0.5,0.9,1.1
	C474.4,434.1,473.9,434.5,473.3,434.5z"/>
<path class="st19" d="M557.6,465.5h-0.2l-31-5.5c-0.6-0.1-0.9-0.6-0.8-1.2s0.6-0.9,1.2-0.8l31,5.5c0.6,0,1,0.5,0.9,1.1
	C558.7,465.1,558.2,465.5,557.6,465.5L557.6,465.5z"/>
<path class="st19" d="M555.9,470h-0.2l-31-5.5c-0.5-0.1-0.9-0.6-0.8-1.2c0,0,0,0,0,0c0.1-0.5,0.6-0.9,1.2-0.8l31,5.5
	c0.6,0,1,0.5,0.9,1.1C557,469.6,556.5,470,555.9,470L555.9,470z"/>
<path class="st19" d="M554.5,474h-0.2l-31-5.5c-0.6-0.1-0.9-0.6-0.8-1.2c0.1-0.6,0.6-0.9,1.2-0.8l31,5.5c0.6,0,1,0.5,0.9,1.1
	C555.5,473.6,555,474,554.5,474L554.5,474z"/>
<path class="st19" d="M561.1,448h-0.2l-31-5.5c-0.5-0.1-0.9-0.6-0.8-1.2c0,0,0,0,0,0c0.1-0.5,0.6-0.9,1.2-0.8l31,5.5
	c0.6,0,1,0.5,0.9,1.1C562.1,447.7,561.6,448.1,561.1,448L561.1,448z"/>
<path class="st19" d="M559.3,452.5h-0.2l-31-5.5c-0.6-0.1-0.9-0.6-0.8-1.2s0.6-0.9,1.2-0.8l31,5.5c0.6,0,1,0.5,0.9,1.1
	C560.4,452.2,559.9,452.6,559.3,452.5L559.3,452.5z"/>
<path class="st19" d="M558.9,456.6h-0.2l-31-5.5c-0.6-0.1-0.9-0.6-0.8-1.2s0.6-0.9,1.2-0.8l31,5.5c0.5,0.1,0.9,0.6,0.8,1.2
	c0,0,0,0,0,0C559.8,456.2,559.4,456.6,558.9,456.6z"/>
<path class="st19" d="M472.3,438.1h-0.2l-31-5.5c-0.6-0.1-0.9-0.6-0.8-1.2s0.6-0.9,1.2-0.8l31,5.5c0.6,0,1,0.5,0.9,1.1
	C473.4,437.8,472.9,438.2,472.3,438.1z"/>
<path class="st19" d="M455.9,439.2h-0.2l-16.1-2.8c-0.6-0.1-0.9-0.6-0.8-1.2s0.6-0.9,1.2-0.8l16.1,2.8c0.6,0,1,0.5,0.9,1.1
	C456.9,438.8,456.5,439.2,455.9,439.2L455.9,439.2z"/>
<path class="st19" d="M454.9,443.1h-0.2l-16-2.9c-0.5-0.1-0.9-0.6-0.8-1.2c0,0,0,0,0,0c0.1-0.5,0.6-0.9,1.2-0.8c0,0,0,0,0,0
	l16.1,2.8c0.6,0,1,0.5,0.9,1.1C456,442.8,455.5,443.2,454.9,443.1L454.9,443.1z"/>
<path class="st19" d="M507.1,451c-0.1,0-0.2,0-0.3,0c-0.5-0.2-0.8-0.7-0.7-1.2l3.8-12.3c0.2-0.5,0.7-0.8,1.3-0.7
	c0.5,0.2,0.8,0.7,0.7,1.3l0,0l-3.8,12.3C507.9,450.8,507.6,451,507.1,451z"/>
<path class="st19" d="M511.8,451.6c-0.1,0-0.2,0-0.3,0c-0.5-0.2-0.8-0.7-0.7-1.2l3.8-12.3c0.1-0.5,0.7-0.8,1.2-0.7
	c0.5,0.1,0.8,0.7,0.7,1.2c0,0,0,0,0,0.1l-3.8,12.3C512.6,451.3,512.2,451.6,511.8,451.6z"/>
<path class="st19" d="M516.3,452.4c-0.1,0-0.2,0-0.3,0c-0.5-0.2-0.8-0.7-0.7-1.2l3.8-12.3c0.2-0.5,0.7-0.8,1.2-0.7
	c0.5,0.2,0.8,0.7,0.7,1.2c0,0,0,0,0,0l-3.8,12.3C517.1,452.1,516.7,452.4,516.3,452.4z"/>
<path class="st19" d="M521.1,453c-0.1,0-0.2,0-0.3,0c-0.5-0.2-0.8-0.7-0.7-1.2l3.8-12.3c0.2-0.5,0.7-0.8,1.2-0.7
	c0.5,0.2,0.8,0.7,0.7,1.2l-3.8,12.3C521.9,452.7,521.6,453,521.1,453z"/>
<path class="st19" d="M502.1,467.9c-0.1,0-0.2,0-0.3,0c-0.5-0.2-0.8-0.7-0.7-1.2l3.8-12.3c0.2-0.5,0.7-0.8,1.3-0.6
	c0.5,0.2,0.8,0.7,0.6,1.2l-3.8,12.3C502.9,467.6,502.6,467.9,502.1,467.9z"/>
<path class="st19" d="M506.8,468.5c-0.1,0-0.2,0-0.3,0c-0.5-0.2-0.8-0.7-0.7-1.2l3.8-12.3c0.1-0.5,0.7-0.8,1.2-0.7
	c0.5,0.1,0.8,0.7,0.7,1.2c0,0,0,0,0,0.1l-3.8,12.3C507.6,468.2,507.2,468.5,506.8,468.5z"/>
<path class="st19" d="M511.3,469.3c-0.1,0-0.2,0-0.3,0c-0.5-0.2-0.8-0.7-0.7-1.2c0,0,0,0,0,0l3.8-12.3c0.2-0.5,0.7-0.8,1.3-0.7
	c0,0,0,0,0,0c0.5,0.2,0.8,0.7,0.7,1.2l-3.8,12.3C512.1,469,511.7,469.3,511.3,469.3z"/>
<path class="st19" d="M516.1,469.9c-0.1,0-0.2,0-0.3,0c-0.5-0.2-0.8-0.7-0.7-1.2l3.8-12.3c0.1-0.5,0.7-0.8,1.2-0.7
	c0.5,0.1,0.8,0.7,0.7,1.2c0,0,0,0,0,0.1l-3.8,12.3C516.9,469.6,516.6,469.9,516.1,469.9z"/>
<polygon class="st13" points="683,584 755.2,587.5 736.6,569.8 676.4,567.1 "/>
<polygon class="st26" points="686.5,583.2 753.2,586.5 741.6,565.8 685.8,563.5 "/>
<polygon class="st16" points="686.4,580.8 753.8,584.6 754.5,576.2 685.8,563.5 "/>
<path class="st27" d="M663.5,519.9l30.5,53.6l62.3,2.8l-38.3-54.4C718.1,521.9,685.3,500.9,663.5,519.9z"/>
<path class="st28" d="M663.5,519.9l-2.7,8.8l25.7,54.6c0,0,2.3-11.5,7.6-9.8S663.5,519.9,663.5,519.9z"/>
<path class="st16" d="M687.9,530.6c1.1-0.3,2.2-0.5,3.3-0.6c1.1-0.1,2.2-0.1,3.3,0c1.1,0.2,2.2,0.5,3.3,0.7c1.1,0.1,2.2,0.1,3.3,0
	c1.1-0.1,2.2-0.2,3.3-0.2c1.1,0,2.2,0.1,3.3,0.2c1.1,0.2,2.2,0.4,3.3,0.8c0.6,0.2,1.1,0.4,1.6,0.7c0.6,0.2,1,0.6,1.4,1.1
	c0,0,0,0.1,0,0.1c0,0-0.1,0-0.1,0l0,0c-0.5-0.2-1-0.3-1.6-0.3l-1.6-0.1c-1.1-0.1-2.2-0.1-3.2-0.2s-2.2-0.3-3.2-0.4
	c-1.1-0.2-2.2-0.4-3.2-0.6c-1.1-0.3-2.2-0.4-3.3-0.4c-1.1,0-2.2,0.3-3.3,0.4c-1.1,0.1-2.2,0-3.3-0.2c-1.1-0.1-2.2-0.4-3.3-0.8
	C687.9,530.8,687.9,530.7,687.9,530.6C687.9,530.7,687.9,530.7,687.9,530.6C687.9,530.6,687.9,530.6,687.9,530.6z"/>
<path class="st16" d="M689.8,536.8c1.4-0.3,2.8-0.6,4.2-0.6c1.4-0.1,2.8-0.1,4.2,0c1.4,0.2,2.8,0.5,4.1,0.6c1.4,0.1,2.8,0.1,4.2-0.1
	c1.4-0.1,2.8-0.2,4.2-0.2c1.4,0,2.8,0,4.2,0.2c1.4,0.2,2.8,0.4,4.2,0.7c0.7,0.2,1.3,0.4,2,0.7c0.7,0.2,1.4,0.6,1.9,1.2
	c0,0,0,0.1,0,0.1c0,0,0,0,0,0c0,0-0.1,0-0.1,0l0,0c-0.6-0.2-1.3-0.3-2-0.3c-0.7,0-1.4-0.1-2-0.1c-1.4,0-2.7-0.1-4.1-0.2
	s-2.7-0.3-4.1-0.4s-2.7-0.3-4.1-0.6c-1.4-0.3-2.8-0.4-4.1-0.4c-1.4,0-2.8,0.3-4.2,0.4c-1.4,0.1-2.8,0-4.2-0.1
	c-1.4-0.1-2.8-0.4-4.1-0.7C689.7,536.9,689.7,536.9,689.8,536.8C689.7,536.8,689.7,536.8,689.8,536.8
	C689.7,536.8,689.7,536.8,689.8,536.8z"/>
<path class="st13" d="M621.3,535.7l41,45.7l70.3-20.3l-55.7-51.6C676.9,509.5,636.4,511.1,621.3,535.7z"/>
<polygon class="st29" points="664.9,577.5 729.6,560.8 712.6,548.7 658.4,558.8 "/>
<polygon class="st16" points="664.1,575.2 729.6,558.8 727.8,550.6 658.4,558.8 "/>
<path class="st30" d="M624.3,523.7l45,42.2l60.3-15.8l-52.7-40.6C676.9,509.5,639.4,499.1,624.3,523.7z"/>
<path class="st31" d="M624.3,523.7v9.2l40.7,44.5c0,0-1.2-11.7,4.4-11.6S624.3,523.7,624.3,523.7z"/>
<path class="st16" d="M650.7,526.8c0.9-0.6,1.9-1.2,3-1.6c1-0.4,2.1-0.7,3.2-0.9c1.1-0.2,2.2-0.1,3.3-0.3c1.1-0.2,2.1-0.6,3.2-1
	c1-0.5,2.1-0.8,3.1-1.1c1.1-0.3,2.1-0.6,3.2-0.8c1.1-0.2,2.2-0.2,3.4-0.2c0.6,0,1.2,0.1,1.7,0.2c0.6,0.1,1.2,0.3,1.7,0.7
	c0,0,0,0.1,0,0.1c0,0-0.1,0-0.1,0l0,0c-0.5,0-1.1,0-1.6,0.2l-1.6,0.4c-1,0.3-2.1,0.5-3.2,0.8s-2.1,0.4-3.2,0.5
	c-1.1,0.2-2.2,0.3-3.3,0.3c-1.1,0.1-2.2,0.3-3.2,0.6c-1,0.3-2,0.9-3,1.3c-2.1,0.7-4.3,1.1-6.5,1.1
	C650.8,527,650.7,526.9,650.7,526.8C650.7,526.9,650.7,526.8,650.7,526.8z"/>
<path class="st16" d="M654.3,532.1c1.2-0.7,2.5-1.4,3.8-1.8c1.3-0.5,2.6-0.9,4-1.2c1.4-0.3,2.8-0.3,4.1-0.6c1.4-0.3,2.7-0.8,4-1.3
	c1.3-0.5,2.6-1,3.9-1.4c1.3-0.4,2.6-0.8,4-1.1c1.4-0.3,2.8-0.4,4.2-0.5c0.7,0,1.4,0,2.1,0c0.8,0,1.5,0.2,2.1,0.6c0,0,0,0.1,0,0.1
	c0,0,0,0,0,0c0,0-0.1,0-0.1,0l0,0c-0.7,0-1.4,0.1-2,0.3c-0.7,0.2-1.3,0.3-2,0.5c-1.3,0.4-2.6,0.7-4,1s-2.7,0.6-4,0.8
	s-2.7,0.5-4.1,0.6c-1.4,0.2-2.7,0.4-4.1,0.9c-1.3,0.4-2.6,1.1-3.8,1.6c-1.3,0.5-2.6,0.8-4,1.1c-1.4,0.3-2.8,0.5-4.2,0.5
	C654.3,532.2,654.2,532.2,654.3,532.1C654.2,532.1,654.3,532.1,654.3,532.1z"/>
<g id="Layer_6">
	<path class="st16" d="M397.2,402.1c0,0-20.2,7.5-41.1,58l-63-2.4l44.8-65.2C337.9,392.5,389.1,384.2,397.2,402.1z"/>
	<path class="st32" d="M397.4,402.2c-0.1,0.1-0.2,0.2-0.3,0.2l-0.2,0.1c-0.2,0.1-0.3,0.2-0.5,0.3l-1,0.6c-0.6,0.4-1.2,0.8-1.8,1.3
		c-1.2,0.9-2.3,1.9-3.4,2.9c-2.2,2.1-4.2,4.2-6.1,6.5c-3.8,4.6-7.3,9.5-10.4,14.6l-1.2,1.9l-1.1,2l-2.2,3.9c-1.4,2.6-2.8,5.3-4.2,8
		s-2.6,5.4-3.9,8.1s-2.5,5.5-3.7,8.2l-0.4,0.8h-0.8l-15.7-1l-7.9-0.5l-7.9-0.4c-5.2-0.2-10.5-0.4-15.8-0.6
		c-5.2-0.2-10.5-0.2-15.8-0.3h-1.3l0.8-1.2l10.9-16.5c3.6-5.5,7.3-11,11-16.4l11.1-16.4c3.7-5.4,7.4-10.9,11.2-16.3l0.4-0.6l0.6-0.1
		c5.2-0.8,10.5-1.3,15.8-1.5c5.3-0.3,10.6-0.2,15.9,0.1c5.3,0.3,10.6,1.3,15.7,2.8c2.6,0.8,5,2,7.2,3.5c1.1,0.8,2.1,1.7,3,2.7
		c0.5,0.5,0.8,1.1,1.2,1.6C396.8,400.9,397.1,401.5,397.4,402.2z M397.1,402l-1-1.5c-0.4-0.5-0.8-1-1.3-1.5
		c-0.5-0.4-0.9-0.9-1.4-1.3c-0.5-0.3-1-0.8-1.6-1.1c-2.2-1.3-4.6-2.3-7.1-2.9c-5-1.3-10.2-1.9-15.4-2c-5.2-0.2-10.4,0-15.6,0.4
		c-2.6,0.2-5.2,0.5-7.8,0.8s-5.2,0.6-7.7,1l1-0.7c-3.7,5.5-7.4,10.9-11.2,16.3l-11.3,16.2c-3.8,5.4-7.6,10.8-11.4,16.2l-11.5,16.1
		l-0.6-1.2c5.2,0.3,10.5,0.6,15.8,0.8s10.5,0.4,15.8,0.6l7.9,0.2l7.9,0.1l15.8,0.2l-1.2,0.7c1.1-2.8,2.3-5.6,3.5-8.4
		s2.6-5.5,3.9-8.2s2.9-5.3,4.3-8l2.3-3.9l1.2-2l1.3-1.9l2.5-3.8l2.7-3.7c0.9-1.2,1.9-2.3,2.9-3.5s2-2.3,3-3.4
		c2.1-2.2,4.3-4.3,6.7-6.2c1.2-0.9,2.4-1.8,3.7-2.7c0.6-0.4,1.3-0.8,2-1.2l1-0.5c0.2-0.1,0.3-0.2,0.5-0.2l0.3-0.1
		C397,402,397,402,397.1,402L397.1,402z"/>
	<path class="st18" d="M385.2,402.6c-0.2,0-0.3-0.1-0.4-0.2c-3.5-5.5-30.2-5.6-30.4-5.6c-0.3,0-0.5-0.2-0.5-0.5
		c0-0.3,0.2-0.5,0.5-0.5l0,0c1.1,0,27.5,0.1,31.3,6.1c0.1,0.2,0.1,0.5-0.1,0.7c0,0,0,0,0,0C385.4,402.6,385.3,402.6,385.2,402.6z"/>
	<path class="st18" d="M381.4,405.5c-0.2,0-0.3-0.1-0.4-0.2c-3.5-5.5-30.2-5.6-30.4-5.6c-0.3,0-0.5-0.2-0.5-0.5
		c0-0.3,0.2-0.5,0.5-0.5l0,0c1.1,0,27.5,0.1,31.3,6.1c0.1,0.2,0.1,0.5-0.2,0.7c0,0,0,0,0,0C381.6,405.5,381.5,405.5,381.4,405.5z"/>
	<path class="st18" d="M377.6,408.4c-0.2,0-0.3-0.1-0.4-0.2c-3.5-5.5-30.2-5.6-30.4-5.6c-0.3,0-0.5-0.2-0.5-0.5
		c0-0.3,0.2-0.5,0.5-0.5l0,0c1.1,0,27.5,0.1,31.3,6.1c0.1,0.2,0.1,0.5-0.1,0.7c0,0,0,0,0,0C377.8,408.4,377.7,408.4,377.6,408.4z"/>
	<path class="st18" d="M373.8,411.4c-0.2,0-0.3-0.1-0.4-0.2c-3.5-5.5-30.2-5.6-30.4-5.6c-0.3,0-0.5-0.2-0.5-0.5
		c0-0.3,0.2-0.5,0.5-0.5l0,0c1.1,0,27.5,0.1,31.3,6.1c0.1,0.2,0.1,0.6-0.2,0.7C373.9,411.3,373.8,411.3,373.8,411.4L373.8,411.4z"/>
	<path class="st4" d="M411.1,196.9l6.2,20.2l4.4-1.1l-5.8-20.7c-0.5-1.8-1.9-3-3.2-2.6l0,0C411.3,193.1,410.6,195,411.1,196.9z"/>
	<path class="st33" d="M336.4,819.8c0,0-3.5,29.1,10.1,29.1s26.6-16.9,36.8-18.7s18-26.7,11.7-34s-21.9,6.6-21.9,6.6l-22.3-8.7
		L336.4,819.8z"/>
	<path class="st33" d="M243.1,811.6l22.1-35.1h22.7c6.6-8.6,18,3.9,8.4,17.6c-12.7,17.9-10.7-1.2-25.5,21.7
		C255.9,838.7,243.1,811.6,243.1,811.6z"/>
	<path class="st33" d="M271.8,807.6c0,0-3,7.4-5.2,9.8c-10.6,12.1-30.6,4.2-29.9-11.9c0-0.2,0-0.4,0-0.6c-1.4-3.8,6.4-16,6.4-16
		l1.7-23.8l16.4,2.2l0.7,18l7.4,10.2L271.8,807.6z"/>
	<path class="st34" d="M412.6,237.3l5,18.5c6.8-0.8,13.6-0.8,20.4,0v-22.4c0-1.7-1.1-3.2-2.8-3.7c-3.3-0.9-6.3-2.8-8.4-5.6
		c-2.3-3.2-1.6-14.1-3.6-15.2c-3.9-2.1-4.3,2.2-4.3,2.2s-1.9,9.2-3,11v0.1C412.8,226.9,411.2,232.2,412.6,237.3z"/>
	<path class="st4" d="M310.9,264.1c2.2-1.9,4.6-3.6,7-5.1c6.3-3.9,1.2-25,0-30.1s-9.1-24.7-9.1-24.7c-23.8-13.9-33.1,51.2-32.2,53.3
		s0,9.6,0,9.6l0,0c0.5,0.7,0.7,1.7,0.3,2.5l-12.1,34.1c0,0,59.9,7.5,62.1-0.5C328.5,298.2,318.5,278.2,310.9,264.1z"/>
	<path class="st35" d="M308.7,307.4c-3.7,0-8.2-0.1-13.6-0.4c-15.1-0.9-30.1-2.7-30.2-2.7l-0.6-0.1l0.2-0.6l12.1-34.1
		c0.3-0.7,0.2-1.5-0.3-2.1l-0.1-0.2V267c0.2-2.1,0.7-7.8,0-9.4c-1-2.2,5-41,18-52.5c4.6-4.1,9.6-4.6,15-1.5l0.2,0.1l0.1,0.2
		c0.3,0.8,7.9,19.7,9.1,24.8l0.2,0.6c1.5,6.4,6,26.1-0.4,30c-2.3,1.5-4.5,3.1-6.7,4.8c11.8,21.9,17.2,35.1,16,39.1
		C327.2,304.5,326.4,307.4,308.7,307.4z M265.6,303.3c3,0.4,16.2,1.9,29.6,2.7c26.2,1.5,30.9-1.2,31.4-2.9
		c1.1-3.7-4.6-17.5-16.1-38.8l-0.2-0.4l0.3-0.3c2.2-1.9,4.6-3.6,7.1-5.2c3.8-2.4,3.8-12.1-0.1-29l-0.2-0.6c-1.1-4.8-8.2-22.6-9-24.5
		c-4.5-2.6-8.8-2.3-12.8,0.7c-13.4,10.3-19.2,49.7-18.6,52.1c0.9,2,0.2,8.3,0,9.7c0.5,0.8,0.7,1.9,0.3,2.8L265.6,303.3z"/>
	<path class="st34" d="M272.4,283.5l4.6-16.2l15.2-8.5c0,0-2.5-27.4,4.9-27s-1.5-27.8-1.5-27.8s18.7,29.3,18,35.3
		S302,253.5,302,259.9s11,29.1-6.5,31.8S272.4,283.5,272.4,283.5z"/>
	<path class="st36" d="M278.5,187.2c18.6,0.2,22.4-29.5,30.2,12.3c3.9,21-4.5,16.8-7.3,19.9s6.9,18,3.6,18.3s-6.4-8-8-5.9
		s-1,24.2-4.9,27s-12,13.3-20.3,4.9c-1.3-1.3-24-19-28.5-27C237.2,225.5,235.9,186.9,278.5,187.2z"/>
	<path class="st37" d="M261.1,189.7c8.2-3.1,14.5-8.6,20.5-15c4.7-5,12.7-9.5,20.2-5.8c6.8,3.3,14.9,18.7,2,23.4
		c-11.4,4.2,22.3,11.7-2.4,27.1c-8.8,1.9-16.6,1.2-25.9,12.8c-5.7,7.1-15-9.7-17.8-3.1c-1.9,4.5-2.3,11.8-6.8,9.9
		C241,234.7,225.2,203.1,261.1,189.7z"/>
	<path class="st38" d="M301.4,564.6l-11.9,72.2c-3,18.2-5.3,36.4-6.8,54.8c-3.2,37.6-11.3,107.5-28.5,113.6
		c-7.5,2.7-16.7-3.6-15.4-8.5c1.1-4.3,3.5-109.1,4-134.3c0.1-3.5,0-7.1-0.1-10.6c-1-23.8-4.6-121.8,0.5-136.9
		c5.8-17.2,115.4-5.8,115.4-5.8l2,156.3c0,0,0.9,128.6,0.3,137.3c0.6,15.3-15.5,26.2-23.7,17c-11.4-12.8-25.6-154.4-25.6-154.4
		L301.4,564.6z"/>
	<path class="st39" d="M358.8,509.2c0,0-0.2,27.3-0.1,29.8c-11.8-1.5-23.7-0.2-34.8,4c-17.9,6.9-19.1-18.6-48.6-4
		c-35.4,17.6-33-6.2-33.1-9s-1.9-22.2,8.8-24.5C261.6,503.1,354.2,489.1,358.8,509.2z"/>
	<path class="st40" d="M438,255.8c-3.5-4.4-18.7-3.5-20.4,0s-2.3,56.6-2.3,56.6s-31.5-17.6-44.8-21.1c-11-2.9-36.3-6.9-44.9-8.2
		c-1.8-0.3-3.6,0.1-5.2,1.1c-10.5-5.2-29.3-9.9-47.9-0.7c-1.5-1.2-3.6-1.2-5.1-0.1c-0.6,0.5-1.1,1-1.6,1.5
		c-14.8,14.8-26.2,34-26.6,54.9c-0.4,20.1-16.6,82.2,7.8,88.8c-2.4,25.7-7.2,86.5-3.7,86.3l0,0c10.7,17.4,65.8,17.3,82.7,10.2
		c9.2-3.9,26.1-1.4,35.9-6.5c8.8-4.5,6.3-35.6,6.1-45.5c-0.4-16.4,2.8-28.1,1.7-39.4c-1.8-17.8,4.4-80,9.8-81.8s48.9,12.7,59.6,11.7
		s14-30.5,14-36.6S441.5,260.3,438,255.8z"/>
	<path class="st41" d="M365.8,493.8c0,0-3.2-43.8-1.6-51.3c2.7-12.4,4.3-47,3.2-67.6c-0.8-14.4-3.9-18.2-3.9-18.2s-9.7,91-7.5,103.5
		S361.8,493.6,365.8,493.8z"/>
	<path class="st41" d="M248.2,364.9c0.6,4.8-2.7,64.7-3.3,70.7c-3.1,29.9-1.1,46.2-1.1,46.2l4.8-62c0.7-12.6,2.8-48.6,1.5-55.1
		C249.1,359.7,248.1,363.8,248.2,364.9z"/>
	<path class="st41" d="M272.4,276.7c0,0,36.9-4.8,45.3,0.5l5,6l-2.4,5.2h-44.1l-11,1.2L272.4,276.7z"/>
	<path class="st39" d="M301.4,564.6L282.6,694c9.9-75.4-37.8-81.6-39.2-86.9s0.4-28.4,0.4-28.4s17.6,12.7,32.5,2.1
		C284.3,575,292.7,569.5,301.4,564.6z"/>
</g>
</svg>
