<svg id="Layer_1" data-name="Layer 1" xmlns="http://www.w3.org/2000/svg" xmlns:xlink="http://www.w3.org/1999/xlink" viewBox="0 0 3646.17 738.18"><defs><style>.cls-1{fill:#f2f2f2;}.cls-2{fill:url(#radial-gradient);}.cls-3{fill:red;}.cls-4{fill:url(#radial-gradient-2);}.cls-5{fill:#fff;}.cls-6{fill:url(#radial-gradient-3);}.cls-7{fill:#333;}.cls-8{fill:url(#radial-gradient-4);}.cls-9{fill:url(#radial-gradient-5);}.cls-10{fill:#ed1c24;}</style><radialGradient id="radial-gradient" cx="3343.91" cy="440.97" r="264.15" gradientUnits="userSpaceOnUse"><stop offset="0.2"/><stop offset="0.98" stop-color="#f2f2f2"/></radialGradient><radialGradient id="radial-gradient-2" cx="435.91" cy="440.97" r="264.15" xlink:href="#radial-gradient"/><radialGradient id="radial-gradient-3" cx="1162.91" cy="440.97" r="264.15" xlink:href="#radial-gradient"/><radialGradient id="radial-gradient-4" cx="1889.91" cy="440.97" r="264.15" xlink:href="#radial-gradient"/><radialGradient id="radial-gradient-5" cx="2616.91" cy="440.97" r="264.15" xlink:href="#radial-gradient"/></defs><circle class="cls-1" cx="2550.08" cy="369.09" r="363.5"/><circle class="cls-1" cx="1823.08" cy="369.09" r="363.5"/><circle class="cls-1" cx="3277.08" cy="369.09" r="363.5"/><circle class="cls-2" cx="3343.91" cy="440.97" r="264.15"/><circle class="cls-1" cx="1096.09" cy="369.09" r="363.5"/><path class="cls-3" d="M3332.12,1048.47v-11.18c197.35,0,357.91-160.56,357.91-357.91s-160.56-357.91-357.91-357.91S2974.21,482,2974.21,679.38H2963a369.09,369.09,0,1,1,369.09,369.09Z" transform="translate(-55.04 -310.29)"/><circle class="cls-1" cx="369.09" cy="369.09" r="363.5"/><circle class="cls-4" cx="435.91" cy="440.97" r="264.15"/><path class="cls-5" d="M724.05,679.38c0,165.64-134.27,299.93-299.92,299.93S124.2,845,124.2,679.38c0-125.19,76.69-232.44,185.64-277.39a301,301,0,0,1,228.57,0C647.38,446.94,724.05,554.19,724.05,679.38Z" transform="translate(-55.04 -310.29)"/><path class="cls-3" d="M424.13,1048.47a369.09,369.09,0,1,1,0-738.18v11.18C226.78,321.47,66.22,482,66.22,679.38s160.56,357.91,357.91,357.91S782,876.73,782,679.38h11.18a369.11,369.11,0,0,1-369.09,369.09Z" transform="translate(-55.04 -310.29)"/><circle class="cls-6" cx="1162.91" cy="440.97" r="264.15"/><path class="cls-5" d="M1451.05,679.38c0,165.64-134.27,299.93-299.93,299.93S851.19,845,851.19,679.38c0-125.19,76.7-232.44,185.65-277.39a301,301,0,0,1,228.57,0C1374.38,446.94,1451.05,554.19,1451.05,679.38Z" transform="translate(-55.04 -310.29)"/><path class="cls-3" d="M1151.13,1048.47v-11.18c197.35,0,357.91-160.56,357.91-357.91h11.17a369.09,369.09,0,0,1-369.08,369.09Z" transform="translate(-55.04 -310.29)"/><path class="cls-3" d="M793.22,679.38H782a369.08,369.08,0,0,1,369.09-369.09v11.18C953.77,321.47,793.22,482,793.22,679.38Z" transform="translate(-55.04 -310.29)"/><path class="cls-5" d="M3632.05,679.38c0,165.64-134.27,299.93-299.93,299.93S3032.19,845,3032.19,679.38c0-125.19,76.69-232.44,185.64-277.39a301,301,0,0,1,228.57,0C3555.37,446.94,3632.05,554.19,3632.05,679.38Z" transform="translate(-55.04 -310.29)"/><path class="cls-3" d="M538.41,402V540.18a114.29,114.29,0,0,1-228.57,0V402a301,301,0,0,1,228.57,0Z" transform="translate(-55.04 -310.29)"/><path class="cls-3" d="M1265.41,402V540.18a114.29,114.29,0,0,1-228.57,0V402a301,301,0,0,1,228.57,0Z" transform="translate(-55.04 -310.29)"/><path class="cls-3" d="M3446.4,402V540.18a114.29,114.29,0,0,1-228.57,0V402a301,301,0,0,1,228.57,0Z" transform="translate(-55.04 -310.29)"/><path class="cls-7" d="M427.72,423.58A54.55,54.55,0,0,0,389.19,519a20.89,20.89,0,0,1,7.21,15.6v30.5c0,15.76,12.61,28.88,28.1,29.25h.71A28.8,28.8,0,0,0,454,565.6v-31a20.21,20.21,0,0,1,6.92-15.33,54.55,54.55,0,0,0-33.19-95.73Zm14.69,113.51v13.77H408V537.09Zm-5,40.68a17.1,17.1,0,0,1-12.59,5c-9.26-.22-16.79-8.14-16.79-17.66v-2.69h34.42v3.15A17.09,17.09,0,0,1,437.37,577.77Zm15.95-67.22a31.6,31.6,0,0,0-9.59,14.95H406.62a32.89,32.89,0,0,0-9.78-15.16,43,43,0,0,1,28.34-75.23c.67,0,1.35,0,2,0a43,43,0,0,1,26.12,75.4Z" transform="translate(-55.04 -310.29)"/><path class="cls-7" d="M360.28,477.88H342.44a3.57,3.57,0,0,0,0,7.13h17.84a3.57,3.57,0,1,0,0-7.13Z" transform="translate(-55.04 -310.29)"/><path class="cls-7" d="M372.14,450.79a3.56,3.56,0,0,0-1.31-4.87L355.39,437a3.56,3.56,0,1,0-3.57,6.17l15.45,8.92a3.56,3.56,0,0,0,4.87-1.3Z" transform="translate(-55.04 -310.29)"/><path class="cls-7" d="M389.78,427.08a3.57,3.57,0,0,0,3.09,1.78,3.5,3.5,0,0,0,1.78-.48,3.56,3.56,0,0,0,1.3-4.87L387,408.07a3.56,3.56,0,1,0-6.17,3.56Z" transform="translate(-55.04 -310.29)"/><path class="cls-7" d="M425.34,420.23a3.56,3.56,0,0,0,3.57-3.56V398.83a3.57,3.57,0,0,0-7.13,0v17.84A3.56,3.56,0,0,0,425.34,420.23Z" transform="translate(-55.04 -310.29)"/><path class="cls-7" d="M456,428.53a3.56,3.56,0,0,0,4.87-1.31l8.92-15.44a3.57,3.57,0,0,0-6.18-3.57l-8.92,15.45A3.57,3.57,0,0,0,456,428.53Z" transform="translate(-55.04 -310.29)"/><path class="cls-7" d="M500,438.55a3.56,3.56,0,0,0-4.87-1.3l-15.44,8.92a3.56,3.56,0,0,0,1.78,6.65,3.48,3.48,0,0,0,1.78-.48l15.45-8.92A3.56,3.56,0,0,0,500,438.55Z" transform="translate(-55.04 -310.29)"/><path class="cls-7" d="M508,478.17H490.12a3.57,3.57,0,1,0,0,7.13H508a3.57,3.57,0,1,0,0-7.13Z" transform="translate(-55.04 -310.29)"/><path class="cls-7" d="M1138.32,449c-.4,0-.79,0-1.18,0a3.73,3.73,0,0,0,.11,7.45h.11l1,0a3.73,3.73,0,0,0,0-7.45Z" transform="translate(-55.04 -310.29)"/><path class="cls-7" d="M1125.87,451a39.71,39.71,0,0,0-27.34,37.79,3.73,3.73,0,0,0,7.46,0,32.25,32.25,0,0,1,22.21-30.71,3.73,3.73,0,1,0-2.33-7.08Z" transform="translate(-55.04 -310.29)"/><path class="cls-7" d="M1226.16,575.28l-50.74-50.74a55.16,55.16,0,1,0-9.44,7.69l51.62,51.62a6.06,6.06,0,1,0,8.56-8.57Zm-133-89.36a43,43,0,1,1,43,43A43.06,43.06,0,0,1,1093.13,485.92Z" transform="translate(-55.04 -310.29)"/><circle class="cls-8" cx="1889.91" cy="440.97" r="264.15"/><path class="cls-5" d="M2178.05,679.38c0,165.64-134.27,299.93-299.93,299.93S1578.19,845,1578.19,679.38c0-125.19,76.7-232.44,185.65-277.39a301,301,0,0,1,228.57,0C2101.38,446.94,2178.05,554.19,2178.05,679.38Z" transform="translate(-55.04 -310.29)"/><path class="cls-3" d="M1878.12,1048.47v-11.18c197.36,0,357.91-160.56,357.91-357.91h11.18a369.09,369.09,0,0,1-369.09,369.09Z" transform="translate(-55.04 -310.29)"/><path class="cls-3" d="M1520.21,679.38H1509a369.08,369.08,0,0,1,369.08-369.09v11.18C1680.77,321.47,1520.21,482,1520.21,679.38Z" transform="translate(-55.04 -310.29)"/><path class="cls-3" d="M1992.41,402V540.18a114.29,114.29,0,0,1-228.57,0V402a301,301,0,0,1,228.57,0Z" transform="translate(-55.04 -310.29)"/><circle class="cls-9" cx="2616.91" cy="440.97" r="264.15"/><path class="cls-5" d="M2905.05,679.38c0,165.64-134.27,299.93-299.93,299.93S2305.19,845,2305.19,679.38c0-125.19,76.69-232.44,185.65-277.39a301,301,0,0,1,228.56,0C2828.37,446.94,2905.05,554.19,2905.05,679.38Z" transform="translate(-55.04 -310.29)"/><path class="cls-3" d="M2605.12,1048.47v-11.18c197.36,0,357.91-160.56,357.91-357.91h11.18a369.09,369.09,0,0,1-369.09,369.09Z" transform="translate(-55.04 -310.29)"/><path class="cls-3" d="M2247.21,679.38H2236a369.09,369.09,0,0,1,369.09-369.09v11.18C2407.77,321.47,2247.21,482,2247.21,679.38Z" transform="translate(-55.04 -310.29)"/><path class="cls-3" d="M2719.4,402V540.18a114.28,114.28,0,0,1-228.56,0V402a301,301,0,0,1,228.56,0Z" transform="translate(-55.04 -310.29)"/><path class="cls-7" d="M2568,482.69h-26a6.59,6.59,0,0,0-6.58,6.58v72.36a6.58,6.58,0,0,0,6.58,6.57h26a6.58,6.58,0,0,0,6.58-6.57V489.27A6.59,6.59,0,0,0,2568,482.69Zm-6.57,72.36h-12.83V495.84h12.83Z" transform="translate(-55.04 -310.29)"/><path class="cls-7" d="M2618.11,451.6h-26a6.57,6.57,0,0,0-6.57,6.57V561.63a6.57,6.57,0,0,0,6.57,6.57h26a6.57,6.57,0,0,0,6.57-6.57V458.17A6.57,6.57,0,0,0,2618.11,451.6Zm-6.58,103.45h-12.82v-90.3h12.82Z" transform="translate(-55.04 -310.29)"/><path class="cls-7" d="M2668.22,421.46h-26a6.59,6.59,0,0,0-6.58,6.58V561.63a6.58,6.58,0,0,0,6.58,6.57h26a6.58,6.58,0,0,0,6.58-6.57V428A6.59,6.59,0,0,0,2668.22,421.46Zm-6.57,133.59h-12.83V434.61h12.83Z" transform="translate(-55.04 -310.29)"/><path class="cls-7" d="M3370.21,486.21l-8.05,8.05a34.58,34.58,0,1,1-65.56,15.35A34.63,34.63,0,0,1,3331.19,475a34.26,34.26,0,0,1,14.69,3.29l8.1-8.1a45.58,45.58,0,1,0,16.23,16Z" transform="translate(-55.04 -310.29)"/><path class="cls-7" d="M3352.08,509.61a20.9,20.9,0,1,1-20.89-20.9,21.28,21.28,0,0,1,3.93.37l-8.28,8.28A11.39,11.39,0,1,0,3343,513.47l8.6-8.6A21.72,21.72,0,0,1,3352.08,509.61Z" transform="translate(-55.04 -310.29)"/><path class="cls-7" d="M3388.57,467.85l-7.87,7.87a60.09,60.09,0,1,1-16.2-16l7.88-7.88a70.92,70.92,0,1,0,16.19,16Z" transform="translate(-55.04 -310.29)"/><path class="cls-7" d="M3413.89,407.33l-27.18,27.18,2.68,8.68L3331,501.55a5.47,5.47,0,0,0,7.73,7.73l58.36-58.36,8.68,2.68L3433,426.42l-14.58-4.5Z" transform="translate(-55.04 -310.29)"/><path class="cls-7" d="M1912.41,522.86V577.6h-68.58V522.86A29.12,29.12,0,0,1,1873,493.74h10.32A29.12,29.12,0,0,1,1912.41,522.86Z" transform="translate(-55.04 -310.29)"/><path class="cls-7" d="M1960.7,533.05V577.6h-41V522.86a36,36,0,0,0-2.44-13.09,25.49,25.49,0,0,1,11-2.46H1935A25.74,25.74,0,0,1,1960.7,533.05Z" transform="translate(-55.04 -310.29)"/><path class="cls-7" d="M1839,509.77a36,36,0,0,0-2.43,13.09V577.6h-41V533.05a25.73,25.73,0,0,1,25.74-25.74H1828A25.47,25.47,0,0,1,1839,509.77Z" transform="translate(-55.04 -310.29)"/><circle class="cls-7" cx="1823.08" cy="152.48" r="23.96"/><circle class="cls-7" cx="1769.63" cy="172.77" r="19.91"/><circle class="cls-7" cx="1876.54" cy="172.77" r="19.91"/><path class="cls-10" d="M280.22,747.55l-2.64,2a14.48,14.48,0,0,0-5.25-4.32,15.39,15.39,0,0,0-6.73-1.47,14.92,14.92,0,0,0-7.43,1.93,13.77,13.77,0,0,0-5.29,5.17,14.2,14.2,0,0,0-1.88,7.3,13.7,13.7,0,0,0,4.2,10.22,14.54,14.54,0,0,0,10.6,4.1A14.94,14.94,0,0,0,277.58,767l2.64,2a17,17,0,0,1-6.25,4.94,19.65,19.65,0,0,1-8.37,1.74q-8.79,0-13.87-5.86a17.64,17.64,0,0,1-4.26-11.93,16.61,16.61,0,0,1,5.16-12.38,17.8,17.8,0,0,1,12.92-5,18.92,18.92,0,0,1,8.47,1.86A16.5,16.5,0,0,1,280.22,747.55Z" transform="translate(-55.04 -310.29)"/><path class="cls-10" d="M286,750.06h3.19v11.57a24.37,24.37,0,0,0,.46,5.83,6.45,6.45,0,0,0,2.61,3.59,7.91,7.91,0,0,0,4.59,1.33,7.75,7.75,0,0,0,4.53-1.29,6.61,6.61,0,0,0,2.57-3.38,23.89,23.89,0,0,0,.48-6.08V750.06h3.25v12.16a19.39,19.39,0,0,1-1.19,7.72,9.16,9.16,0,0,1-3.6,4.06,11.35,11.35,0,0,1-6,1.47,11.49,11.49,0,0,1-6.05-1.47,9,9,0,0,1-3.62-4.1Q286,767.28,286,762Z" transform="translate(-55.04 -310.29)"/><path class="cls-10" d="M327.22,752.77l-2.05,2.11a7.37,7.37,0,0,0-5-2.48,3.77,3.77,0,0,0-2.66,1,3.16,3.16,0,0,0-1.11,2.39,3.56,3.56,0,0,0,.92,2.3,12.81,12.81,0,0,0,3.83,2.62,14.32,14.32,0,0,1,4.84,3.55,6.43,6.43,0,0,1,1.25,3.89,7,7,0,0,1-2.14,5.17,7.3,7.3,0,0,1-5.36,2.12,9.38,9.38,0,0,1-4.09-.93,8.81,8.81,0,0,1-3.23-2.58l2-2.27a7,7,0,0,0,5.18,2.75,4.68,4.68,0,0,0,3.27-1.23,3.79,3.79,0,0,0,1.35-2.89,3.75,3.75,0,0,0-.89-2.44,14.89,14.89,0,0,0-4-2.64,12.9,12.9,0,0,1-4.57-3.41,6.49,6.49,0,0,1-1.2-3.85,6.27,6.27,0,0,1,1.92-4.69,6.71,6.71,0,0,1,4.87-1.87Q323.75,749.42,327.22,752.77Z" transform="translate(-55.04 -310.29)"/><path class="cls-10" d="M335.65,740.86h3.19v9.2h5.05v2.75h-5.05v22h-3.19v-22H331.3v-2.75h4.35Z" transform="translate(-55.04 -310.29)"/><path class="cls-10" d="M360.4,749.42a12.27,12.27,0,0,1,9.49,4.14,13.29,13.29,0,0,1-.19,18,13.11,13.11,0,0,1-18.62,0,13.28,13.28,0,0,1-.19-18A12.26,12.26,0,0,1,360.4,749.42Zm0,3.12a9.18,9.18,0,0,0-6.83,2.94,9.79,9.79,0,0,0-2.86,7.1,10.17,10.17,0,0,0,1.3,5,9.28,9.28,0,0,0,3.52,3.59,10,10,0,0,0,9.74,0,9.21,9.21,0,0,0,3.52-3.59,10.07,10.07,0,0,0,1.3-5,9.76,9.76,0,0,0-2.87-7.1A9.19,9.19,0,0,0,360.39,752.54Z" transform="translate(-55.04 -310.29)"/><path class="cls-10" d="M379.19,750.06h3.19v4.28a12.35,12.35,0,0,1,3.42-3.46,9.72,9.72,0,0,1,5.08-1.46,8.32,8.32,0,0,1,3.42.71A7.42,7.42,0,0,1,397,752a10.48,10.48,0,0,1,1.78,3.36,11.79,11.79,0,0,1,4-4.43,9.4,9.4,0,0,1,5.14-1.51,8,8,0,0,1,4.53,1.3,7.73,7.73,0,0,1,2.92,3.62,19.48,19.48,0,0,1,.95,7v13.52H413V761.31a17.59,17.59,0,0,0-.57-5.48,5,5,0,0,0-1.94-2.4,5.79,5.79,0,0,0-3.28-.91,7.11,7.11,0,0,0-4.23,1.36,7.87,7.87,0,0,0-2.81,3.65c-.59,1.51-.88,4.05-.88,7.6v9.7h-3.19V762.15a21.81,21.81,0,0,0-.56-6.09,5.11,5.11,0,0,0-1.95-2.58,5.63,5.63,0,0,0-3.3-1,7.1,7.1,0,0,0-4.13,1.33,7.93,7.93,0,0,0-2.85,3.59,19.43,19.43,0,0,0-.92,6.9v10.49h-3.19Z" transform="translate(-55.04 -310.29)"/><path class="cls-10" d="M443.82,766.61l2.69,1.42a14.66,14.66,0,0,1-3.06,4.19,12,12,0,0,1-3.89,2.42,13.72,13.72,0,0,1-4.9.83q-6.07,0-9.49-4a13.42,13.42,0,0,1-3.42-9,13.25,13.25,0,0,1,2.9-8.4,11.81,11.81,0,0,1,9.82-4.69,12.22,12.22,0,0,1,10.12,4.8,13.41,13.41,0,0,1,2.74,8.48H425a10.07,10.07,0,0,0,2.76,7.07,8.81,8.81,0,0,0,6.59,2.76,10.77,10.77,0,0,0,3.68-.65,9.64,9.64,0,0,0,3.05-1.75A15,15,0,0,0,443.82,766.61Zm0-6.67a10.44,10.44,0,0,0-1.86-4.08,9,9,0,0,0-3.22-2.46,10,10,0,0,0-4.22-.93,9.07,9.07,0,0,0-6.27,2.35,10.61,10.61,0,0,0-2.9,5.12Z" transform="translate(-55.04 -310.29)"/><path class="cls-10" d="M452.07,750.06h3.25v3.62a11.28,11.28,0,0,1,3.08-3.2,6,6,0,0,1,3.37-1.06,5.81,5.81,0,0,1,2.82.84L462.93,753a4.4,4.4,0,0,0-1.69-.43,4.58,4.58,0,0,0-3.07,1.31,8.24,8.24,0,0,0-2.26,4.06,39.34,39.34,0,0,0-.59,8.56v8.38h-3.25Z" transform="translate(-55.04 -310.29)"/><path class="cls-10" d="M480.74,741.33h16.78v3.28H484.08v10.5h13.44v3.28H484.08v16.44h-3.34Z" transform="translate(-55.04 -310.29)"/><path class="cls-10" d="M503.93,739.85a2.51,2.51,0,0,1,1.86.78,2.54,2.54,0,0,1,.77,1.87,2.65,2.65,0,0,1-2.63,2.62,2.47,2.47,0,0,1-1.83-.78,2.5,2.5,0,0,1-.77-1.84,2.54,2.54,0,0,1,.77-1.87A2.47,2.47,0,0,1,503.93,739.85Zm-1.58,10.21h3.19v24.77h-3.19Z" transform="translate(-55.04 -310.29)"/><path class="cls-10" d="M511,750.06h3.25v3.62a11.41,11.41,0,0,1,3.08-3.2,6,6,0,0,1,3.37-1.06,5.81,5.81,0,0,1,2.82.84L521.82,753a4.4,4.4,0,0,0-1.68-.43,4.58,4.58,0,0,0-3.08,1.31,8.16,8.16,0,0,0-2.25,4.06,38.48,38.48,0,0,0-.6,8.56v8.38H511Z" transform="translate(-55.04 -310.29)"/><path class="cls-10" d="M538.65,752.77l-2,2.11a7.37,7.37,0,0,0-5-2.48,3.77,3.77,0,0,0-2.66,1,3.16,3.16,0,0,0-1.11,2.39,3.56,3.56,0,0,0,.92,2.3,12.67,12.67,0,0,0,3.83,2.62,14.32,14.32,0,0,1,4.84,3.55,6.5,6.5,0,0,1,1.25,3.89,7,7,0,0,1-2.14,5.17,7.3,7.3,0,0,1-5.36,2.12,9.38,9.38,0,0,1-4.09-.93,8.73,8.73,0,0,1-3.23-2.58l2-2.27a7,7,0,0,0,5.18,2.75,4.68,4.68,0,0,0,3.27-1.23,3.78,3.78,0,0,0,1.34-2.89,3.69,3.69,0,0,0-.89-2.44,14.62,14.62,0,0,0-4-2.64,12.9,12.9,0,0,1-4.57-3.41A6.5,6.5,0,0,1,525,756a6.27,6.27,0,0,1,1.93-4.69,6.71,6.71,0,0,1,4.87-1.87Q535.18,749.42,538.65,752.77Z" transform="translate(-55.04 -310.29)"/><path class="cls-10" d="M547.08,740.86h3.18v9.2h5.06v2.75h-5.06v22h-3.18v-22h-4.35v-2.75h4.35Z" transform="translate(-55.04 -310.29)"/><path class="cls-10" d="M929.56,713l2.84-1.71q3,5.54,7,5.54a6.55,6.55,0,0,0,3.16-.79,5.48,5.48,0,0,0,3-4.91,5.68,5.68,0,0,0-1.14-3.3,27,27,0,0,0-5.73-5.37,29.08,29.08,0,0,1-5.22-4.58,8.41,8.41,0,0,1-1.78-5.12,7.77,7.77,0,0,1,1.05-4,7.45,7.45,0,0,1,2.95-2.83,8.42,8.42,0,0,1,4.13-1,8.81,8.81,0,0,1,4.43,1.17,15,15,0,0,1,4.36,4.32l-2.73,2.07a13,13,0,0,0-3.22-3.3,5.58,5.58,0,0,0-2.9-.8,4.6,4.6,0,0,0-3.32,1.23,4,4,0,0,0-1.29,3,5.26,5.26,0,0,0,.46,2.12,7.93,7.93,0,0,0,1.66,2.23q.66.63,4.33,3.35a24.4,24.4,0,0,1,6,5.71,9.28,9.28,0,0,1,1.61,5,8.56,8.56,0,0,1-2.76,6.33,9.31,9.31,0,0,1-6.73,2.68,9.93,9.93,0,0,1-5.54-1.62A14.94,14.94,0,0,1,929.56,713Z" transform="translate(-55.04 -310.29)"/><path class="cls-10" d="M967.45,693.84a12.27,12.27,0,0,1,9.49,4.14,13.32,13.32,0,0,1-.19,18,13.11,13.11,0,0,1-18.62,0,13.27,13.27,0,0,1-.19-18A12.29,12.29,0,0,1,967.45,693.84Zm0,3.12a9.21,9.21,0,0,0-6.83,2.93,9.81,9.81,0,0,0-2.86,7.11,10.07,10.07,0,0,0,1.3,5,9.28,9.28,0,0,0,3.52,3.59,10,10,0,0,0,9.74,0,9.34,9.34,0,0,0,3.52-3.59,10.17,10.17,0,0,0,1.3-5,9.82,9.82,0,0,0-2.87-7.11A9.24,9.24,0,0,0,967.44,697Z" transform="translate(-55.04 -310.29)"/><path class="cls-10" d="M985.85,694.47H989V706a24.26,24.26,0,0,0,.46,5.83,6.44,6.44,0,0,0,2.61,3.6,7.9,7.9,0,0,0,4.59,1.32,7.82,7.82,0,0,0,4.53-1.28,6.59,6.59,0,0,0,2.57-3.39,23.78,23.78,0,0,0,.48-6.08V694.47h3.25v12.16a19.45,19.45,0,0,1-1.19,7.73,9.16,9.16,0,0,1-3.6,4.06,13.12,13.12,0,0,1-12.07,0,9,9,0,0,1-3.62-4.1q-1.2-2.62-1.2-7.91Z" transform="translate(-55.04 -310.29)"/><path class="cls-10" d="M1014.61,694.47h3.19v4.44a13.33,13.33,0,0,1,4.24-3.81,10.42,10.42,0,0,1,5-1.26,8.76,8.76,0,0,1,4.93,1.41,8.37,8.37,0,0,1,3.18,3.8,20.2,20.2,0,0,1,1,7.45v12.75H1033V707.43a28.62,28.62,0,0,0-.36-5.71,6.29,6.29,0,0,0-2.12-3.7,6.42,6.42,0,0,0-4.1-1.25,7.83,7.83,0,0,0-5.18,1.92,8.88,8.88,0,0,0-3,4.73,32.45,32.45,0,0,0-.46,6.75v9.08h-3.19Z" transform="translate(-55.04 -310.29)"/><path class="cls-10" d="M1067.79,684.91v34.34h-3.14V715a13.68,13.68,0,0,1-4.5,3.67,12.56,12.56,0,0,1-14.44-2.59,12.78,12.78,0,0,1-3.72-9.28,12.55,12.55,0,0,1,3.76-9.15,12.21,12.21,0,0,1,9-3.8,11.76,11.76,0,0,1,5.52,1.29,12.67,12.67,0,0,1,4.34,3.9V684.91Zm-12.74,12a9.65,9.65,0,0,0-8.5,5,10,10,0,0,0,0,10,9.85,9.85,0,0,0,3.61,3.72A9.41,9.41,0,0,0,1055,717a10,10,0,0,0,5-1.32,9.22,9.22,0,0,0,3.6-3.57,10.2,10.2,0,0,0,1.26-5.07,9.86,9.86,0,0,0-2.83-7.19A9.36,9.36,0,0,0,1055.05,696.91Z" transform="translate(-55.04 -310.29)"/><path class="cls-10" d="M1078.17,713.1l3.08,1.46-4.62,8.61-2.26-1Z" transform="translate(-55.04 -310.29)"/><path class="cls-10" d="M1103.61,685.27h3.19v9.2h5.06v2.76h-5.06v22h-3.19v-22h-4.35v-2.76h4.35Z" transform="translate(-55.04 -310.29)"/><path class="cls-10" d="M1115.43,694.47h3.26v3.62a11.34,11.34,0,0,1,3.07-3.19,6,6,0,0,1,3.37-1.06,5.85,5.85,0,0,1,2.83.84l-1.67,2.69a4.4,4.4,0,0,0-1.68-.44,4.61,4.61,0,0,0-3.07,1.31,8.33,8.33,0,0,0-2.26,4.07,39.27,39.27,0,0,0-.59,8.56v8.38h-3.26Z" transform="translate(-55.04 -310.29)"/><path class="cls-10" d="M1155.35,694.47v24.78h-3.14V715a13.48,13.48,0,0,1-4.5,3.67,12.54,12.54,0,0,1-14.43-2.59,12.75,12.75,0,0,1-3.73-9.28,12.55,12.55,0,0,1,3.76-9.15,12.23,12.23,0,0,1,9-3.8,11.73,11.73,0,0,1,5.52,1.29,12.58,12.58,0,0,1,4.34,3.9v-4.56Zm-12.74,2.44a9.62,9.62,0,0,0-8.49,5,10,10,0,0,0,0,10,9.75,9.75,0,0,0,3.6,3.72,9.41,9.41,0,0,0,4.86,1.33,10,10,0,0,0,5-1.32,9.22,9.22,0,0,0,3.6-3.57,10.1,10.1,0,0,0,1.27-5.07,9.86,9.86,0,0,0-2.84-7.19A9.35,9.35,0,0,0,1142.61,696.91Z" transform="translate(-55.04 -310.29)"/><path class="cls-10" d="M1162.53,694.47h3.19v4.44a13.2,13.2,0,0,1,4.23-3.81,10.46,10.46,0,0,1,5.06-1.26,8.81,8.81,0,0,1,4.93,1.41,8.41,8.41,0,0,1,3.17,3.8,20,20,0,0,1,1,7.45v12.75H1181V707.43a29.7,29.7,0,0,0-.35-5.71,6.25,6.25,0,0,0-2.13-3.7,6.4,6.4,0,0,0-4.1-1.25,7.83,7.83,0,0,0-5.18,1.92,8.94,8.94,0,0,0-3,4.73,33.41,33.41,0,0,0-.45,6.75v9.08h-3.19Z" transform="translate(-55.04 -310.29)"/><path class="cls-10" d="M1203.43,697.18l-2,2.12c-1.71-1.65-3.37-2.48-5-2.48a3.78,3.78,0,0,0-2.66,1,3.18,3.18,0,0,0-1.11,2.4,3.6,3.6,0,0,0,.91,2.3,12.91,12.91,0,0,0,3.84,2.61,14.43,14.43,0,0,1,4.84,3.56,6.5,6.5,0,0,1,1.25,3.89,7,7,0,0,1-2.14,5.17,7.34,7.34,0,0,1-5.36,2.12,9.42,9.42,0,0,1-4.1-.93,8.88,8.88,0,0,1-3.22-2.58l2-2.28q2.44,2.76,5.18,2.76a4.68,4.68,0,0,0,3.27-1.23,3.81,3.81,0,0,0,1.34-2.89,3.69,3.69,0,0,0-.89-2.44,14.17,14.17,0,0,0-4-2.64,12.78,12.78,0,0,1-4.57-3.42,6.38,6.38,0,0,1-1.21-3.84,6.26,6.26,0,0,1,1.93-4.7,6.72,6.72,0,0,1,4.87-1.86Q1200,693.84,1203.43,697.18Z" transform="translate(-55.04 -310.29)"/><path class="cls-10" d="M1209.12,694.47h3.19V699a12.88,12.88,0,0,1,4.35-3.9,11.57,11.57,0,0,1,5.48-1.29,12.2,12.2,0,0,1,9,3.8,12.58,12.58,0,0,1,3.75,9.15,12.78,12.78,0,0,1-3.72,9.28,12.51,12.51,0,0,1-14.41,2.59,13.62,13.62,0,0,1-4.48-3.67v13.33h-3.19Zm12.76,2.44a9.36,9.36,0,0,0-7,2.89,9.86,9.86,0,0,0-2.83,7.19,10.2,10.2,0,0,0,1.26,5.07,9.21,9.21,0,0,0,3.62,3.57,10,10,0,0,0,5,1.32,9.35,9.35,0,0,0,4.83-1.33,9.75,9.75,0,0,0,3.6-3.72,10,10,0,0,0,0-10,9.62,9.62,0,0,0-8.48-5Z" transform="translate(-55.04 -310.29)"/><path class="cls-10" d="M1265.58,694.47v24.78h-3.15V715a13.55,13.55,0,0,1-4.49,3.67,12.56,12.56,0,0,1-14.44-2.59,12.79,12.79,0,0,1-3.73-9.28,12.59,12.59,0,0,1,3.76-9.15,12.24,12.24,0,0,1,9-3.8,11.77,11.77,0,0,1,5.53,1.29,12.64,12.64,0,0,1,4.33,3.9v-4.56Zm-12.75,2.44a9.62,9.62,0,0,0-8.49,5,10,10,0,0,0,0,10,9.85,9.85,0,0,0,3.61,3.72,9.34,9.34,0,0,0,4.85,1.33,9.93,9.93,0,0,0,5-1.32,9.25,9.25,0,0,0,3.61-3.57,10.2,10.2,0,0,0,1.26-5.07,9.86,9.86,0,0,0-2.83-7.19A9.39,9.39,0,0,0,1252.83,696.91Z" transform="translate(-55.04 -310.29)"/><path class="cls-10" d="M1271.54,694.47h3.26v3.62a11.36,11.36,0,0,1,3.08-3.19,6,6,0,0,1,3.37-1.06,5.81,5.81,0,0,1,2.82.84l-1.66,2.69a4.44,4.44,0,0,0-1.69-.44,4.61,4.61,0,0,0-3.07,1.31,8.33,8.33,0,0,0-2.26,4.07,39.27,39.27,0,0,0-.59,8.56v8.38h-3.26Z" transform="translate(-55.04 -310.29)"/><path class="cls-10" d="M1307.64,711l2.69,1.41a14.52,14.52,0,0,1-3.06,4.19,12.07,12.07,0,0,1-3.89,2.43,13.74,13.74,0,0,1-4.91.83q-6.06,0-9.48-4a13.42,13.42,0,0,1-3.42-9,13.25,13.25,0,0,1,2.9-8.4,11.81,11.81,0,0,1,9.82-4.69,12.22,12.22,0,0,1,10.12,4.8,13.44,13.44,0,0,1,2.74,8.47h-22.3a10.08,10.08,0,0,0,2.76,7.08,8.8,8.8,0,0,0,6.59,2.76,10.54,10.54,0,0,0,3.68-.66,9.62,9.62,0,0,0,3-1.74A15,15,0,0,0,1307.64,711Zm0-6.67a10.73,10.73,0,0,0-1.86-4.08,8.71,8.71,0,0,0-3.23-2.46,9.87,9.87,0,0,0-4.21-.93,9.07,9.07,0,0,0-6.27,2.34,10.57,10.57,0,0,0-2.9,5.13Z" transform="translate(-55.04 -310.29)"/><path class="cls-10" d="M1317.09,694.47h3.19v4.44a13.3,13.3,0,0,1,4.23-3.81,10.46,10.46,0,0,1,5.06-1.26,8.79,8.79,0,0,1,4.93,1.41,8.37,8.37,0,0,1,3.18,3.8,20.24,20.24,0,0,1,1,7.45v12.75h-3.19V707.43a28.87,28.87,0,0,0-.35-5.71A6.25,6.25,0,0,0,1333,698a6.39,6.39,0,0,0-4.1-1.25,7.87,7.87,0,0,0-5.18,1.92,9,9,0,0,0-3,4.73,33.41,33.41,0,0,0-.45,6.75v9.08h-3.19Z" transform="translate(-55.04 -310.29)"/><path class="cls-10" d="M1348.31,685.27h3.19v9.2h5.06v2.76h-5.06v22h-3.19v-22H1344v-2.76h4.35Z" transform="translate(-55.04 -310.29)"/><path class="cls-10" d="M1364.5,713.1l3.08,1.46-4.62,8.61-2.26-1Z" transform="translate(-55.04 -310.29)"/><path class="cls-10" d="M1150.87,750.44v24.78h-3.14V771a13.68,13.68,0,0,1-4.5,3.67,12.56,12.56,0,0,1-14.44-2.59,12.78,12.78,0,0,1-3.72-9.28,12.55,12.55,0,0,1,3.75-9.15,12.25,12.25,0,0,1,9-3.81,11.78,11.78,0,0,1,5.53,1.3,12.76,12.76,0,0,1,4.34,3.9v-4.56Zm-12.74,2.44a9.62,9.62,0,0,0-8.5,5,10,10,0,0,0,0,10,9.85,9.85,0,0,0,3.61,3.72,9.37,9.37,0,0,0,4.85,1.33,9.93,9.93,0,0,0,5-1.32,9.25,9.25,0,0,0,3.61-3.57,10.2,10.2,0,0,0,1.26-5.07,9.84,9.84,0,0,0-2.83-7.19A9.36,9.36,0,0,0,1138.13,752.88Z" transform="translate(-55.04 -310.29)"/><path class="cls-10" d="M1158,750.44h3.19v4.44a13.3,13.3,0,0,1,4.23-3.81,10.47,10.47,0,0,1,5.06-1.27,8.71,8.71,0,0,1,4.93,1.42,8.37,8.37,0,0,1,3.18,3.8,20.2,20.2,0,0,1,1,7.45v12.75h-3.19V763.4a29.06,29.06,0,0,0-.35-5.72A6.28,6.28,0,0,0,1174,754a6.44,6.44,0,0,0-4.1-1.24,7.91,7.91,0,0,0-5.18,1.91,9.06,9.06,0,0,0-3,4.74,33.36,33.36,0,0,0-.45,6.74v9.09H1158Z" transform="translate(-55.04 -310.29)"/><path class="cls-10" d="M1211.22,740.88v34.34h-3.15V771a13.55,13.55,0,0,1-4.49,3.67,12.56,12.56,0,0,1-14.44-2.59,12.78,12.78,0,0,1-3.72-9.28,12.55,12.55,0,0,1,3.75-9.15,12.25,12.25,0,0,1,9-3.81,11.78,11.78,0,0,1,5.53,1.3,12.64,12.64,0,0,1,4.33,3.9V740.88Zm-12.74,12a9.62,9.62,0,0,0-8.5,5,10,10,0,0,0,0,10,9.78,9.78,0,0,0,3.61,3.72,9.34,9.34,0,0,0,4.85,1.33,9.93,9.93,0,0,0,5-1.32A9.32,9.32,0,0,0,1207,768a10.2,10.2,0,0,0,1.26-5.07,9.88,9.88,0,0,0-2.83-7.19A9.36,9.36,0,0,0,1198.48,752.88Z" transform="translate(-55.04 -310.29)"/><path class="cls-10" d="M1061.21,806.41h3.19V818a25,25,0,0,0,.45,5.83,6.53,6.53,0,0,0,2.61,3.6,8,8,0,0,0,4.6,1.32,7.75,7.75,0,0,0,4.53-1.29,6.55,6.55,0,0,0,2.56-3.38,23.83,23.83,0,0,0,.48-6.08V806.41h3.26v12.16a19.15,19.15,0,0,1-1.2,7.72,9.07,9.07,0,0,1-3.6,4.07,11.33,11.33,0,0,1-6,1.47,11.51,11.51,0,0,1-6-1.47,9.14,9.14,0,0,1-3.62-4.1,20.2,20.2,0,0,1-1.19-7.92Z" transform="translate(-55.04 -310.29)"/><path class="cls-10" d="M1090,806.41h3.19v4.44a13.33,13.33,0,0,1,4.24-3.81,10.29,10.29,0,0,1,5-1.27,8.79,8.79,0,0,1,4.93,1.41,8.4,8.4,0,0,1,3.18,3.81,20.14,20.14,0,0,1,1,7.44v12.76h-3.18V819.37a28.74,28.74,0,0,0-.36-5.72,6.32,6.32,0,0,0-2.12-3.7,6.42,6.42,0,0,0-4.1-1.24,7.91,7.91,0,0,0-5.19,1.91,9,9,0,0,0-3,4.74,32.4,32.4,0,0,0-.46,6.74v9.09H1090Z" transform="translate(-55.04 -310.29)"/><path class="cls-10" d="M1118.62,831.19V796.85h3.19v13.82a13.41,13.41,0,0,1,4.48-3.68,12.2,12.2,0,0,1,5.44-1.22,12.05,12.05,0,0,1,9,3.82,12.76,12.76,0,0,1,3.72,9.25,12.58,12.58,0,0,1-3.75,9.18,12.21,12.21,0,0,1-9,3.81,11.65,11.65,0,0,1-5.49-1.3,12.94,12.94,0,0,1-4.34-3.9v4.56Zm12.75-2.44a9.6,9.6,0,0,0,8.49-5,10.05,10.05,0,0,0,1.33-5,10.16,10.16,0,0,0-1.34-5,9.83,9.83,0,0,0-3.6-3.72,9.36,9.36,0,0,0-4.83-1.34,9.94,9.94,0,0,0-5,1.34,9.27,9.27,0,0,0-3.61,3.58,10.26,10.26,0,0,0-1.26,5.08,9.88,9.88,0,0,0,2.83,7.2A9.34,9.34,0,0,0,1131.37,828.75Z" transform="translate(-55.04 -310.29)"/><path class="cls-10" d="M1151.33,796.21a2.63,2.63,0,0,1,2.63,2.64,2.62,2.62,0,0,1-5.23,0,2.54,2.54,0,0,1,.77-1.87A2.5,2.5,0,0,1,1151.33,796.21Zm-1.58,10.2h3.19v24.78h-3.19Z" transform="translate(-55.04 -310.29)"/><path class="cls-10" d="M1184.25,806.41v24.78h-3.14v-4.26a13.71,13.71,0,0,1-4.5,3.67,12.56,12.56,0,0,1-14.44-2.59,12.8,12.8,0,0,1-3.72-9.28,12.52,12.52,0,0,1,3.76-9.15,12.23,12.23,0,0,1,9-3.81,11.77,11.77,0,0,1,5.52,1.3,12.54,12.54,0,0,1,4.34,3.89v-4.55Zm-12.74,2.44a9.57,9.57,0,0,0-8.49,5,10,10,0,0,0,0,10,9.75,9.75,0,0,0,3.6,3.72,9.5,9.5,0,0,0,4.86,1.33,10,10,0,0,0,5-1.32,9.22,9.22,0,0,0,3.6-3.57,10.24,10.24,0,0,0,1.27-5.08,9.84,9.84,0,0,0-2.84-7.18A9.35,9.35,0,0,0,1171.51,808.85Z" transform="translate(-55.04 -310.29)"/><path class="cls-10" d="M1203.88,809.12l-2.05,2.12a7.33,7.33,0,0,0-5-2.48,3.8,3.8,0,0,0-2.66,1,3.18,3.18,0,0,0-1.1,2.39,3.52,3.52,0,0,0,.91,2.3,12.76,12.76,0,0,0,3.83,2.62,14.22,14.22,0,0,1,4.84,3.55,6.49,6.49,0,0,1,1.26,3.9,7,7,0,0,1-2.15,5.17,7.32,7.32,0,0,1-5.36,2.12,9.39,9.39,0,0,1-4.09-.94,8.89,8.89,0,0,1-3.23-2.57l2-2.28a7,7,0,0,0,5.19,2.76,4.68,4.68,0,0,0,3.26-1.23,3.81,3.81,0,0,0,1.35-2.9,3.7,3.7,0,0,0-.89-2.43,14.42,14.42,0,0,0-4-2.64,12.87,12.87,0,0,1-4.56-3.42,6.41,6.41,0,0,1-1.21-3.85,6.27,6.27,0,0,1,1.92-4.69,6.76,6.76,0,0,1,4.88-1.87Q1200.42,805.77,1203.88,809.12Z" transform="translate(-55.04 -310.29)"/><path class="cls-10" d="M1230.39,823l2.69,1.41a14.69,14.69,0,0,1-3,4.19,12.2,12.2,0,0,1-3.9,2.42,13.5,13.5,0,0,1-4.9.84q-6.07,0-9.49-4a13.39,13.39,0,0,1-3.41-9,13.25,13.25,0,0,1,2.89-8.41,11.85,11.85,0,0,1,9.82-4.69,12.2,12.2,0,0,1,10.12,4.81,13.36,13.36,0,0,1,2.74,8.47h-22.3a10.12,10.12,0,0,0,2.76,7.08,8.81,8.81,0,0,0,6.59,2.76,10.54,10.54,0,0,0,3.68-.66,9.64,9.64,0,0,0,3-1.75A14.69,14.69,0,0,0,1230.39,823Zm0-6.68a10.32,10.32,0,0,0-1.86-4.07,8.67,8.67,0,0,0-3.22-2.46,10,10,0,0,0-4.22-.94,9.11,9.11,0,0,0-6.27,2.35,10.66,10.66,0,0,0-2.9,5.12Z" transform="translate(-55.04 -310.29)"/><path class="cls-10" d="M1264.58,796.85v34.34h-3.15v-4.26a13.68,13.68,0,0,1-4.49,3.67A12.56,12.56,0,0,1,1242.5,828a12.77,12.77,0,0,1-3.73-9.28,12.55,12.55,0,0,1,3.76-9.15,12.25,12.25,0,0,1,9-3.81,11.71,11.71,0,0,1,5.52,1.3,12.54,12.54,0,0,1,4.34,3.89V796.85Zm-12.75,12a9.57,9.57,0,0,0-8.49,5,10,10,0,0,0,0,10,9.83,9.83,0,0,0,3.6,3.72,9.5,9.5,0,0,0,4.86,1.33,10,10,0,0,0,5-1.32,9.32,9.32,0,0,0,3.61-3.57,10.23,10.23,0,0,0,1.26-5.08,9.87,9.87,0,0,0-2.83-7.18A9.39,9.39,0,0,0,1251.83,808.85Z" transform="translate(-55.04 -310.29)"/><path class="cls-10" d="M1086.26,861.74a12.27,12.27,0,0,1,9.49,4.14,13.32,13.32,0,0,1-.19,18,13.11,13.11,0,0,1-18.62,0,13.25,13.25,0,0,1-.19-18A12.26,12.26,0,0,1,1086.26,861.74Zm0,3.12a9.18,9.18,0,0,0-6.83,2.94,9.8,9.8,0,0,0-2.86,7.1,10.07,10.07,0,0,0,1.3,5,9.21,9.21,0,0,0,3.52,3.59,10,10,0,0,0,9.74,0,9.28,9.28,0,0,0,3.52-3.59,10.17,10.17,0,0,0,1.3-5,9.81,9.81,0,0,0-2.87-7.1A9.21,9.21,0,0,0,1086.25,864.86Z" transform="translate(-55.04 -310.29)"/><path class="cls-10" d="M1115.27,852.81v3.12a7.9,7.9,0,0,0-3-.75,2.92,2.92,0,0,0-1.55.38,1.7,1.7,0,0,0-.78.86,12.48,12.48,0,0,0-.16,2.61v3.35H1115v2.75h-5.17l0,22h-3.19v-22h-3.25v-2.75h3.25v-3.87a10.69,10.69,0,0,1,.49-3.81,3.87,3.87,0,0,1,1.67-1.83,5.47,5.47,0,0,1,2.83-.69A13.61,13.61,0,0,1,1115.27,852.81Z" transform="translate(-55.04 -310.29)"/><path class="cls-10" d="M1129.92,852.81v3.12a7.9,7.9,0,0,0-3-.75,2.94,2.94,0,0,0-1.55.38,1.64,1.64,0,0,0-.77.86,11.78,11.78,0,0,0-.16,2.61v3.35h5.18v2.75h-5.18v22h-3.19v-22H1118v-2.75h3.26v-3.87a10.46,10.46,0,0,1,.49-3.81,3.85,3.85,0,0,1,1.66-1.83,5.49,5.49,0,0,1,2.83-.69A13.67,13.67,0,0,1,1129.92,852.81Z" transform="translate(-55.04 -310.29)"/><path class="cls-10" d="M1155.22,878.93l2.68,1.42a14.83,14.83,0,0,1-3.05,4.19A12.09,12.09,0,0,1,1151,887a13.47,13.47,0,0,1-4.9.83q-6.06,0-9.48-4a13.4,13.4,0,0,1-3.42-9,13.24,13.24,0,0,1,2.89-8.4,11.85,11.85,0,0,1,9.83-4.69,12.21,12.21,0,0,1,10.12,4.81,13.41,13.41,0,0,1,2.73,8.47h-22.29a10.06,10.06,0,0,0,2.76,7.07,8.77,8.77,0,0,0,6.59,2.77,10.54,10.54,0,0,0,3.68-.66,9.59,9.59,0,0,0,3-1.75A15,15,0,0,0,1155.22,878.93Zm0-6.67a10.61,10.61,0,0,0-1.86-4.07,8.79,8.79,0,0,0-3.23-2.46,9.78,9.78,0,0,0-4.22-.94,9.07,9.07,0,0,0-6.27,2.35,10.6,10.6,0,0,0-2.89,5.12Z" transform="translate(-55.04 -310.29)"/><path class="cls-10" d="M1163.46,862.38h3.26V866a11.26,11.26,0,0,1,3.07-3.2,6,6,0,0,1,3.37-1.06,5.88,5.88,0,0,1,2.83.84l-1.67,2.69a4.36,4.36,0,0,0-1.68-.43,4.6,4.6,0,0,0-3.08,1.31,8.36,8.36,0,0,0-2.25,4.06,39.34,39.34,0,0,0-.59,8.56v8.39h-3.26Z" transform="translate(-55.04 -310.29)"/><path class="cls-10" d="M1179.8,852.18a2.5,2.5,0,0,1,1.86.77,2.58,2.58,0,0,1,.77,1.87,2.62,2.62,0,0,1-5.24,0A2.58,2.58,0,0,1,1178,853,2.5,2.5,0,0,1,1179.8,852.18Zm-1.58,10.2h3.19v24.78h-3.19Z" transform="translate(-55.04 -310.29)"/><path class="cls-10" d="M1188,862.38h3.19v4.44a13.49,13.49,0,0,1,4.24-3.82,10.42,10.42,0,0,1,5-1.26,8.76,8.76,0,0,1,4.93,1.41,8.35,8.35,0,0,1,3.18,3.81,20.1,20.1,0,0,1,1,7.44v12.76h-3.19V875.34a28.74,28.74,0,0,0-.36-5.72,6.32,6.32,0,0,0-2.12-3.7,6.42,6.42,0,0,0-4.1-1.24,7.87,7.87,0,0,0-5.18,1.91,8.94,8.94,0,0,0-3,4.74,32.34,32.34,0,0,0-.46,6.74v9.09H1188Z" transform="translate(-55.04 -310.29)"/><path class="cls-10" d="M1237.84,862.38H1241v19.74a23.51,23.51,0,0,1-.91,7.63,10,10,0,0,1-4.35,5.26,14.32,14.32,0,0,1-7.45,1.85,16.85,16.85,0,0,1-5.73-.91,11.32,11.32,0,0,1-4.13-2.42,14.47,14.47,0,0,1-2.94-4.44H1219a9.06,9.06,0,0,0,3.65,3.64,11.73,11.73,0,0,0,5.54,1.19,11.59,11.59,0,0,0,5.51-1.21,7.48,7.48,0,0,0,3.2-3.06,13.54,13.54,0,0,0,1-5.93v-1.28a12.06,12.06,0,0,1-4.4,3.5,13.05,13.05,0,0,1-12-.48,12.09,12.09,0,0,1-4.65-4.57,12.5,12.5,0,0,1-1.64-6.31A12.89,12.89,0,0,1,1228,861.74a11.81,11.81,0,0,1,5.19,1.15,14.4,14.4,0,0,1,4.64,3.79Zm-9.41,2.43a10.12,10.12,0,0,0-5,1.31,9.47,9.47,0,0,0-3.64,3.63,9.88,9.88,0,0,0-1.32,5,9,9,0,0,0,2.73,6.74,10.75,10.75,0,0,0,14.15,0,9.31,9.31,0,0,0,2.68-7,10.07,10.07,0,0,0-1.23-5,9,9,0,0,0-3.49-3.47A9.69,9.69,0,0,0,1228.43,864.81Z" transform="translate(-55.04 -310.29)"/><path class="cls-10" d="M1663.2,723.75h6.67a39.78,39.78,0,0,1,7.56.46,8.56,8.56,0,0,1,4.85,2.93,8.34,8.34,0,0,1,1.87,5.53,8.92,8.92,0,0,1-1.29,4.81,8,8,0,0,1-3.67,3.13,17,17,0,0,1-6.61,1.09l12.05,15.55h-4.14l-12-15.55h-1.89v15.55h-3.35Zm3.35,3.28v11.39l5.77,0a14.52,14.52,0,0,0,5-.63,5.22,5.22,0,0,0,2.51-2,5.69,5.69,0,0,0,.9-3.13,5.5,5.5,0,0,0-.91-3.07,5.12,5.12,0,0,0-2.4-2,14.67,14.67,0,0,0-4.92-.59Z" transform="translate(-55.04 -310.29)"/><path class="cls-10" d="M1711.66,749l2.69,1.41a14.52,14.52,0,0,1-3.06,4.19,12.07,12.07,0,0,1-3.89,2.43,13.72,13.72,0,0,1-4.9.83q-6.07,0-9.49-4a13.42,13.42,0,0,1-3.42-9,13.25,13.25,0,0,1,2.9-8.4,11.81,11.81,0,0,1,9.82-4.69,12.22,12.22,0,0,1,10.12,4.8,13.38,13.38,0,0,1,2.74,8.47h-22.3a10.08,10.08,0,0,0,2.76,7.08,8.81,8.81,0,0,0,6.59,2.76,10.54,10.54,0,0,0,3.68-.66,9.62,9.62,0,0,0,3-1.74A15,15,0,0,0,1711.66,749Zm0-6.67a10.44,10.44,0,0,0-1.86-4.08,8.75,8.75,0,0,0-3.22-2.46,10,10,0,0,0-4.22-.93,9.1,9.1,0,0,0-6.27,2.34,10.65,10.65,0,0,0-2.9,5.13Z" transform="translate(-55.04 -310.29)"/><path class="cls-10" d="M1745.8,732.47v24.78h-3.14V753a13.68,13.68,0,0,1-4.5,3.67,12.56,12.56,0,0,1-14.44-2.59,12.78,12.78,0,0,1-3.72-9.28,12.58,12.58,0,0,1,3.75-9.15,12.24,12.24,0,0,1,9-3.8,11.77,11.77,0,0,1,5.53,1.29,12.76,12.76,0,0,1,4.34,3.9v-4.56Zm-12.74,2.44a9.62,9.62,0,0,0-8.5,5,10,10,0,0,0,0,10,9.85,9.85,0,0,0,3.61,3.72A9.37,9.37,0,0,0,1733,755a9.93,9.93,0,0,0,5-1.32,9.25,9.25,0,0,0,3.61-3.57,10.2,10.2,0,0,0,1.26-5.07,9.86,9.86,0,0,0-2.83-7.19A9.36,9.36,0,0,0,1733.06,734.91Z" transform="translate(-55.04 -310.29)"/><path class="cls-10" d="M1752.49,722.91h3.19v34.34h-3.19Z" transform="translate(-55.04 -310.29)"/><path class="cls-10" d="M1778,723.27h3.19v9.2h5v2.76h-5v22H1778v-22h-4.35v-2.76H1778Z" transform="translate(-55.04 -310.29)"/><path class="cls-10" d="M1792.13,722.27a2.51,2.51,0,0,1,1.86.78,2.58,2.58,0,1,1-1.86-.78Zm-1.58,10.2h3.19v24.78h-3.19Z" transform="translate(-55.04 -310.29)"/><path class="cls-10" d="M1800.34,732.47h3.19v4.29a12.4,12.4,0,0,1,3.42-3.47,9.68,9.68,0,0,1,5.08-1.45,8.47,8.47,0,0,1,3.42.7,7.44,7.44,0,0,1,2.65,1.88,10.27,10.27,0,0,1,1.78,3.36,11.79,11.79,0,0,1,4-4.43,9.4,9.4,0,0,1,5.14-1.51,8.07,8.07,0,0,1,4.53,1.29,7.8,7.8,0,0,1,2.92,3.63,19.42,19.42,0,0,1,1,7v13.53h-3.25V743.72a17.56,17.56,0,0,0-.57-5.47,5,5,0,0,0-1.94-2.41,5.87,5.87,0,0,0-3.28-.91,7.1,7.1,0,0,0-4.23,1.37,7.89,7.89,0,0,0-2.81,3.64q-.88,2.28-.88,7.61v9.7h-3.19V744.57a21.89,21.89,0,0,0-.56-6.1,5.09,5.09,0,0,0-2-2.57,5.64,5.64,0,0,0-3.3-1,7.11,7.11,0,0,0-4.13,1.34,7.84,7.84,0,0,0-2.85,3.58,19.51,19.51,0,0,0-.92,6.9v10.5h-3.19Z" transform="translate(-55.04 -310.29)"/><path class="cls-10" d="M1865,749l2.69,1.41a14.52,14.52,0,0,1-3.06,4.19,12.07,12.07,0,0,1-3.89,2.43,13.72,13.72,0,0,1-4.9.83q-6.07,0-9.49-4a13.42,13.42,0,0,1-3.42-9,13.25,13.25,0,0,1,2.9-8.4,11.83,11.83,0,0,1,9.82-4.69,12.22,12.22,0,0,1,10.12,4.8,13.38,13.38,0,0,1,2.74,8.47h-22.3a10.08,10.08,0,0,0,2.76,7.08,8.81,8.81,0,0,0,6.59,2.76,10.54,10.54,0,0,0,3.68-.66,9.62,9.62,0,0,0,3-1.74A15,15,0,0,0,1865,749Zm0-6.67a10.44,10.44,0,0,0-1.86-4.08,8.75,8.75,0,0,0-3.22-2.46,10,10,0,0,0-4.22-.93,9.1,9.1,0,0,0-6.27,2.34,10.65,10.65,0,0,0-2.9,5.13Z" transform="translate(-55.04 -310.29)"/><path class="cls-10" d="M1899.79,735.18l-2,2.12a7.37,7.37,0,0,0-5-2.48,3.8,3.8,0,0,0-2.66,1,3.18,3.18,0,0,0-1.11,2.4,3.56,3.56,0,0,0,.92,2.3,12.83,12.83,0,0,0,3.83,2.61,14.32,14.32,0,0,1,4.84,3.56,6.43,6.43,0,0,1,1.25,3.89,7,7,0,0,1-2.14,5.17,7.34,7.34,0,0,1-5.36,2.12,9.38,9.38,0,0,1-4.09-.93,8.91,8.91,0,0,1-3.23-2.58l2-2.28q2.44,2.76,5.18,2.76a4.68,4.68,0,0,0,3.27-1.23,3.79,3.79,0,0,0,1.35-2.89,3.75,3.75,0,0,0-.89-2.44,14.42,14.42,0,0,0-4-2.64,12.78,12.78,0,0,1-4.57-3.42,6.44,6.44,0,0,1-1.2-3.84,6.29,6.29,0,0,1,1.92-4.7,6.74,6.74,0,0,1,4.87-1.86Q1896.32,731.84,1899.79,735.18Z" transform="translate(-55.04 -310.29)"/><path class="cls-10" d="M1908.22,723.27h3.19v9.2h5v2.76h-5v22h-3.19v-22h-4.35v-2.76h4.35Z" transform="translate(-55.04 -310.29)"/><path class="cls-10" d="M1920,732.47h3.25v3.62a11.5,11.5,0,0,1,3.08-3.19,6,6,0,0,1,3.37-1.06,5.81,5.81,0,0,1,2.82.84l-1.66,2.69a4.45,4.45,0,0,0-1.68-.44,4.63,4.63,0,0,0-3.08,1.31,8.24,8.24,0,0,0-2.25,4.07,38.42,38.42,0,0,0-.6,8.56v8.38H1920Z" transform="translate(-55.04 -310.29)"/><path class="cls-10" d="M1960,732.47v24.78h-3.14V753a13.68,13.68,0,0,1-4.5,3.67,12.56,12.56,0,0,1-14.44-2.59,12.78,12.78,0,0,1-3.72-9.28,12.55,12.55,0,0,1,3.76-9.15,12.21,12.21,0,0,1,9-3.8,11.76,11.76,0,0,1,5.52,1.29,12.67,12.67,0,0,1,4.34,3.9v-4.56Zm-12.74,2.44a9.62,9.62,0,0,0-8.5,5,10,10,0,0,0,0,10,9.85,9.85,0,0,0,3.61,3.72,9.41,9.41,0,0,0,4.86,1.33,9.92,9.92,0,0,0,5-1.32,9.18,9.18,0,0,0,3.61-3.57A10.2,10.2,0,0,0,1957,745a9.86,9.86,0,0,0-2.83-7.19A9.36,9.36,0,0,0,1947.22,734.91Z" transform="translate(-55.04 -310.29)"/><path class="cls-10" d="M1969.91,723.27h3.19v9.2h5.06v2.76h-5.06v22h-3.19v-22h-4.35v-2.76h4.35Z" transform="translate(-55.04 -310.29)"/><path class="cls-10" d="M2003.8,749l2.69,1.41a14.7,14.7,0,0,1-3.06,4.19,12,12,0,0,1-3.9,2.43,13.64,13.64,0,0,1-4.9.83q-6.06,0-9.48-4a13.42,13.42,0,0,1-3.42-9,13.25,13.25,0,0,1,2.9-8.4,11.81,11.81,0,0,1,9.82-4.69,12.23,12.23,0,0,1,10.12,4.8,13.44,13.44,0,0,1,2.74,8.47H1985a10.08,10.08,0,0,0,2.76,7.08,8.8,8.8,0,0,0,6.59,2.76,10.54,10.54,0,0,0,3.68-.66,9.57,9.57,0,0,0,3-1.74A14.77,14.77,0,0,0,2003.8,749Zm0-6.67a10.73,10.73,0,0,0-1.86-4.08,8.71,8.71,0,0,0-3.23-2.46,9.87,9.87,0,0,0-4.21-.93,9.07,9.07,0,0,0-6.27,2.34,10.57,10.57,0,0,0-2.9,5.13Z" transform="translate(-55.04 -310.29)"/><path class="cls-10" d="M2034.61,732.47h3.19v19.75a23.24,23.24,0,0,1-.91,7.63,10,10,0,0,1-4.35,5.26,14.32,14.32,0,0,1-7.45,1.84,17.14,17.14,0,0,1-5.73-.9,11.46,11.46,0,0,1-4.13-2.42,14.47,14.47,0,0,1-2.94-4.44h3.46a9.18,9.18,0,0,0,3.65,3.64,11.73,11.73,0,0,0,5.54,1.19,11.45,11.45,0,0,0,5.51-1.22,7.41,7.41,0,0,0,3.2-3,13.62,13.62,0,0,0,1-5.94v-1.27a12,12,0,0,1-4.4,3.49,13,13,0,0,1-11.94-.48,12,12,0,0,1-4.65-4.56,12.44,12.44,0,0,1-1.65-6.31,12.89,12.89,0,0,1,12.82-12.84A11.8,11.8,0,0,1,2030,733a14.17,14.17,0,0,1,4.64,3.79Zm-9.4,2.44a10.13,10.13,0,0,0-5,1.31,9.45,9.45,0,0,0-3.64,3.62,9.92,9.92,0,0,0-1.32,5,9,9,0,0,0,2.73,6.74,9.7,9.7,0,0,0,7.08,2.67,9.59,9.59,0,0,0,7.07-2.65,9.29,9.29,0,0,0,2.68-6.94,10,10,0,0,0-1.23-5,8.93,8.93,0,0,0-3.48-3.47A9.72,9.72,0,0,0,2025.21,734.91Z" transform="translate(-55.04 -310.29)"/><path class="cls-10" d="M2045.74,722.27a2.62,2.62,0,0,1,1.85,4.49,2.62,2.62,0,0,1-4.46-1.85,2.65,2.65,0,0,1,2.61-2.64Zm-1.59,10.2h3.19v24.78h-3.19Z" transform="translate(-55.04 -310.29)"/><path class="cls-10" d="M2078,737.62l-2.53,1.57a10.58,10.58,0,0,0-8.94-4.35,10.36,10.36,0,0,0-7.52,2.91,9.54,9.54,0,0,0-3,7.08,10,10,0,0,0,1.38,5.09,9.54,9.54,0,0,0,3.77,3.71,11.42,11.42,0,0,0,14.3-3l2.53,1.66a11.94,11.94,0,0,1-4.77,4.15,15.16,15.16,0,0,1-6.82,1.48,13.48,13.48,0,0,1-9.75-3.74,12.14,12.14,0,0,1-3.87-9.08,13,13,0,0,1,1.81-6.69,12.7,12.7,0,0,1,5-4.81,14.45,14.45,0,0,1,7.09-1.73,15.07,15.07,0,0,1,4.74.75,13.13,13.13,0,0,1,3.89,2A10.77,10.77,0,0,1,2078,737.62Z" transform="translate(-55.04 -310.29)"/><path class="cls-10" d="M1804.08,791.15l-2,2.12q-2.57-2.47-5-2.48a3.77,3.77,0,0,0-2.66,1,3.17,3.17,0,0,0-1.11,2.39,3.52,3.52,0,0,0,.91,2.3,12.76,12.76,0,0,0,3.83,2.62,14.22,14.22,0,0,1,4.84,3.56,6.44,6.44,0,0,1,1.26,3.89,7,7,0,0,1-2.15,5.17,7.32,7.32,0,0,1-5.36,2.12,9.25,9.25,0,0,1-4.09-.94,8.89,8.89,0,0,1-3.23-2.57l2-2.28c1.63,1.84,3.35,2.76,5.18,2.76a4.66,4.66,0,0,0,3.26-1.23,3.8,3.8,0,0,0,1.35-2.89,3.71,3.71,0,0,0-.89-2.44,14.11,14.11,0,0,0-4-2.64,12.85,12.85,0,0,1-4.56-3.42,6.39,6.39,0,0,1-1.21-3.85,6.25,6.25,0,0,1,1.93-4.69,6.72,6.72,0,0,1,4.87-1.87C1799.47,787.8,1801.76,788.92,1804.08,791.15Z" transform="translate(-55.04 -310.29)"/><path class="cls-10" d="M1809.31,788.44h3.19V800a24.31,24.31,0,0,0,.46,5.83,6.44,6.44,0,0,0,2.61,3.6,7.93,7.93,0,0,0,4.6,1.32,7.74,7.74,0,0,0,4.52-1.29,6.53,6.53,0,0,0,2.57-3.38,23.83,23.83,0,0,0,.48-6.08V788.44H1831V800.6a19.18,19.18,0,0,1-1.19,7.72,9.18,9.18,0,0,1-3.6,4.07,11.35,11.35,0,0,1-6,1.47,11.49,11.49,0,0,1-6-1.47,9.08,9.08,0,0,1-3.62-4.1q-1.2-2.62-1.2-7.91Z" transform="translate(-55.04 -310.29)"/><path class="cls-10" d="M1838.12,788.44h3.19V793a12.88,12.88,0,0,1,4.35-3.9,11.58,11.58,0,0,1,5.48-1.3,12.21,12.21,0,0,1,9,3.81,12.55,12.55,0,0,1,3.75,9.15,12.78,12.78,0,0,1-3.72,9.28,12.51,12.51,0,0,1-14.41,2.59,13.62,13.62,0,0,1-4.48-3.67v13.32h-3.19Zm12.76,2.44a9.36,9.36,0,0,0-7,2.89,9.84,9.84,0,0,0-2.83,7.19,10.2,10.2,0,0,0,1.26,5.07,9.21,9.21,0,0,0,3.62,3.57,10,10,0,0,0,5,1.32,9.35,9.35,0,0,0,4.83-1.33,9.75,9.75,0,0,0,3.6-3.72,10,10,0,0,0,0-10,9.62,9.62,0,0,0-8.48-5Z" transform="translate(-55.04 -310.29)"/><path class="cls-10" d="M1869.94,788.44h3.18V793a12.88,12.88,0,0,1,4.35-3.9,11.63,11.63,0,0,1,5.48-1.3,12.21,12.21,0,0,1,9,3.81,12.52,12.52,0,0,1,3.76,9.15A12.78,12.78,0,0,1,1892,810a12.51,12.51,0,0,1-14.41,2.59,13.65,13.65,0,0,1-4.49-3.67v13.32h-3.18Zm12.75,2.44a9.33,9.33,0,0,0-7,2.89,9.84,9.84,0,0,0-2.83,7.19,10.2,10.2,0,0,0,1.26,5.07,9.18,9.18,0,0,0,3.61,3.57,10,10,0,0,0,5,1.32,9.3,9.3,0,0,0,4.83-1.33,9.75,9.75,0,0,0,3.6-3.72,10,10,0,0,0,0-10,9.59,9.59,0,0,0-8.48-5Z" transform="translate(-55.04 -310.29)"/><path class="cls-10" d="M1913.43,787.8a12.28,12.28,0,0,1,9.49,4.15,13.28,13.28,0,0,1-.19,18,13.09,13.09,0,0,1-18.62,0,13.28,13.28,0,0,1-.19-18A12.26,12.26,0,0,1,1913.43,787.8Zm0,3.12a9.18,9.18,0,0,0-6.83,2.94,9.81,9.81,0,0,0-2.86,7.11,10.17,10.17,0,0,0,1.3,5,9.25,9.25,0,0,0,3.52,3.58,10,10,0,0,0,9.74,0,9.18,9.18,0,0,0,3.52-3.58,10.07,10.07,0,0,0,1.3-5,9.78,9.78,0,0,0-2.87-7.11A9.19,9.19,0,0,0,1913.42,790.92Z" transform="translate(-55.04 -310.29)"/><path class="cls-10" d="M1931,788.44h3.25v3.62a11.55,11.55,0,0,1,3.08-3.2,6.11,6.11,0,0,1,3.37-1.06,5.73,5.73,0,0,1,2.82.85l-1.66,2.68a4,4,0,0,0-4.76.88,8.2,8.2,0,0,0-2.25,4.07,38.42,38.42,0,0,0-.6,8.56v8.38H1931Z" transform="translate(-55.04 -310.29)"/><path class="cls-10" d="M1949.05,779.24h3.19v9.2h5v2.76h-5v22h-3.19v-22h-4.35v-2.76h4.35Z" transform="translate(-55.04 -310.29)"/><path class="cls-10" d="M2378,692.83h19.2v3.28h-15.85v10.5h15.71v3.27h-15.71v13.17h15.71v3.28H2378Z" transform="translate(-55.04 -310.29)"/><path class="cls-10" d="M2399.68,701.55h3.82l6.59,9.06,6.53-9.06h3.83l-8.44,11.7,9.51,13.08h-3.88l-7.55-10.41-7.5,10.41h-3.8l9.39-13.05Z" transform="translate(-55.04 -310.29)"/><path class="cls-10" d="M2448.94,706.7l-2.53,1.57a10.58,10.58,0,0,0-8.94-4.35,10.36,10.36,0,0,0-7.52,2.91,9.51,9.51,0,0,0-3,7.07,10,10,0,0,0,1.38,5.1,9.7,9.7,0,0,0,3.78,3.71,11.41,11.41,0,0,0,14.29-3l2.53,1.66a11.88,11.88,0,0,1-4.77,4.15,15.29,15.29,0,0,1-6.82,1.48,13.48,13.48,0,0,1-9.75-3.74,12.16,12.16,0,0,1-3.87-9.09,13.05,13.05,0,0,1,6.79-11.5,14.55,14.55,0,0,1,7.08-1.73,15.18,15.18,0,0,1,4.75.75,13.31,13.31,0,0,1,3.88,2A10.66,10.66,0,0,1,2448.94,706.7Z" transform="translate(-55.04 -310.29)"/><path class="cls-10" d="M2475.93,718.11l2.69,1.41a14.52,14.52,0,0,1-3.06,4.19,12.25,12.25,0,0,1-3.89,2.43,13.74,13.74,0,0,1-4.91.83q-6.06,0-9.48-4a13.4,13.4,0,0,1-3.42-9,13.26,13.26,0,0,1,2.9-8.41,11.84,11.84,0,0,1,9.82-4.69,12.2,12.2,0,0,1,10.12,4.81,13.36,13.36,0,0,1,2.74,8.47h-22.3a10.08,10.08,0,0,0,2.76,7.08,8.81,8.81,0,0,0,6.59,2.76,10.54,10.54,0,0,0,3.68-.66,9.64,9.64,0,0,0,3-1.75A14.74,14.74,0,0,0,2475.93,718.11Zm0-6.68a10.61,10.61,0,0,0-1.86-4.07,8.71,8.71,0,0,0-3.23-2.46,9.73,9.73,0,0,0-4.21-.94,9.08,9.08,0,0,0-6.27,2.35,10.58,10.58,0,0,0-2.9,5.12Z" transform="translate(-55.04 -310.29)"/><path class="cls-10" d="M2484.9,692h3.19v34.35h-3.19Z" transform="translate(-55.04 -310.29)"/><path class="cls-10" d="M2494.24,692h3.19v34.35h-3.19Z" transform="translate(-55.04 -310.29)"/><path class="cls-10" d="M2524.92,718.11l2.69,1.41a14.52,14.52,0,0,1-3.06,4.19,12.25,12.25,0,0,1-3.89,2.43,13.74,13.74,0,0,1-4.91.83q-6.06,0-9.48-4a13.4,13.4,0,0,1-3.42-9,13.26,13.26,0,0,1,2.9-8.41,11.84,11.84,0,0,1,9.82-4.69,12.2,12.2,0,0,1,10.12,4.81,13.36,13.36,0,0,1,2.74,8.47h-22.3a10.08,10.08,0,0,0,2.76,7.08,8.81,8.81,0,0,0,6.59,2.76,10.54,10.54,0,0,0,3.68-.66,9.64,9.64,0,0,0,3.05-1.75A14.74,14.74,0,0,0,2524.92,718.11Zm0-6.68a10.32,10.32,0,0,0-1.86-4.07,8.71,8.71,0,0,0-3.23-2.46,9.73,9.73,0,0,0-4.21-.94,9.08,9.08,0,0,0-6.27,2.35,10.58,10.58,0,0,0-2.9,5.12Z" transform="translate(-55.04 -310.29)"/><path class="cls-10" d="M2534.37,701.55h3.19V706a13.49,13.49,0,0,1,4.24-3.82,10.42,10.42,0,0,1,5-1.26,8.76,8.76,0,0,1,4.93,1.41,8.35,8.35,0,0,1,3.18,3.81,20.1,20.1,0,0,1,1,7.44v12.76h-3.19V714.51a28.74,28.74,0,0,0-.36-5.72,6.27,6.27,0,0,0-2.12-3.7,6.42,6.42,0,0,0-4.1-1.24,7.91,7.91,0,0,0-5.19,1.91,9,9,0,0,0-3,4.74,32.4,32.4,0,0,0-.46,6.74v9.09h-3.19Z" transform="translate(-55.04 -310.29)"/><path class="cls-10" d="M2586.87,706.7l-2.53,1.57a10.58,10.58,0,0,0-8.94-4.35,10.36,10.36,0,0,0-7.52,2.91,9.51,9.51,0,0,0-3,7.07,10,10,0,0,0,1.38,5.1,9.74,9.74,0,0,0,3.77,3.71,11,11,0,0,0,5.38,1.32,10.88,10.88,0,0,0,8.92-4.35l2.53,1.66a11.88,11.88,0,0,1-4.77,4.15,15.29,15.29,0,0,1-6.82,1.48,13.48,13.48,0,0,1-9.75-3.74,12.16,12.16,0,0,1-3.87-9.09,12.94,12.94,0,0,1,1.81-6.68,12.75,12.75,0,0,1,5-4.82,14.55,14.55,0,0,1,7.08-1.73,15.18,15.18,0,0,1,4.75.75,13.31,13.31,0,0,1,3.88,2A10.66,10.66,0,0,1,2586.87,706.7Z" transform="translate(-55.04 -310.29)"/><path class="cls-10" d="M2613.86,718.11l2.69,1.41a14.52,14.52,0,0,1-3.06,4.19,12.18,12.18,0,0,1-3.9,2.43,13.64,13.64,0,0,1-4.9.83q-6.06,0-9.48-4a13.4,13.4,0,0,1-3.42-9,13.2,13.2,0,0,1,2.9-8.41,11.84,11.84,0,0,1,9.82-4.69,12.2,12.2,0,0,1,10.12,4.81,13.42,13.42,0,0,1,2.74,8.47h-22.3a10.08,10.08,0,0,0,2.76,7.08,8.8,8.8,0,0,0,6.59,2.76,10.54,10.54,0,0,0,3.68-.66,9.75,9.75,0,0,0,3.05-1.75A14.74,14.74,0,0,0,2613.86,718.11Zm0-6.68a10.61,10.61,0,0,0-1.86-4.07,8.71,8.71,0,0,0-3.23-2.46,9.73,9.73,0,0,0-4.21-.94,9.08,9.08,0,0,0-6.27,2.35,10.58,10.58,0,0,0-2.9,5.12Z" transform="translate(-55.04 -310.29)"/><path class="cls-10" d="M2637.33,691.35a2.53,2.53,0,0,1,1.86.77A2.58,2.58,0,0,1,2640,694a2.62,2.62,0,0,1-5.24,0,2.58,2.58,0,0,1,.77-1.87A2.5,2.5,0,0,1,2637.33,691.35Zm-1.58,10.2h3.19v24.78h-3.19Z" transform="translate(-55.04 -310.29)"/><path class="cls-10" d="M2645.56,701.55h3.19V706a13.49,13.49,0,0,1,4.24-3.82,10.42,10.42,0,0,1,5.05-1.26,8.76,8.76,0,0,1,4.93,1.41,8.35,8.35,0,0,1,3.18,3.81,20.1,20.1,0,0,1,1,7.44v12.76H2664V714.51a28.74,28.74,0,0,0-.36-5.72,6.27,6.27,0,0,0-2.12-3.7,6.42,6.42,0,0,0-4.1-1.24,7.91,7.91,0,0,0-5.19,1.91,9,9,0,0,0-3,4.74,32.4,32.4,0,0,0-.46,6.74v9.09h-3.19Z" transform="translate(-55.04 -310.29)"/><path class="cls-10" d="M2698.65,700.91a12.25,12.25,0,0,1,9.49,4.15,13.28,13.28,0,0,1-.19,18,13.09,13.09,0,0,1-18.62,0,13.28,13.28,0,0,1-.19-18A12.26,12.26,0,0,1,2698.65,700.91Zm0,3.12a9.18,9.18,0,0,0-6.83,2.94,9.81,9.81,0,0,0-2.86,7.11,10.17,10.17,0,0,0,1.3,5,9.32,9.32,0,0,0,3.52,3.58,10,10,0,0,0,9.74,0,9.25,9.25,0,0,0,3.52-3.58,10.07,10.07,0,0,0,1.3-5,9.78,9.78,0,0,0-2.87-7.11A9.19,9.19,0,0,0,2698.64,704Z" transform="translate(-55.04 -310.29)"/><path class="cls-10" d="M2727.67,692v3.12a7.9,7.9,0,0,0-3-.75,2.94,2.94,0,0,0-1.55.38,1.68,1.68,0,0,0-.77.86,11.78,11.78,0,0,0-.16,2.61v3.35h5.17v2.75h-5.17l0,22H2719v-22h-3.26v-2.75H2719v-3.87a10.46,10.46,0,0,1,.49-3.81,3.9,3.9,0,0,1,1.66-1.83,5.51,5.51,0,0,1,2.84-.69A13.61,13.61,0,0,1,2727.67,692Z" transform="translate(-55.04 -310.29)"/><path class="cls-10" d="M2742.31,692v3.12a7.9,7.9,0,0,0-3-.75,2.92,2.92,0,0,0-1.55.38,1.7,1.7,0,0,0-.78.86,12.78,12.78,0,0,0-.15,2.61v3.35H2742v2.75h-5.18l0,22h-3.19v-22h-3.25v-2.75h3.25v-3.87a10.69,10.69,0,0,1,.49-3.81,3.87,3.87,0,0,1,1.67-1.83,5.47,5.47,0,0,1,2.83-.69A13.61,13.61,0,0,1,2742.31,692Z" transform="translate(-55.04 -310.29)"/><path class="cls-10" d="M2767.62,718.11l2.69,1.41a14.7,14.7,0,0,1-3.06,4.19,12.18,12.18,0,0,1-3.9,2.43,13.64,13.64,0,0,1-4.9.83q-6.06,0-9.48-4a13.4,13.4,0,0,1-3.42-9,13.25,13.25,0,0,1,2.89-8.41,11.87,11.87,0,0,1,9.83-4.69,12.21,12.21,0,0,1,10.12,4.81,13.42,13.42,0,0,1,2.74,8.47h-22.3a10.08,10.08,0,0,0,2.76,7.08,8.8,8.8,0,0,0,6.59,2.76,10.54,10.54,0,0,0,3.68-.66,9.75,9.75,0,0,0,3-1.75A14.74,14.74,0,0,0,2767.62,718.11Zm0-6.68a10.61,10.61,0,0,0-1.86-4.07,8.71,8.71,0,0,0-3.23-2.46,9.74,9.74,0,0,0-4.22-.94,9.11,9.11,0,0,0-6.27,2.35,10.65,10.65,0,0,0-2.89,5.12Z" transform="translate(-55.04 -310.29)"/><path class="cls-10" d="M2775.86,701.55h3.26v3.62a11.41,11.41,0,0,1,3.08-3.2,6,6,0,0,1,3.37-1.06,5.81,5.81,0,0,1,2.82.84l-1.66,2.69A4.4,4.4,0,0,0,2785,704a4.61,4.61,0,0,0-3.07,1.31,8.29,8.29,0,0,0-2.26,4.06,39.45,39.45,0,0,0-.59,8.57v8.38h-3.26Z" transform="translate(-55.04 -310.29)"/><path class="cls-10" d="M2792.2,691.35a2.5,2.5,0,0,1,1.86.77,2.54,2.54,0,0,1,.77,1.87,2.62,2.62,0,0,1-5.23,0,2.54,2.54,0,0,1,.77-1.87A2.46,2.46,0,0,1,2792.2,691.35Zm-1.58,10.2h3.19v24.78h-3.19Z" transform="translate(-55.04 -310.29)"/><path class="cls-10" d="M2800.44,701.55h3.19V706a13.35,13.35,0,0,1,4.23-3.82,10.46,10.46,0,0,1,5.06-1.26,8.79,8.79,0,0,1,4.93,1.41,8.47,8.47,0,0,1,3.18,3.81,20.14,20.14,0,0,1,1,7.44v12.76h-3.19V714.51a29,29,0,0,0-.35-5.72,6.28,6.28,0,0,0-2.13-3.7,6.4,6.4,0,0,0-4.1-1.24,7.89,7.89,0,0,0-5.18,1.91,9,9,0,0,0-3,4.74,33.36,33.36,0,0,0-.45,6.74v9.09h-3.19Z" transform="translate(-55.04 -310.29)"/><path class="cls-10" d="M2850.25,701.55h3.19V721.3a23.44,23.44,0,0,1-.91,7.62,10,10,0,0,1-4.35,5.27,14.32,14.32,0,0,1-7.45,1.84,17.06,17.06,0,0,1-5.73-.9,11.46,11.46,0,0,1-4.13-2.42,14.3,14.3,0,0,1-2.94-4.45h3.46a9.15,9.15,0,0,0,3.65,3.65,11.73,11.73,0,0,0,5.54,1.18,11.48,11.48,0,0,0,5.51-1.21,7.52,7.52,0,0,0,3.2-3,13.62,13.62,0,0,0,1-5.94v-1.28a12.06,12.06,0,0,1-4.4,3.5,13.05,13.05,0,0,1-11.95-.48,12.06,12.06,0,0,1-4.65-4.56,12.88,12.88,0,0,1,11.17-19.16,11.81,11.81,0,0,1,5.19,1.15,14.4,14.4,0,0,1,4.64,3.79Zm-9.41,2.44a10,10,0,0,0-5,1.31,9.38,9.38,0,0,0-3.64,3.62,9.8,9.8,0,0,0-1.33,5,9,9,0,0,0,2.74,6.74,9.73,9.73,0,0,0,7.08,2.66,9.62,9.62,0,0,0,7.07-2.64,9.31,9.31,0,0,0,2.68-6.95,10.1,10.1,0,0,0-1.23-5,9,9,0,0,0-3.49-3.47A9.68,9.68,0,0,0,2840.84,704Z" transform="translate(-55.04 -310.29)"/><path class="cls-10" d="M2380.27,748.32h3.19v9.2h5.06v2.76h-5.06v22h-3.19v-22h-4.35v-2.76h4.35Z" transform="translate(-55.04 -310.29)"/><path class="cls-10" d="M2393.3,748h3.19v14a13.49,13.49,0,0,1,4.26-3.81,10.38,10.38,0,0,1,5-1.27,8.79,8.79,0,0,1,4.93,1.42,8.35,8.35,0,0,1,3.18,3.79,20.19,20.19,0,0,1,1,7.46V782.3h-3.18V770.48a29.7,29.7,0,0,0-.35-5.71,6.48,6.48,0,0,0-2.15-3.71,6.41,6.41,0,0,0-4.09-1.24,7.85,7.85,0,0,0-5.18,1.92,9,9,0,0,0-3,4.73,33.22,33.22,0,0,0-.45,6.74v9.09h-3.19Z" transform="translate(-55.04 -310.29)"/><path class="cls-10" d="M2420.54,757.52h3.26v3.62a11.53,11.53,0,0,1,3.07-3.2,6.11,6.11,0,0,1,3.37-1.06,5.9,5.9,0,0,1,2.83.85l-1.67,2.69a4.4,4.4,0,0,0-1.68-.44,4.65,4.65,0,0,0-3.08,1.31,8.32,8.32,0,0,0-2.25,4.07c-.4,1.41-.59,4.26-.59,8.56v8.38h-3.26Z" transform="translate(-55.04 -310.29)"/><path class="cls-10" d="M2447.51,756.88A12.3,12.3,0,0,1,2457,761a13.31,13.31,0,0,1-.2,18,13.1,13.1,0,0,1-18.61,0,13.28,13.28,0,0,1-.2-18A12.27,12.27,0,0,1,2447.51,756.88Zm0,3.12a9.2,9.2,0,0,0-6.84,2.94,9.85,9.85,0,0,0-2.86,7.11,10.07,10.07,0,0,0,1.31,5,9.21,9.21,0,0,0,3.52,3.59,10,10,0,0,0,9.73,0,9.28,9.28,0,0,0,3.52-3.59,10.07,10.07,0,0,0,1.31-5,9.82,9.82,0,0,0-2.87-7.11A9.22,9.22,0,0,0,2447.5,760Z" transform="translate(-55.04 -310.29)"/><path class="cls-10" d="M2465.91,757.52h3.19v11.57a25,25,0,0,0,.45,5.83,6.5,6.5,0,0,0,2.62,3.6,7.9,7.9,0,0,0,4.59,1.32,7.82,7.82,0,0,0,4.53-1.28,6.65,6.65,0,0,0,2.57-3.39,24.44,24.44,0,0,0,.47-6.08V757.52h3.26v12.16a19.45,19.45,0,0,1-1.19,7.73,9.16,9.16,0,0,1-3.6,4.06,13.12,13.12,0,0,1-12.07,0,9,9,0,0,1-3.63-4.1,20.15,20.15,0,0,1-1.19-7.91Z" transform="translate(-55.04 -310.29)"/><path class="cls-10" d="M2516,757.52h3.19v19.75a23.51,23.51,0,0,1-.91,7.63,9.93,9.93,0,0,1-4.36,5.26,14.26,14.26,0,0,1-7.44,1.84,17.06,17.06,0,0,1-5.73-.9,11.46,11.46,0,0,1-4.13-2.42,14.12,14.12,0,0,1-2.94-4.44h3.46a9.12,9.12,0,0,0,3.65,3.64,11.73,11.73,0,0,0,5.54,1.19,11.48,11.48,0,0,0,5.51-1.22,7.52,7.52,0,0,0,3.2-3.05,13.62,13.62,0,0,0,1-5.94v-1.27a12,12,0,0,1-4.4,3.49,12.75,12.75,0,0,1-5.52,1.22,12.9,12.9,0,0,1-6.43-1.69A12.09,12.09,0,0,1,2495,776a12.89,12.89,0,0,1,11.17-19.16,12,12,0,0,1,5.19,1.15,14.44,14.44,0,0,1,4.64,3.8Zm-9.41,2.44a10.09,10.09,0,0,0-5,1.31,9.47,9.47,0,0,0-3.65,3.62,9.92,9.92,0,0,0-1.32,5,9,9,0,0,0,2.74,6.74,9.7,9.7,0,0,0,7.08,2.67,9.59,9.59,0,0,0,7.07-2.65,9.33,9.33,0,0,0,2.68-6.94,10,10,0,0,0-1.23-5,9,9,0,0,0-3.49-3.48A9.68,9.68,0,0,0,2506.63,760Z" transform="translate(-55.04 -310.29)"/><path class="cls-10" d="M2526.06,748h3.19v14a13.49,13.49,0,0,1,4.26-3.81,10.38,10.38,0,0,1,5-1.27,8.79,8.79,0,0,1,4.93,1.42,8.41,8.41,0,0,1,3.18,3.79,20.19,20.19,0,0,1,1,7.46V782.3h-3.19V770.48a30,30,0,0,0-.34-5.71,6.48,6.48,0,0,0-2.15-3.71,6.41,6.41,0,0,0-4.09-1.24,7.85,7.85,0,0,0-5.18,1.92,8.94,8.94,0,0,0-3,4.73,33.22,33.22,0,0,0-.45,6.74v9.09h-3.19Z" transform="translate(-55.04 -310.29)"/><path class="cls-10" d="M2567.4,748h3.19v19.56l11.48-10h4.69l-13.62,11.82,14.41,13h-4.48l-12.48-11.15V782.3h-3.19Z" transform="translate(-55.04 -310.29)"/><path class="cls-10" d="M2590.83,757.52H2594V762a13.33,13.33,0,0,1,4.24-3.81,10.43,10.43,0,0,1,5-1.27,8.83,8.83,0,0,1,4.94,1.42,8.41,8.41,0,0,1,3.17,3.8,20,20,0,0,1,1,7.45V782.3h-3.19V770.48a28.62,28.62,0,0,0-.36-5.71,6.3,6.3,0,0,0-2.12-3.71,6.48,6.48,0,0,0-4.1-1.24,7.83,7.83,0,0,0-5.18,1.92,8.88,8.88,0,0,0-3,4.73,32.4,32.4,0,0,0-.46,6.74v9.09h-3.19Z" transform="translate(-55.04 -310.29)"/><path class="cls-10" d="M2631,756.88a12.28,12.28,0,0,1,9.49,4.15,13.32,13.32,0,0,1-.19,18,13.11,13.11,0,0,1-18.62,0,13.27,13.27,0,0,1-.19-18A12.26,12.26,0,0,1,2631,756.88Zm0,3.12a9.22,9.22,0,0,0-6.84,2.94,9.84,9.84,0,0,0-2.85,7.11,10.07,10.07,0,0,0,1.3,5,9.28,9.28,0,0,0,3.52,3.59,10,10,0,0,0,9.74,0,9.34,9.34,0,0,0,3.52-3.59,10.17,10.17,0,0,0,1.3-5,9.82,9.82,0,0,0-2.87-7.11A9.21,9.21,0,0,0,2631,760Z" transform="translate(-55.04 -310.29)"/><path class="cls-10" d="M2646.47,757.52h3.28l7.6,18,7.91-18h.57l8,18,7.75-18h3.31l-10.76,24.78h-.59l-7.93-17.74-7.92,17.74h-.59Z" transform="translate(-55.04 -310.29)"/><path class="cls-10" d="M2688.11,748h3.19V782.3h-3.19Z" transform="translate(-55.04 -310.29)"/><path class="cls-10" d="M2718.79,774.08l2.68,1.41a14.69,14.69,0,0,1-3,4.19,12.22,12.22,0,0,1-3.9,2.43,13.68,13.68,0,0,1-4.9.83q-6.06,0-9.48-4a13.42,13.42,0,0,1-3.42-9,13.24,13.24,0,0,1,2.89-8.4,11.84,11.84,0,0,1,9.83-4.7,12.24,12.24,0,0,1,10.12,4.81,13.43,13.43,0,0,1,2.73,8.47H2700a10.08,10.08,0,0,0,2.76,7.08,8.78,8.78,0,0,0,6.59,2.76,10.58,10.58,0,0,0,3.68-.66,9.57,9.57,0,0,0,3-1.74A15,15,0,0,0,2718.79,774.08Zm0-6.67a10.73,10.73,0,0,0-1.86-4.08,8.79,8.79,0,0,0-3.23-2.46,9.91,9.91,0,0,0-4.22-.93,9.1,9.1,0,0,0-6.27,2.34,10.56,10.56,0,0,0-2.89,5.13Z" transform="translate(-55.04 -310.29)"/><path class="cls-10" d="M2753,748V782.3h-3.14V778a13.68,13.68,0,0,1-4.5,3.67,12.57,12.57,0,0,1-14.44-2.58,12.82,12.82,0,0,1-3.72-9.29,12.53,12.53,0,0,1,3.76-9.15,12.23,12.23,0,0,1,9-3.81,11.77,11.77,0,0,1,5.52,1.3,12.67,12.67,0,0,1,4.34,3.9V748Zm-12.74,12a9.63,9.63,0,0,0-4.91,1.31,9.52,9.52,0,0,0-3.59,3.67,10,10,0,0,0,0,10,9.85,9.85,0,0,0,3.61,3.72,9.41,9.41,0,0,0,4.86,1.33,10,10,0,0,0,5-1.32,9.22,9.22,0,0,0,3.6-3.57A10.2,10.2,0,0,0,2750,770a9.85,9.85,0,0,0-2.84-7.19A9.36,9.36,0,0,0,2740.23,760Z" transform="translate(-55.04 -310.29)"/><path class="cls-10" d="M2781.56,757.52h3.19v19.75a23.18,23.18,0,0,1-.92,7.63,9.86,9.86,0,0,1-4.35,5.26A14.26,14.26,0,0,1,2772,792a17.06,17.06,0,0,1-5.73-.9,11.59,11.59,0,0,1-4.14-2.42,14.29,14.29,0,0,1-2.93-4.44h3.46a9.12,9.12,0,0,0,3.65,3.64,11.7,11.7,0,0,0,5.54,1.19,11.48,11.48,0,0,0,5.51-1.22,7.52,7.52,0,0,0,3.2-3.05,13.62,13.62,0,0,0,1-5.94v-1.27a12,12,0,0,1-4.4,3.49,13.09,13.09,0,0,1-11.95-.47,12.09,12.09,0,0,1-4.65-4.57,12.43,12.43,0,0,1-1.64-6.31,12.64,12.64,0,0,1,1.71-6.41,13,13,0,0,1,11.1-6.44,12,12,0,0,1,5.19,1.15,14.44,14.44,0,0,1,4.64,3.8Zm-9.41,2.44a10.09,10.09,0,0,0-5,1.31,9.47,9.47,0,0,0-3.65,3.62,9.92,9.92,0,0,0-1.32,5,9,9,0,0,0,2.74,6.74,9.7,9.7,0,0,0,7.08,2.67,9.59,9.59,0,0,0,7.07-2.65,9.33,9.33,0,0,0,2.68-6.94,10,10,0,0,0-1.23-5,9,9,0,0,0-3.49-3.48A9.68,9.68,0,0,0,2772.15,760Z" transform="translate(-55.04 -310.29)"/><path class="cls-10" d="M2812.44,774.08l2.69,1.41a14.52,14.52,0,0,1-3.06,4.19,12.07,12.07,0,0,1-3.89,2.43,13.74,13.74,0,0,1-4.91.83q-6.06,0-9.48-4a13.42,13.42,0,0,1-3.42-9,13.25,13.25,0,0,1,2.9-8.4,11.82,11.82,0,0,1,9.82-4.7,12.23,12.23,0,0,1,10.12,4.81,13.38,13.38,0,0,1,2.74,8.47h-22.3a10.08,10.08,0,0,0,2.76,7.08A8.81,8.81,0,0,0,2803,780a10.54,10.54,0,0,0,3.68-.66,9.62,9.62,0,0,0,3.05-1.74A15,15,0,0,0,2812.44,774.08Zm0-6.67a10.44,10.44,0,0,0-1.86-4.08,8.75,8.75,0,0,0-3.22-2.46,10,10,0,0,0-4.22-.93,9.07,9.07,0,0,0-6.27,2.34,10.57,10.57,0,0,0-2.9,5.13Z" transform="translate(-55.04 -310.29)"/><path class="cls-10" d="M2583,813.5v24.78h-3.15V834a13.57,13.57,0,0,1-4.5,3.66,12.56,12.56,0,0,1-14.43-2.58,12.77,12.77,0,0,1-3.73-9.28,12.55,12.55,0,0,1,3.76-9.16,12.26,12.26,0,0,1,9-3.8,11.59,11.59,0,0,1,5.52,1.3,12.44,12.44,0,0,1,4.34,3.89V813.5Zm-12.75,2.43a9.63,9.63,0,0,0-4.91,1.31,9.53,9.53,0,0,0-3.58,3.68,10,10,0,0,0,0,10,9.62,9.62,0,0,0,3.6,3.72,9.42,9.42,0,0,0,4.86,1.34,10,10,0,0,0,5-1.32,9.27,9.27,0,0,0,3.61-3.58A10.2,10.2,0,0,0,2580,826a9.91,9.91,0,0,0-2.83-7.19A9.42,9.42,0,0,0,2570.23,815.93Z" transform="translate(-55.04 -310.29)"/><path class="cls-10" d="M2590.15,813.5h3.19v4.44a13.34,13.34,0,0,1,4.23-3.82,10.46,10.46,0,0,1,5.06-1.26,8.79,8.79,0,0,1,4.93,1.41,8.37,8.37,0,0,1,3.18,3.8,20.24,20.24,0,0,1,1,7.45v12.76h-3.18V826.46a28.74,28.74,0,0,0-.36-5.72,6.28,6.28,0,0,0-2.13-3.7,6.38,6.38,0,0,0-4.1-1.24,7.86,7.86,0,0,0-5.18,1.91,9,9,0,0,0-3,4.74,33.29,33.29,0,0,0-.45,6.74v9.09h-3.19Z" transform="translate(-55.04 -310.29)"/><path class="cls-10" d="M2643.33,803.93v34.35h-3.14V834a13.77,13.77,0,0,1-4.5,3.66,12.57,12.57,0,0,1-14.44-2.58,12.8,12.8,0,0,1-3.72-9.28,12.58,12.58,0,0,1,3.75-9.16,12.29,12.29,0,0,1,9-3.8,11.65,11.65,0,0,1,5.52,1.3,12.53,12.53,0,0,1,4.34,3.89V803.93Zm-12.74,12a9.6,9.6,0,0,0-8.5,5,10,10,0,0,0-1.33,5,10.11,10.11,0,0,0,1.34,5,9.71,9.71,0,0,0,3.61,3.72,9.42,9.42,0,0,0,4.86,1.34,10,10,0,0,0,5-1.32,9.18,9.18,0,0,0,3.6-3.58,10.2,10.2,0,0,0,1.26-5.07,9.87,9.87,0,0,0-2.83-7.19A9.4,9.4,0,0,0,2630.59,815.93Z" transform="translate(-55.04 -310.29)"/><path class="cls-10" d="M2455,869.47h3.19V874a12.84,12.84,0,0,1,4.35-3.89,11.49,11.49,0,0,1,5.48-1.3,12.24,12.24,0,0,1,9,3.8,12.55,12.55,0,0,1,3.76,9.16,12.78,12.78,0,0,1-3.72,9.28,12.53,12.53,0,0,1-14.42,2.59,13.85,13.85,0,0,1-4.48-3.67v13.32H2455Zm12.76,2.44a9.36,9.36,0,0,0-7,2.89A9.87,9.87,0,0,0,2458,882a10.21,10.21,0,0,0,1.26,5.08,9.21,9.21,0,0,0,3.62,3.57,10,10,0,0,0,5,1.32,9.35,9.35,0,0,0,4.83-1.33,9.75,9.75,0,0,0,3.6-3.72,10,10,0,0,0,0-10,9.57,9.57,0,0,0-8.48-5Z" transform="translate(-55.04 -310.29)"/><path class="cls-10" d="M2507.66,886l2.68,1.41a14.69,14.69,0,0,1-3.05,4.19,12.4,12.4,0,0,1-3.9,2.43,13.68,13.68,0,0,1-4.9.83q-6.06,0-9.48-4a13.4,13.4,0,0,1-3.42-9,13.25,13.25,0,0,1,2.89-8.41,11.86,11.86,0,0,1,9.83-4.69,12.21,12.21,0,0,1,10.12,4.81,13.41,13.41,0,0,1,2.73,8.47h-22.29a10.08,10.08,0,0,0,2.76,7.08,8.78,8.78,0,0,0,6.59,2.76,10.54,10.54,0,0,0,3.68-.66,9.59,9.59,0,0,0,3-1.75A14.73,14.73,0,0,0,2507.66,886Zm0-6.68a10.61,10.61,0,0,0-1.86-4.07,8.79,8.79,0,0,0-3.23-2.46,9.78,9.78,0,0,0-4.22-.94,9.11,9.11,0,0,0-6.27,2.35,10.57,10.57,0,0,0-2.89,5.12Z" transform="translate(-55.04 -310.29)"/><path class="cls-10" d="M2515.9,869.47h3.26v3.62a11.53,11.53,0,0,1,3.07-3.2,6,6,0,0,1,3.37-1.06,5.85,5.85,0,0,1,2.83.84l-1.66,2.69a4.4,4.4,0,0,0-1.69-.43,4.61,4.61,0,0,0-3.07,1.31,8.29,8.29,0,0,0-2.26,4.06,39.45,39.45,0,0,0-.59,8.57v8.38h-3.26Z" transform="translate(-55.04 -310.29)"/><path class="cls-10" d="M2543.6,872.18l-2,2.12q-2.57-2.49-5-2.49a3.77,3.77,0,0,0-2.66,1,3.16,3.16,0,0,0-1.11,2.39,3.52,3.52,0,0,0,.91,2.3,12.71,12.71,0,0,0,3.84,2.62,14.26,14.26,0,0,1,4.83,3.55,6.49,6.49,0,0,1,1.26,3.9,7,7,0,0,1-2.15,5.17,7.32,7.32,0,0,1-5.36,2.12A9.25,9.25,0,0,1,2532,894a8.89,8.89,0,0,1-3.23-2.57l2-2.28a6.94,6.94,0,0,0,5.18,2.76,4.66,4.66,0,0,0,3.26-1.23,3.8,3.8,0,0,0,1.35-2.89,3.71,3.71,0,0,0-.89-2.44,14.11,14.11,0,0,0-4-2.64,13,13,0,0,1-4.56-3.42,6.41,6.41,0,0,1-1.21-3.85,6.24,6.24,0,0,1,1.93-4.69,6.67,6.67,0,0,1,4.87-1.87C2539,868.83,2541.28,870,2543.6,872.18Z" transform="translate(-55.04 -310.29)"/><path class="cls-10" d="M2570.11,886l2.69,1.41a14.7,14.7,0,0,1-3.06,4.19,12.18,12.18,0,0,1-3.9,2.43,13.68,13.68,0,0,1-4.9.83q-6.06,0-9.48-4a13.4,13.4,0,0,1-3.42-9,13.25,13.25,0,0,1,2.89-8.41,11.87,11.87,0,0,1,9.83-4.69,12.21,12.21,0,0,1,10.12,4.81,13.48,13.48,0,0,1,2.74,8.47h-22.3a10.08,10.08,0,0,0,2.76,7.08,8.8,8.8,0,0,0,6.59,2.76,10.54,10.54,0,0,0,3.68-.66,9.59,9.59,0,0,0,3-1.75A14.73,14.73,0,0,0,2570.11,886Zm0-6.68a10.61,10.61,0,0,0-1.86-4.07,8.71,8.71,0,0,0-3.23-2.46,9.78,9.78,0,0,0-4.22-.94,9.11,9.11,0,0,0-6.27,2.35,10.65,10.65,0,0,0-2.89,5.12Z" transform="translate(-55.04 -310.29)"/><path class="cls-10" d="M2577.21,869.47h3.4l8.31,18.06,8.22-18.06h3.42l-11.34,24.78h-.6Z" transform="translate(-55.04 -310.29)"/><path class="cls-10" d="M2626.27,886l2.69,1.41a14.52,14.52,0,0,1-3.06,4.19,12.25,12.25,0,0,1-3.89,2.43,13.72,13.72,0,0,1-4.9.83q-6.08,0-9.49-4a13.4,13.4,0,0,1-3.42-9,13.26,13.26,0,0,1,2.9-8.41,11.84,11.84,0,0,1,9.82-4.69,12.2,12.2,0,0,1,10.12,4.81,13.36,13.36,0,0,1,2.74,8.47h-22.3a10.08,10.08,0,0,0,2.76,7.08,8.81,8.81,0,0,0,6.59,2.76,10.54,10.54,0,0,0,3.68-.66,9.64,9.64,0,0,0,3-1.75A14.74,14.74,0,0,0,2626.27,886Zm0-6.68a10.32,10.32,0,0,0-1.86-4.07,8.75,8.75,0,0,0-3.22-2.46,9.81,9.81,0,0,0-4.22-.94,9.11,9.11,0,0,0-6.27,2.35,10.58,10.58,0,0,0-2.9,5.12Z" transform="translate(-55.04 -310.29)"/><path class="cls-10" d="M2634.52,869.47h3.25v3.62a11.55,11.55,0,0,1,3.08-3.2,6,6,0,0,1,3.37-1.06,5.81,5.81,0,0,1,2.82.84l-1.66,2.69a4.4,4.4,0,0,0-1.68-.43,4.63,4.63,0,0,0-3.08,1.31,8.2,8.2,0,0,0-2.25,4.06,38.59,38.59,0,0,0-.6,8.57v8.38h-3.25Z" transform="translate(-55.04 -310.29)"/><path class="cls-10" d="M2674.44,869.47v24.78h-3.14V890a13.81,13.81,0,0,1-4.5,3.67,12.56,12.56,0,0,1-14.44-2.59,12.78,12.78,0,0,1-3.72-9.28,12.55,12.55,0,0,1,3.76-9.16,12.26,12.26,0,0,1,9-3.8,11.65,11.65,0,0,1,5.52,1.3,12.63,12.63,0,0,1,4.34,3.89v-4.55Zm-12.74,2.44a9.6,9.6,0,0,0-8.5,5,10,10,0,0,0,0,10,9.85,9.85,0,0,0,3.61,3.72,9.41,9.41,0,0,0,4.86,1.33,10,10,0,0,0,5-1.32,9.22,9.22,0,0,0,3.6-3.57,10.21,10.21,0,0,0,1.26-5.08,9.83,9.83,0,0,0-2.83-7.18A9.36,9.36,0,0,0,2661.7,871.91Z" transform="translate(-55.04 -310.29)"/><path class="cls-10" d="M2681.62,869.47h3.19v4.44a13.2,13.2,0,0,1,4.23-3.81,10.36,10.36,0,0,1,5.06-1.27,8.81,8.81,0,0,1,4.93,1.41,8.52,8.52,0,0,1,3.18,3.81,20.14,20.14,0,0,1,1,7.44v12.76H2700V882.43a29.82,29.82,0,0,0-.35-5.72,6.28,6.28,0,0,0-2.13-3.7,6.4,6.4,0,0,0-4.1-1.24,7.89,7.89,0,0,0-5.18,1.91,9,9,0,0,0-3,4.74,33.36,33.36,0,0,0-.45,6.74v9.09h-3.19Z" transform="translate(-55.04 -310.29)"/><path class="cls-10" d="M2734.12,874.62l-2.53,1.57a10.6,10.6,0,0,0-8.94-4.35,10.34,10.34,0,0,0-7.52,2.91,9.48,9.48,0,0,0-3,7.07,10,10,0,0,0,1.37,5.1,9.7,9.7,0,0,0,3.78,3.71,11.42,11.42,0,0,0,14.3-3l2.53,1.66a12,12,0,0,1-4.78,4.15,15.13,15.13,0,0,1-6.82,1.48,13.49,13.49,0,0,1-9.75-3.74,12.16,12.16,0,0,1-3.87-9.09,13.06,13.06,0,0,1,1.81-6.68,12.82,12.82,0,0,1,5-4.82,14.55,14.55,0,0,1,7.08-1.73,15.13,15.13,0,0,1,4.75.75,13.19,13.19,0,0,1,3.88,2A10.69,10.69,0,0,1,2734.12,874.62Z" transform="translate(-55.04 -310.29)"/><path class="cls-10" d="M2761.1,886l2.69,1.41a14.69,14.69,0,0,1-3.05,4.19,12.4,12.4,0,0,1-3.9,2.43,13.72,13.72,0,0,1-4.9.83q-6.08,0-9.49-4a13.4,13.4,0,0,1-3.42-9,13.26,13.26,0,0,1,2.9-8.41,11.85,11.85,0,0,1,9.82-4.69,12.23,12.23,0,0,1,10.13,4.81,13.41,13.41,0,0,1,2.73,8.47h-22.3a10.12,10.12,0,0,0,2.76,7.08,8.81,8.81,0,0,0,6.59,2.76,10.64,10.64,0,0,0,3.69-.66,9.7,9.7,0,0,0,3-1.75A14.48,14.48,0,0,0,2761.1,886Zm0-6.68a10.46,10.46,0,0,0-1.85-4.07,8.79,8.79,0,0,0-3.23-2.46,9.81,9.81,0,0,0-4.22-.94,9.11,9.11,0,0,0-6.27,2.35,10.66,10.66,0,0,0-2.9,5.12Z" transform="translate(-55.04 -310.29)"/><path class="cls-10" d="M3142,753.33v-33.5H3149q7.51,0,10.91,1.2a14.63,14.63,0,0,1,7.62,5.92,18,18,0,0,1,2.75,10,17.63,17.63,0,0,1-2.18,8.86,14,14,0,0,1-5.65,5.65c-2.31,1.21-5.56,1.82-9.73,1.82Zm3.21-3.17h3.87q6.95,0,9.63-.86a11.13,11.13,0,0,0,5.95-4.43,13.64,13.64,0,0,0,2.16-7.81,14.36,14.36,0,0,0-2.34-8.29,11.86,11.86,0,0,0-6.54-4.71c-2.09-.64-5.55-.95-10.36-.95h-2.37Z" transform="translate(-55.04 -310.29)"/><path class="cls-10" d="M3200.89,728.55v24.78h-3.14v-4.26a13.81,13.81,0,0,1-4.5,3.67,12.56,12.56,0,0,1-14.44-2.59,12.8,12.8,0,0,1-3.72-9.28,12.55,12.55,0,0,1,3.76-9.16,12.25,12.25,0,0,1,9-3.8,11.65,11.65,0,0,1,5.52,1.3,12.53,12.53,0,0,1,4.34,3.89v-4.55ZM3188.15,731a9.6,9.6,0,0,0-8.5,5,10,10,0,0,0-1.33,5,10.12,10.12,0,0,0,1.34,5,9.85,9.85,0,0,0,3.61,3.72,9.5,9.5,0,0,0,4.86,1.33,10,10,0,0,0,5-1.32,9.22,9.22,0,0,0,3.6-3.57,10.23,10.23,0,0,0,1.26-5.08,9.83,9.83,0,0,0-2.83-7.18A9.36,9.36,0,0,0,3188.15,731Z" transform="translate(-55.04 -310.29)"/><path class="cls-10" d="M3210.85,719.35H3214v9.2h5.06v2.75H3214v22h-3.18v-22h-4.35v-2.75h4.35Z" transform="translate(-55.04 -310.29)"/><path class="cls-10" d="M3248.56,728.55v24.78h-3.14v-4.26a13.81,13.81,0,0,1-4.5,3.67,12.56,12.56,0,0,1-14.44-2.59,12.8,12.8,0,0,1-3.72-9.28,12.55,12.55,0,0,1,3.76-9.16,12.25,12.25,0,0,1,9-3.8,11.65,11.65,0,0,1,5.52,1.3,12.53,12.53,0,0,1,4.34,3.89v-4.55ZM3235.82,731a9.6,9.6,0,0,0-8.5,5,10,10,0,0,0-1.33,5,10.12,10.12,0,0,0,1.34,5,9.85,9.85,0,0,0,3.61,3.72,9.5,9.5,0,0,0,4.86,1.33,10,10,0,0,0,5-1.32,9.22,9.22,0,0,0,3.6-3.57,10.23,10.23,0,0,0,1.26-5.08,9.83,9.83,0,0,0-2.83-7.18A9.36,9.36,0,0,0,3235.82,731Z" transform="translate(-55.04 -310.29)"/><path class="cls-10" d="M3269.75,718.35a2.5,2.5,0,0,1,1.86.77,2.54,2.54,0,0,1,.77,1.87,2.62,2.62,0,0,1-5.23,0,2.54,2.54,0,0,1,.77-1.87A2.46,2.46,0,0,1,3269.75,718.35Zm-1.58,10.2h3.19v24.78h-3.19Z" transform="translate(-55.04 -310.29)"/><path class="cls-10" d="M3278,728.55h3.19V733a13.35,13.35,0,0,1,4.23-3.82,10.46,10.46,0,0,1,5.06-1.26,8.79,8.79,0,0,1,4.93,1.41,8.47,8.47,0,0,1,3.18,3.81,20.14,20.14,0,0,1,1,7.44v12.76h-3.19V741.51a29,29,0,0,0-.35-5.72,6.28,6.28,0,0,0-2.13-3.7,6.38,6.38,0,0,0-4.1-1.24,7.89,7.89,0,0,0-5.18,1.91,9,9,0,0,0-3,4.74,33.36,33.36,0,0,0-.45,6.74v9.09H3278Z" transform="translate(-55.04 -310.29)"/><path class="cls-10" d="M3316.64,719v3.12a7.9,7.9,0,0,0-3-.75,2.94,2.94,0,0,0-1.55.38,1.68,1.68,0,0,0-.77.86,11.78,11.78,0,0,0-.16,2.61v3.35h5.17v2.75h-5.18v22h-3.19v-22h-3.26v-2.75h3.26v-3.87a10.46,10.46,0,0,1,.49-3.81,3.85,3.85,0,0,1,1.66-1.83,5.51,5.51,0,0,1,2.84-.69A13.61,13.61,0,0,1,3316.64,719Z" transform="translate(-55.04 -310.29)"/><path class="cls-10" d="M3332.81,727.91a12.25,12.25,0,0,1,9.49,4.15,13.31,13.31,0,0,1-.19,18,13.09,13.09,0,0,1-18.62,0,13.27,13.27,0,0,1-.2-18A12.28,12.28,0,0,1,3332.81,727.91Zm0,3.12A9.22,9.22,0,0,0,3326,734a9.84,9.84,0,0,0-2.85,7.11,10.07,10.07,0,0,0,1.3,5,9.25,9.25,0,0,0,3.52,3.58,10,10,0,0,0,9.74,0,9.32,9.32,0,0,0,3.52-3.58,10.17,10.17,0,0,0,1.3-5,9.82,9.82,0,0,0-2.87-7.11A9.21,9.21,0,0,0,3332.8,731Z" transform="translate(-55.04 -310.29)"/><path class="cls-10" d="M3350.42,728.55h3.25v3.62a11.41,11.41,0,0,1,3.08-3.2,6,6,0,0,1,3.37-1.06,5.81,5.81,0,0,1,2.82.84l-1.66,2.69a4.4,4.4,0,0,0-1.69-.43,4.63,4.63,0,0,0-3.07,1.31,8.29,8.29,0,0,0-2.26,4.06,39.45,39.45,0,0,0-.59,8.57v8.38h-3.25Z" transform="translate(-55.04 -310.29)"/><path class="cls-10" d="M3365.63,728.55h3.19v4.28a12.35,12.35,0,0,1,3.42-3.46,9.69,9.69,0,0,1,5.08-1.46,8.48,8.48,0,0,1,3.42.71,7.32,7.32,0,0,1,2.65,1.88,10.08,10.08,0,0,1,1.78,3.36,11.71,11.71,0,0,1,4-4.43,9.43,9.43,0,0,1,5.14-1.52,8,8,0,0,1,4.53,1.3,7.73,7.73,0,0,1,2.92,3.62,19.25,19.25,0,0,1,.95,7v13.53h-3.25V739.8a17.63,17.63,0,0,0-.57-5.48,5,5,0,0,0-1.94-2.4,5.79,5.79,0,0,0-3.28-.91,7.06,7.06,0,0,0-4.23,1.37,7.84,7.84,0,0,0-2.81,3.64c-.59,1.52-.88,4.05-.88,7.61v9.7h-3.19V740.64a21.81,21.81,0,0,0-.56-6.09A5,5,0,0,0,3380,732a5.57,5.57,0,0,0-3.3-1,7.1,7.1,0,0,0-4.13,1.33,7.8,7.8,0,0,0-2.85,3.59,19.2,19.2,0,0,0-.92,6.9v10.5h-3.19Z" transform="translate(-55.04 -310.29)"/><path class="cls-10" d="M3434.09,728.55v24.78H3431v-4.26a13.81,13.81,0,0,1-4.5,3.67,12.56,12.56,0,0,1-14.44-2.59,12.8,12.8,0,0,1-3.72-9.28,12.55,12.55,0,0,1,3.76-9.16,12.25,12.25,0,0,1,9-3.8,11.65,11.65,0,0,1,5.52,1.3,12.53,12.53,0,0,1,4.34,3.89v-4.55ZM3421.35,731a9.6,9.6,0,0,0-8.5,5,10,10,0,0,0-1.33,5,10.12,10.12,0,0,0,1.34,5,9.85,9.85,0,0,0,3.61,3.72,9.5,9.5,0,0,0,4.86,1.33,10,10,0,0,0,5-1.32,9.22,9.22,0,0,0,3.6-3.57,10.23,10.23,0,0,0,1.26-5.08,9.83,9.83,0,0,0-2.83-7.18A9.36,9.36,0,0,0,3421.35,731Z" transform="translate(-55.04 -310.29)"/><path class="cls-10" d="M3444.05,719.35h3.18v9.2h5.06v2.75h-5.06v22h-3.18v-22h-4.35v-2.75h4.35Z" transform="translate(-55.04 -310.29)"/><path class="cls-10" d="M3458.18,718.35a2.53,2.53,0,0,1,1.86.77,2.58,2.58,0,0,1,.77,1.87,2.62,2.62,0,0,1-5.24,0,2.58,2.58,0,0,1,.77-1.87A2.5,2.5,0,0,1,3458.18,718.35Zm-1.58,10.2h3.18v24.78h-3.18Z" transform="translate(-55.04 -310.29)"/><path class="cls-10" d="M3478.14,727.91a12.25,12.25,0,0,1,9.49,4.15,13.31,13.31,0,0,1-.19,18,13.09,13.09,0,0,1-18.62,0,13.25,13.25,0,0,1-.19-18A12.26,12.26,0,0,1,3478.14,727.91Zm0,3.12a9.22,9.22,0,0,0-6.84,2.94,9.84,9.84,0,0,0-2.85,7.11,10.07,10.07,0,0,0,1.3,5,9.25,9.25,0,0,0,3.52,3.58,10,10,0,0,0,9.74,0,9.25,9.25,0,0,0,3.52-3.58,10.07,10.07,0,0,0,1.3-5A9.82,9.82,0,0,0,3485,734,9.19,9.19,0,0,0,3478.13,731Z" transform="translate(-55.04 -310.29)"/><path class="cls-10" d="M3497,728.55h3.19V733a13.49,13.49,0,0,1,4.24-3.82,10.42,10.42,0,0,1,5-1.26,8.82,8.82,0,0,1,4.94,1.41,8.39,8.39,0,0,1,3.17,3.81,19.89,19.89,0,0,1,1,7.44v12.76h-3.19V741.51a28.74,28.74,0,0,0-.36-5.72,6.27,6.27,0,0,0-2.12-3.7,6.42,6.42,0,0,0-4.1-1.24,7.87,7.87,0,0,0-5.18,1.91,8.94,8.94,0,0,0-3,4.74,32.4,32.4,0,0,0-.46,6.74v9.09H3497Z" transform="translate(-55.04 -310.29)"/><path class="cls-10" d="M3204.29,789.67l-2.53,1.57a10.6,10.6,0,0,0-8.94-4.35,10.34,10.34,0,0,0-7.52,2.91,9.48,9.48,0,0,0-3,7.08,10.1,10.1,0,0,0,1.37,5.09,9.63,9.63,0,0,0,3.78,3.71,11.42,11.42,0,0,0,14.3-3l2.53,1.66a11.9,11.9,0,0,1-4.78,4.15,15.13,15.13,0,0,1-6.82,1.48,13.43,13.43,0,0,1-9.74-3.74,12.11,12.11,0,0,1-3.88-9.08,13.07,13.07,0,0,1,1.81-6.69,12.79,12.79,0,0,1,5-4.81,14.45,14.45,0,0,1,7.08-1.74,15.14,15.14,0,0,1,4.75.76,13.37,13.37,0,0,1,3.89,2A10.81,10.81,0,0,1,3204.29,789.67Z" transform="translate(-55.04 -310.29)"/><path class="cls-10" d="M3222.14,783.88a12.28,12.28,0,0,1,9.49,4.15,13.29,13.29,0,0,1-.19,18,13.11,13.11,0,0,1-18.62,0,13.3,13.3,0,0,1-.19-18A12.26,12.26,0,0,1,3222.14,783.88Zm0,3.12a9.18,9.18,0,0,0-6.83,2.94,9.81,9.81,0,0,0-2.86,7.11,10.07,10.07,0,0,0,1.3,5,9.28,9.28,0,0,0,3.52,3.59,10,10,0,0,0,9.74,0,9.28,9.28,0,0,0,3.52-3.59,10.07,10.07,0,0,0,1.3-5,9.78,9.78,0,0,0-2.87-7.11A9.19,9.19,0,0,0,3222.13,787Z" transform="translate(-55.04 -310.29)"/><path class="cls-10" d="M3241,784.52h3.18V789a13.33,13.33,0,0,1,4.24-3.81,10.44,10.44,0,0,1,5.06-1.27,8.82,8.82,0,0,1,4.93,1.42,8.41,8.41,0,0,1,3.17,3.8,20,20,0,0,1,1,7.45V809.3h-3.19V797.48a29.7,29.7,0,0,0-.35-5.71,6.31,6.31,0,0,0-2.13-3.71,6.46,6.46,0,0,0-4.1-1.24,7.83,7.83,0,0,0-5.18,1.92,8.88,8.88,0,0,0-3,4.73,33.14,33.14,0,0,0-.46,6.74v9.09H3241Z" transform="translate(-55.04 -310.29)"/><path class="cls-10" d="M3279.61,775v3.12a7.94,7.94,0,0,0-3-.75,2.94,2.94,0,0,0-1.55.37,1.62,1.62,0,0,0-.77.87,11.6,11.6,0,0,0-.16,2.6v3.35h5.18v2.76h-5.18l0,22h-3.18v-22h-3.26v-2.76h3.26v-3.87a10.67,10.67,0,0,1,.48-3.8,4,4,0,0,1,1.67-1.84,5.47,5.47,0,0,1,2.83-.69A13.41,13.41,0,0,1,3279.61,775Z" transform="translate(-55.04 -310.29)"/><path class="cls-10" d="M3285.15,774.32a2.54,2.54,0,0,1,1.86.77,2.63,2.63,0,0,1,0,3.72,2.61,2.61,0,0,1-3.7,0,2.63,2.63,0,0,1,1.84-4.49Zm-1.58,10.2h3.19V809.3h-3.19Z" transform="translate(-55.04 -310.29)"/><path class="cls-10" d="M3318.12,775V809.3H3315V805a13.68,13.68,0,0,1-4.5,3.67,12.57,12.57,0,0,1-14.44-2.58,12.79,12.79,0,0,1-3.73-9.29,12.57,12.57,0,0,1,3.76-9.15,12.25,12.25,0,0,1,9-3.81,11.78,11.78,0,0,1,5.53,1.3,12.76,12.76,0,0,1,4.34,3.9V775Zm-12.74,12a9.62,9.62,0,0,0-8.5,5,10,10,0,0,0,0,10,9.78,9.78,0,0,0,3.61,3.72,9.34,9.34,0,0,0,4.85,1.33,9.93,9.93,0,0,0,5-1.32,9.25,9.25,0,0,0,3.61-3.57,10.2,10.2,0,0,0,1.26-5.07,9.84,9.84,0,0,0-2.83-7.19A9.36,9.36,0,0,0,3305.38,787Z" transform="translate(-55.04 -310.29)"/><path class="cls-10" d="M3346.2,801.08l2.69,1.41a14.52,14.52,0,0,1-3.06,4.19,12.07,12.07,0,0,1-3.89,2.43,13.72,13.72,0,0,1-4.9.83q-6.08,0-9.49-4a13.42,13.42,0,0,1-3.42-9,13.25,13.25,0,0,1,2.9-8.4,11.82,11.82,0,0,1,9.82-4.7,12.23,12.23,0,0,1,10.12,4.81,13.38,13.38,0,0,1,2.74,8.47h-22.3a10.08,10.08,0,0,0,2.76,7.08,8.81,8.81,0,0,0,6.59,2.76,10.54,10.54,0,0,0,3.68-.66,9.62,9.62,0,0,0,3-1.74A15,15,0,0,0,3346.2,801.08Zm0-6.67a10.44,10.44,0,0,0-1.86-4.08,8.75,8.75,0,0,0-3.22-2.46,10,10,0,0,0-4.22-.93,9.09,9.09,0,0,0-6.27,2.34,10.57,10.57,0,0,0-2.9,5.13Z" transform="translate(-55.04 -310.29)"/><path class="cls-10" d="M3355.65,784.52h3.19V789a13.33,13.33,0,0,1,4.24-3.81,10.43,10.43,0,0,1,5.05-1.27,8.83,8.83,0,0,1,4.94,1.42,8.41,8.41,0,0,1,3.17,3.8,20,20,0,0,1,1,7.45V809.3h-3.19V797.48a28.62,28.62,0,0,0-.36-5.71,6.3,6.3,0,0,0-2.12-3.71,6.48,6.48,0,0,0-4.1-1.24,7.83,7.83,0,0,0-5.18,1.92,8.88,8.88,0,0,0-3,4.73,32.4,32.4,0,0,0-.46,6.74v9.09h-3.19Z" transform="translate(-55.04 -310.29)"/><path class="cls-10" d="M3386.88,775.32h3.19v9.2h5v2.76h-5v22h-3.19v-22h-4.35v-2.76h4.35Z" transform="translate(-55.04 -310.29)"/><path class="cls-10" d="M3401,774.32a2.54,2.54,0,0,1,1.86.77,2.63,2.63,0,0,1,0,3.72,2.61,2.61,0,0,1-3.7,0,2.63,2.63,0,0,1,1.84-4.49Zm-1.58,10.2h3.19V809.3h-3.19Z" transform="translate(-55.04 -310.29)"/><path class="cls-10" d="M3433.93,784.52V809.3h-3.14V805a13.58,13.58,0,0,1-4.5,3.67,12.57,12.57,0,0,1-14.44-2.58,12.82,12.82,0,0,1-3.72-9.29,12.53,12.53,0,0,1,3.76-9.15,12.23,12.23,0,0,1,9-3.81,11.77,11.77,0,0,1,5.52,1.3,12.67,12.67,0,0,1,4.34,3.9v-4.56ZM3421.19,787a9.63,9.63,0,0,0-4.91,1.31,9.52,9.52,0,0,0-3.59,3.67,10,10,0,0,0,0,10,9.85,9.85,0,0,0,3.61,3.72,9.41,9.41,0,0,0,4.86,1.33,10,10,0,0,0,5-1.32,9.22,9.22,0,0,0,3.6-3.57A10.2,10.2,0,0,0,3431,797a9.85,9.85,0,0,0-2.84-7.19A9.36,9.36,0,0,0,3421.19,787Z" transform="translate(-55.04 -310.29)"/><path class="cls-10" d="M3440.63,775h3.19V809.3h-3.19Z" transform="translate(-55.04 -310.29)"/><path class="cls-10" d="M3451.55,774.32a2.54,2.54,0,0,1,1.86.77,2.63,2.63,0,0,1,0,3.72,2.61,2.61,0,0,1-3.7,0,2.63,2.63,0,0,1,1.84-4.49Zm-1.58,10.2h3.19V809.3H3450Z" transform="translate(-55.04 -310.29)"/><path class="cls-10" d="M3462.56,775.32h3.19v9.2h5.06v2.76h-5.06v22h-3.19v-22h-4.35v-2.76h4.35Z" transform="translate(-55.04 -310.29)"/><path class="cls-10" d="M3472.93,784.52h3.37l8.51,19.08,8.27-19.08h3.4l-14.79,33.85h-3.36l4.77-10.94Z" transform="translate(-55.04 -310.29)"/><path class="cls-10" d="M3504.11,804.29a2.7,2.7,0,0,1,2,.82,2.85,2.85,0,0,1,0,4,2.79,2.79,0,0,1-4,0,2.85,2.85,0,0,1,0-4A2.7,2.7,0,0,1,3504.11,804.29Z" transform="translate(-55.04 -310.29)"/></svg>