<svg id="_Layer_" data-name="&lt;Layer&gt;" xmlns="http://www.w3.org/2000/svg" xmlns:xlink="http://www.w3.org/1999/xlink" viewBox="0 0 555.78 450"><defs><style>.cls-1{fill:none;}.cls-2{fill:#fcecdb;}.cls-3{fill:#163560;}.cls-4{fill:#ed975d;}.cls-5{fill:#ed7d2b;}.cls-6{fill:#599dad;}.cls-7{fill:#6bb7bf;}.cls-8{fill:#5aa9ad;}.cls-9{fill:#ffb27d;}.cls-10{fill:#f99746;}.cls-11{fill:#4a75cb;}.cls-12{fill:#2b478b;}.cls-13{fill:#2e3552;}.cls-14,.cls-28{fill:#82b378;}.cls-15{fill:#a8d29f;}.cls-16{fill:#f1a34f;}.cls-17{fill:#ffb973;}.cls-18{fill:#d86713;}.cls-19{fill:#d39e7a;}.cls-20{fill:#e0b594;}.cls-21{fill:#233862;}.cls-22{clip-path:url(#clip-path);}.cls-23{fill:#2a4e96;}.cls-24{fill:#1e3d70;}.cls-25{fill:#ddebfd;}.cls-26{fill:#739af0;}.cls-27{fill:#a8c3f7;}.cls-28{opacity:0.5;}.cls-29{fill:#ffb93e;}.cls-30{fill:#ffa412;}.cls-31{fill:#e2810e;}</style><clipPath id="clip-path"><path class="cls-1" d="M339.46,328.94c-30.12,27.7-67.59,27.65-105.71,12.29h0c-22.31-9-45.9-24.57-58.73-44.66-17.34-26.81-11.29-49.87,2.09-78.7,17.75-38.31,46.48-61,88.78-56.33,54.27,6,88.53,45.48,97.9,97.91C368.52,285.85,358.55,311.38,339.46,328.94Z"/></clipPath></defs><rect class="cls-1" width="555.78" height="450"/><path class="cls-2" d="M339.46,328.94c-30.12,27.7-67.59,27.65-105.71,12.29h0c-22.31-9-45.9-24.57-58.73-44.66-17.34-26.81-11.29-49.87,2.09-78.7,17.75-38.31,46.48-61,88.78-56.33,54.27,6,88.53,45.48,97.9,97.91C368.52,285.85,358.55,311.38,339.46,328.94Z"/><path class="cls-2" d="M21.84,408.69s-33.18-112,27.7-145.92,97.58,20.2,119,48.45,113.88,84.18,170,31.58c59.08-55.41,88.39-71.14,130.53-72.48s24.76,43.93,60.21,61.44,18.26,73.63-14.62,77.68Z"/><path class="cls-3" d="M412.79,396.8s-.72,11.54-3,11.7c-.3,0-11.32,0-11.32,0l-14.07-.09s.09-3.39,4.21-4.1,11-3.61,13.48-9C404.77,389.58,412.79,396.8,412.79,396.8Z"/><path class="cls-4" d="M420.3,260.39s-6.65,3.78-8.51,3.78-9.15-1.41-11.19-.37-5.71,5.22-6.41,6.59c-1.24,2.45,5,1.37,8-.72a1.84,1.84,0,0,1,1.47-.31c1.53.34,4.71.91,6.24.35,2.06-.77,12.92-1.62,12.92-1.62Z"/><path class="cls-5" d="M470.83,209s-6.89,48.93-18.29,53.32c-5.62,2.16-30.48,7.06-37.84,7.55,0,0-1.8-1.46-1.36-7.41,0,0,26.05-9.56,29.75-14.76,5.5-7.74-3.42-31.62,3.49-38.89S465.13,198.37,470.83,209Z"/><path class="cls-6" d="M468.51,312.06a85.6,85.6,0,0,1-6.73,9.62c-7.4,9.34-15.45,17-16.86,24.33a31.85,31.85,0,0,1-1.3,4.66c-.58,1.66-1.31,3.42-2.14,5.23A160.74,160.74,0,0,1,429,377.31c-8.1,12-14.74,20.07-14.74,20.07S412.09,399,406,399c-1.69,0-7.39-.93-7.39-.93.56-1.4,7.28-17.34,15.44-37.61l10.23-25.42q.68-1.69,1.35-3.36c1-2.58,2.06-5.13,3.06-7.6l13.76-34.18s30.61-11.6,33.78-4.09C478.86,292.05,476.73,298.12,468.51,312.06Z"/><path class="cls-3" d="M445.15,363.85s9.73,6.25,8.78,8.28c-.12.27-5.5,9.89-5.5,9.89l-6.93,12.25s-2.91-1.74-1.53-5.68,2.21-11.36-1.32-16.18C434.93,367.33,445.15,363.85,445.15,363.85Z"/><path class="cls-7" d="M439.63,375.83s6.84-6.36,7.91-10.29c0,0-25-30-30.46-36.72-.25-.31-.19-.65.14-1,4.1-4.62,49.65-14,55.61-23.28a28.91,28.91,0,0,0,3.85-8.87,21,21,0,0,0,.28-9.56l-45.5-1.31s-37.88,23.58-42.17,39.66S439.63,375.83,439.63,375.83Z"/><path class="cls-8" d="M417.22,327.8c4.1-4.62,49.65-14,55.61-23.28a28.91,28.91,0,0,0,3.85-8.87v-5.76l-19.34-3s-5.48,16.87-21.72,23.2C420.4,316,417.52,326.49,417.22,327.8Z"/><path class="cls-9" d="M443.91,205.87c9.21,2.38,24.46-6.15,24.46-6.15A22.6,22.6,0,0,1,460.25,187q-.17-.66-.3-1.35l-4.72-1-7,6.29a60.26,60.26,0,0,0,1,7.11c.15.79.32,1.63.52,2.53A21.6,21.6,0,0,0,443.91,205.87Z"/><path class="cls-10" d="M478.12,244c-1.32,17.73.41,44.7-1.08,49.37-1.29,4-16,1.63-21.87.29-2.17-.5-4.8-1.21-7.52-2.05-7.58-2.35-15.84-5.7-16.73-8.19,0-.1-.06-.19-.08-.29a2.28,2.28,0,0,1,0-1c.29-1.27,1.43-2.64,1.56-5.78.15-3.51.13-7.64.26-12.08,0-.5,0-1,.07-1.54v-.18a2.81,2.81,0,0,0,0-.29c.13-4.95.39-10.16.69-15.32.19-3.24.41-6.45.66-9.53.66-7.94,1.55-15,2.73-19.47,1.93-7.28,6.18-12,10.05-15.51l2.8-2.4a16.2,16.2,0,0,0,10.15-1.35c3.61-1.72,4.86-2.95,5.49-2.48C473.67,202.62,479.68,222.34,478.12,244Z"/><path class="cls-5" d="M447.65,291.63c-7.58-2.35-15.84-5.7-16.73-8.19,0-.1-.06-.19-.08-.29,0-.35,0-.69,0-1,.29-1.27,1.43-2.64,1.56-5.78.15-3.51.13-7.64.26-12.08,0-.5,0-1,.07-1.54v-.18a2.81,2.81,0,0,0,0-.29l30.65-39.05S484,266.1,447.65,291.63Z"/><path class="cls-4" d="M448.2,190.93a60.26,60.26,0,0,0,1,7.11c6.86-2.22,10-8.42,11-11q-.17-.66-.3-1.35l-4.72-1Z"/><path class="cls-9" d="M447.27,194.9s15-2.5,13.27-11.8-.91-15.88-10.54-14.68-10.83,5.09-11,8.33S443.33,195.31,447.27,194.9Z"/><polygon class="cls-11" points="425.11 271.8 387.74 272.59 377.11 239.89 375.79 240.32 387.02 274.89 425.16 274.08 425.11 271.8"/><path class="cls-9" d="M424.39,275.9s-12.25,3.23-16.84,2.89-8.42-2.53-9-3.67-1.79-3.16,1.34-2.79,7.4,1,7.53.44-2.55-.54-2.55-.54-.81-1.18.21-1.23,4-.85,5.1-.29,2.13,2.59,2.94,2.51S423.37,269,423.37,269Z"/><path class="cls-10" d="M467.79,211s-1.45,49.4-12.3,55c-5.35,2.77-29.52,10.39-36.77,11.69,0,0-2-1.26-2.18-7.22,0,0,24.84-12.37,27.94-17.95,4.63-8.3-6.88-31.05-.81-39S461,201.08,467.79,211Z"/><path class="cls-12" d="M460.25,187s.17-3.19-1.79-5c0,0,.68-3.2-.58-3.73s-1.53,2.16-2.11,1.74a12.89,12.89,0,0,1-4.27-5.38c-1.11-3-11.24.62-12.43,1.16s-5-1.42-5.71-3a22.18,22.18,0,0,0,3.06-3c.95-1.26,7.59-9.8,16.87-7.38s10.54,6.86,10,10.65S464.05,185.72,460.25,187Z"/><rect class="cls-13" y="408.53" width="555.78" height="1.47" rx="0.63"/><path class="cls-14" d="M176.87,371.24s-6-7-.36-11.42c0,0,4.1-2.48,7.44-2.28,0,0-4.74,7.95-3.2,8.74s4.64-9.24,4.64-9.24,9.33-.9,12.33.54c0,0-8,6.53-6.29,6.92s10.29-6,10.29-6,8.69,1.48,8.23,6.78-3.46,6.93-4.77,6.79-9-3.08-9.18-2,4.46,4.6,7.71,4.77c0,0-6.13,6.75-10.2,4.8s-4.42-5-6.95-6.2-4.71-1.15-3.66,0,5.64,2.33,7.09,4.9,2.75,4.29-1.46,3.66-11.05-3.71-11.36-7.24Z"/><path class="cls-14" d="M205.68,365.4s-23.59-.91-28.81,5.84a17,17,0,0,1-4.69,6.59l-.56,1.51s4.09-4.31,5.55-4.57C177.17,374.77,174.89,366.41,205.68,365.4Z"/><path class="cls-14" d="M172.18,377.83a14.82,14.82,0,0,0-5.42,10.44l.92.08s1.62-6.92,4.54-9.62S172.18,377.83,172.18,377.83Z"/><path class="cls-15" d="M156,362.46s9.52-5.33,5.08-12.57c0,0-3.56-4.44-7.36-5.58,0,0,2,10.79,0,11s-1.4-12.18-1.4-12.18-10-4.83-14-4.45c0,0,6.22,10.54,4.19,10.28s-9-10.91-9-10.91-10.28-1.9-11.93,4.19,1,9.14,2.53,9.52,11.3.25,11,1.52-6.86,3.3-10.54,2.16c0,0,4.06,10,9.39,9.52s7-3.81,10.28-4.06,5.72.63,4.07,1.52-7.24.29-9.9,2.56-4.83,3.66.12,4.67,13.84.38,15.61-3.42Z"/><path class="cls-14" d="M126.25,344.18s26.66,8.63,29.7,18.28a20.18,20.18,0,0,0,2.54,9.26v1.91s-2.79-6.47-4.32-7.36C154.17,366.27,160.14,357.89,126.25,344.18Z"/><path class="cls-14" d="M158.49,371.72a17.6,17.6,0,0,1,1.77,13.84l-1.06-.28s1-8.37-1.12-12.58S158.49,371.72,158.49,371.72Z"/><path class="cls-15" d="M171.1,355.11s-12.55-7-6.7-16.57c0,0,4.69-5.85,9.71-7.36,0,0-2.68,14.22,0,14.56S176,329.68,176,329.68s13.22-6.36,18.4-5.86c0,0-8.2,13.89-5.52,13.55S200.71,323,200.71,323s13.55-2.51,15.73,5.52-1.34,12.05-3.35,12.55-14.89.34-14.56,2,9,4.35,13.89,2.84c0,0-5.35,13.22-12.38,12.55s-9.2-5-13.55-5.35-7.53.84-5.36,2,9.54.38,13.05,3.37,6.36,4.83-.16,6.16-18.24.51-20.58-4.51Z"/><path class="cls-14" d="M210.25,331s-35.14,11.38-39.15,24.1a26.76,26.76,0,0,1-3.35,12.21v2.51s3.68-8.53,5.69-9.7C173.44,360.13,165.57,349.08,210.25,331Z"/><path class="cls-14" d="M167.75,367.32a23.16,23.16,0,0,0-2.33,18.24l1.39-.37s-1.35-11,1.49-16.58S167.75,367.32,167.75,367.32Z"/><path class="cls-16" d="M170.67,407.28a24.57,24.57,0,0,0,24.58-24.58H146.09A24.58,24.58,0,0,0,170.67,407.28Z"/><path class="cls-17" d="M176.72,407.1a25.62,25.62,0,0,1-3.05.18,24.57,24.57,0,0,1-24.58-24.58h6.11A24.59,24.59,0,0,0,176.72,407.1Z"/><path class="cls-16" d="M195.59,408.54H145.75a3,3,0,0,1,3-3h43.77a3,3,0,0,1,3,3Z"/><rect class="cls-18" x="145.29" y="382.7" width="50.53" height="0.75"/><path class="cls-19" d="M505.54,407.2c-5.85-6-16.15-10.09-28.05-10.57V376.88h18.38c.46,0,.87-.4,1.12-1a4,4,0,0,0,.29-1.54v-.89c0-1.4-.63-2.55-1.41-2.55H477.49v-47a2.37,2.37,0,0,0-2.36-2.36h0a2.37,2.37,0,0,0-2.36,2.36v47H454.39c-.78,0-1.41,1.15-1.41,2.55v.89a4,4,0,0,0,.31,1.58c.25.59.65,1,1.1,1h18.38v19.75c-11.9.48-22.2,4.59-28,10.57a16.56,16.56,0,0,0-1.2,1.33h63.21C506.36,408.07,506,407.63,505.54,407.2Z"/><path class="cls-20" d="M477.49,396.72c-8.3.77-15.43,4.77-19.56,10.48-.32.43-.61.87-.89,1.33h-5.85c.28-.46.57-.9.89-1.33,4.61-6.37,12.95-10.62,22.49-10.62C475.56,396.58,476.53,396.63,477.49,396.72Z"/><rect class="cls-5" x="440.18" y="305.68" width="68.27" height="17.54" rx="2.84"/><g id="man"><path class="cls-9" d="M159.1,215.42c-1,2.83-2.87,6.1-4.77,6.92a7.36,7.36,0,0,0-3.07,2.22l-1.75-1-2.09-1.21s.05-.24.15-.61.26-.9.47-1.48a2,2,0,0,0,.25-1.86,4.31,4.31,0,0,1,.36-3.6c.67-1,1.31-3.37,1.72-3.3,1,.16-.48,3.46-.07,4.07a.73.73,0,0,0,.94.32h0c2.74-1.2,6.06-7.69,7.53-6.82C159.34,209.38,159.55,214.22,159.1,215.42Z"/><rect class="cls-12" x="147.87" y="211.23" width="16.36" height="5.27" rx="0.54" transform="translate(-108.66 218.55) rotate(-54.9)"/><rect class="cls-21" x="150.3" y="213.94" width="16.36" height="3.28" rx="0.41" transform="translate(-109.02 221.29) rotate(-54.9)"/><path class="cls-21" d="M100.41,201.41s17.45,30.45,23.79,36.05l23.22-17.31a8.48,8.48,0,0,1,4.85,4.41s-14.1,28.74-28,30S90.9,220.08,90.9,220.08Z"/><path class="cls-21" d="M60.9,408.53H50.81a6.13,6.13,0,0,1-2.76-4.63c-.49-3.25-4.14-5-4.92-7.68s3.25-6.4,3.25-6.4l.67-.87.7-.9,6.7,1.58s.16,1.59.27,3.62a45.05,45.05,0,0,1,0,4.65c-.19,3.54,1,7.36,4.14,8.05C61.21,406.46,61.11,407.84,60.9,408.53Z"/><path class="cls-21" d="M119.44,408.53H96.37c-1.11-1.36-.7-6.36-.53-8,0-.32.06-.52.06-.52s7.87-6.3,9-1.47c0,.15.07.3.11.44,1.37,4.52,7.48,6.57,11,7.14C118.28,406.5,119.13,407.69,119.44,408.53Z"/><path class="cls-10" d="M115,279.75s-1.19,14.93-2.6,32.87c-1.91,24.37-4.21,54.3-4.43,60-.4,9.85-2,25.6-2,25.6s-3.74,3.74-11.23,2.17a257.48,257.48,0,0,1-8.57-46.28l-.09-1.18c-1.77-24.21-4.53-75.21-4.53-75.21Z"/><path class="cls-5" d="M115,279.75s-1.19,14.93-2.6,32.87l-26.2,41.46-.09-1.18c-1.77-24.21-4.53-75.21-4.53-75.21Z"/><path class="cls-10" d="M109.58,281.53S88,335.58,73.84,361s-18.6,32.49-18.6,32.49-8.13-3.25-8.86-5.47c0,0,5.42-49,14.91-61,5.37-6.75,11.67-27,12-34.11s1.92-21.12,1.92-21.12Z"/><path class="cls-9" d="M104.21,202.73c-8.42,2.66-23-4.51-23-4.51s7.77-5.83,7.36-18l6.52,5.25,4.42,3.57a54,54,0,0,1-.5,5.79c-.13,1-.29,2-.49,3.23A20,20,0,0,1,104.21,202.73Z"/><path class="cls-4" d="M99.51,189.08a54,54,0,0,1-.5,5.79c-4.9-.85-10.47-8.77-10.47-8.77a15.76,15.76,0,0,1,6.55-.59Z"/><path class="cls-9" d="M102.09,188.88s-13.92,2.31-15.23-6.38-4-14.24,4.85-16.08,11.06,1.21,12.2,4S105.68,188.05,102.09,188.88Z"/><path class="cls-12" d="M116,281a1.33,1.33,0,0,1-.88.33c-3.17,0-12.39,1.72-20.2.92a57.93,57.93,0,0,1-18.66-5.39c-.83-.37-2.74-1.39-2.7-2.32s.13-2.49.26-4.35a233.48,233.48,0,0,0,.46-30.37c-.14-2.39-.21-4.76-.22-7.09-.06-17.36,3.38-32.63,10.3-37.8.59-.43,4.22,1.35,7.55,3A13.79,13.79,0,0,0,101,199l2.91,2.57c3.55,3.29,7.43,7.76,9.12,14.56,1.43,5.78,2.28,16.2,2.74,27,.21,4.89.38,9.83.42,14.52v.16c0,.47,0,1,0,1.44C116.35,271.29,116.18,280.83,116,281Z"/><path class="cls-21" d="M73.79,270.19a233.48,233.48,0,0,0,.46-30.37c-.14-2.39-.21-4.76-.22-7.09,2.88-7,5.24-12.06,5.24-12.06h7.27S91.86,257.05,73.79,270.19Z"/><rect class="cls-21" x="39.88" y="276.53" width="28.38" height="46.11" rx="7.41" transform="translate(-250.15 310.85) rotate(-81.89)"/><path class="cls-12" d="M73.31,291.75h0a7.45,7.45,0,0,0-5.13-4.48h0l-.72-.14-6.17-.87.42-2.9a2.45,2.45,0,0,0-2.09-2.77L58,280.35l-6.47-.93-1.17-.16a2.46,2.46,0,0,0-2.78,2.08l-.41,2.9-10.65-1.52A7.45,7.45,0,0,0,28.11,289l-1.93,13.58A7.45,7.45,0,0,0,32.49,311l30.93,4.41a7.25,7.25,0,0,0,1.61.05h0a7.31,7.31,0,0,0,2.41-.61,7.46,7.46,0,0,0,4.38-5.75l1.93-13.59A7.41,7.41,0,0,0,73.31,291.75Zm-24.2-10.19a.9.9,0,0,1,.76-.78h.27l1.38.19,5.1.73,2.78.4a.91.91,0,0,1,.77,1l-.41,2.9-11.07-1.58Z"/><path class="cls-9" d="M58.41,275l0-.51c.07-.87,1.69-3,1.69-3l-4.08-2.12L54.44,272c-2.44,1.95-2.49,2-2,5.7.38,3.22-1.72,3.26-1.67,5.56s3,1.17,3,1.17c4.6-2.16,5-3.24,4.83-5.43.44.62.93,1,1.34.71s-.36-1.18-.68-3.36A3.78,3.78,0,0,0,58.41,275Z"/><path class="cls-12" d="M56,273.1a24.09,24.09,0,0,0,5.46.31s7.76-24,8.76-26.19,23.07-28.13,23.07-28.13l-9.19-23S60.22,236,57.79,241.56c-4,9.26-5.39,30-5.39,30A10,10,0,0,0,56,273.1Z"/><path class="cls-12" d="M86.85,181.67s1.43-.24,1.2-2.21-.23-4.54,1.37-4.06,1.68,1.76,2.34,1,.67-3.9,5.43-4.11,6.69,1.43,8.9.46,2.33-4.32,2.33-4.32a3.81,3.81,0,0,1-1.58,1.57s3.69-5-.58-8.51-8.63-1.19-11.11-1c-5.45.33-9,.65-10.75,4.23S83.36,178.22,86.85,181.67Z"/></g><g class="cls-22"><path class="cls-4" d="M284,276.08s-14.08-2.83-16.44-2.61S257,277.36,256.92,278s.31,1.2,1.74,1.26,6.1-.66,5.81-.09-13.71,3.58-13.79,6.31,7.45,7.57,13.71,7.75,18.36-7.41,19.41-7.53C292.71,284.72,284,276.08,284,276.08Z"/><path class="cls-5" d="M360.87,244.79c-5.5,6.85-10.09,12.16-12.51,14.09a55.67,55.67,0,0,1-7.14,4.68c-20.07,11.33-58.69,22.82-58.69,22.82l-.07-.05a16.91,16.91,0,0,1-4.83-5.8c-1.47-3-1.16-4.82-.73-5.78a2.6,2.6,0,0,1,.59-.86s46.27-29.57,50-32.65c2.1-1.75,9.7-19.44,15.89-34.44.86,1.25,1.7,2.53,2.52,3.82A131.12,131.12,0,0,1,360.87,244.79Z"/><path class="cls-7" d="M361.18,297.15c-.29.83-.59,1.65-.91,2.47a78.81,78.81,0,0,1-5.41,11.08h0c-1.24,2.11-2.59,4.16-4,6.15a81.12,81.12,0,0,1-11,12.42c0-.31,0-.62.07-.93,0-.47.07-.95.1-1.42.08-1,.15-2.06.22-3.07,0-.39.06-.77.08-1.16.18-2.48.35-4.84.5-7,.05-.64.09-1.26.14-1.88l0-.54c0-.36.06-.71.08-1.07s.05-.63.07-.94a.28.28,0,0,1,0-.09l.06-.94c0-.53.08-1,.11-1.54,0-.31,0-.61.07-.92q0-.71.09-1.38l0-.32c0-.21,0-.43,0-.63s0-.21,0-.31a.08.08,0,0,0,0,0c0-.4.05-.8.08-1.17v-.06l.06-.82c0-.09,0-.17,0-.26l0-.45,0-.36c.05-.82.11-1.58.16-2.26a2.64,2.64,0,0,1,0-.28,2.83,2.83,0,0,1,0-.29q0-.27,0-.51c.09-1.2.15-2.07.19-2.58a.66.66,0,0,1,0-.15v-.05s0-.09,0-.12v-.22Z"/><path class="cls-6" d="M361.18,297.15c-.29.83-.59,1.65-.91,2.47a78.81,78.81,0,0,1-5.41,11.08h0c-1.24,2.11-2.59,4.16-4,6.15a81.12,81.12,0,0,1-11,12.42c0-.31,0-.62.07-.93,0-.47.07-.95.1-1.42.08-1,.15-2.06.22-3.07,0-.39.06-.77.08-1.16.18-2.48.35-4.84.5-7,.05-.64.09-1.26.14-1.88l0-.54c0-.36.06-.71.08-1.07s.05-.63.07-.94a.28.28,0,0,1,0-.09l.06-.94c0-.53.08-1,.11-1.54,0-.31,0-.61.07-.92q0-.71.09-1.38l0-.32c0-.21,0-.43,0-.63s0-.21,0-.31a.08.08,0,0,0,0,0c0-.4.05-.8.08-1.17v-.06l.06-.82c0-.09,0-.17,0-.26l0-.45,0-.36c.05-.82.11-1.58.16-2.26a2.64,2.64,0,0,1,0-.28,2.83,2.83,0,0,1,0-.29q0-.27,0-.51c.09-1.2.15-2.07.19-2.58a.66.66,0,0,1,0-.15v-.05s0-.09,0-.12v-.22Z"/><path class="cls-10" d="M364.24,259.46a73.62,73.62,0,0,1-3.06,37.69c-.29.83-.59,1.65-.91,2.47a78.81,78.81,0,0,1-5.41,11.08h0c-1.24,2.11-2.59,4.16-4,6.15-4.12-.59-7.48-1.08-9.55-1.13a3,3,0,0,1-.52-.07,2.67,2.67,0,0,1-1.22-.67c-.41-.35,0-19.42,1.23-43.42,0-.93.08-1.95.2-2.87v-.34c.08-1.58.17-3.18.25-4.79.06-.93.11-1.87.17-2.81.38-6.4.87-12.95,1.39-19.48l.15-1.88c.82-10,1.79-19.93,2.94-28.77a131.12,131.12,0,0,1,15,34.17Q362.9,251.95,364.24,259.46Z"/><path class="cls-23" d="M191.45,294.93c-.23-6.72-.57-14.73-1-23.37,0-.93-.08-1.95-.19-2.87l0-.34c0-.76-.07-1.53-.11-2.31,0-.43-.05-.87-.07-1.31-.07-1.32-.15-2.64-.23-4-.39-6.4-.87-12.95-1.39-19.48l-.15-1.88c-.76-9.31-1.65-18.48-2.69-26.8h0s0-.09,0-.14c-.13-1-.26-2.08-.4-3.1q-.41-3.08-.84-6c-.4.66-.8,1.32-1.19,2q-3.44,5.88-6.42,12.33a198.35,198.35,0,0,0-10.37,28.17l-.06.19a61.64,61.64,0,0,0-2,9.63h0q-.09.68-.15,1.35h0c-1.38,14.33,2.7,27.74,10.45,39.72l.82,1.23c.54.82,1.11,1.62,1.69,2.42.41.57.83,1.13,1.26,1.69l.27.36a99,99,0,0,0,9.94,11c.59.57,1.19,1.13,1.79,1.68l.46.41a3.06,3.06,0,0,0,.81-.53C191.93,314.75,191.86,306.87,191.45,294.93Z"/><path class="cls-24" d="M191.45,294.93c-10.79-11.31-19.79-25.2-27.13-39.25h0a61.64,61.64,0,0,1,2-9.63l.06-.19a198.35,198.35,0,0,1,10.37-28.17c6.63,9.47,11.27,18.19,11.56,21.7l.15,1.88c.52,6.53,1,13.08,1.39,19.48.08,1.34.16,2.66.23,4,0,.44.05.88.07,1.31,0,.78.07,1.55.11,2.31l0,.34c.11.92.15,1.94.19,2.87C190.88,280.2,191.22,288.21,191.45,294.93Z"/><path class="cls-9" d="M240.47,276.93s14.37,0,16.63.7,9.52,5.89,9.48,6.57-.55,1.11-1.95.89-5.85-1.86-5.69-1.24,12.73,6.23,12.27,8.91-8.8,5.95-15,4.88-16.53-10.9-17.53-11.23C230.17,283.65,240.47,276.93,240.47,276.93Z"/><path class="cls-23" d="M243.08,281.83a16.83,16.83,0,0,1-4.16,4.7,12.62,12.62,0,0,1-1.13.8S210.15,277,190.11,266c-6.62-3.61-12.42-7.29-16.1-10.68a75.75,75.75,0,0,1-7.67-9.5,198.35,198.35,0,0,1,10.37-28.17q3-6.44,6.42-12.33c.8,2.38,1.63,4.81,2.45,7.22h0c4.39,12.8,8.89,25.08,10.49,26.61,3.48,3.33,47.61,36,47.61,36a3.08,3.08,0,0,1,.73,1.74A7.81,7.81,0,0,1,243.08,281.83Z"/><rect class="cls-25" x="222.07" y="180.26" width="75.37" height="68.36"/><rect class="cls-26" x="222.07" y="176.16" width="75.37" height="4.1"/><path class="cls-25" d="M224.6,177.39a.82.82,0,1,0,.82.82A.82.82,0,0,0,224.6,177.39Z"/><path class="cls-25" d="M227.81,177.39a.82.82,0,1,0,.82.82A.82.82,0,0,0,227.81,177.39Z"/><path class="cls-25" d="M231,177.39a.82.82,0,0,0,0,1.64.82.82,0,0,0,0-1.64Z"/><path class="cls-27" d="M244.7,189.17h28.79a1.37,1.37,0,0,0,1.37-1.37h0a1.37,1.37,0,0,0-1.37-1.37H244.7a1.38,1.38,0,0,0-1.37,1.37h0A1.38,1.38,0,0,0,244.7,189.17Z"/><path class="cls-27" d="M238.14,193.86h41.91a1.37,1.37,0,1,0,0-2.73H238.14a1.37,1.37,0,1,0,0,2.73Z"/><path class="cls-27" d="M234.6,206.21h50.51a1,1,0,1,0,0-2H234.6a1,1,0,1,0,0,2Z"/><rect class="cls-27" x="233.59" y="208.83" width="52.52" height="2" rx="1"/><path class="cls-27" d="M285.11,213.45H234.6a1,1,0,1,0,0,2h50.51a1,1,0,1,0,0-2Z"/><path class="cls-27" d="M239.67,230.26H234.6a1,1,0,1,0,0,2h5.07a1,1,0,0,0,0-2Z"/><path class="cls-27" d="M248.14,230.26h-5.07a1,1,0,0,0,0,2h5.07a1,1,0,0,0,0-2Z"/><path class="cls-27" d="M276.64,230.26h-5.07a1,1,0,0,0,0,2h5.07a1,1,0,0,0,0-2Z"/><path class="cls-27" d="M285.11,230.26H280a1,1,0,0,0,0,2h5.07a1,1,0,1,0,0-2Z"/><path class="cls-27" d="M241.07,233.49a5.34,5.34,0,1,0,5.35,5.34A5.35,5.35,0,0,0,241.07,233.49Zm0,10.41a5.08,5.08,0,1,1,5.08-5.07A5.08,5.08,0,0,1,241.07,243.9Z"/><path class="cls-27" d="M241.07,234.52a4.31,4.31,0,1,0,4.31,4.31A4.31,4.31,0,0,0,241.07,234.52Zm0,8.34a4,4,0,1,1,4-4A4,4,0,0,1,241.07,242.86Z"/><path class="cls-27" d="M239.61,240.59c-.57-.05-.87-.32-.88-.8a1.27,1.27,0,0,1,.4-1,1.51,1.51,0,0,0,.73,1.14.46.46,0,0,0,.5-.18,3,3,0,0,0,.39-.64.35.35,0,0,0,.21.1c.2,0,.4-.15.58-.46a2.06,2.06,0,0,0,.12-.26l.05,0a.15.15,0,0,0,.19,0,1.64,1.64,0,0,0,.33-.49.3.3,0,0,0,.09.1.2.2,0,0,0,.25,0,.13.13,0,0,0,0-.16.37.37,0,0,0-.26-.11h0a1.47,1.47,0,0,0,.19-.83.13.13,0,0,0-.13-.08q-.15,0-.21.3a1.9,1.9,0,0,0,0,.59h-.34a.41.41,0,0,0-.05-.21.15.15,0,0,0-.14-.07c-.08,0-.1.11-.11.19a.37.37,0,0,0,0,.11,5.87,5.87,0,0,0-1.1.18,3.79,3.79,0,0,0-1.16.52c0-.17,0-.37.12-.45s.39,0,.48.07l.08-.14s-.39-.23-.65-.07-.22.31-.2.63c0,0,0,.06,0,.09a1.44,1.44,0,0,0-.54,1.16c0,.57.38.91,1,1a4.28,4.28,0,0,0,1.53-.24,4.17,4.17,0,0,0,2.63-2.05C243.43,239.45,241,240.71,239.61,240.59Zm2.77-3.47a.74.74,0,0,1,0,.18C242.35,237.23,242.37,237.17,242.38,237.12Zm-.56.83h.27a1.65,1.65,0,0,1-.3.45s0,0,0-.09A1.82,1.82,0,0,0,241.82,238Zm-.9.09c.21,0,.41-.06.6-.07a2,2,0,0,0,0,.34,2.2,2.2,0,0,1-.17.39c-.14.24-.29.38-.42.37a.19.19,0,0,1-.15-.1A1.27,1.27,0,0,0,240.92,238Zm-.17.05a.8.8,0,0,1,0,.63A1.36,1.36,0,0,1,240.75,238.09Zm-1,.3a3.69,3.69,0,0,1,.79-.27,1.53,1.53,0,0,0,0,.64,1.14,1.14,0,0,0,.07.22,2.68,2.68,0,0,1-.41.69.27.27,0,0,1-.32.12,1.36,1.36,0,0,1-.63-1.1A2.65,2.65,0,0,1,239.78,238.39Z"/><path class="cls-27" d="M243.76,238.47l0-.09Z"/><path class="cls-27" d="M278.2,233.63a5.47,5.47,0,1,0,5.47,5.47A5.48,5.48,0,0,0,278.2,233.63Zm0,10.67a5.2,5.2,0,1,1,5.19-5.2A5.2,5.2,0,0,1,278.2,244.3Z"/><path class="cls-27" d="M278.2,234.69a4.41,4.41,0,1,0,4.4,4.41A4.41,4.41,0,0,0,278.2,234.69Zm0,8.54a4.13,4.13,0,1,1,4.13-4.13A4.14,4.14,0,0,1,278.2,243.23Z"/><path class="cls-27" d="M281,238.74a.44.44,0,0,0,0-.1A.44.44,0,0,1,281,238.74Z"/><path class="cls-27" d="M276.7,240.9c-.59,0-.89-.32-.91-.82a1.25,1.25,0,0,1,.42-1,1.47,1.47,0,0,0,.74,1.15.46.46,0,0,0,.52-.18,2.87,2.87,0,0,0,.39-.65.34.34,0,0,0,.22.1c.21,0,.41-.15.59-.47a1.69,1.69,0,0,0,.13-.27l0,0a.2.2,0,0,0,.2,0,1.78,1.78,0,0,0,.34-.51.27.27,0,0,0,.1.11.21.21,0,0,0,.25-.06.13.13,0,0,0,0-.16.45.45,0,0,0-.27-.12h0a1.58,1.58,0,0,0,.2-.85.11.11,0,0,0-.13-.08c-.1,0-.18.11-.22.31a2.27,2.27,0,0,0,0,.6H279a.41.41,0,0,0-.05-.21.16.16,0,0,0-.14-.08c-.08,0-.11.12-.12.2a.31.31,0,0,0,0,.1,7.28,7.28,0,0,0-1.12.19,3.77,3.77,0,0,0-1.19.54c0-.18,0-.39.12-.47s.41,0,.49.08l.09-.15s-.41-.24-.67-.07-.23.31-.2.64a.28.28,0,0,0,0,.09,1.51,1.51,0,0,0-.56,1.2c0,.58.39.93,1.06,1a4.29,4.29,0,0,0,1.57-.25,4.23,4.23,0,0,0,2.7-2.09C280.61,239.74,278.13,241,276.7,240.9Zm2.84-3.54-.05.18A1.06,1.06,0,0,1,279.54,237.36Zm-.58.84h.27a2,2,0,0,1-.3.47.17.17,0,0,1-.05-.1A1.9,1.9,0,0,0,279,238.2Zm-.92.1a4.65,4.65,0,0,1,.61-.08,1.41,1.41,0,0,0,.05.35,3.52,3.52,0,0,1-.18.4c-.14.25-.3.38-.43.38a.22.22,0,0,1-.15-.1A1.33,1.33,0,0,0,278,238.3Zm-.17,0a.88.88,0,0,1,0,.64A1.16,1.16,0,0,1,277.87,238.35Zm-1,.3a4.3,4.3,0,0,1,.81-.28,1.63,1.63,0,0,0,0,.66,1.25,1.25,0,0,0,.07.23,3.06,3.06,0,0,1-.41.7.28.28,0,0,1-.33.13,1.4,1.4,0,0,1-.65-1.13A3,3,0,0,1,276.87,238.65Z"/><path class="cls-15" d="M304.06,302l-6.56,8.85-.64.87-.32.42-.81,1.09-.44.59-.8,1.09-.85,1.15-.8,1.07v0h0l-.75,1h0l-.11.15v0h0l-.15.19h0l-.8,1v.09l-.76,1h0l-1,1.31h0l-.74,1h0l-.81,1.09h0l-1.35,1.82h0l-.13.18-.46.62h0l-1.06,1.43-1.41,1.81V330l-.73,1-.08.1h0l-1,1.37h0l-.95,1.28h0l-2.34,3.16h0l-3.49,4.71-5.84,7.88-.73,1-.43.58.67.09h0c.78.11,1.55.2,2.32.28l.66.07.4,0q.5.06,1,.09l.41,0,.19,0,.65.05h.13l1.43.09.65,0,.51,0h.1l.84,0,.65,0,.74,0h4.15c1.69,0,3.37-.14,5-.28h0q2.88-.22,5.68-.65,3-.45,6-1.11l.1,0a0,0,0,0,1,0,0l1.86-.46.78-.19c2.44-.62,4.84-1.34,7.18-2.16l1.18-.41.29-.11c.73-.27,1.46-.54,2.17-.83l.59-.23h0l.12,0h0l.68-.29.51-.21.6-.26.38-.17h0l.67-.29h0q3.27-1.47,6.38-3.19l.65-.37h0l11.41-15.4Z"/><path class="cls-14" d="M286.8,333.76v.91l.66-.89v0h-.67Zm-1.25,1.2a3.92,3.92,0,0,0-.68.34l-1.46,2-1.11,1.51v2l1.32-1.78,3.17-4.28A3.58,3.58,0,0,0,285.55,335Zm-5.38,6.68-.17.23-.64.85-2.87,3.88v2l2-2.73,1.63-2.19.85-1.15.63-.86h-1.46Zm24.27-32.74-6.83,9.21-.06.08-.42.56-.53.72-.28.36h0l-1.26,1.71-.53.62v.09l-.34.46-.47.63-1.88,2.54h0l0,.06-.1.12h0l-.59.81V327l-1.8,2.33-.69.94-.12.15-1.92,2.6-.57.77h0l-1.13,1.53-1.46,2-1.11,1.51-.81,1.09-1.32,1.78-.17.23-.64.85-2.87,3.88-.8,1.08-1.36,1.84-1.58,2.13.41,0,.19,0,.65.05h.13l1.66-2.25h0l.7-.95,2-2.73,1.63-2.19.85-1.15.63-.86h0l.67-.9,1.32-1.78,3.17-4.28h0l.66-.89v0h0l1-1.31v-.08l.81-1.09.64-.87,1.15-1.55.81-1.09.91-1.23.35-.47.13-.18h0l.42-.56.81-1.09.85-1.15.86-1.16.08-.11h0l.81-1.09.62-.84.29-.38h0l.74-1,.07-.09.16-.22,3.11-4.2a4.31,4.31,0,0,1,6-.89L324,324.89a4.72,4.72,0,0,1,1,6.61l-9.6,12.95-.56.76.51-.21.6-.26.38-.17h0l.67-.29h0l12.46-16.81Zm-24.27,32.74-.17.23-.64.85-2.87,3.88v2l2-2.73,1.63-2.19.85-1.15.63-.86h-1.46Zm5.38-6.68a3.92,3.92,0,0,0-.68.34l-1.46,2-1.11,1.51v2l1.32-1.78,3.17-4.28A3.58,3.58,0,0,0,285.55,335Zm1.25-1.2v.91l.66-.89v0h-.67Z"/><path class="cls-14" d="M300,349.94a0,0,0,0,0,0,0l-.1,0q-3,.66-6,1.11-2.81.42-5.68.65h0c-1.66.14-3.34.24-5,.28h-.53c0-.24,0-.48,0-.73a9.13,9.13,0,0,1,.18-1.72,9.46,9.46,0,0,1,1.73-3.93l0,0A10,10,0,0,1,286,344a9.59,9.59,0,0,1,3.27-1.86,8.19,8.19,0,0,1,.81-.23,9.54,9.54,0,0,1,1.92-.26h.81a9.89,9.89,0,0,1,1.79.25c.27.07.54.14.81.23a10.1,10.1,0,0,1,2.56,1.31l.15.11a7.52,7.52,0,0,1,.62.5h0l0,0,.44.41a11.69,11.69,0,0,1,.81.91h0c.11.14.21.28.31.43h0a9.15,9.15,0,0,1,.8,1.38h0c.11.23.2.46.29.69h0a9.05,9.05,0,0,1,.43,1.52Z"/><path class="cls-28" d="M291.8,318.56h0l-.8,1v.08l-.76,1-1,1.31h0l-.74,1h0l-.81,1.09h0l-1.35,1.82h0l-.13.18-.46.62h0l-1.06,1.43L283.31,330V330l-.73,1-.08.1h0l-1,1.37-.95,1.28h0l-2.34,3.16h0l-3.49,4.71-5.84,7.88-.73,1-.43.58.67.09h0c.78.11,1.55.2,2.32.28l.66.07.4,0q.5.06,1,.09l.41,0,.19,0,.65.05h.13l1.43.09.65,0,.51,0h.1c.16-.79.36-1.59.57-2.4.33-1.22.71-2.45,1.13-3.68.32-.95.67-1.9,1-2.85.14-.38.29-.75.44-1.12l.09-.23h0c.45-1.1.92-2.2,1.4-3.28v-.07c.27-.59.54-1.11.81-1.69.45-1,.91-1.9,1.37-2.83h0c.62-1.25,1.25-2.47,1.86-3.63.09-.15.17-.25.25-.38v-.08l.8-1.5,1.16-2.1.1-.18c.24-.42.47-.76.69-1.16v-.07c.54-1,1-1.85,1.49-2.64.27-.47.51-.91.73-1.31l.25-.44c.35-.65.63-1.18.8-1.56l.15-.34Z"/><path class="cls-29" d="M301.45,343.37v4.46s0,.08,0,.13h0a1.69,1.69,0,0,1-.29.82,1.63,1.63,0,0,1-.8.64,1.13,1.13,0,0,1-.24.08H300l-.15,0H259.16c-.91-.19-1.82-.4-2.73-.62l-.66-.16-1.82-.45-.8-.21-1.39-.36-1.49-.42-.66-.18c-1.23-.36-2.47-.73-3.7-1.11h0l-.14-.05-1.12-.35-.65-.21c-3.48-1.14-7-2.4-10.38-3.78h66.2l.23,0a1.58,1.58,0,0,1,.31.09,1.83,1.83,0,0,1,.81.64A1.78,1.78,0,0,1,301.45,343.37Z"/><path class="cls-30" d="M266.62,349.52h-7.46c-.91-.19-1.82-.4-2.73-.62l-.66-.16-1.82-.45-.8-.21-1.39-.36-1.49-.42-.66-.18c-1.23-.36-2.47-.73-3.7-1.11h0l-.14-.05-1.12-.35-.65-.21c-3.48-1.14-7-2.4-10.38-3.78H262a16.35,16.35,0,0,0,1.37,3.78,13,13,0,0,0,2.78,3.67l.23.2.05,0Z"/><rect class="cls-30" x="292.01" y="341.65" width="0.81" height="7.89"/><rect class="cls-30" x="289.28" y="341.65" width="0.81" height="7.89"/><rect class="cls-30" x="286.01" y="341.65" width="0.81" height="7.89" transform="translate(0.36 -0.3) rotate(0.06)"/><rect class="cls-30" x="280.99" y="341.64" width="0.81" height="7.89"/><rect class="cls-30" x="275.69" y="341.64" width="0.81" height="7.89"/><rect class="cls-30" x="267.56" y="341.63" width="0.81" height="7.88"/><rect class="cls-30" x="259.95" y="341.63" width="0.81" height="7.89"/><path class="cls-30" d="M254,341.62v6.66l-.8-.21v-6.45Z"/><rect class="cls-30" x="294.61" y="341.65" width="0.81" height="7.89"/><rect class="cls-30" x="296.32" y="341.65" width="0.81" height="7.89"/><rect class="cls-30" x="297.98" y="341.65" width="0.81" height="7.89" transform="translate(0.36 -0.31) rotate(0.06)"/><path class="cls-30" d="M300,341.68v7.83l-.3,0h-.51v-7.89h.5Z"/><path class="cls-30" d="M301.16,342.41v6.37a1.76,1.76,0,0,1-.8.65v-7.66A1.83,1.83,0,0,1,301.16,342.41Z"/><path class="cls-29" d="M307.25,335.49v4.45a1.66,1.66,0,0,1-.3,1,1.63,1.63,0,0,1-.8.64,1.68,1.68,0,0,1-.32.09l-.3,0-70.93-.05a1.72,1.72,0,0,1-1.71-1.63v-4.63a1.72,1.72,0,0,1,1.51-1.61h.21l70.93,0a1.53,1.53,0,0,1,.3,0,1.58,1.58,0,0,1,.31.09,1.7,1.7,0,0,1,1.1,1.6Z"/><path class="cls-30" d="M272.42,341.64l-38,0a1.63,1.63,0,0,1-1.53-1.63v-4.63a1.65,1.65,0,0,1,1.35-1.61h.18l33.34,0h0A14.13,14.13,0,0,0,272.42,341.64Z"/><rect class="cls-30" x="297.81" y="333.77" width="0.81" height="7.89"/><rect class="cls-30" x="295.08" y="333.77" width="0.81" height="7.89"/><rect class="cls-30" x="291.81" y="333.77" width="0.81" height="7.89"/><rect class="cls-30" x="286.8" y="333.76" width="0.81" height="7.89"/><rect class="cls-30" x="281.49" y="333.76" width="0.81" height="7.89"/><rect class="cls-30" x="273.36" y="333.75" width="0.81" height="7.89"/><rect class="cls-30" x="265.75" y="333.75" width="0.81" height="7.89"/><rect class="cls-30" x="258.95" y="333.74" width="0.81" height="7.89"/><rect class="cls-30" x="300.41" y="333.77" width="0.81" height="7.89"/><rect class="cls-30" x="302.13" y="333.77" width="0.81" height="7.89"/><rect class="cls-30" x="303.78" y="333.77" width="0.81" height="7.89"/><path class="cls-30" d="M305.84,333.8v7.83l-.3,0H305v-7.89h.51A1.53,1.53,0,0,1,305.84,333.8Z"/><path class="cls-30" d="M307,334.53v6.37a1.63,1.63,0,0,1-.8.64v-7.65A1.76,1.76,0,0,1,307,334.53Z"/><path class="cls-29" d="M297.94,327.61v4.46a1.72,1.72,0,0,1-.29.95,1.7,1.7,0,0,1-.81.64,1.81,1.81,0,0,1-.31.09l-.1,0h-.21l-70.92,0a1.72,1.72,0,0,1-1.72-1.63v-4.54a.28.28,0,0,1,0-.09,1.71,1.71,0,0,1,1.71-1.62l70.93,0h.09l.21,0a1.68,1.68,0,0,1,.32.09l.14.07.09.05h0l.09.05h0l.08.06.17.15.05.05h0l0,0h0l.05.06.07.09A1.7,1.7,0,0,1,297.94,327.61Z"/><path class="cls-30" d="M263.11,333.76l-38,0a1.63,1.63,0,0,1-1.53-1.63v-4.54a.28.28,0,0,1,0-.09,1.62,1.62,0,0,1,1.53-1.62l33.33,0c0,.06,0,.12,0,.18a14.09,14.09,0,0,0,4.61,7.7Z"/><rect class="cls-30" x="288.51" y="325.89" width="0.81" height="7.88"/><rect class="cls-30" x="285.78" y="325.89" width="0.81" height="7.89"/><rect class="cls-30" x="282.5" y="325.89" width="0.81" height="7.89"/><rect class="cls-30" x="277.49" y="325.88" width="0.81" height="7.89"/><rect class="cls-30" x="272.18" y="325.88" width="0.81" height="7.89"/><rect class="cls-30" x="264.05" y="325.87" width="0.81" height="7.89"/><rect class="cls-30" x="256.44" y="325.87" width="0.81" height="7.89"/><rect class="cls-30" x="249.64" y="325.86" width="0.81" height="7.89" transform="translate(0.34 -0.26) rotate(0.06)"/><rect class="cls-30" x="291.1" y="325.89" width="0.81" height="7.89"/><rect class="cls-30" x="292.82" y="325.89" width="0.81" height="7.89"/><rect class="cls-30" x="294.48" y="325.89" width="0.81" height="7.89"/><path class="cls-30" d="M296.53,325.92v7.83a1.55,1.55,0,0,1-.31,0h-.5v-7.89h.5A1.53,1.53,0,0,1,296.53,325.92Z"/><path class="cls-30" d="M297.65,326.65V333a1.7,1.7,0,0,1-.81.64V326A1.8,1.8,0,0,1,297.65,326.65Z"/><path class="cls-29" d="M303.16,319.91v4.46a1.72,1.72,0,0,1-.29.95,1.78,1.78,0,0,1-.81.65l-.31.08a1.55,1.55,0,0,1-.31,0L230.52,326a1.65,1.65,0,0,1-.77-.18,1.71,1.71,0,0,1-.94-1.38s0,0,0-.07v-4.54a.28.28,0,0,1,0-.09,1.72,1.72,0,0,1,1.51-1.61h.2l70.93.05.3,0a1.68,1.68,0,0,1,.32.09,1.8,1.8,0,0,1,.8.64A1.7,1.7,0,0,1,303.16,319.91Z"/><path class="cls-30" d="M268.33,326.06l-38,0a1.33,1.33,0,0,1-.68-.18,1.75,1.75,0,0,1-.84-1.38s0,0,0-.07v-4.54a.28.28,0,0,1,0-.09,1.64,1.64,0,0,1,1.35-1.61h.18l33.33,0h0a14.27,14.27,0,0,0,4.44,7.7Z"/><rect class="cls-30" x="293.73" y="318.19" width="0.81" height="7.89"/><rect class="cls-30" x="291" y="318.19" width="0.81" height="7.88"/><rect class="cls-30" x="287.72" y="318.19" width="0.81" height="7.89"/><rect class="cls-30" x="282.71" y="318.18" width="0.81" height="7.88"/><rect class="cls-30" x="277.4" y="318.18" width="0.81" height="7.89"/><rect class="cls-30" x="269.27" y="318.17" width="0.81" height="7.89"/><rect class="cls-30" x="261.66" y="318.17" width="0.81" height="7.89"/><rect class="cls-30" x="254.86" y="318.16" width="0.81" height="7.88"/><rect class="cls-30" x="296.32" y="318.19" width="0.81" height="7.89"/><rect class="cls-30" x="298.04" y="318.19" width="0.81" height="7.89"/><rect class="cls-30" x="299.7" y="318.19" width="0.81" height="7.89"/><path class="cls-30" d="M301.75,318.22v7.83a1.55,1.55,0,0,1-.31,0h-.5v-7.89h.5A1.51,1.51,0,0,1,301.75,318.22Z"/><path class="cls-30" d="M302.87,319v6.37a1.78,1.78,0,0,1-.81.65v-7.66A1.8,1.8,0,0,1,302.87,319Z"/><path class="cls-29" d="M298,312v4.45a1.7,1.7,0,0,1-1.1,1.6,1.58,1.58,0,0,1-.31.09h-.31l-70.92,0a1.74,1.74,0,0,1-1.72-1.63V312s0-.06,0-.09a1.71,1.71,0,0,1,1.71-1.63l70.93.05a1.53,1.53,0,0,1,.3,0,1.68,1.68,0,0,1,.32.09,1.63,1.63,0,0,1,.8.64A1.58,1.58,0,0,1,298,312Z"/><path class="cls-30" d="M263.12,318.18l-38,0a1.64,1.64,0,0,1-1.53-1.63V312s0-.06,0-.09a1.62,1.62,0,0,1,1.53-1.63l33.33,0a14.11,14.11,0,0,0,4.65,7.88Z"/><rect class="cls-30" x="288.52" y="310.31" width="0.81" height="7.89" transform="matrix(1, 0, 0, 1, 0.33, -0.3)"/><rect class="cls-30" x="285.79" y="310.31" width="0.81" height="7.89"/><rect class="cls-30" x="282.52" y="310.31" width="0.81" height="7.88"/><rect class="cls-30" x="277.5" y="310.31" width="0.81" height="7.89"/><rect class="cls-30" x="272.2" y="310.3" width="0.81" height="7.89"/><rect class="cls-30" x="264.06" y="310.3" width="0.81" height="7.89"/><rect class="cls-30" x="256.45" y="310.29" width="0.81" height="7.89"/><rect class="cls-30" x="249.65" y="310.29" width="0.81" height="7.89"/><rect class="cls-30" x="291.11" y="310.32" width="0.81" height="7.89"/><rect class="cls-30" x="292.83" y="310.32" width="0.81" height="7.89"/><rect class="cls-30" x="294.49" y="310.32" width="0.81" height="7.89"/><path class="cls-30" d="M296.54,310.35v7.83l-.31,0h-.5v-7.88h.5A1.53,1.53,0,0,1,296.54,310.35Z"/><path class="cls-30" d="M297.66,311.08v6.37a1.76,1.76,0,0,1-.81.64v-7.65A1.63,1.63,0,0,1,297.66,311.08Z"/><path class="cls-31" d="M307.54,347.89c-1.61.52-3.24,1-4.89,1.4l-.78.19c-.61.15-1.23.3-1.85.43l-.1,0q-3,.66-6,1.11-2.81.42-5.68.65h0c-1.66.14-3.34.24-5,.28h-4.15l-.74,0-.65,0-.84,0h-.1l-.51,0-.65,0-1.43-.09H274l-.65-.05-.19,0-.41,0q-.5,0-1-.09l-.4,0-.66-.07c-.77-.08-1.54-.17-2.32-.28h0l-.67-.09-.22,0-.18,0-.46-.07-.13,0h-.07c-.57-.08-1.15-.18-1.73-.28l-.61-.1-.61-.12-.68-.12-.66-.13c-1.06-.21-2.12-.42-3.18-.66h0c-.91-.19-1.82-.4-2.73-.62l-.66-.16-.31-.07a25.21,25.21,0,0,1,13-24.23l1-.5.95-.56a25.18,25.18,0,0,1,37.21,24.52Z"/><path class="cls-31" d="M312.4,330.08a25,25,0,0,0-9.24-9.53l-.29-.17c-.27-.16-.53-.31-.81-.45l-.31-.16c-.27-.13-.53-.27-.81-.39l-.43-.2-.81-.34-.85-.32-.07,0-.74-.25-.17-.06h-.07l-.19-.08-.5-.14-.26-.07-.31-.09-.81-.19-.44-.09-.81-.15-.85-.13-.79-.09h0l-.91-.07-.81,0c-.59,0-1.19,0-1.79,0l-.81,0c-.64,0-1.28.12-1.92.22-.27,0-.54.08-.8.13a23.29,23.29,0,0,0-2.47.58l-.49.15h0l0,0-.08,0a25.63,25.63,0,0,0-4.5,1.93h0c-.26.15-.53.3-.78.46l-.15.08a25.24,25.24,0,0,0-6.08,5.18l-.16.18a25.19,25.19,0,0,0-4.39,7.69h0l-.06.19a23.69,23.69,0,0,0-.81,2.85v.08a24.4,24.4,0,0,0-.59,4.75h0a25.31,25.31,0,0,0,.94,7.45c0,.14.09.29.13.44q.22.71.48,1.41l.13,0,.46.07.18,0,.22,0,.67.09h0c.78.11,1.55.2,2.32.28l.66.07.4,0q.5.06,1,.09l.41,0,.19,0,.65.05h.13l1.43.09.65,0,.51,0h.1l.84,0,.65,0,.74,0h4.15c1.69,0,3.37-.14,5-.28h0q2.88-.22,5.68-.65,3-.45,6-1.11l.1,0a0,0,0,0,1,0,0l1.86-.46.78-.19c2.44-.62,4.84-1.34,7.18-2.16l1.18-.41.29-.11c.73-.27,1.46-.54,2.17-.83l.59-.23h0l.12,0h0l.68-.29.51-.21c0-.18,0-.37.05-.55A25,25,0,0,0,312.4,330.08Z"/><path class="cls-29" d="M310.47,331.13a25.11,25.11,0,0,0-7.31-8.27l-.29-.21-.81-.54-.31-.2-.81-.48-.44-.24c-.26-.15-.53-.29-.8-.42s-.57-.28-.85-.41L298,320l-.29-.12-.62-.23-.53-.19c-.09,0-.18-.07-.27-.09-.59-.2-1.19-.37-1.79-.53l-.81-.18c-.59-.13-1.18-.24-1.77-.32l-.16,0-.8-.1-.32,0h-.29c-.35,0-.74-.06-1.07-.08h-.81q-1,0-1.92.06l-.3,0h-.11l0,0H286a23.91,23.91,0,0,0-2.52.37l-.81.18a24.3,24.3,0,0,0-4.5,1.51l-.8.37-.15.07-1,.52a25.06,25.06,0,0,0-6.06,4.66l-.13.13-.05.05h0a25,25,0,0,0-4.92,7.69h0a25.27,25.27,0,0,0-1.81,7.87,23.87,23.87,0,0,0,0,3.78,24.33,24.33,0,0,0,.69,4.11c.09.34.18.68.29,1l.61.1c.58.1,1.16.2,1.73.28h.07l.13,0,.46.07.18,0,.22,0,.67.09h0c.78.11,1.55.2,2.32.28l.66.07.4,0q.5.06,1,.09l.41,0,.19,0,.65.05h.13l1.43.09.65,0,.51,0h.1l.84,0,.65,0,.74,0h4.15c1.69,0,3.37-.14,5-.28h0q2.88-.22,5.68-.65,3-.45,6-1.11l.1,0a0,0,0,0,1,0,0l1.86-.46.78-.19c2.44-.62,4.84-1.34,7.18-2.16l1.18-.41.29-.11c.73-.27,1.46-.54,2.17-.83A25,25,0,0,0,310.47,331.13Z"/><path class="cls-30" d="M308.66,332.47a23,23,0,0,0-5.93-7l-.67-.51-.31-.22q-.4-.28-.81-.54l-.44-.27c-.26-.16-.53-.32-.81-.47s-.56-.31-.85-.45l-.8-.38c-.3-.14-.61-.27-.91-.39l-.81-.31-.08,0c-.39-.14-.79-.26-1.18-.38l-.53-.15-.8-.2c-.64-.15-1.28-.27-1.93-.36l-.8-.1-.25,0-.51,0h0c-.57-.05-1.14-.07-1.71-.07l-.8,0a21.48,21.48,0,0,0-4.21.54c-.27.06-.54.12-.81.2a22.6,22.6,0,0,0-4.5,1.71l-.72.37-.09.06a23.34,23.34,0,0,0-3.49,2.38l-.22.18c-.24.2-.47.41-.7.62s-.54.51-.8.78a22.28,22.28,0,0,0-4.38,6.29h0l0,.06a21.89,21.89,0,0,0-1.21,3.23v.05a.09.09,0,0,0,0,.06,22.1,22.1,0,0,0-.78,3.73h0c0,.19,0,.38-.05.57q-.09,1-.09,1.95a22.85,22.85,0,0,0,.73,5.7c0,.08.05.16.07.24.13.48.28,1,.44,1.43l.46.07.18,0,.22,0,.67.09-.24-.67c-.11-.32-.21-.65-.31-1s-.18-.58-.26-.91v-.09a21.26,21.26,0,0,1-.5-6.89,22.35,22.35,0,0,1,.78-4.09c.16-.57.35-1.12.55-1.66h0a22.3,22.3,0,0,1,.93-2.12h0a21.24,21.24,0,0,1,2.86-4.27c.25-.3.52-.6.8-.89a21.47,21.47,0,0,1,2.92-2.53h0l.25-.18h0c.4-.28.8-.55,1.22-.8l.75-.44.06,0a21.52,21.52,0,0,1,4.5-1.84l.8-.21a21.73,21.73,0,0,1,4.22-.57l.79,0h.75l.75,0,1,.09.8.11c.65.1,1.29.23,1.92.38l.47.12.34.1c.29.08.57.17.85.27s.63.21.94.33l.81.33c.3.13.61.27.91.42l.8.41.85.49q.4.24.81.51l.44.3.28.2h0a21.57,21.57,0,0,1,8.6,21.05l1.18-.41.29-.11A22.79,22.79,0,0,0,308.66,332.47Z"/><path class="cls-30" d="M287.9,351.4a5.61,5.61,0,0,1-1.12-1.82l-4.13,1.67c0,.25,0,.49,0,.73h.53c1.69,0,3.37-.14,5-.28Zm0,0a5.61,5.61,0,0,1-1.12-1.82l-4.13,1.67c0,.25,0,.49,0,.73h.53c1.69,0,3.37-.14,5-.28Zm0,0a5.61,5.61,0,0,1-1.12-1.82l-4.13,1.67c0,.25,0,.49,0,.73h.53c1.69,0,3.37-.14,5-.28Zm0,0a5.61,5.61,0,0,1-1.12-1.82l-4.13,1.67c0,.25,0,.49,0,.73h.53c1.69,0,3.37-.14,5-.28Zm0,0a5.61,5.61,0,0,1-1.12-1.82l-4.13,1.67c0,.25,0,.49,0,.73h.53c1.69,0,3.37-.14,5-.28Zm0,0a5.61,5.61,0,0,1-1.12-1.82l-4.13,1.67c0,.25,0,.49,0,.73h.53c1.69,0,3.37-.14,5-.28ZM300,346.92a8,8,0,0,0-.37-1.18c-.14-.32-.28-.62-.43-.91a7.66,7.66,0,0,0-.44-.7l0-.05h0a5.46,5.46,0,0,0-.77-.88h0a6.78,6.78,0,0,0-.84-.66,5.67,5.67,0,0,0-.8-.45,7.12,7.12,0,0,0-.76-.31l-.15,0-.25-.08h0l-.09,0a11.58,11.58,0,0,0-2.46-.42h-.11l-.7,0c-.93,0-1.92-.05-3,0-.46,0-.87,0-1.25,0s-.56,0-.81-.05h0a5.17,5.17,0,0,1-1.47-.32,2.66,2.66,0,0,1-1-.67,3.49,3.49,0,0,1-.62-1,.69.69,0,0,1-.05-.13,3.5,3.5,0,0,1-.24-1.08,3.18,3.18,0,0,1,0-.62,2.38,2.38,0,0,1,.15-.52,3,3,0,0,1,.7-1,3.53,3.53,0,0,1,.61-.44,3.92,3.92,0,0,1,.68-.34,3.58,3.58,0,0,1,1.24-.28h0a2.68,2.68,0,0,1,.8.07,3.05,3.05,0,0,1,.7.24,4.72,4.72,0,0,1,2.08,2.6l1.43-.58.81-.32,2.47-1,.42-.18c-.13-.32-.27-.63-.42-.92v-.09c-.15-.27-.3-.47-.47-.72h0a1.64,1.64,0,0,0-.14-.22,7.48,7.48,0,0,0-.64-.82,2.18,2.18,0,0,0-.21-.22h0a6.85,6.85,0,0,0-.8-.73,6,6,0,0,0-.91-.61l-.35-.19-.46-.2a7.32,7.32,0,0,0-1.15-.36c-.21-.05-.42-.08-.64-.11a4.4,4.4,0,0,0-.51-.05h-.3a9.06,9.06,0,0,0-1.92.14c-.26,0-.53.1-.8.17l-.07,0-.18-.43-.81-2-.46-1.14-.95.38-.81.33-1.09.44,1.09,2.69.08.19.27.65a3.9,3.9,0,0,0-.35.19c-.36.2-.69.41-1,.63h0a9.2,9.2,0,0,0-1.25,1l-.23.24h0a7.81,7.81,0,0,0-1.4,2,6.5,6.5,0,0,0-.4,1.12h0a6.58,6.58,0,0,0-.2,1.46,6.85,6.85,0,0,0,.54,2.76l.21.49h0a7.85,7.85,0,0,0,.62,1.08l.2.27a5.34,5.34,0,0,0,.59.66l.07.06a5.57,5.57,0,0,0,.77.61,8.13,8.13,0,0,0,.81.47,8.76,8.76,0,0,0,.82.33,10.42,10.42,0,0,0,2,.45c.35.05.72.08,1.1.1l.33,0,.8,0c.78,0,1.61,0,2.47,0h.07l.74,0a10.24,10.24,0,0,1,1.27,0,6.37,6.37,0,0,1,.65.09,4.79,4.79,0,0,1,.81.23h0a2.81,2.81,0,0,1,1,.7,3.93,3.93,0,0,1,.69,1.14.26.26,0,0,0,.07.1V348a3.09,3.09,0,0,1,.17,1,2.49,2.49,0,0,1,0,.47,2.67,2.67,0,0,1-.23.69,3,3,0,0,1-.6.81q3-.45,6-1.11l.1,0a2.71,2.71,0,0,0,.09-.41,7.46,7.46,0,0,0,.1-.95A6.62,6.62,0,0,0,300,346.92ZM287.9,351.4a5.61,5.61,0,0,1-1.12-1.82l-4.13,1.67c0,.25,0,.49,0,.73h.53c1.69,0,3.37-.14,5-.28Zm0,0a5.61,5.61,0,0,1-1.12-1.82l-4.13,1.67c0,.25,0,.49,0,.73h.53c1.69,0,3.37-.14,5-.28Zm0,0a5.61,5.61,0,0,1-1.12-1.82l-4.13,1.67c0,.25,0,.49,0,.73h.53c1.69,0,3.37-.14,5-.28Zm0,0a5.61,5.61,0,0,1-1.12-1.82l-4.13,1.67c0,.25,0,.49,0,.73h.53c1.69,0,3.37-.14,5-.28Zm0,0a5.61,5.61,0,0,1-1.12-1.82l-4.13,1.67c0,.25,0,.49,0,.73h.53c1.69,0,3.37-.14,5-.28Zm0,0a5.61,5.61,0,0,1-1.12-1.82l-4.13,1.67c0,.25,0,.49,0,.73h.53c1.69,0,3.37-.14,5-.28Zm0,0a5.61,5.61,0,0,1-1.12-1.82l-4.13,1.67-1,.41.15.34h1.4c1.69,0,3.37-.14,5-.28Z"/></g></svg>