<svg id="Ñëîé_1" data-name="Ñëîé 1" xmlns="http://www.w3.org/2000/svg" xmlns:xlink="http://www.w3.org/1999/xlink" viewBox="0 0 242.8 198.67"><defs><style>.cls-1{fill:none;}.cls-2{fill:#ebf5f7;}.cls-3{fill:#d8e1e3;}.cls-4{fill:#a82b00;}.cls-5{clip-path:url(#clip-path);}.cls-6{fill:url(#linear-gradient);}.cls-7{fill:url(#linear-gradient-2);}.cls-8{fill:url(#linear-gradient-3);}.cls-9{fill:url(#linear-gradient-4);}.cls-10{fill:#d43900;}.cls-11{fill:#20363e;}.cls-12{fill:#cac8c8;}.cls-13{fill:#4659a4;}.cls-14{fill:#e3a668;}.cls-15{fill:#414a4d;}.cls-16{fill:#be1e2d;}.cls-17{fill:#ffc387;}.cls-18{fill:#ffe3c7;}.cls-19{fill:#cfeefa;}.cls-20{fill:#4d4640;}.cls-21{fill:#a31a27;}</style><clipPath id="clip-path" transform="translate(-30.6 -32.17)"><path class="cls-1" d="M149.74,199.28a11.17,11.17,0,1,1,11.17-11.17A11.18,11.18,0,0,1,149.74,199.28Zm0-21.49a10.32,10.32,0,1,0,10.32,10.32A10.32,10.32,0,0,0,149.74,177.79Z"/></clipPath><linearGradient id="linear-gradient" x1="518.05" y1="24.79" x2="549.6" y2="24.79" gradientTransform="translate(-314.26 115.94) scale(0.84)" gradientUnits="userSpaceOnUse"><stop offset="0.05" stop-color="#955713"/><stop offset="0.23" stop-color="#ffca76"/><stop offset="0.25" stop-color="#f2bc6a"/><stop offset="0.33" stop-color="#ca9044"/><stop offset="0.4" stop-color="#ad7129"/><stop offset="0.46" stop-color="#9b5e19"/><stop offset="0.5" stop-color="#955713"/><stop offset="0.55" stop-color="#995c17"/><stop offset="0.6" stop-color="#a76a23"/><stop offset="0.66" stop-color="#bc8138"/><stop offset="0.73" stop-color="#daa254"/><stop offset="0.79" stop-color="#ffca76"/><stop offset="0.95" stop-color="#955713"/></linearGradient><linearGradient id="linear-gradient-2" x1="518.05" y1="24.79" x2="549.6" y2="24.79" gradientTransform="translate(-314.26 157.15) scale(0.84)" xlink:href="#linear-gradient"/><linearGradient id="linear-gradient-3" x1="518.05" y1="24.79" x2="549.6" y2="24.79" gradientTransform="translate(-340.89 115.94) scale(0.84)" xlink:href="#linear-gradient"/><linearGradient id="linear-gradient-4" x1="518.05" y1="24.79" x2="549.6" y2="24.79" gradientTransform="translate(-340.89 157.15) scale(0.84)" xlink:href="#linear-gradient"/></defs><path class="cls-2" d="M43.31,54.1V195.9a21.88,21.88,0,0,0,6.39,15.45l0,.05a21.87,21.87,0,0,0,15.52,6.43h86.6a21.92,21.92,0,0,0,21.91-21.93V54.1a21.9,21.9,0,0,0-6.41-15.5l0,0a21.83,21.83,0,0,0-15.46-6.4H65.27a22,22,0,0,0-22,21.93Z" transform="translate(-30.6 -32.17)"/><path class="cls-3" d="M129.9,195.89a21,21,0,0,1,.3-3.39H30.86a22.16,22.16,0,0,0-.26,3.39,21.94,21.94,0,0,0,21.93,21.93h99.33A21.94,21.94,0,0,1,129.9,195.89Z" transform="translate(-30.6 -32.17)"/><path class="cls-4" d="M134.48,188.12c0,1.56,1.7,2.82,2.13,4.26s-.09,3.47.78,4.69,3,1.3,4.26,2.22,1.91,2.86,3.4,3.34,3.12-.74,4.69-.74,3.3,1.17,4.73.74,2.13-2.48,3.4-3.34,3.34-1,4.21-2.22.3-3.21.79-4.69,2.13-2.7,2.13-4.26-1.66-2.87-2.13-4.26.12-3.48-.79-4.74-3-1.26-4.21-2.17-2-2.87-3.4-3.35-3.16.7-4.73.7-3.31-1.17-4.69-.7-2.17,2.48-3.4,3.35-3.34,1-4.26,2.17-.29,3.26-.78,4.74S134.48,186.56,134.48,188.12Z" transform="translate(-30.6 -32.17)"/><g class="cls-5"><rect class="cls-1" x="123.02" y="116.26" width="26.63" height="41.21"/><rect class="cls-6" x="123.02" y="116.26" width="26.63" height="41.21"/><rect class="cls-1" x="123.02" y="157.47" width="26.63" height="41.21"/><rect class="cls-7" x="123.02" y="157.47" width="26.63" height="41.21"/><rect class="cls-1" x="96.38" y="116.26" width="26.63" height="41.21"/><rect class="cls-8" x="96.38" y="116.26" width="26.63" height="41.21"/><rect class="cls-1" x="96.38" y="157.47" width="26.63" height="41.21"/><rect class="cls-9" x="96.38" y="157.47" width="26.63" height="41.21"/><rect class="cls-1" x="123.02" y="116.26" width="26.63" height="41.21"/><rect class="cls-6" x="123.02" y="116.26" width="26.63" height="41.21"/><rect class="cls-1" x="123.02" y="157.47" width="26.63" height="41.21"/><rect class="cls-7" x="123.02" y="157.47" width="26.63" height="41.21"/><rect class="cls-1" x="96.38" y="116.26" width="26.63" height="41.21"/><rect class="cls-8" x="96.38" y="116.26" width="26.63" height="41.21"/><rect class="cls-1" x="96.38" y="157.47" width="26.63" height="41.21"/><rect class="cls-9" x="96.38" y="157.47" width="26.63" height="41.21"/></g><path class="cls-10" d="M142.69,183.42a3,3,0,1,0,3-3A3,3,0,0,0,142.69,183.42Z" transform="translate(-30.6 -32.17)"/><path class="cls-11" d="M105.88,68.2c-.32,0-.76-.23-.48-1.22a4.93,4.93,0,0,1-.67.89c-1.09,1-1.81-.61-.38-2.32.56-.67,1.65-1,2.18-.43.14.14.06.3-.1.27-.1-.35-.45-.42-.8-.24a4.22,4.22,0,0,0-1.25,1.35,3.39,3.39,0,0,0-.39,1c-.09.66.43.59.87.06a8.2,8.2,0,0,0,.84-1.32c.21-.4.33-.62.64-.6a1.26,1.26,0,0,0,.39,0,5.58,5.58,0,0,0-.88,1.77c-.07.38,0,.56.1.56.4,0,1-1.17,1.22-1.58.08-.17.22-.12.13.08C107,67,106.44,68.15,105.88,68.2Z" transform="translate(-30.6 -32.17)"/><path class="cls-11" d="M108.9,68.22c-.33,0-.78-.23-.5-1.11a5.08,5.08,0,0,1,.52-1c.23-.36.06-.62-.67.06a6.24,6.24,0,0,0-1.31,1.87c-.08.13-.16.14-.36.14a.74.74,0,0,0-.32,0c.45-.89.84-1.78,1.3-2.63.25-.46.37-.62.67-.6a1.29,1.29,0,0,0,.39,0,6.13,6.13,0,0,0-1.13,1.77,8.29,8.29,0,0,1,.78-.85c.45-.4,1.42-1,1.74-.88a13.69,13.69,0,0,0-1.13,2.43c-.07.39,0,.47.15.47.49,0,1.09-1.23,1.3-1.63.07-.17.22-.11.13.09C110.18,67,109.62,68.22,108.9,68.22Z" transform="translate(-30.6 -32.17)"/><path class="cls-11" d="M112.5,66.93c-.09.21-.39,1,.06,1s1-1.18,1.21-1.57c.08-.17.23-.13.15.06-.23.52-.78,1.75-1.53,1.75a.54.54,0,0,1-.43-.26,1,1,0,0,1-.08-.82c-.28.46-.73,1.21-1.38,1-.88-.24-.36-1.76.32-2.59a1.65,1.65,0,0,1,2-.55c.45-.86.86-1.72,1.09-2.23s.34-.52.64-.49a1.84,1.84,0,0,0,.41,0A34.26,34.26,0,0,0,112.5,66.93Zm-1.73-.27c-.63,1.17-.06,1.75.74.62a21.14,21.14,0,0,0,1.26-2.13C112.3,64.69,111.27,65.74,110.77,66.66Z" transform="translate(-30.6 -32.17)"/><path class="cls-11" d="M82.85,57.71c2,.39,4.41.88,6.08,2.35a3.17,3.17,0,0,1,.82,3.25.53.53,0,0,1-.06.1c-.12.25-.2.44-.14.54s0,.06.12.06a.82.82,0,0,0,.36-.13,1.09,1.09,0,0,0,.44-.48c.46-.77,0-2.8-1.55-4a16.25,16.25,0,0,0-5.51-2.51l.33-.52c.51-.92.88-1.67,1.27-2.46l.21-.43a9.51,9.51,0,0,0,5-2.84,6.77,6.77,0,0,0,2.08-5,1.49,1.49,0,0,0-1.6-1.16c-.8,0-2.85.48-4.58,4.94,0,0-1.2,3.07-1.43,3.6-2.18.25-3.57-.6-3.67-2.18a3.38,3.38,0,0,1,2.9-3.46c.35,0,.58-.16.57-.28s0-.14-.28-.14a1.55,1.55,0,0,0-.34,0c-3,.68-3.9,2.33-3.76,3.65s1.65,2.87,4.17,2.87h.13a30.59,30.59,0,0,1-1.72,3.17A9.2,9.2,0,0,0,81,56.57a9.8,9.8,0,0,0-2.59.32c-2,.61-2.64,1.7-2.51,2.51a2,2,0,0,0,2.17,1.5,4,4,0,0,0,1.76-.44A8.16,8.16,0,0,0,82.85,57.71Zm-.75-.12a7,7,0,0,1-2.55,2.31,4,4,0,0,1-1.69.43c-.81,0-1.43-.36-1.49-.88s.5-1.32,2.3-1.78a7.59,7.59,0,0,1,1.89-.23A7.74,7.74,0,0,1,82.1,57.59ZM91.5,46c0,3.23-3.12,6.18-6,6.87C86.18,51.49,87,50.05,87,50c1.73-3.38,3.21-4.58,4-4.58A.5.5,0,0,1,91.5,46Z" transform="translate(-30.6 -32.17)"/><path class="cls-11" d="M88.62,58.37a.92.92,0,0,0,.84.59,1.77,1.77,0,0,0,1.17-.59A7.9,7.9,0,0,0,91.7,57a1.84,1.84,0,0,0,.15,1.59.91.91,0,0,0,.75.37h.07a2,2,0,0,0,1.2-.85,1.4,1.4,0,0,0,1.47.88,1.69,1.69,0,0,0,.69-.17,2.06,2.06,0,0,0,.59.09,2.83,2.83,0,0,0,2.25-1.69,1.7,1.7,0,0,0,.31,1.31,1.26,1.26,0,0,0,.94.4,1.72,1.72,0,0,0,1.17-.5A7.78,7.78,0,0,0,103,55.8c.07-.13.09-.24,0-.3a.11.11,0,0,0-.1-.06c-.09,0-.18.09-.24.22a7,7,0,0,1-1.78,2.54,1,1,0,0,1-.54.2.44.44,0,0,1-.38-.18,1,1,0,0,1-.09-.85s.24-1.27.38-1.71a11.45,11.45,0,0,0,2.24-2.78h1c.12,0,.19-.13.19-.26s-.06-.2-.16-.2h-.73c.24-.46.47-.92.69-1.39.44-1,.54-1.69.29-2.09a.54.54,0,0,0-.48-.26c-.52,0-1.16.53-1.64,1.36s-.82,1.52-1.22,2.38h-1a.18.18,0,0,0-.15.09.31.31,0,0,0,0,.17.18.18,0,0,0,.17.2h.81a27.85,27.85,0,0,0-1,2.93,12.69,12.69,0,0,1-1.15,2,1.83,1.83,0,0,1-1.31.78h-.17a2.75,2.75,0,0,0,1.13-1.85,3.58,3.58,0,0,0-.45-1.63c0-.13-.11-.26-.17-.39-.26-.62-.4-1.74.34-2.09a.67.67,0,0,1,.5,0c.16.08.3,0,.32-.06s0-.22-.22-.31a1.12,1.12,0,0,0-.65-.09c-.73.1-1.25,1.07-1.44,1.48-.51,1.12-1.12,2.29-1.44,2.9-.36,0-.65.51-.66,1.07-.37.5-.72.84-1,.84h0a.13.13,0,0,1-.11,0c-.06-.07-.14-.28,0-.9a9.81,9.81,0,0,1,1.56-3.15l.11-.11-.16,0a1.4,1.4,0,0,1-.45,0,1.09,1.09,0,0,0-.24,0c-.58,0-.82.39-1.2,1.1a13.49,13.49,0,0,1-1.5,2.37,1.78,1.78,0,0,1-1.11.73.33.33,0,0,1-.26-.11.84.84,0,0,1-.1-.69A6.28,6.28,0,0,1,90,55.91a7.24,7.24,0,0,1,2.24-2.41,1.35,1.35,0,0,1,.62-.17.75.75,0,0,1,.75.57v0h0a.28.28,0,0,0,.33-.15.38.38,0,0,0-.11-.41,1.76,1.76,0,0,0-1.34-.55,3.69,3.69,0,0,0-2.65,1.33C88.46,55.86,88.23,57.54,88.62,58.37Zm7.58-4.45.09-.19a8.61,8.61,0,0,0,.12,1.34,9.21,9.21,0,0,1,.13,1.62,2.28,2.28,0,0,1-.7,1.71,1.3,1.3,0,0,1-.66-1.25.6.6,0,0,0-.14-.47.37.37,0,0,0-.18-.1c.14-.26.27-.52.4-.78,0,0,0,0,0,0C95.58,55.17,95.92,54.48,96.2,53.92Zm-1.36,3.53a1.5,1.5,0,0,0,.62,1.15.9.9,0,0,1-.25,0,.56.56,0,0,1-.54-.35A.82.82,0,0,1,94.84,57.45Zm6.67-5,.18-.41a12.68,12.68,0,0,1,1-2c.37-.52.54-.6.6-.6a0,0,0,0,1,0,0,2.21,2.21,0,0,1-.23,1.27,17.8,17.8,0,0,1-.83,1.7Zm-1,2.46,0-.1c.22-.55.49-1.22.77-1.9H102A12.87,12.87,0,0,1,100.49,54.88Z" transform="translate(-30.6 -32.17)"/><path class="cls-11" d="M109.23,57.26a3.36,3.36,0,0,0,1.25-.25c2.4-1,3.69-3.29,3.39-4.78A1.48,1.48,0,0,0,112.3,51a3.43,3.43,0,0,0-1,.17c-.19.06-.37.17-.36.28s0,.1.21.1l.2,0a3,3,0,0,1,.41,0,1.07,1.07,0,0,1,1.17.95,4.33,4.33,0,0,1-2.46,4.08,3.54,3.54,0,0,1-1.18.21,2.28,2.28,0,0,1-2-.95c-.44-.64-.8-1.88,0-4.11,1.14-3.07,4.86-6,7.67-6a3.08,3.08,0,0,1,1.65.44c1.29.79,0,4.36-.81,6.42-1.29,3.07-2.1,5.26-2.2,6.68a1.9,1.9,0,0,0,.35,1.49,1,1,0,0,0,.8.32h.08c1.93-.09,4.6-4.09,5.35-5.28a7.09,7.09,0,0,0-.25,2.12,2.16,2.16,0,0,0,2.3,2.29c2.18,0,5.47-2.17,6.62-5.06.82-2.11.78-4.07-.11-5.37a2.7,2.7,0,0,0-2.24-1.25h-.39a1.18,1.18,0,0,0-.89.38.2.2,0,0,0,0,.15c.07.12.37.11.84,0a1.91,1.91,0,0,1,2,.76c.7,1,.57,3-.34,5.17s-4,4.73-5.69,4.73a1.08,1.08,0,0,1-.88-.35,2.37,2.37,0,0,1-.31-1.85,13.53,13.53,0,0,1,1.1-3.2c.23-.54.44-1,.59-1.46a1.49,1.49,0,0,0,0-1.23.32.32,0,0,0-.28-.15c-.27,0-.62.28-1,.76s-1,1.52-1.55,2.48c-1.27,2.14-2.86,4.82-4.29,5.66-.36.22-.63.25-.76.09a1.3,1.3,0,0,1,0-1,41.92,41.92,0,0,1,2.43-6.89c1.09-2.45,1.39-4.32.91-5.56a2.58,2.58,0,0,0-1.42-1.46,4.46,4.46,0,0,0-1.81-.34A10.23,10.23,0,0,0,106.34,51a4.87,4.87,0,0,0,.06,4.69A3.38,3.38,0,0,0,109.23,57.26Z" transform="translate(-30.6 -32.17)"/><path class="cls-11" d="M131.6,52.56a.9.9,0,0,0,.86-.73.63.63,0,0,0-.64-.75.92.92,0,0,0-.86.74.69.69,0,0,0,.15.53A.62.62,0,0,0,131.6,52.56Z" transform="translate(-30.6 -32.17)"/><path class="cls-11" d="M137.19,56c.05-.13.09-.25.12-.35a15,15,0,0,0,3.47-5.09c.42-.94.52-1.68.27-2.07a.55.55,0,0,0-.49-.25,2.38,2.38,0,0,0-1.67,1.35,27.44,27.44,0,0,0-2.58,6v0l0,0A17.89,17.89,0,0,1,135,57.79a1.54,1.54,0,0,1-1.1.73h0a.55.55,0,0,1-.46-.23,1.83,1.83,0,0,1-.1-1.53c.07-.26.15-.52.23-.75s.09-.25.12-.35a15,15,0,0,0,3.47-5.09c.43-.94.53-1.68.27-2.07a.55.55,0,0,0-.49-.25,2.4,2.4,0,0,0-1.67,1.35,27.33,27.33,0,0,0-2.57,6l0,.05a10.68,10.68,0,0,1-1.58,2.54,1.16,1.16,0,0,1-.66.31h-.06a.4.4,0,0,1-.31-.15,1.1,1.1,0,0,1,0-.86c0-.11.2-.48.2-.48l1.36-3.17c.1-.23.15-.39.08-.51s-.21-.14-.48-.14h-1l0,.08a.65.65,0,0,1,.17.66l-1.09,2.76a2.11,2.11,0,0,0,0,1.82,1.06,1.06,0,0,0,1,.44c.84,0,1.54-.92,2-1.83a2,2,0,0,0,.19,1.45,1.21,1.21,0,0,0,1,.42,3,3,0,0,0,2.36-1.82,1.9,1.9,0,0,0,.2,1.4,1.19,1.19,0,0,0,1,.42c1.59,0,2.47-1.92,2.93-2.95,0-.1.08-.19.12-.26s.06-.25,0-.29a.11.11,0,0,0-.1-.06c-.09,0-.19.09-.26.22a17.34,17.34,0,0,1-1.25,2.15,1.54,1.54,0,0,1-1.1.73h0a.58.58,0,0,1-.47-.23,1.84,1.84,0,0,1-.09-1.53A6.65,6.65,0,0,1,137.19,56Zm.34-1.12a34.18,34.18,0,0,1,2.59-5.32c.34-.49.48-.54.52-.54s0,0,0,0a2.09,2.09,0,0,1-.23,1.23A17.21,17.21,0,0,1,137.53,54.89Zm-3.58,0a34,34,0,0,1,2.58-5.32c.34-.49.48-.54.52-.54s0,0,0,0a2.26,2.26,0,0,1-.23,1.23A17.3,17.3,0,0,1,134,54.89Z" transform="translate(-30.6 -32.17)"/><path class="cls-11" d="M101.72,72.71l.43,0c.92,0,1.53-.39,1.53-1,0-.09-.05-.4-.21-.4s-.23.22-.23.3c0,.3-.33.45-1,.45a18.33,18.33,0,0,1-4.46-.93l.06-.06c.19-.2.54-.56.69-.56h0l.15,0a.25.25,0,0,0,.27-.26.38.38,0,0,0-.38-.37l-.15,0-.19.06-.11,0h0a4.89,4.89,0,0,0-1,.94c-.27-.08-.63-.2-1-.35a20.27,20.27,0,0,0-4.45-1.12c-.27,0-.55,0-.81,0-3.19,0-4.93,1.83-5.24,3.65a2.87,2.87,0,0,0,1.85,3.32,2.68,2.68,0,0,0,.93.16,2.84,2.84,0,0,0,2.87-2.43c0-.18-.1-.27-.2-.27a.34.34,0,0,0-.21.1h0v.06a1.85,1.85,0,0,1-.54,1.08,2.47,2.47,0,0,1-1.86.91,2.35,2.35,0,0,1-.77-.13,1.65,1.65,0,0,1-1.13-2c.27-1.72,2.18-3.49,4.91-3.49h.33a18.87,18.87,0,0,1,5.06.91,21.73,21.73,0,0,0-1.16,2.32c-1,2.24-2.44,5.3-3.78,6.76A7.65,7.65,0,0,1,86.24,83,5.5,5.5,0,0,1,82,81.23a4.06,4.06,0,0,1-.85-3.42,2.93,2.93,0,0,1,1.39-2,1.63,1.63,0,0,0,.35-.28h0a.32.32,0,0,0-.06-.25.32.32,0,0,0-.23-.08A2.63,2.63,0,0,0,80.74,77a4.76,4.76,0,0,0,.47,4.42,6.82,6.82,0,0,0,5.58,2.3h0a8.25,8.25,0,0,0,6.06-2.34A15.46,15.46,0,0,0,95.57,76a21.57,21.57,0,0,1,1.91-4.35A16.09,16.09,0,0,0,101.72,72.71Z" transform="translate(-30.6 -32.17)"/><path class="cls-11" d="M137.05,72.15a.54.54,0,0,0-.48-.26c-.52,0-1.16.53-1.63,1.36a26.11,26.11,0,0,0-1.23,2.38h-1a.18.18,0,0,0-.16.09.31.31,0,0,0,0,.17.18.18,0,0,0,.17.2h.81a30.53,30.53,0,0,0-1,2.94c-.4.81-1.39,2.69-2.16,2.69a.26.26,0,0,1-.2-.08c-.09-.11-.1-.35,0-.71a24.81,24.81,0,0,1,2-4.35l0,0-.05,0a.48.48,0,0,0-.18,0,6.88,6.88,0,0,0-3,1.63,12.55,12.55,0,0,0-1.14,1.2,9.77,9.77,0,0,1,1.84-2.78l.29-.16-.32.07a1.23,1.23,0,0,1-.46,0l-.24,0c-.58,0-.81.29-1.24,1.09-.25.45-.48.9-.7,1.36l-.07.08c-.53,1.24-1.4,2.87-2.75,2.87a.64.64,0,0,1-.57-.29,2.55,2.55,0,0,1,0-1.94,4.83,4.83,0,0,0,2.08-.75,2.73,2.73,0,0,0,1.23-1.9.76.76,0,0,0-.3-.64,1.08,1.08,0,0,0-.69-.22,3.41,3.41,0,0,0-2.27,1.32,6.23,6.23,0,0,0-1,1.82c-.41.83-1.35,2.55-2.11,2.55a.24.24,0,0,1-.19-.08c-.1-.11-.12-.35,0-.71a26.53,26.53,0,0,1,2-4.35l0,0,0,0a.5.5,0,0,0-.19,0,7,7,0,0,0-3,1.63,14.41,14.41,0,0,0-1.14,1.2l.37-.68c.26-.47.5-.91.67-1.31a.64.64,0,0,0,0-.52.53.53,0,0,0-.49-.32c-.55,0-1.36.74-2.08,1.39l-.26.24a10.46,10.46,0,0,0-1.14,1.2,9.56,9.56,0,0,1,1.83-2.78l.3-.16-.33.07a1.23,1.23,0,0,1-.46,0l-.24,0c-.57,0-.81.29-1.24,1.09-.25.45-.47.89-.69,1.35l0,0c-.67,1.36-1.57,2.81-2.13,2.81h0a.14.14,0,0,1-.11-.05c-.06-.07-.14-.28,0-.91a10.17,10.17,0,0,1,1.56-3.14l.11-.11-.15,0a1.17,1.17,0,0,1-.45,0l-.25,0c-.56,0-.82.4-1.19,1.11a14,14,0,0,1-1.5,2.36,1.78,1.78,0,0,1-1.11.73.33.33,0,0,1-.27-.11.89.89,0,0,1-.1-.68,6.11,6.11,0,0,1,.69-1.69,7.22,7.22,0,0,1,2.23-2.41,1.42,1.42,0,0,1,.63-.17.75.75,0,0,1,.75.57v0h0a.29.29,0,0,0,.34-.15.42.42,0,0,0-.11-.42A1.78,1.78,0,0,0,111.8,76a3.72,3.72,0,0,0-2.65,1.32,6.34,6.34,0,0,0-1.26,2.26,5.61,5.61,0,0,1-1.39,1.8,1,1,0,0,1-.54.19.49.49,0,0,1-.39-.17,1,1,0,0,1-.08-.86s.23-1.26.38-1.7a11.64,11.64,0,0,0,2.24-2.78h1c.12,0,.19-.13.19-.26s-.06-.2-.16-.2h-.73c.24-.45.47-.91.69-1.39.44-1,.55-1.7.29-2.09a.53.53,0,0,0-.48-.26c-.52,0-1.16.53-1.63,1.36s-.83,1.52-1.22,2.38h-1a.19.19,0,0,0-.16.09.31.31,0,0,0,0,.17c0,.12.06.2.16.2h.82a27.82,27.82,0,0,0-1,2.93,13.74,13.74,0,0,1-1.14,2,1.69,1.69,0,0,1-1.48.76h0a2.66,2.66,0,0,0,1.13-1.84,3.45,3.45,0,0,0-.44-1.63c-.06-.13-.12-.26-.17-.39-.26-.62-.4-1.74.33-2.09a.63.63,0,0,1,.5,0c.16.08.3.05.33-.06s0-.22-.22-.31a1,1,0,0,0-.65-.09c-.73.1-1.25,1.07-1.44,1.48-.33.71-.69,1.43-1,2,0,0,0,0,0,0l-.06.13-.36.71c-.37,0-.67.52-.67,1.09a2.22,2.22,0,0,1-1.66.94.66.66,0,0,1-.58-.29,2.6,2.6,0,0,1,0-1.94,4.87,4.87,0,0,0,2.08-.75,2.77,2.77,0,0,0,1.23-1.9.76.76,0,0,0-.3-.64,1.1,1.1,0,0,0-.69-.22,3.41,3.41,0,0,0-2.27,1.32A5.35,5.35,0,0,0,96,80.55a1.6,1.6,0,0,0,1.67,1.67,2.47,2.47,0,0,0,1.87-.85,1.42,1.42,0,0,0,1.46.85,1.91,1.91,0,0,0,.7-.17,2.06,2.06,0,0,0,.59.09,2.82,2.82,0,0,0,2.25-1.7,1.65,1.65,0,0,0,.31,1.31,1.19,1.19,0,0,0,.93.4,1.71,1.71,0,0,0,1.17-.49,5.29,5.29,0,0,0,.81-1,2.11,2.11,0,0,0,.16.92.92.92,0,0,0,.84.59,1.77,1.77,0,0,0,1.17-.59A8.3,8.3,0,0,0,111,80.23a1.84,1.84,0,0,0,.15,1.59.93.93,0,0,0,.75.37h.07a1.56,1.56,0,0,0,.93-.55c-.09.18-.16.36-.26.54l-.07.14.14-.08a.76.76,0,0,1,.4-.09h.14c.37,0,.55,0,.68-.29a11.82,11.82,0,0,1,2.32-3.29c.71-.65,1-.79,1.09-.79l0,0c.1.16-.32,1-.52,1.44a2.39,2.39,0,0,1-.13.28,6.16,6.16,0,0,0-.59,1.66,1,1,0,0,0,.18.79.53.53,0,0,0,.41.2h0v0a10.1,10.1,0,0,1,2.37-3.57c.72-.67,1-.75,1.15-.75a.12.12,0,0,1,.12.06c.05.1,0,.3-.14.53a9,9,0,0,0-.94,1.79,1.8,1.8,0,0,0,0,1.62,1.12,1.12,0,0,0,.91.42c.83,0,1.54-.87,2.08-1.78,0,0,0,.08,0,.11A1.62,1.62,0,0,0,124,82.22a2.38,2.38,0,0,0,1.58-.57l-.27.55-.07.15.14-.09a.83.83,0,0,1,.41-.09h.13c.35,0,.54,0,.69-.28A11.86,11.86,0,0,1,129,78.55c.73-.67,1.05-.75,1.15-.75a.12.12,0,0,1,.12.06c.06.1,0,.3-.14.53a8.28,8.28,0,0,0-.93,1.79,1.83,1.83,0,0,0,0,1.63,1.13,1.13,0,0,0,.9.41c.86,0,1.58-.92,2.12-1.84a1.71,1.71,0,0,0,.3,1.37,1.22,1.22,0,0,0,.94.4,1.71,1.71,0,0,0,1.17-.49A8,8,0,0,0,136.29,79a.36.36,0,0,0,0-.31.12.12,0,0,0-.1,0,.31.31,0,0,0-.25.22,7.15,7.15,0,0,1-1.77,2.54,1,1,0,0,1-.55.19.47.47,0,0,1-.38-.17,1,1,0,0,1-.08-.86s.23-1.26.38-1.7a11.36,11.36,0,0,0,2.23-2.78h1c.13,0,.19-.13.19-.26s-.06-.2-.15-.2h-.74c.24-.46.47-.92.69-1.39C137.2,73.28,137.31,72.54,137.05,72.15Zm-1.73,3.94a12.27,12.27,0,0,1-1.5,2l.06-.15c.22-.53.48-1.19.75-1.85Zm1.11-2.16a17.88,17.88,0,0,1-.84,1.7h-.75c.06-.14.13-.28.19-.41a12.3,12.3,0,0,1,1-2c.38-.52.54-.6.6-.6a.06.06,0,0,1,0,0A2.32,2.32,0,0,1,136.43,73.93Zm-12.68,5.23a10,10,0,0,1,1-1.51c.85-1,1.26-1.14,1.4-1.14a.19.19,0,0,1,.2.14,2.13,2.13,0,0,1-.89,1.78A3.55,3.55,0,0,1,123.75,79.16Zm-16.61-3.53c.06-.13.11-.27.17-.4a13.28,13.28,0,0,1,1-2c.38-.52.54-.6.61-.6s0,0,0,0a2.23,2.23,0,0,1-.23,1.28,17.85,17.85,0,0,1-.84,1.7Zm-1,2.46.07-.17c.21-.52.47-1.18.75-1.83h.68A11.73,11.73,0,0,1,106.11,78.09Zm-5.64,2.57a1.52,1.52,0,0,0,.61,1.15.88.88,0,0,1-.24,0,.57.57,0,0,1-.55-.35A.8.8,0,0,1,100.47,80.66Zm.33-.3a.6.6,0,0,0-.14-.47.3.3,0,0,0-.15-.09q.15-.3.27-.57c0-.09.08-.17.11-.25.29-.57.62-1.21.9-1.79l.13-.25a7.7,7.7,0,0,0,.12,1.34,10.28,10.28,0,0,1,.13,1.62,2.24,2.24,0,0,1-.71,1.71A1.32,1.32,0,0,1,100.8,80.36Zm-3.42-1.2a10.47,10.47,0,0,1,1-1.51c.85-1,1.26-1.14,1.4-1.14a.19.19,0,0,1,.2.14,2.13,2.13,0,0,1-.89,1.78A3.55,3.55,0,0,1,97.38,79.16Z" transform="translate(-30.6 -32.17)"/><path class="cls-12" d="M104.11,97H57.94a1.27,1.27,0,0,1,0-2.53h46.17a1.27,1.27,0,0,1,0,2.53Z" transform="translate(-30.6 -32.17)"/><path class="cls-12" d="M104.11,102.05H57.94a1.27,1.27,0,0,1,0-2.53h46.17a1.27,1.27,0,0,1,0,2.53Z" transform="translate(-30.6 -32.17)"/><path class="cls-12" d="M69.83,107.11H57.94a1.27,1.27,0,0,1,0-2.53H69.83a1.27,1.27,0,1,1,0,2.53Z" transform="translate(-30.6 -32.17)"/><path class="cls-12" d="M104.11,112.17H57.94a1.27,1.27,0,0,1,0-2.53h46.17a1.27,1.27,0,0,1,0,2.53Z" transform="translate(-30.6 -32.17)"/><path class="cls-12" d="M104.11,117.24H57.94a1.27,1.27,0,0,1,0-2.53h46.17a1.27,1.27,0,0,1,0,2.53Z" transform="translate(-30.6 -32.17)"/><path class="cls-12" d="M90.81,122.3H57.94a1.27,1.27,0,0,1,0-2.53H90.81a1.27,1.27,0,1,1,0,2.53Z" transform="translate(-30.6 -32.17)"/><path class="cls-12" d="M104.11,127.37H57.94a1.27,1.27,0,0,1,0-2.53h46.17a1.27,1.27,0,0,1,0,2.53Z" transform="translate(-30.6 -32.17)"/><path class="cls-12" d="M104.11,132.43H57.94a1.27,1.27,0,0,1,0-2.53h46.17a1.27,1.27,0,0,1,0,2.53Z" transform="translate(-30.6 -32.17)"/><path class="cls-12" d="M73.21,137.5H57.94a1.27,1.27,0,0,1,0-2.53H73.21a1.27,1.27,0,1,1,0,2.53Z" transform="translate(-30.6 -32.17)"/><path class="cls-12" d="M104.11,142.56H57.94a1.27,1.27,0,0,1,0-2.53h46.17a1.27,1.27,0,0,1,0,2.53Z" transform="translate(-30.6 -32.17)"/><path class="cls-12" d="M104.11,147.63H57.94a1.27,1.27,0,0,1,0-2.54h46.17a1.27,1.27,0,0,1,0,2.54Z" transform="translate(-30.6 -32.17)"/><path class="cls-12" d="M88.4,152.69H57.94a1.27,1.27,0,0,1,0-2.53H88.4a1.27,1.27,0,1,1,0,2.53Z" transform="translate(-30.6 -32.17)"/><path class="cls-12" d="M104.11,157.76H57.94a1.27,1.27,0,0,1,0-2.54h46.17a1.27,1.27,0,0,1,0,2.54Z" transform="translate(-30.6 -32.17)"/><path class="cls-12" d="M104.11,162.82H57.94a1.27,1.27,0,0,1,0-2.53h46.17a1.27,1.27,0,0,1,0,2.53Z" transform="translate(-30.6 -32.17)"/><path class="cls-12" d="M104.11,167.88H57.94a1.27,1.27,0,0,1,0-2.53h46.17a1.27,1.27,0,0,1,0,2.53Z" transform="translate(-30.6 -32.17)"/><path class="cls-12" d="M81,173H57.94a1.27,1.27,0,0,1,0-2.53H81A1.27,1.27,0,1,1,81,173Z" transform="translate(-30.6 -32.17)"/><path class="cls-12" d="M104.11,178H57.94a1.27,1.27,0,0,1,0-2.53h46.17a1.27,1.27,0,0,1,0,2.53Z" transform="translate(-30.6 -32.17)"/><path class="cls-12" d="M104.11,183.08H57.94a1.27,1.27,0,0,1,0-2.53h46.17a1.27,1.27,0,0,1,0,2.53Z" transform="translate(-30.6 -32.17)"/><path class="cls-12" d="M159.15,97H113a1.27,1.27,0,0,1,0-2.53h46.16a1.27,1.27,0,1,1,0,2.53Z" transform="translate(-30.6 -32.17)"/><path class="cls-12" d="M159.15,102.05H113a1.27,1.27,0,0,1,0-2.53h46.16a1.27,1.27,0,1,1,0,2.53Z" transform="translate(-30.6 -32.17)"/><path class="cls-12" d="M159.15,107.11H113a1.27,1.27,0,0,1,0-2.53h46.16a1.27,1.27,0,1,1,0,2.53Z" transform="translate(-30.6 -32.17)"/><path class="cls-12" d="M134.48,112.17H113a1.27,1.27,0,0,1,0-2.53h21.49a1.27,1.27,0,1,1,0,2.53Z" transform="translate(-30.6 -32.17)"/><path class="cls-12" d="M159.15,117.24H113a1.27,1.27,0,0,1,0-2.53h46.16a1.27,1.27,0,1,1,0,2.53Z" transform="translate(-30.6 -32.17)"/><path class="cls-12" d="M159.15,122.3H113a1.27,1.27,0,0,1,0-2.53h46.16a1.27,1.27,0,1,1,0,2.53Z" transform="translate(-30.6 -32.17)"/><path class="cls-12" d="M159.15,127.37H113a1.27,1.27,0,0,1,0-2.53h46.16a1.27,1.27,0,1,1,0,2.53Z" transform="translate(-30.6 -32.17)"/><path class="cls-12" d="M134.88,132.43H113a1.27,1.27,0,0,1,0-2.53h21.89a1.27,1.27,0,1,1,0,2.53Z" transform="translate(-30.6 -32.17)"/><path class="cls-12" d="M159.15,137.5H113a1.27,1.27,0,0,1,0-2.53h46.16a1.27,1.27,0,1,1,0,2.53Z" transform="translate(-30.6 -32.17)"/><path class="cls-12" d="M159.15,142.56H113a1.27,1.27,0,0,1,0-2.53h46.16a1.27,1.27,0,1,1,0,2.53Z" transform="translate(-30.6 -32.17)"/><path class="cls-12" d="M159.15,147.63H113a1.27,1.27,0,0,1,0-2.54h46.16a1.27,1.27,0,0,1,0,2.54Z" transform="translate(-30.6 -32.17)"/><path class="cls-12" d="M159.15,152.69H113a1.27,1.27,0,0,1,0-2.53h46.16a1.27,1.27,0,1,1,0,2.53Z" transform="translate(-30.6 -32.17)"/><path class="cls-12" d="M131.66,157.76H113a1.27,1.27,0,0,1,0-2.54h18.67a1.27,1.27,0,1,1,0,2.54Z" transform="translate(-30.6 -32.17)"/><path class="cls-13" d="M117.28,183.33l-.11,0c-.67-.3-.91-1.09-.73-2.35.3-2,1.83-5.6,3.51-8.65.07-.52.17-1,.26-1.6.46-2.59,1-5.52-.22-5.87a3.16,3.16,0,0,0-2.38,1.43,3,3,0,0,0-.59,2.6.41.41,0,0,1-.26.53.42.42,0,0,1-.54-.26,3.86,3.86,0,0,1,.7-3.35A4,4,0,0,1,120,164h.09c1.91.44,1.54,3.28,1,6.2,1.23-2,2.39-3.41,3-3.51a1.35,1.35,0,0,1,1.32.62,3.44,3.44,0,0,1,.46,1,5.61,5.61,0,0,1,2.66-2.18l.1,0c.29,0,.72.1,1.09.75a14.58,14.58,0,0,1,1,5.94,9.25,9.25,0,0,1,2.07-1.64,3.88,3.88,0,0,1,.23-1c.94-2,2.88-3.36,4.3-3a1.91,1.91,0,0,1,1.33,1.95,19.7,19.7,0,0,0,2.91-2,13,13,0,0,1,5.24-2.88,21.79,21.79,0,0,1,5-.27,21.08,21.08,0,0,0,5-.27.42.42,0,0,1,.5.32.42.42,0,0,1-.32.5,21.34,21.34,0,0,1-5.16.29,21.5,21.5,0,0,0-4.84.26,12,12,0,0,0-4.89,2.71,16.43,16.43,0,0,1-3.7,2.37.41.41,0,0,1-.41-.05.44.44,0,0,1-.17-.37c.05-.58,0-1.57-.7-1.76-.9-.23-2.48.73-3.31,2.52a1.39,1.39,0,0,0-.09.27,3.15,3.15,0,0,1,.58-.12,1.07,1.07,0,0,1,1.1.42,1.91,1.91,0,0,1-.17,1.84c-.36.62-.83,1-1.28,1a1,1,0,0,1-.86-.54,2.59,2.59,0,0,1-.31-1.17,10.38,10.38,0,0,0-2.06,1.91c-.08,2.49-.5,4.9-1.3,6.06a1.63,1.63,0,0,1-1.62.85.25.25,0,0,1-.15-.05c-.39-.23-.79-.77-.52-2.06A13.66,13.66,0,0,1,130,173.7c.06-2.65-.26-5.36-.89-6.47-.13-.22-.23-.31-.28-.32a5.77,5.77,0,0,0-2.59,2.47c.56,3.53-.24,9.68-1.39,12.1-.38.78-.79,1.17-1.26,1.19a1.11,1.11,0,0,1-1-.6c-1.11-1.85.5-8.61,1.73-11,.27-.53.62-1.2,1-1.88a3.62,3.62,0,0,0-.51-1.39c-.2-.28-.38-.3-.52-.28-.52.15-2,2.34-3.56,5a18.47,18.47,0,0,0-.2,1.92c0,.91-.32,8.91-3.22,8.85Zm2.43-8.8a22.18,22.18,0,0,0-2.47,6.89c0,.32,0,.87.21,1.06C118.71,182.31,119.59,178.3,119.71,174.53Zm5.8-3.95c-.17.31-.32.61-.46.87-1.22,2.4-2.61,8.75-1.75,10.19a.31.31,0,0,0,.26.19h0s.19-.06.51-.72C125.1,178.94,125.75,173.89,125.51,170.58Zm4.39,4.63a11.71,11.71,0,0,0-1.85,3.79,1.37,1.37,0,0,0,.06,1.1c.15,0,.41-.06.7-.49A10.24,10.24,0,0,0,129.9,175.21Zm3.81-3.56a2.58,2.58,0,0,0,.19,1.2c.08.12.14.13.18.13s.33-.19.56-.64a1.07,1.07,0,0,0,.14-.86.39.39,0,0,0-.3,0A2.61,2.61,0,0,0,133.71,171.65Z" transform="translate(-30.6 -32.17)"/><path class="cls-14" d="M152.47,144.28s31.9-12.37,44.44-1.53c8.82,7.62,5.92-4,3.42-11.55-1.05-3.19-30.45-8.55-30.45-8.55Z" transform="translate(-30.6 -32.17)"/><path class="cls-15" d="M139.91,160.51l-2.64,2.32a.24.24,0,0,0,.32.36l2.64-2.33a.23.23,0,0,0,0-.33A.23.23,0,0,0,139.91,160.51Z" transform="translate(-30.6 -32.17)"/><path class="cls-15" d="M154.53,148l-8.26,1.6-.51.1s-7.65,10.1-6.56,11.71h0l0,0c1.28,1.45,12.48-5,12.48-5l.16-.46Z" transform="translate(-30.6 -32.17)"/><rect class="cls-16" x="145.16" y="139.04" width="28.73" height="9.02" transform="translate(-85.67 109.07) rotate(-41.37)"/><path class="cls-17" d="M243.69,139.93s-14.93,30.85-16.77,31.46-11.49-9.61-18.34-8.12c-7.74,1.69-23.47-1.72-27.64-2.47-2.27-.4-8.41-2.58-17-9.55-.51-.4-1-.83-1.54-1.28-3.11-2.62-3.93-4.75-3.43-6.27.87-2.79,6-3.61,9.44-1.88,5.25,2.68,6.48,3.13,13.72,5.74,5.06,1.82,14.43-3.35,12.75-10.14-1.9-7.6-24.7-11.26-26.4-10.67s-9.95,12.49-12.79,16.5a4.18,4.18,0,0,1-7.05.11,3.82,3.82,0,0,1-.4-.81,3.68,3.68,0,0,1-.2-1.76,26,26,0,0,1,2.28-6.43c.11-.24.23-.48.34-.73h0c3.48-7.37,8.15-15.1,11.52-17s24.11-9.45,28.5-10.2c15.16-2.59,24.14,13.26,31,19.75S243.69,139.93,243.69,139.93Z" transform="translate(-30.6 -32.17)"/><path class="cls-18" d="M152.35,137.24l-1.58,3.57a3,3,0,0,1-2.57,1.74,3.68,3.68,0,0,1-.2-1.76,26,26,0,0,1,2.28-6.43c.11-.24.23-.48.34-.73h0l.18,0a2.71,2.71,0,0,1,1.69,1.91A2.74,2.74,0,0,1,152.35,137.24Z" transform="translate(-30.6 -32.17)"/><path class="cls-18" d="M164.85,150.52a2.73,2.73,0,0,1-.95.72c-.51-.4-1-.82-1.54-1.27-3.11-2.62-3.93-4.75-3.44-6.27l.14,0a2.74,2.74,0,0,1,2.54.54l2.93,2.48A2.73,2.73,0,0,1,164.85,150.52Z" transform="translate(-30.6 -32.17)"/><polygon class="cls-15" points="180.19 60.23 136.73 98.5 142.68 105.27 186.15 66.99 180.19 60.23"/><rect class="cls-19" x="211.86" y="146.53" width="37.96" height="11.66" transform="translate(-42.21 253.3) rotate(-62.19)"/><polygon class="cls-20" points="242.8 115.55 221.66 158.57 189.07 141.38 211.42 99 242.8 115.55"/><path class="cls-21" d="M214.93,100.48a1.28,1.28,0,0,0-.11,1.81l1.25,1.43c.47.53,2.4-1.17,1.94-1.7l-1.26-1.43A1.29,1.29,0,0,0,214.93,100.48Z" transform="translate(-30.6 -32.17)"/><path class="cls-16" d="M216.19,101.9l-20.45,18a1.28,1.28,0,0,0,1.69,1.93l20.46-18A1.3,1.3,0,0,0,218,102,1.29,1.29,0,0,0,216.19,101.9Z" transform="translate(-30.6 -32.17)"/><path class="cls-16" d="M210.51,92.07a.65.65,0,0,0-.91-.06L203,97.86a.65.65,0,0,0-.06.91l6.53,7.41a.64.64,0,0,0,.91.06l6.64-5.85a.65.65,0,0,0,.06-.91Z" transform="translate(-30.6 -32.17)"/></svg>