<svg id="Layer_1" data-name="Layer 1" xmlns="http://www.w3.org/2000/svg" viewBox="0 0 1920 560"><defs><style>.cls-1{fill:#f7e0da;}.cls-2{fill:#edaea2;}.cls-3{fill:#a5a4a4;}.cls-4{fill:#cc7979;}.cls-5{fill:#a3bfe4;}.cls-6{fill:#f6862f;}.cls-7{fill:#d2d2d2;}.cls-8{fill:#aaa;}.cls-9{fill:#ccc;}.cls-10{fill:#363533;}.cls-11{fill:#fff;}.cls-12{fill:#c8c7c6;}.cls-13{fill:#f16822;}.cls-14{fill:#003e5a;}.cls-15{fill:#333;}.cls-16{fill:#c9c6c2;}.cls-17{fill:#fccaab;}.cls-18{fill:#fab596;}.cls-19{fill:#e5e5e5;}.cls-20{fill:#4d4c4a;}.cls-21{fill:#adbbb9;}.cls-22{fill:#f8a37d;}.cls-23{fill:#fbbc95;}.cls-24{fill:#f4f9f8;}.cls-25{fill:#9e5643;}.cls-26{fill:#010101;}.cls-27{fill:#f57e20;}.cls-28{fill:#d33732;}</style></defs><rect class="cls-1" width="1920" height="560"/><path class="cls-2" d="M1736.09,164.77,1722.25,163a61.63,61.63,0,0,0-1.84-15.43l13.08-5.47a1.12,1.12,0,0,0,.6-1.48l-1.5-3.6-4.1-9.81a1.12,1.12,0,0,0-1-.69l-.09,0a1.44,1.44,0,0,0-.44.09L1714.14,132a61.83,61.83,0,0,0-9.33-12.42l8.6-11.28a1.14,1.14,0,0,0,.08-1.25,0,0,0,0,0,0,0,.91.91,0,0,0-.29-.33l-3.33-2.54-8.22-6.28a1.17,1.17,0,0,0-1.6.22l-8.44,11.07a61.67,61.67,0,0,0-14.3-6.1L1679.1,89a.69.69,0,0,0,0-.25,1.23,1.23,0,0,0,0-.2l0-.06a1.13,1.13,0,0,0-.92-.76l-14.41-1.86a1.13,1.13,0,0,0-.94.35,1.09,1.09,0,0,0-.34.64l-1.62,12.65-.15,1.18a61.3,61.3,0,0,0-15.44,1.85l-5.46-13.07a1.11,1.11,0,0,0-1-.69,1.17,1.17,0,0,0-.52.07l-13.4,5.6a1.15,1.15,0,0,0-.64.71,1.13,1.13,0,0,0,0,.79l4.51,10.8.86,2.06a62,62,0,0,0-12.42,9.33l-11.28-8.6a1.13,1.13,0,0,0-1.21-.1,1.26,1.26,0,0,0-.38.31l-8.81,11.56a1.19,1.19,0,0,0,.21,1.6l9.5,7.24,1.57,1.19a61.93,61.93,0,0,0-6.1,14.31l-14-1.81a1.12,1.12,0,0,0-1.12.56,1,1,0,0,0-.15.43l-1.85,14.41a1.09,1.09,0,0,0,.26.87,1.17,1.17,0,0,0,.72.41L1595.9,162l2.44.31a62.15,62.15,0,0,0,1.85,15.43l-13.07,5.46a1.15,1.15,0,0,0-.7,1.05,1,1,0,0,0,.09.44l5.6,13.41a1.12,1.12,0,0,0,.76.65,1.15,1.15,0,0,0,.73,0l11.15-4.66,1.71-.72a62.18,62.18,0,0,0,9.33,12.43l-8.6,11.27a1.16,1.16,0,0,0-.11,1.2,1.23,1.23,0,0,0,.32.4l11.56,8.81a1.1,1.1,0,0,0,1,.17,1.17,1.17,0,0,0,.6-.38l7.81-10.26.62-.81a62,62,0,0,0,14.3,6.1l-1.8,14a1.14,1.14,0,0,0,.55,1.13,1.15,1.15,0,0,0,.44.15l14.41,1.85h0a1.14,1.14,0,0,0,1.13-.56,1,1,0,0,0,.15-.42l1.22-9.49.56-4.34a62.13,62.13,0,0,0,15.42-1.85l5.46,13.07a1.14,1.14,0,0,0,1.49.61l9.81-4.09,3.6-1.51a1.13,1.13,0,0,0,.61-1.49L1691,216.48a62.18,62.18,0,0,0,12.43-9.33l11.27,8.6a1.15,1.15,0,0,0,1.6-.22l5.08-6.67,3.73-4.88a1.14,1.14,0,0,0-.21-1.6l-11.07-8.44a61.67,61.67,0,0,0,6.1-14.3l14,1.81a1.16,1.16,0,0,0,1.13-.56.83.83,0,0,0,0-.15.94.94,0,0,0,.1-.28l1.85-14.41A1.14,1.14,0,0,0,1736.09,164.77Zm-56.34.37a19.61,19.61,0,1,1-17-21.95A19.61,19.61,0,0,1,1679.75,165.14Z" transform="translate(0.28 -0.49)"/><path class="cls-3" d="M1642.43,453.74a4.38,4.38,0,1,0,4.39,4.38A4.38,4.38,0,0,0,1642.43,453.74Z" transform="translate(0.28 -0.49)"/><circle class="cls-3" cx="1642.71" cy="444.16" r="4.38"/><path class="cls-3" d="M1642.43,426.8a4.39,4.39,0,1,0,4.39,4.39A4.38,4.38,0,0,0,1642.43,426.8Z" transform="translate(0.28 -0.49)"/><circle class="cls-3" cx="1642.71" cy="417.22" r="4.38"/><path class="cls-3" d="M1642.43,399.87a4.38,4.38,0,1,0,4.39,4.38A4.38,4.38,0,0,0,1642.43,399.87Z" transform="translate(0.28 -0.49)"/><path class="cls-3" d="M1654.72,453.74a4.38,4.38,0,1,0,4.38,4.38A4.38,4.38,0,0,0,1654.72,453.74Z" transform="translate(0.28 -0.49)"/><path class="cls-3" d="M1654.72,440.27a4.39,4.39,0,1,0,4.38,4.38A4.38,4.38,0,0,0,1654.72,440.27Z" transform="translate(0.28 -0.49)"/><path class="cls-3" d="M1654.72,426.8a4.39,4.39,0,1,0,4.38,4.39A4.38,4.38,0,0,0,1654.72,426.8Z" transform="translate(0.28 -0.49)"/><path class="cls-3" d="M1654.72,413.33a4.39,4.39,0,1,0,4.38,4.39A4.39,4.39,0,0,0,1654.72,413.33Z" transform="translate(0.28 -0.49)"/><path class="cls-3" d="M1654.72,399.87a4.38,4.38,0,1,0,4.38,4.38A4.38,4.38,0,0,0,1654.72,399.87Z" transform="translate(0.28 -0.49)"/><path class="cls-3" d="M1654.72,386.4a4.38,4.38,0,1,0,4.38,4.38A4.38,4.38,0,0,0,1654.72,386.4Z" transform="translate(0.28 -0.49)"/><path class="cls-3" d="M1667,453.74a4.38,4.38,0,1,0,4.38,4.38A4.38,4.38,0,0,0,1667,453.74Z" transform="translate(0.28 -0.49)"/><path class="cls-3" d="M1667,440.27a4.39,4.39,0,1,0,4.38,4.38A4.38,4.38,0,0,0,1667,440.27Z" transform="translate(0.28 -0.49)"/><path class="cls-3" d="M1667,426.8a4.39,4.39,0,1,0,4.38,4.39A4.38,4.38,0,0,0,1667,426.8Z" transform="translate(0.28 -0.49)"/><path class="cls-3" d="M1667,413.33a4.39,4.39,0,1,0,4.38,4.39A4.39,4.39,0,0,0,1667,413.33Z" transform="translate(0.28 -0.49)"/><path class="cls-3" d="M1667,399.87a4.38,4.38,0,1,0,4.38,4.38A4.38,4.38,0,0,0,1667,399.87Z" transform="translate(0.28 -0.49)"/><path class="cls-3" d="M1667,386.4a4.38,4.38,0,1,0,4.38,4.38A4.38,4.38,0,0,0,1667,386.4Z" transform="translate(0.28 -0.49)"/><path class="cls-3" d="M1667,372.93a4.38,4.38,0,1,0,4.38,4.38A4.38,4.38,0,0,0,1667,372.93Z" transform="translate(0.28 -0.49)"/><path class="cls-3" d="M1667,359.46a4.39,4.39,0,1,0,4.38,4.38A4.38,4.38,0,0,0,1667,359.46Z" transform="translate(0.28 -0.49)"/><path class="cls-3" d="M1679.3,453.74a4.38,4.38,0,1,0,4.38,4.38A4.38,4.38,0,0,0,1679.3,453.74Z" transform="translate(0.28 -0.49)"/><circle class="cls-3" cx="1679.58" cy="444.16" r="4.38"/><path class="cls-3" d="M1679.3,426.8a4.39,4.39,0,1,0,4.38,4.39A4.38,4.38,0,0,0,1679.3,426.8Z" transform="translate(0.28 -0.49)"/><circle class="cls-3" cx="1679.58" cy="417.22" r="4.38"/><path class="cls-3" d="M1679.3,399.87a4.38,4.38,0,1,0,4.38,4.38A4.38,4.38,0,0,0,1679.3,399.87Z" transform="translate(0.28 -0.49)"/><path class="cls-3" d="M1679.3,386.4a4.38,4.38,0,1,0,4.38,4.38A4.38,4.38,0,0,0,1679.3,386.4Z" transform="translate(0.28 -0.49)"/><circle class="cls-3" cx="1679.58" cy="376.82" r="4.38"/><path class="cls-3" d="M1691.59,453.74a4.38,4.38,0,1,0,4.38,4.38A4.39,4.39,0,0,0,1691.59,453.74Z" transform="translate(0.28 -0.49)"/><circle class="cls-3" cx="1691.87" cy="444.16" r="4.38"/><path class="cls-3" d="M1691.59,426.8a4.39,4.39,0,1,0,4.38,4.39A4.39,4.39,0,0,0,1691.59,426.8Z" transform="translate(0.28 -0.49)"/><path class="cls-3" d="M1703.88,453.74a4.38,4.38,0,1,0,4.38,4.38A4.39,4.39,0,0,0,1703.88,453.74Z" transform="translate(0.28 -0.49)"/><path class="cls-3" d="M1703.88,440.27a4.39,4.39,0,1,0,4.38,4.38A4.39,4.39,0,0,0,1703.88,440.27Z" transform="translate(0.28 -0.49)"/><path class="cls-3" d="M1703.88,426.8a4.39,4.39,0,1,0,4.38,4.39A4.39,4.39,0,0,0,1703.88,426.8Z" transform="translate(0.28 -0.49)"/><path class="cls-3" d="M1703.88,413.33a4.39,4.39,0,1,0,4.38,4.39A4.4,4.4,0,0,0,1703.88,413.33Z" transform="translate(0.28 -0.49)"/><path class="cls-3" d="M1703.88,399.87a4.38,4.38,0,1,0,4.38,4.38A4.39,4.39,0,0,0,1703.88,399.87Z" transform="translate(0.28 -0.49)"/><path class="cls-3" d="M1716.16,453.74a4.38,4.38,0,1,0,4.39,4.38A4.38,4.38,0,0,0,1716.16,453.74Z" transform="translate(0.28 -0.49)"/><path class="cls-3" d="M1716.16,440.27a4.39,4.39,0,1,0,4.39,4.38A4.38,4.38,0,0,0,1716.16,440.27Z" transform="translate(0.28 -0.49)"/><path class="cls-3" d="M1716.16,426.8a4.39,4.39,0,1,0,4.39,4.39A4.38,4.38,0,0,0,1716.16,426.8Z" transform="translate(0.28 -0.49)"/><path class="cls-3" d="M1716.16,413.33a4.39,4.39,0,1,0,4.39,4.39A4.39,4.39,0,0,0,1716.16,413.33Z" transform="translate(0.28 -0.49)"/><path class="cls-3" d="M1716.16,399.87a4.38,4.38,0,1,0,4.39,4.38A4.38,4.38,0,0,0,1716.16,399.87Z" transform="translate(0.28 -0.49)"/><path class="cls-3" d="M1716.16,386.4a4.38,4.38,0,1,0,4.39,4.38A4.38,4.38,0,0,0,1716.16,386.4Z" transform="translate(0.28 -0.49)"/><path class="cls-3" d="M1716.16,372.93a4.38,4.38,0,1,0,4.39,4.38A4.38,4.38,0,0,0,1716.16,372.93Z" transform="translate(0.28 -0.49)"/><path class="cls-3" d="M1728.45,453.74a4.38,4.38,0,1,0,4.39,4.38A4.38,4.38,0,0,0,1728.45,453.74Z" transform="translate(0.28 -0.49)"/><path class="cls-3" d="M1728.45,440.27a4.39,4.39,0,1,0,4.39,4.38A4.38,4.38,0,0,0,1728.45,440.27Z" transform="translate(0.28 -0.49)"/><path class="cls-3" d="M1728.45,426.8a4.39,4.39,0,1,0,4.39,4.39A4.38,4.38,0,0,0,1728.45,426.8Z" transform="translate(0.28 -0.49)"/><path class="cls-3" d="M1728.45,413.33a4.39,4.39,0,1,0,4.39,4.39A4.39,4.39,0,0,0,1728.45,413.33Z" transform="translate(0.28 -0.49)"/><path class="cls-3" d="M1728.45,399.87a4.38,4.38,0,1,0,4.39,4.38A4.38,4.38,0,0,0,1728.45,399.87Z" transform="translate(0.28 -0.49)"/><path class="cls-3" d="M1728.45,386.4a4.38,4.38,0,1,0,4.39,4.38A4.38,4.38,0,0,0,1728.45,386.4Z" transform="translate(0.28 -0.49)"/><path class="cls-3" d="M1740.74,453.74a4.38,4.38,0,1,0,4.38,4.38A4.38,4.38,0,0,0,1740.74,453.74Z" transform="translate(0.28 -0.49)"/><circle class="cls-3" cx="1741.02" cy="444.16" r="4.38"/><path class="cls-3" d="M1740.74,426.8a4.39,4.39,0,1,0,4.38,4.39A4.38,4.38,0,0,0,1740.74,426.8Z" transform="translate(0.28 -0.49)"/><circle class="cls-3" cx="1741.02" cy="417.22" r="4.38"/><path class="cls-3" d="M1740.74,399.87a4.38,4.38,0,1,0,4.38,4.38A4.38,4.38,0,0,0,1740.74,399.87Z" transform="translate(0.28 -0.49)"/><path class="cls-3" d="M1753,453.74a4.38,4.38,0,1,0,4.38,4.38A4.38,4.38,0,0,0,1753,453.74Z" transform="translate(0.28 -0.49)"/><path class="cls-3" d="M1753,440.27a4.39,4.39,0,1,0,4.38,4.38A4.38,4.38,0,0,0,1753,440.27Z" transform="translate(0.28 -0.49)"/><path class="cls-3" d="M1753,426.8a4.39,4.39,0,1,0,4.38,4.39A4.38,4.38,0,0,0,1753,426.8Z" transform="translate(0.28 -0.49)"/><path class="cls-3" d="M1753,413.33a4.39,4.39,0,1,0,4.38,4.39A4.39,4.39,0,0,0,1753,413.33Z" transform="translate(0.28 -0.49)"/><path class="cls-3" d="M1753,399.87a4.38,4.38,0,1,0,4.38,4.38A4.38,4.38,0,0,0,1753,399.87Z" transform="translate(0.28 -0.49)"/><path class="cls-3" d="M1753,386.4a4.38,4.38,0,1,0,4.38,4.38A4.38,4.38,0,0,0,1753,386.4Z" transform="translate(0.28 -0.49)"/><path class="cls-3" d="M1753,372.93a4.38,4.38,0,1,0,4.38,4.38A4.38,4.38,0,0,0,1753,372.93Z" transform="translate(0.28 -0.49)"/><path class="cls-3" d="M1765.32,453.74a4.38,4.38,0,1,0,4.38,4.38A4.38,4.38,0,0,0,1765.32,453.74Z" transform="translate(0.28 -0.49)"/><circle class="cls-3" cx="1765.6" cy="444.16" r="4.38"/><path class="cls-3" d="M1765.32,426.8a4.39,4.39,0,1,0,4.38,4.39A4.38,4.38,0,0,0,1765.32,426.8Z" transform="translate(0.28 -0.49)"/><circle class="cls-3" cx="1765.6" cy="417.22" r="4.38"/><path class="cls-3" d="M1765.32,399.87a4.38,4.38,0,1,0,4.38,4.38A4.38,4.38,0,0,0,1765.32,399.87Z" transform="translate(0.28 -0.49)"/><path class="cls-3" d="M1765.32,386.4a4.38,4.38,0,1,0,4.38,4.38A4.38,4.38,0,0,0,1765.32,386.4Z" transform="translate(0.28 -0.49)"/><path class="cls-3" d="M1777.61,453.74a4.38,4.38,0,1,0,4.38,4.38A4.39,4.39,0,0,0,1777.61,453.74Z" transform="translate(0.28 -0.49)"/><circle class="cls-3" cx="1777.61" cy="444.65" r="4.38" transform="translate(682.64 1913.19) rotate(-67.34)"/><path class="cls-3" d="M1777.61,426.8a4.39,4.39,0,1,0,4.38,4.39A4.39,4.39,0,0,0,1777.61,426.8Z" transform="translate(0.28 -0.49)"/><circle class="cls-3" cx="1777.61" cy="417.72" r="4.38" transform="translate(707.5 1896.63) rotate(-67.34)"/><path class="cls-3" d="M1507.26,453.74a4.38,4.38,0,1,0,4.38,4.38A4.38,4.38,0,0,0,1507.26,453.74Z" transform="translate(0.28 -0.49)"/><path class="cls-3" d="M1507.26,440.27a4.39,4.39,0,1,0,4.38,4.38A4.38,4.38,0,0,0,1507.26,440.27Z" transform="translate(0.28 -0.49)"/><path class="cls-3" d="M1507.26,426.8a4.39,4.39,0,1,0,4.38,4.39A4.38,4.38,0,0,0,1507.26,426.8Z" transform="translate(0.28 -0.49)"/><path class="cls-3" d="M1519.55,453.74a4.38,4.38,0,1,0,4.38,4.38A4.38,4.38,0,0,0,1519.55,453.74Z" transform="translate(0.28 -0.49)"/><path class="cls-3" d="M1519.55,440.27a4.39,4.39,0,1,0,4.38,4.38A4.38,4.38,0,0,0,1519.55,440.27Z" transform="translate(0.28 -0.49)"/><path class="cls-3" d="M1519.55,426.8a4.39,4.39,0,1,0,4.38,4.39A4.38,4.38,0,0,0,1519.55,426.8Z" transform="translate(0.28 -0.49)"/><path class="cls-3" d="M1519.55,413.33a4.39,4.39,0,1,0,4.38,4.39A4.39,4.39,0,0,0,1519.55,413.33Z" transform="translate(0.28 -0.49)"/><path class="cls-3" d="M1531.84,453.74a4.38,4.38,0,1,0,4.38,4.38A4.39,4.39,0,0,0,1531.84,453.74Z" transform="translate(0.28 -0.49)"/><path class="cls-3" d="M1531.84,440.27a4.39,4.39,0,1,0,4.38,4.38A4.39,4.39,0,0,0,1531.84,440.27Z" transform="translate(0.28 -0.49)"/><path class="cls-3" d="M1531.84,426.8a4.39,4.39,0,1,0,4.38,4.39A4.39,4.39,0,0,0,1531.84,426.8Z" transform="translate(0.28 -0.49)"/><path class="cls-3" d="M1531.84,413.33a4.39,4.39,0,1,0,4.38,4.39A4.4,4.4,0,0,0,1531.84,413.33Z" transform="translate(0.28 -0.49)"/><path class="cls-3" d="M1531.84,399.87a4.38,4.38,0,1,0,4.38,4.38A4.39,4.39,0,0,0,1531.84,399.87Z" transform="translate(0.28 -0.49)"/><path class="cls-3" d="M1531.84,386.4a4.38,4.38,0,1,0,4.38,4.38A4.39,4.39,0,0,0,1531.84,386.4Z" transform="translate(0.28 -0.49)"/><path class="cls-3" d="M1544.12,453.74a4.38,4.38,0,1,0,4.39,4.38A4.38,4.38,0,0,0,1544.12,453.74Z" transform="translate(0.28 -0.49)"/><path class="cls-3" d="M1544.12,440.27a4.39,4.39,0,1,0,4.39,4.38A4.38,4.38,0,0,0,1544.12,440.27Z" transform="translate(0.28 -0.49)"/><path class="cls-3" d="M1544.12,426.8a4.39,4.39,0,1,0,4.39,4.39A4.38,4.38,0,0,0,1544.12,426.8Z" transform="translate(0.28 -0.49)"/><path class="cls-3" d="M1544.12,413.33a4.39,4.39,0,1,0,4.39,4.39A4.39,4.39,0,0,0,1544.12,413.33Z" transform="translate(0.28 -0.49)"/><path class="cls-3" d="M1544.12,399.87a4.38,4.38,0,1,0,4.39,4.38A4.38,4.38,0,0,0,1544.12,399.87Z" transform="translate(0.28 -0.49)"/><path class="cls-3" d="M1556.41,453.74a4.38,4.38,0,1,0,4.39,4.38A4.38,4.38,0,0,0,1556.41,453.74Z" transform="translate(0.28 -0.49)"/><circle class="cls-3" cx="1556.69" cy="444.16" r="4.38"/><path class="cls-3" d="M1556.41,426.8a4.39,4.39,0,1,0,4.39,4.39A4.38,4.38,0,0,0,1556.41,426.8Z" transform="translate(0.28 -0.49)"/><circle class="cls-3" cx="1556.69" cy="417.22" r="4.38"/><path class="cls-3" d="M1568.7,453.74a4.38,4.38,0,1,0,4.38,4.38A4.38,4.38,0,0,0,1568.7,453.74Z" transform="translate(0.28 -0.49)"/><path class="cls-3" d="M1568.7,440.27a4.39,4.39,0,1,0,4.38,4.38A4.38,4.38,0,0,0,1568.7,440.27Z" transform="translate(0.28 -0.49)"/><path class="cls-3" d="M1568.7,426.8a4.39,4.39,0,1,0,4.38,4.39A4.38,4.38,0,0,0,1568.7,426.8Z" transform="translate(0.28 -0.49)"/><path class="cls-3" d="M1581,453.74a4.38,4.38,0,1,0,4.38,4.38A4.38,4.38,0,0,0,1581,453.74Z" transform="translate(0.28 -0.49)"/><path class="cls-3" d="M1581,440.27a4.39,4.39,0,1,0,4.38,4.38A4.38,4.38,0,0,0,1581,440.27Z" transform="translate(0.28 -0.49)"/><path class="cls-3" d="M1581,426.8a4.39,4.39,0,1,0,4.38,4.39A4.38,4.38,0,0,0,1581,426.8Z" transform="translate(0.28 -0.49)"/><path class="cls-3" d="M1581,413.33a4.39,4.39,0,1,0,4.38,4.39A4.39,4.39,0,0,0,1581,413.33Z" transform="translate(0.28 -0.49)"/><path class="cls-3" d="M1593.28,453.74a4.38,4.38,0,1,0,4.38,4.38A4.38,4.38,0,0,0,1593.28,453.74Z" transform="translate(0.28 -0.49)"/><path class="cls-3" d="M1593.28,440.27a4.39,4.39,0,1,0,4.38,4.38A4.38,4.38,0,0,0,1593.28,440.27Z" transform="translate(0.28 -0.49)"/><path class="cls-3" d="M1593.28,426.8a4.39,4.39,0,1,0,4.38,4.39A4.38,4.38,0,0,0,1593.28,426.8Z" transform="translate(0.28 -0.49)"/><path class="cls-3" d="M1593.28,413.33a4.39,4.39,0,1,0,4.38,4.39A4.39,4.39,0,0,0,1593.28,413.33Z" transform="translate(0.28 -0.49)"/><path class="cls-3" d="M1593.28,399.87a4.38,4.38,0,1,0,4.38,4.38A4.38,4.38,0,0,0,1593.28,399.87Z" transform="translate(0.28 -0.49)"/><path class="cls-3" d="M1593.28,386.4a4.38,4.38,0,1,0,4.38,4.38A4.38,4.38,0,0,0,1593.28,386.4Z" transform="translate(0.28 -0.49)"/><path class="cls-3" d="M1605.57,453.74a4.38,4.38,0,1,0,4.38,4.38A4.38,4.38,0,0,0,1605.57,453.74Z" transform="translate(0.28 -0.49)"/><circle class="cls-3" cx="1605.57" cy="444.65" r="4.38" transform="translate(576.42 1754.07) rotate(-67.32)"/><path class="cls-3" d="M1605.57,426.8a4.39,4.39,0,1,0,4.38,4.39A4.38,4.38,0,0,0,1605.57,426.8Z" transform="translate(0.28 -0.49)"/><circle class="cls-3" cx="1605.57" cy="417.72" r="4.38" transform="translate(601.28 1737.52) rotate(-67.32)"/><path class="cls-3" d="M1605.57,399.87a4.38,4.38,0,1,0,4.38,4.38A4.38,4.38,0,0,0,1605.57,399.87Z" transform="translate(0.28 -0.49)"/><path class="cls-3" d="M1617.86,453.74a4.38,4.38,0,1,0,4.38,4.38A4.39,4.39,0,0,0,1617.86,453.74Z" transform="translate(0.28 -0.49)"/><path class="cls-3" d="M1617.86,440.27a4.39,4.39,0,1,0,4.38,4.38A4.39,4.39,0,0,0,1617.86,440.27Z" transform="translate(0.28 -0.49)"/><path class="cls-3" d="M1617.86,426.8a4.39,4.39,0,1,0,4.38,4.39A4.39,4.39,0,0,0,1617.86,426.8Z" transform="translate(0.28 -0.49)"/><path class="cls-3" d="M1617.86,413.33a4.39,4.39,0,1,0,4.38,4.39A4.4,4.4,0,0,0,1617.86,413.33Z" transform="translate(0.28 -0.49)"/><path class="cls-3" d="M1617.86,399.87a4.38,4.38,0,1,0,4.38,4.38A4.39,4.39,0,0,0,1617.86,399.87Z" transform="translate(0.28 -0.49)"/><path class="cls-3" d="M1617.86,386.4a4.38,4.38,0,1,0,4.38,4.38A4.39,4.39,0,0,0,1617.86,386.4Z" transform="translate(0.28 -0.49)"/><path class="cls-3" d="M1617.86,372.93a4.38,4.38,0,1,0,4.38,4.38A4.39,4.39,0,0,0,1617.86,372.93Z" transform="translate(0.28 -0.49)"/><path class="cls-3" d="M1630.14,453.74a4.38,4.38,0,1,0,4.39,4.38A4.38,4.38,0,0,0,1630.14,453.74Z" transform="translate(0.28 -0.49)"/><path class="cls-3" d="M1630.14,440.27a4.39,4.39,0,1,0,4.39,4.38A4.38,4.38,0,0,0,1630.14,440.27Z" transform="translate(0.28 -0.49)"/><path class="cls-3" d="M1630.14,426.8a4.39,4.39,0,1,0,4.39,4.39A4.38,4.38,0,0,0,1630.14,426.8Z" transform="translate(0.28 -0.49)"/><path class="cls-3" d="M1630.14,413.33a4.39,4.39,0,1,0,4.39,4.39A4.39,4.39,0,0,0,1630.14,413.33Z" transform="translate(0.28 -0.49)"/><path class="cls-3" d="M1630.14,399.87a4.38,4.38,0,1,0,4.39,4.38A4.38,4.38,0,0,0,1630.14,399.87Z" transform="translate(0.28 -0.49)"/><path class="cls-3" d="M1630.14,386.4a4.38,4.38,0,1,0,4.39,4.38A4.38,4.38,0,0,0,1630.14,386.4Z" transform="translate(0.28 -0.49)"/><path class="cls-3" d="M1093.42,451.18a4.47,4.47,0,1,0,4.47,4.47A4.47,4.47,0,0,0,1093.42,451.18Z" transform="translate(0.28 -0.49)"/><path class="cls-3" d="M1093.42,437.46a4.47,4.47,0,1,0,4.47,4.47A4.47,4.47,0,0,0,1093.42,437.46Z" transform="translate(0.28 -0.49)"/><path class="cls-3" d="M1093.42,423.74a4.47,4.47,0,1,0,4.47,4.46A4.47,4.47,0,0,0,1093.42,423.74Z" transform="translate(0.28 -0.49)"/><path class="cls-3" d="M1093.42,410a4.47,4.47,0,1,0,4.47,4.47A4.47,4.47,0,0,0,1093.42,410Z" transform="translate(0.28 -0.49)"/><path class="cls-3" d="M1105.94,451.18a4.47,4.47,0,1,0,4.47,4.47A4.47,4.47,0,0,0,1105.94,451.18Z" transform="translate(0.28 -0.49)"/><path class="cls-3" d="M1105.94,437.46a4.47,4.47,0,1,0,4.47,4.47A4.47,4.47,0,0,0,1105.94,437.46Z" transform="translate(0.28 -0.49)"/><path class="cls-3" d="M1105.94,423.74a4.47,4.47,0,1,0,4.47,4.46A4.46,4.46,0,0,0,1105.94,423.74Z" transform="translate(0.28 -0.49)"/><path class="cls-3" d="M1105.94,410a4.47,4.47,0,1,0,4.47,4.47A4.47,4.47,0,0,0,1105.94,410Z" transform="translate(0.28 -0.49)"/><path class="cls-3" d="M1105.94,396.29a4.47,4.47,0,1,0,4.47,4.46A4.46,4.46,0,0,0,1105.94,396.29Z" transform="translate(0.28 -0.49)"/><path class="cls-3" d="M1118.46,451.18a4.47,4.47,0,1,0,4.47,4.47A4.47,4.47,0,0,0,1118.46,451.18Z" transform="translate(0.28 -0.49)"/><path class="cls-3" d="M1118.46,437.46a4.47,4.47,0,1,0,4.47,4.47A4.47,4.47,0,0,0,1118.46,437.46Z" transform="translate(0.28 -0.49)"/><path class="cls-3" d="M1118.46,423.74a4.47,4.47,0,1,0,4.47,4.46A4.46,4.46,0,0,0,1118.46,423.74Z" transform="translate(0.28 -0.49)"/><path class="cls-3" d="M1118.46,410a4.47,4.47,0,1,0,4.47,4.47A4.47,4.47,0,0,0,1118.46,410Z" transform="translate(0.28 -0.49)"/><path class="cls-3" d="M1118.46,396.29a4.47,4.47,0,1,0,4.47,4.46A4.46,4.46,0,0,0,1118.46,396.29Z" transform="translate(0.28 -0.49)"/><path class="cls-3" d="M1118.46,382.56a4.47,4.47,0,1,0,4.47,4.47A4.47,4.47,0,0,0,1118.46,382.56Z" transform="translate(0.28 -0.49)"/><path class="cls-3" d="M1118.46,368.84a4.47,4.47,0,1,0,4.47,4.46A4.46,4.46,0,0,0,1118.46,368.84Z" transform="translate(0.28 -0.49)"/><path class="cls-3" d="M1118.46,355.53a4.47,4.47,0,1,0,4.47,4.47A4.47,4.47,0,0,0,1118.46,355.53Z" transform="translate(0.28 -0.49)"/><circle class="cls-3" cx="1118.74" cy="345.78" r="4.47"/><path class="cls-3" d="M1118.46,328.08a4.47,4.47,0,1,0,4.47,4.47A4.47,4.47,0,0,0,1118.46,328.08Z" transform="translate(0.28 -0.49)"/><path class="cls-3" d="M1118.46,314.36a4.47,4.47,0,1,0,4.47,4.47A4.47,4.47,0,0,0,1118.46,314.36Z" transform="translate(0.28 -0.49)"/><path class="cls-3" d="M1118.46,300.64a4.47,4.47,0,1,0,4.47,4.46A4.46,4.46,0,0,0,1118.46,300.64Z" transform="translate(0.28 -0.49)"/><circle class="cls-3" cx="1118.74" cy="291.3" r="4.47"/><path class="cls-3" d="M1118.46,273.6a4.47,4.47,0,1,0,4.47,4.47A4.47,4.47,0,0,0,1118.46,273.6Z" transform="translate(0.28 -0.49)"/><circle class="cls-3" cx="1118.74" cy="263.85" r="4.47"/><path class="cls-3" d="M1118.46,246.16a4.47,4.47,0,1,0,4.47,4.46A4.46,4.46,0,0,0,1118.46,246.16Z" transform="translate(0.28 -0.49)"/><circle class="cls-3" cx="1118.74" cy="236.4" r="4.47"/><path class="cls-3" d="M1118.46,219.13a4.47,4.47,0,1,0,4.47,4.46A4.46,4.46,0,0,0,1118.46,219.13Z" transform="translate(0.28 -0.49)"/><circle class="cls-3" cx="1118.74" cy="209.37" r="4.47"/><path class="cls-3" d="M1118.46,191.68a4.47,4.47,0,1,0,4.47,4.46A4.46,4.46,0,0,0,1118.46,191.68Z" transform="translate(0.28 -0.49)"/><path class="cls-3" d="M1118.46,178a4.47,4.47,0,1,0,4.47,4.47A4.47,4.47,0,0,0,1118.46,178Z" transform="translate(0.28 -0.49)"/><path class="cls-3" d="M1118.46,164.23a4.47,4.47,0,1,0,4.47,4.46A4.46,4.46,0,0,0,1118.46,164.23Z" transform="translate(0.28 -0.49)"/><path class="cls-3" d="M1118.46,150.28a4.47,4.47,0,1,0,4.47,4.47A4.47,4.47,0,0,0,1118.46,150.28Z" transform="translate(0.28 -0.49)"/><path class="cls-3" d="M1118.46,136.56a4.47,4.47,0,1,0,4.47,4.47A4.47,4.47,0,0,0,1118.46,136.56Z" transform="translate(0.28 -0.49)"/><path class="cls-3" d="M1132.69,136.56a4.47,4.47,0,1,0,4.46,4.47A4.47,4.47,0,0,0,1132.69,136.56Z" transform="translate(0.28 -0.49)"/><path class="cls-3" d="M1144.57,150.28a4.47,4.47,0,1,0,4.47,4.47A4.47,4.47,0,0,0,1144.57,150.28Z" transform="translate(0.28 -0.49)"/><path class="cls-3" d="M1105,136.56a4.47,4.47,0,1,0,4.47,4.47A4.47,4.47,0,0,0,1105,136.56Z" transform="translate(0.28 -0.49)"/><path class="cls-3" d="M1093.06,150.28a4.47,4.47,0,1,0,4.47,4.47A4.47,4.47,0,0,0,1093.06,150.28Z" transform="translate(0.28 -0.49)"/><path class="cls-3" d="M1118.46,122.84a4.47,4.47,0,1,0,4.47,4.46A4.46,4.46,0,0,0,1118.46,122.84Z" transform="translate(0.28 -0.49)"/><path class="cls-3" d="M1765,372.26a4.47,4.47,0,1,0,4.47,4.47A4.47,4.47,0,0,0,1765,372.26Z" transform="translate(0.28 -0.49)"/><path class="cls-3" d="M1765,358.54a4.47,4.47,0,1,0,4.47,4.47A4.47,4.47,0,0,0,1765,358.54Z" transform="translate(0.28 -0.49)"/><path class="cls-3" d="M1765,345.23a4.47,4.47,0,1,0,4.47,4.47A4.47,4.47,0,0,0,1765,345.23Z" transform="translate(0.28 -0.49)"/><path class="cls-3" d="M1765,331.51a4.47,4.47,0,1,0,4.47,4.46A4.46,4.46,0,0,0,1765,331.51Z" transform="translate(0.28 -0.49)"/><path class="cls-3" d="M1765,317.78a4.47,4.47,0,1,0,4.47,4.47A4.47,4.47,0,0,0,1765,317.78Z" transform="translate(0.28 -0.49)"/><path class="cls-3" d="M1765,304.06a4.47,4.47,0,1,0,4.47,4.47A4.47,4.47,0,0,0,1765,304.06Z" transform="translate(0.28 -0.49)"/><path class="cls-3" d="M1765,290.34a4.47,4.47,0,1,0,4.47,4.46A4.46,4.46,0,0,0,1765,290.34Z" transform="translate(0.28 -0.49)"/><path class="cls-3" d="M1765,277a4.47,4.47,0,1,0,4.47,4.47A4.47,4.47,0,0,0,1765,277Z" transform="translate(0.28 -0.49)"/><path class="cls-3" d="M1765,263.31a4.47,4.47,0,1,0,4.47,4.46A4.46,4.46,0,0,0,1765,263.31Z" transform="translate(0.28 -0.49)"/><path class="cls-3" d="M1765,249.58a4.47,4.47,0,1,0,4.47,4.47A4.47,4.47,0,0,0,1765,249.58Z" transform="translate(0.28 -0.49)"/><path class="cls-3" d="M1765,235.86a4.47,4.47,0,1,0,4.47,4.46A4.46,4.46,0,0,0,1765,235.86Z" transform="translate(0.28 -0.49)"/><path class="cls-3" d="M1765,222.13a4.47,4.47,0,1,0,4.47,4.47A4.47,4.47,0,0,0,1765,222.13Z" transform="translate(0.28 -0.49)"/><path class="cls-3" d="M1765,208.19a4.47,4.47,0,1,0,4.47,4.46A4.46,4.46,0,0,0,1765,208.19Z" transform="translate(0.28 -0.49)"/><path class="cls-3" d="M1765,194.46a4.47,4.47,0,1,0,4.47,4.47A4.47,4.47,0,0,0,1765,194.46Z" transform="translate(0.28 -0.49)"/><path class="cls-3" d="M1779.19,194.46a4.47,4.47,0,1,0,4.46,4.47A4.47,4.47,0,0,0,1779.19,194.46Z" transform="translate(0.28 -0.49)"/><path class="cls-3" d="M1791.07,208.19a4.47,4.47,0,1,0,4.47,4.46A4.46,4.46,0,0,0,1791.07,208.19Z" transform="translate(0.28 -0.49)"/><path class="cls-3" d="M1751.45,194.46a4.47,4.47,0,1,0,4.47,4.47A4.47,4.47,0,0,0,1751.45,194.46Z" transform="translate(0.28 -0.49)"/><path class="cls-3" d="M1739.56,208.19a4.47,4.47,0,1,0,4.47,4.46A4.46,4.46,0,0,0,1739.56,208.19Z" transform="translate(0.28 -0.49)"/><path class="cls-3" d="M1765,180.74a4.47,4.47,0,1,0,4.47,4.47A4.47,4.47,0,0,0,1765,180.74Z" transform="translate(0.28 -0.49)"/><path class="cls-3" d="M981.08,382.11a4.47,4.47,0,1,0,4.46,4.47A4.47,4.47,0,0,0,981.08,382.11Z" transform="translate(0.28 -0.49)"/><path class="cls-3" d="M981.08,368.39a4.47,4.47,0,1,0,4.46,4.46A4.47,4.47,0,0,0,981.08,368.39Z" transform="translate(0.28 -0.49)"/><path class="cls-3" d="M981.08,354.44a4.47,4.47,0,1,0,4.46,4.47A4.47,4.47,0,0,0,981.08,354.44Z" transform="translate(0.28 -0.49)"/><path class="cls-3" d="M981.08,340.72a4.47,4.47,0,1,0,4.46,4.46A4.47,4.47,0,0,0,981.08,340.72Z" transform="translate(0.28 -0.49)"/><path class="cls-3" d="M995.3,340.72a4.47,4.47,0,1,0,4.46,4.46A4.47,4.47,0,0,0,995.3,340.72Z" transform="translate(0.28 -0.49)"/><path class="cls-3" d="M1007.19,354.44a4.47,4.47,0,1,0,4.46,4.47A4.47,4.47,0,0,0,1007.19,354.44Z" transform="translate(0.28 -0.49)"/><path class="cls-3" d="M967.56,340.72a4.47,4.47,0,1,0,4.47,4.46A4.46,4.46,0,0,0,967.56,340.72Z" transform="translate(0.28 -0.49)"/><path class="cls-3" d="M955.68,354.44a4.47,4.47,0,1,0,4.46,4.47A4.47,4.47,0,0,0,955.68,354.44Z" transform="translate(0.28 -0.49)"/><path class="cls-3" d="M981.08,327a4.47,4.47,0,1,0,4.46,4.47A4.47,4.47,0,0,0,981.08,327Z" transform="translate(0.28 -0.49)"/><path class="cls-3" d="M1268.25,382.88a4.47,4.47,0,1,0,4.47,4.47A4.47,4.47,0,0,0,1268.25,382.88Z" transform="translate(0.28 -0.49)"/><circle class="cls-3" cx="1268.53" cy="373.55" r="4.47"/><path class="cls-3" d="M1268.25,355.85a4.47,4.47,0,1,0,4.47,4.47A4.47,4.47,0,0,0,1268.25,355.85Z" transform="translate(0.28 -0.49)"/><circle class="cls-3" cx="1268.53" cy="346.1" r="4.47"/><path class="cls-3" d="M1268.25,328.4a4.47,4.47,0,1,0,4.47,4.47A4.47,4.47,0,0,0,1268.25,328.4Z" transform="translate(0.28 -0.49)"/><circle class="cls-3" cx="1268.53" cy="318.65" r="4.47"/><path class="cls-3" d="M1268.25,301.37a4.47,4.47,0,1,0,4.47,4.47A4.47,4.47,0,0,0,1268.25,301.37Z" transform="translate(0.28 -0.49)"/><path class="cls-3" d="M1268.25,287.65a4.47,4.47,0,1,0,4.47,4.46A4.47,4.47,0,0,0,1268.25,287.65Z" transform="translate(0.28 -0.49)"/><path class="cls-3" d="M1268.25,273.92a4.47,4.47,0,1,0,4.47,4.47A4.47,4.47,0,0,0,1268.25,273.92Z" transform="translate(0.28 -0.49)"/><path class="cls-3" d="M1268.25,260.2a4.47,4.47,0,1,0,4.47,4.46A4.47,4.47,0,0,0,1268.25,260.2Z" transform="translate(0.28 -0.49)"/><circle class="cls-3" cx="1268.53" cy="250.45" r="4.47"/><path class="cls-3" d="M1268.25,233.17a4.47,4.47,0,1,0,4.47,4.46A4.47,4.47,0,0,0,1268.25,233.17Z" transform="translate(0.28 -0.49)"/><path class="cls-3" d="M1268.25,220a4.47,4.47,0,1,0,4.47,4.46A4.47,4.47,0,0,0,1268.25,220Z" transform="translate(0.28 -0.49)"/><circle class="cls-3" cx="1268.53" cy="210.19" r="4.47"/><circle class="cls-3" cx="1282.47" cy="210.69" r="4.47" transform="translate(592.62 1311.49) rotate(-67.26)"/><path class="cls-3" d="M1294.36,220a4.47,4.47,0,1,0,4.47,4.46A4.47,4.47,0,0,0,1294.36,220Z" transform="translate(0.28 -0.49)"/><circle class="cls-3" cx="1255.01" cy="210.19" r="4.47"/><path class="cls-3" d="M1242.85,220a4.47,4.47,0,1,0,4.46,4.46A4.47,4.47,0,0,0,1242.85,220Z" transform="translate(0.28 -0.49)"/><path class="cls-3" d="M1268.25,192.5a4.47,4.47,0,1,0,4.47,4.46A4.47,4.47,0,0,0,1268.25,192.5Z" transform="translate(0.28 -0.49)"/><path class="cls-3" d="M1131,451.18a4.47,4.47,0,1,0,4.46,4.47A4.47,4.47,0,0,0,1131,451.18Z" transform="translate(0.28 -0.49)"/><path class="cls-3" d="M1131,437.46a4.47,4.47,0,1,0,4.46,4.47A4.47,4.47,0,0,0,1131,437.46Z" transform="translate(0.28 -0.49)"/><path class="cls-3" d="M1131,423.74a4.47,4.47,0,1,0,4.46,4.46A4.47,4.47,0,0,0,1131,423.74Z" transform="translate(0.28 -0.49)"/><path class="cls-3" d="M1131,410a4.47,4.47,0,1,0,4.46,4.47A4.47,4.47,0,0,0,1131,410Z" transform="translate(0.28 -0.49)"/><path class="cls-3" d="M1131,396.29a4.47,4.47,0,1,0,4.46,4.46A4.47,4.47,0,0,0,1131,396.29Z" transform="translate(0.28 -0.49)"/><path class="cls-3" d="M1131,382.56a4.47,4.47,0,1,0,4.46,4.47A4.47,4.47,0,0,0,1131,382.56Z" transform="translate(0.28 -0.49)"/><path class="cls-3" d="M1143.51,451.18a4.47,4.47,0,1,0,4.46,4.47A4.47,4.47,0,0,0,1143.51,451.18Z" transform="translate(0.28 -0.49)"/><path class="cls-3" d="M1143.51,437.46a4.47,4.47,0,1,0,4.46,4.47A4.47,4.47,0,0,0,1143.51,437.46Z" transform="translate(0.28 -0.49)"/><path class="cls-3" d="M1156,451.18a4.47,4.47,0,1,0,4.47,4.47A4.46,4.46,0,0,0,1156,451.18Z" transform="translate(0.28 -0.49)"/><path class="cls-3" d="M1156,437.46a4.47,4.47,0,1,0,4.47,4.47A4.46,4.46,0,0,0,1156,437.46Z" transform="translate(0.28 -0.49)"/><path class="cls-3" d="M1156,423.74a4.47,4.47,0,1,0,4.47,4.46A4.46,4.46,0,0,0,1156,423.74Z" transform="translate(0.28 -0.49)"/><path class="cls-3" d="M1156,410a4.47,4.47,0,1,0,4.47,4.47A4.46,4.46,0,0,0,1156,410Z" transform="translate(0.28 -0.49)"/><path class="cls-3" d="M1168.55,451.18a4.47,4.47,0,1,0,4.47,4.47A4.47,4.47,0,0,0,1168.55,451.18Z" transform="translate(0.28 -0.49)"/><path class="cls-3" d="M1168.55,437.46a4.47,4.47,0,1,0,4.47,4.47A4.47,4.47,0,0,0,1168.55,437.46Z" transform="translate(0.28 -0.49)"/><path class="cls-3" d="M1168.55,423.74a4.47,4.47,0,1,0,4.47,4.46A4.46,4.46,0,0,0,1168.55,423.74Z" transform="translate(0.28 -0.49)"/><path class="cls-3" d="M1168.55,410a4.47,4.47,0,1,0,4.47,4.47A4.47,4.47,0,0,0,1168.55,410Z" transform="translate(0.28 -0.49)"/><path class="cls-3" d="M1168.55,396.29a4.47,4.47,0,1,0,4.47,4.46A4.46,4.46,0,0,0,1168.55,396.29Z" transform="translate(0.28 -0.49)"/><path class="cls-3" d="M1168.55,382.56A4.47,4.47,0,1,0,1173,387,4.47,4.47,0,0,0,1168.55,382.56Z" transform="translate(0.28 -0.49)"/><path class="cls-3" d="M1181.08,451.18a4.47,4.47,0,1,0,4.46,4.47A4.47,4.47,0,0,0,1181.08,451.18Z" transform="translate(0.28 -0.49)"/><path class="cls-3" d="M1181.08,437.46a4.47,4.47,0,1,0,4.46,4.47A4.47,4.47,0,0,0,1181.08,437.46Z" transform="translate(0.28 -0.49)"/><path class="cls-3" d="M1181.08,423.74a4.47,4.47,0,1,0,4.46,4.46A4.47,4.47,0,0,0,1181.08,423.74Z" transform="translate(0.28 -0.49)"/><path class="cls-3" d="M1181.08,410a4.47,4.47,0,1,0,4.46,4.47A4.47,4.47,0,0,0,1181.08,410Z" transform="translate(0.28 -0.49)"/><path class="cls-3" d="M1181.08,396.29a4.47,4.47,0,1,0,4.46,4.46A4.47,4.47,0,0,0,1181.08,396.29Z" transform="translate(0.28 -0.49)"/><path class="cls-3" d="M1193.6,451.18a4.47,4.47,0,1,0,4.46,4.47A4.47,4.47,0,0,0,1193.6,451.18Z" transform="translate(0.28 -0.49)"/><path class="cls-3" d="M1193.6,437.46a4.47,4.47,0,1,0,4.46,4.47A4.47,4.47,0,0,0,1193.6,437.46Z" transform="translate(0.28 -0.49)"/><path class="cls-3" d="M1193.6,423.74a4.47,4.47,0,1,0,4.46,4.46A4.47,4.47,0,0,0,1193.6,423.74Z" transform="translate(0.28 -0.49)"/><path class="cls-3" d="M1193.6,410a4.47,4.47,0,1,0,4.46,4.47A4.47,4.47,0,0,0,1193.6,410Z" transform="translate(0.28 -0.49)"/><path class="cls-3" d="M1206.12,451.18a4.47,4.47,0,1,0,4.47,4.47A4.47,4.47,0,0,0,1206.12,451.18Z" transform="translate(0.28 -0.49)"/><path class="cls-3" d="M1206.12,437.46a4.47,4.47,0,1,0,4.47,4.47A4.47,4.47,0,0,0,1206.12,437.46Z" transform="translate(0.28 -0.49)"/><path class="cls-3" d="M1206.12,423.74a4.47,4.47,0,1,0,4.47,4.46A4.47,4.47,0,0,0,1206.12,423.74Z" transform="translate(0.28 -0.49)"/><path class="cls-3" d="M1206.12,410a4.47,4.47,0,1,0,4.47,4.47A4.47,4.47,0,0,0,1206.12,410Z" transform="translate(0.28 -0.49)"/><path class="cls-3" d="M1206.12,396.29a4.47,4.47,0,1,0,4.47,4.46A4.47,4.47,0,0,0,1206.12,396.29Z" transform="translate(0.28 -0.49)"/><path class="cls-3" d="M1206.12,382.56a4.47,4.47,0,1,0,4.47,4.47A4.47,4.47,0,0,0,1206.12,382.56Z" transform="translate(0.28 -0.49)"/><path class="cls-3" d="M1218.64,451.18a4.47,4.47,0,1,0,4.47,4.47A4.47,4.47,0,0,0,1218.64,451.18Z" transform="translate(0.28 -0.49)"/><path class="cls-3" d="M1218.64,437.46a4.47,4.47,0,1,0,4.47,4.47A4.47,4.47,0,0,0,1218.64,437.46Z" transform="translate(0.28 -0.49)"/><path class="cls-3" d="M1218.64,423.74a4.47,4.47,0,1,0,4.47,4.46A4.46,4.46,0,0,0,1218.64,423.74Z" transform="translate(0.28 -0.49)"/><path class="cls-3" d="M1218.64,410a4.47,4.47,0,1,0,4.47,4.47A4.47,4.47,0,0,0,1218.64,410Z" transform="translate(0.28 -0.49)"/><path class="cls-3" d="M1218.64,396.29a4.47,4.47,0,1,0,4.47,4.46A4.46,4.46,0,0,0,1218.64,396.29Z" transform="translate(0.28 -0.49)"/><path class="cls-3" d="M1231.16,451.18a4.47,4.47,0,1,0,4.47,4.47A4.47,4.47,0,0,0,1231.16,451.18Z" transform="translate(0.28 -0.49)"/><path class="cls-3" d="M1231.16,437.46a4.47,4.47,0,1,0,4.47,4.47A4.47,4.47,0,0,0,1231.16,437.46Z" transform="translate(0.28 -0.49)"/><path class="cls-3" d="M1231.16,423.74a4.47,4.47,0,1,0,4.47,4.46A4.46,4.46,0,0,0,1231.16,423.74Z" transform="translate(0.28 -0.49)"/><path class="cls-3" d="M955.68,451.18a4.47,4.47,0,1,0,4.46,4.47A4.47,4.47,0,0,0,955.68,451.18Z" transform="translate(0.28 -0.49)"/><path class="cls-3" d="M955.68,437.46a4.47,4.47,0,1,0,4.46,4.47A4.47,4.47,0,0,0,955.68,437.46Z" transform="translate(0.28 -0.49)"/><path class="cls-3" d="M968.2,451.18a4.47,4.47,0,1,0,4.46,4.47A4.47,4.47,0,0,0,968.2,451.18Z" transform="translate(0.28 -0.49)"/><path class="cls-3" d="M968.2,437.46a4.47,4.47,0,1,0,4.46,4.47A4.47,4.47,0,0,0,968.2,437.46Z" transform="translate(0.28 -0.49)"/><path class="cls-3" d="M968.2,423.74a4.47,4.47,0,1,0,4.46,4.46A4.47,4.47,0,0,0,968.2,423.74Z" transform="translate(0.28 -0.49)"/><path class="cls-3" d="M980.72,451.18a4.47,4.47,0,1,0,4.47,4.47A4.47,4.47,0,0,0,980.72,451.18Z" transform="translate(0.28 -0.49)"/><path class="cls-3" d="M980.72,437.46a4.47,4.47,0,1,0,4.47,4.47A4.47,4.47,0,0,0,980.72,437.46Z" transform="translate(0.28 -0.49)"/><path class="cls-3" d="M980.72,423.74a4.47,4.47,0,1,0,4.47,4.46A4.47,4.47,0,0,0,980.72,423.74Z" transform="translate(0.28 -0.49)"/><path class="cls-3" d="M980.72,410a4.47,4.47,0,1,0,4.47,4.47A4.47,4.47,0,0,0,980.72,410Z" transform="translate(0.28 -0.49)"/><path class="cls-3" d="M980.72,396.29a4.47,4.47,0,1,0,4.47,4.46A4.47,4.47,0,0,0,980.72,396.29Z" transform="translate(0.28 -0.49)"/><path class="cls-3" d="M993.24,451.18a4.47,4.47,0,1,0,4.47,4.47A4.47,4.47,0,0,0,993.24,451.18Z" transform="translate(0.28 -0.49)"/><path class="cls-3" d="M993.24,437.46a4.47,4.47,0,1,0,4.47,4.47A4.47,4.47,0,0,0,993.24,437.46Z" transform="translate(0.28 -0.49)"/><path class="cls-3" d="M993.24,423.74a4.47,4.47,0,1,0,4.47,4.46A4.46,4.46,0,0,0,993.24,423.74Z" transform="translate(0.28 -0.49)"/><path class="cls-3" d="M993.24,410a4.47,4.47,0,1,0,4.47,4.47A4.47,4.47,0,0,0,993.24,410Z" transform="translate(0.28 -0.49)"/><path class="cls-3" d="M1005.76,451.18a4.47,4.47,0,1,0,4.47,4.47A4.47,4.47,0,0,0,1005.76,451.18Z" transform="translate(0.28 -0.49)"/><path class="cls-3" d="M1005.76,437.46a4.47,4.47,0,1,0,4.47,4.47A4.47,4.47,0,0,0,1005.76,437.46Z" transform="translate(0.28 -0.49)"/><path class="cls-3" d="M1005.76,423.74a4.47,4.47,0,1,0,4.47,4.46A4.46,4.46,0,0,0,1005.76,423.74Z" transform="translate(0.28 -0.49)"/><path class="cls-3" d="M1018.29,451.18a4.47,4.47,0,1,0,4.46,4.47A4.47,4.47,0,0,0,1018.29,451.18Z" transform="translate(0.28 -0.49)"/><path class="cls-3" d="M1018.29,437.46a4.47,4.47,0,1,0,4.46,4.47A4.47,4.47,0,0,0,1018.29,437.46Z" transform="translate(0.28 -0.49)"/><path class="cls-3" d="M1030.81,451.18a4.47,4.47,0,1,0,4.46,4.47A4.47,4.47,0,0,0,1030.81,451.18Z" transform="translate(0.28 -0.49)"/><path class="cls-3" d="M1030.81,437.46a4.47,4.47,0,1,0,4.46,4.47A4.47,4.47,0,0,0,1030.81,437.46Z" transform="translate(0.28 -0.49)"/><path class="cls-3" d="M1030.81,423.74a4.47,4.47,0,1,0,4.46,4.46A4.47,4.47,0,0,0,1030.81,423.74Z" transform="translate(0.28 -0.49)"/><path class="cls-3" d="M1043.33,451.18a4.47,4.47,0,1,0,4.47,4.47A4.46,4.46,0,0,0,1043.33,451.18Z" transform="translate(0.28 -0.49)"/><path class="cls-3" d="M1043.33,437.46a4.47,4.47,0,1,0,4.47,4.47A4.46,4.46,0,0,0,1043.33,437.46Z" transform="translate(0.28 -0.49)"/><path class="cls-3" d="M1043.33,423.74a4.47,4.47,0,1,0,4.47,4.46A4.46,4.46,0,0,0,1043.33,423.74Z" transform="translate(0.28 -0.49)"/><path class="cls-3" d="M1043.33,410a4.47,4.47,0,1,0,4.47,4.47A4.46,4.46,0,0,0,1043.33,410Z" transform="translate(0.28 -0.49)"/><path class="cls-3" d="M1043.33,396.29a4.47,4.47,0,1,0,4.47,4.46A4.46,4.46,0,0,0,1043.33,396.29Z" transform="translate(0.28 -0.49)"/><path class="cls-3" d="M1055.85,451.18a4.47,4.47,0,1,0,4.47,4.47A4.47,4.47,0,0,0,1055.85,451.18Z" transform="translate(0.28 -0.49)"/><path class="cls-3" d="M1055.85,437.46a4.47,4.47,0,1,0,4.47,4.47A4.47,4.47,0,0,0,1055.85,437.46Z" transform="translate(0.28 -0.49)"/><path class="cls-3" d="M1055.85,423.74a4.47,4.47,0,1,0,4.47,4.46A4.46,4.46,0,0,0,1055.85,423.74Z" transform="translate(0.28 -0.49)"/><path class="cls-3" d="M1055.85,410a4.47,4.47,0,1,0,4.47,4.47A4.47,4.47,0,0,0,1055.85,410Z" transform="translate(0.28 -0.49)"/><path class="cls-3" d="M1068.38,451.18a4.47,4.47,0,1,0,4.46,4.47A4.47,4.47,0,0,0,1068.38,451.18Z" transform="translate(0.28 -0.49)"/><path class="cls-3" d="M1068.38,437.46a4.47,4.47,0,1,0,4.46,4.47A4.47,4.47,0,0,0,1068.38,437.46Z" transform="translate(0.28 -0.49)"/><path class="cls-3" d="M1068.38,423.74a4.47,4.47,0,1,0,4.46,4.46A4.47,4.47,0,0,0,1068.38,423.74Z" transform="translate(0.28 -0.49)"/><path class="cls-3" d="M1068.38,410a4.47,4.47,0,1,0,4.46,4.47A4.47,4.47,0,0,0,1068.38,410Z" transform="translate(0.28 -0.49)"/><path class="cls-3" d="M1068.38,396.29a4.47,4.47,0,1,0,4.46,4.46A4.47,4.47,0,0,0,1068.38,396.29Z" transform="translate(0.28 -0.49)"/><path class="cls-3" d="M1068.38,382.56a4.47,4.47,0,1,0,4.46,4.47A4.47,4.47,0,0,0,1068.38,382.56Z" transform="translate(0.28 -0.49)"/><path class="cls-3" d="M1080.9,451.18a4.47,4.47,0,1,0,4.46,4.47A4.47,4.47,0,0,0,1080.9,451.18Z" transform="translate(0.28 -0.49)"/><path class="cls-3" d="M1080.9,437.46a4.47,4.47,0,1,0,4.46,4.47A4.47,4.47,0,0,0,1080.9,437.46Z" transform="translate(0.28 -0.49)"/><path class="cls-3" d="M1080.9,423.74a4.47,4.47,0,1,0,4.46,4.46A4.47,4.47,0,0,0,1080.9,423.74Z" transform="translate(0.28 -0.49)"/><path class="cls-3" d="M1080.9,410a4.47,4.47,0,1,0,4.46,4.47A4.47,4.47,0,0,0,1080.9,410Z" transform="translate(0.28 -0.49)"/><path class="cls-3" d="M1080.9,396.29a4.47,4.47,0,1,0,4.46,4.46A4.47,4.47,0,0,0,1080.9,396.29Z" transform="translate(0.28 -0.49)"/><path class="cls-3" d="M1381.3,451.18a4.47,4.47,0,1,0,4.47,4.47A4.47,4.47,0,0,0,1381.3,451.18Z" transform="translate(0.28 -0.49)"/><path class="cls-3" d="M1381.3,437.46a4.47,4.47,0,1,0,4.47,4.47A4.47,4.47,0,0,0,1381.3,437.46Z" transform="translate(0.28 -0.49)"/><path class="cls-3" d="M1381.3,423.74a4.47,4.47,0,1,0,4.47,4.46A4.46,4.46,0,0,0,1381.3,423.74Z" transform="translate(0.28 -0.49)"/><path class="cls-3" d="M1381.3,410a4.47,4.47,0,1,0,4.47,4.47A4.47,4.47,0,0,0,1381.3,410Z" transform="translate(0.28 -0.49)"/><path class="cls-3" d="M1393.83,451.18a4.47,4.47,0,1,0,4.46,4.47A4.47,4.47,0,0,0,1393.83,451.18Z" transform="translate(0.28 -0.49)"/><path class="cls-3" d="M1393.83,437.46a4.47,4.47,0,1,0,4.46,4.47A4.47,4.47,0,0,0,1393.83,437.46Z" transform="translate(0.28 -0.49)"/><path class="cls-3" d="M1393.83,423.74a4.47,4.47,0,1,0,4.46,4.46A4.47,4.47,0,0,0,1393.83,423.74Z" transform="translate(0.28 -0.49)"/><path class="cls-3" d="M1393.83,410a4.47,4.47,0,1,0,4.46,4.47A4.47,4.47,0,0,0,1393.83,410Z" transform="translate(0.28 -0.49)"/><path class="cls-3" d="M1393.83,396.29a4.47,4.47,0,1,0,4.46,4.46A4.47,4.47,0,0,0,1393.83,396.29Z" transform="translate(0.28 -0.49)"/><path class="cls-3" d="M1406.35,451.18a4.47,4.47,0,1,0,4.46,4.47A4.47,4.47,0,0,0,1406.35,451.18Z" transform="translate(0.28 -0.49)"/><path class="cls-3" d="M1406.35,437.46a4.47,4.47,0,1,0,4.46,4.47A4.47,4.47,0,0,0,1406.35,437.46Z" transform="translate(0.28 -0.49)"/><path class="cls-3" d="M1406.35,423.74a4.47,4.47,0,1,0,4.46,4.46A4.47,4.47,0,0,0,1406.35,423.74Z" transform="translate(0.28 -0.49)"/><path class="cls-3" d="M1406.35,410a4.47,4.47,0,1,0,4.46,4.47A4.47,4.47,0,0,0,1406.35,410Z" transform="translate(0.28 -0.49)"/><path class="cls-3" d="M1406.35,396.29a4.47,4.47,0,1,0,4.46,4.46A4.47,4.47,0,0,0,1406.35,396.29Z" transform="translate(0.28 -0.49)"/><path class="cls-3" d="M1406.35,382.56a4.47,4.47,0,1,0,4.46,4.47A4.47,4.47,0,0,0,1406.35,382.56Z" transform="translate(0.28 -0.49)"/><path class="cls-3" d="M1406.35,368.84a4.47,4.47,0,1,0,4.46,4.46A4.47,4.47,0,0,0,1406.35,368.84Z" transform="translate(0.28 -0.49)"/><path class="cls-3" d="M1418.87,451.18a4.47,4.47,0,1,0,4.47,4.47A4.47,4.47,0,0,0,1418.87,451.18Z" transform="translate(0.28 -0.49)"/><path class="cls-3" d="M1418.87,437.46a4.47,4.47,0,1,0,4.47,4.47A4.47,4.47,0,0,0,1418.87,437.46Z" transform="translate(0.28 -0.49)"/><path class="cls-3" d="M1418.87,423.74a4.47,4.47,0,1,0,4.47,4.46A4.47,4.47,0,0,0,1418.87,423.74Z" transform="translate(0.28 -0.49)"/><path class="cls-3" d="M1418.87,410a4.47,4.47,0,1,0,4.47,4.47A4.47,4.47,0,0,0,1418.87,410Z" transform="translate(0.28 -0.49)"/><path class="cls-3" d="M1418.87,396.29a4.47,4.47,0,1,0,4.47,4.46A4.47,4.47,0,0,0,1418.87,396.29Z" transform="translate(0.28 -0.49)"/><path class="cls-3" d="M1418.87,382.56a4.47,4.47,0,1,0,4.47,4.47A4.47,4.47,0,0,0,1418.87,382.56Z" transform="translate(0.28 -0.49)"/><path class="cls-3" d="M1431.39,451.18a4.47,4.47,0,1,0,4.47,4.47A4.47,4.47,0,0,0,1431.39,451.18Z" transform="translate(0.28 -0.49)"/><path class="cls-3" d="M1431.39,437.46a4.47,4.47,0,1,0,4.47,4.47A4.47,4.47,0,0,0,1431.39,437.46Z" transform="translate(0.28 -0.49)"/><path class="cls-3" d="M1443.92,451.18a4.47,4.47,0,1,0,4.46,4.47A4.47,4.47,0,0,0,1443.92,451.18Z" transform="translate(0.28 -0.49)"/><path class="cls-3" d="M1443.92,437.46a4.47,4.47,0,1,0,4.46,4.47A4.47,4.47,0,0,0,1443.92,437.46Z" transform="translate(0.28 -0.49)"/><path class="cls-3" d="M1443.92,423.74a4.47,4.47,0,1,0,4.46,4.46A4.47,4.47,0,0,0,1443.92,423.74Z" transform="translate(0.28 -0.49)"/><path class="cls-3" d="M1443.92,410a4.47,4.47,0,1,0,4.46,4.47A4.47,4.47,0,0,0,1443.92,410Z" transform="translate(0.28 -0.49)"/><path class="cls-3" d="M1456.44,451.18a4.47,4.47,0,1,0,4.46,4.47A4.47,4.47,0,0,0,1456.44,451.18Z" transform="translate(0.28 -0.49)"/><path class="cls-3" d="M1456.44,437.46a4.47,4.47,0,1,0,4.46,4.47A4.47,4.47,0,0,0,1456.44,437.46Z" transform="translate(0.28 -0.49)"/><path class="cls-3" d="M1456.44,423.74a4.47,4.47,0,1,0,4.46,4.46A4.47,4.47,0,0,0,1456.44,423.74Z" transform="translate(0.28 -0.49)"/><path class="cls-3" d="M1456.44,410a4.47,4.47,0,1,0,4.46,4.47A4.47,4.47,0,0,0,1456.44,410Z" transform="translate(0.28 -0.49)"/><path class="cls-3" d="M1456.44,396.29a4.47,4.47,0,1,0,4.46,4.46A4.47,4.47,0,0,0,1456.44,396.29Z" transform="translate(0.28 -0.49)"/><path class="cls-3" d="M1456.44,382.56a4.47,4.47,0,1,0,4.46,4.47A4.47,4.47,0,0,0,1456.44,382.56Z" transform="translate(0.28 -0.49)"/><path class="cls-3" d="M1469,451.18a4.47,4.47,0,1,0,4.47,4.47A4.47,4.47,0,0,0,1469,451.18Z" transform="translate(0.28 -0.49)"/><path class="cls-3" d="M1469,437.46a4.47,4.47,0,1,0,4.47,4.47A4.47,4.47,0,0,0,1469,437.46Z" transform="translate(0.28 -0.49)"/><path class="cls-3" d="M1469,423.74a4.47,4.47,0,1,0,4.47,4.46A4.47,4.47,0,0,0,1469,423.74Z" transform="translate(0.28 -0.49)"/><path class="cls-3" d="M1469,410a4.47,4.47,0,1,0,4.47,4.47A4.47,4.47,0,0,0,1469,410Z" transform="translate(0.28 -0.49)"/><path class="cls-3" d="M1469,396.29a4.47,4.47,0,1,0,4.47,4.46A4.47,4.47,0,0,0,1469,396.29Z" transform="translate(0.28 -0.49)"/><path class="cls-3" d="M1481.48,451.18a4.47,4.47,0,1,0,4.47,4.47A4.47,4.47,0,0,0,1481.48,451.18Z" transform="translate(0.28 -0.49)"/><path class="cls-3" d="M1481.48,437.46a4.47,4.47,0,1,0,4.47,4.47A4.47,4.47,0,0,0,1481.48,437.46Z" transform="translate(0.28 -0.49)"/><path class="cls-3" d="M1481.48,423.74a4.47,4.47,0,1,0,4.47,4.46A4.46,4.46,0,0,0,1481.48,423.74Z" transform="translate(0.28 -0.49)"/><path class="cls-3" d="M1481.48,410a4.47,4.47,0,1,0,4.47,4.47A4.47,4.47,0,0,0,1481.48,410Z" transform="translate(0.28 -0.49)"/><path class="cls-3" d="M1494,451.18a4.47,4.47,0,1,0,4.47,4.47A4.47,4.47,0,0,0,1494,451.18Z" transform="translate(0.28 -0.49)"/><path class="cls-3" d="M1494,437.46a4.47,4.47,0,1,0,4.47,4.47A4.47,4.47,0,0,0,1494,437.46Z" transform="translate(0.28 -0.49)"/><path class="cls-3" d="M1494,423.74a4.47,4.47,0,1,0,4.47,4.46A4.46,4.46,0,0,0,1494,423.74Z" transform="translate(0.28 -0.49)"/><path class="cls-3" d="M1494,410a4.47,4.47,0,1,0,4.47,4.47A4.47,4.47,0,0,0,1494,410Z" transform="translate(0.28 -0.49)"/><path class="cls-3" d="M1494,396.29a4.47,4.47,0,1,0,4.47,4.46A4.46,4.46,0,0,0,1494,396.29Z" transform="translate(0.28 -0.49)"/><path class="cls-3" d="M1494,382.56a4.47,4.47,0,1,0,4.47,4.47A4.47,4.47,0,0,0,1494,382.56Z" transform="translate(0.28 -0.49)"/><path class="cls-3" d="M1506.53,451.18a4.47,4.47,0,1,0,4.46,4.47A4.47,4.47,0,0,0,1506.53,451.18Z" transform="translate(0.28 -0.49)"/><path class="cls-3" d="M1506.53,437.46a4.47,4.47,0,1,0,4.46,4.47A4.47,4.47,0,0,0,1506.53,437.46Z" transform="translate(0.28 -0.49)"/><path class="cls-3" d="M1506.53,423.74a4.47,4.47,0,1,0,4.46,4.46A4.47,4.47,0,0,0,1506.53,423.74Z" transform="translate(0.28 -0.49)"/><path class="cls-3" d="M1506.53,410a4.47,4.47,0,1,0,4.46,4.47A4.47,4.47,0,0,0,1506.53,410Z" transform="translate(0.28 -0.49)"/><path class="cls-3" d="M1506.53,396.29a4.47,4.47,0,1,0,4.46,4.46A4.47,4.47,0,0,0,1506.53,396.29Z" transform="translate(0.28 -0.49)"/><path class="cls-3" d="M1519.05,451.18a4.47,4.47,0,1,0,4.46,4.47A4.47,4.47,0,0,0,1519.05,451.18Z" transform="translate(0.28 -0.49)"/><path class="cls-3" d="M1519.05,437.46a4.47,4.47,0,1,0,4.46,4.47A4.47,4.47,0,0,0,1519.05,437.46Z" transform="translate(0.28 -0.49)"/><path class="cls-3" d="M1519.05,423.74a4.47,4.47,0,1,0,4.46,4.46A4.47,4.47,0,0,0,1519.05,423.74Z" transform="translate(0.28 -0.49)"/><path class="cls-3" d="M1243.56,451.18a4.47,4.47,0,1,0,4.47,4.47A4.47,4.47,0,0,0,1243.56,451.18Z" transform="translate(0.28 -0.49)"/><path class="cls-3" d="M1243.56,437.46a4.47,4.47,0,1,0,4.47,4.47A4.47,4.47,0,0,0,1243.56,437.46Z" transform="translate(0.28 -0.49)"/><path class="cls-3" d="M1256.08,451.18a4.47,4.47,0,1,0,4.47,4.47A4.47,4.47,0,0,0,1256.08,451.18Z" transform="translate(0.28 -0.49)"/><path class="cls-3" d="M1256.08,437.46a4.47,4.47,0,1,0,4.47,4.47A4.47,4.47,0,0,0,1256.08,437.46Z" transform="translate(0.28 -0.49)"/><path class="cls-3" d="M1256.08,423.74a4.47,4.47,0,1,0,4.47,4.46A4.46,4.46,0,0,0,1256.08,423.74Z" transform="translate(0.28 -0.49)"/><path class="cls-3" d="M1268.6,451.18a4.47,4.47,0,1,0,4.47,4.47A4.47,4.47,0,0,0,1268.6,451.18Z" transform="translate(0.28 -0.49)"/><path class="cls-3" d="M1268.6,437.46a4.47,4.47,0,1,0,4.47,4.47A4.47,4.47,0,0,0,1268.6,437.46Z" transform="translate(0.28 -0.49)"/><path class="cls-3" d="M1268.6,423.74a4.47,4.47,0,1,0,4.47,4.46A4.46,4.46,0,0,0,1268.6,423.74Z" transform="translate(0.28 -0.49)"/><path class="cls-3" d="M1268.6,410a4.47,4.47,0,1,0,4.47,4.47A4.47,4.47,0,0,0,1268.6,410Z" transform="translate(0.28 -0.49)"/><path class="cls-3" d="M1268.6,396.29a4.47,4.47,0,1,0,4.47,4.46A4.46,4.46,0,0,0,1268.6,396.29Z" transform="translate(0.28 -0.49)"/><path class="cls-3" d="M1281.13,451.18a4.47,4.47,0,1,0,4.46,4.47A4.47,4.47,0,0,0,1281.13,451.18Z" transform="translate(0.28 -0.49)"/><path class="cls-3" d="M1281.13,437.46a4.47,4.47,0,1,0,4.46,4.47A4.47,4.47,0,0,0,1281.13,437.46Z" transform="translate(0.28 -0.49)"/><path class="cls-3" d="M1281.13,423.74a4.47,4.47,0,1,0,4.46,4.46A4.47,4.47,0,0,0,1281.13,423.74Z" transform="translate(0.28 -0.49)"/><path class="cls-3" d="M1281.13,410a4.47,4.47,0,1,0,4.46,4.47A4.47,4.47,0,0,0,1281.13,410Z" transform="translate(0.28 -0.49)"/><path class="cls-3" d="M1293.65,451.18a4.47,4.47,0,1,0,4.46,4.47A4.47,4.47,0,0,0,1293.65,451.18Z" transform="translate(0.28 -0.49)"/><path class="cls-3" d="M1293.65,437.46a4.47,4.47,0,1,0,4.46,4.47A4.47,4.47,0,0,0,1293.65,437.46Z" transform="translate(0.28 -0.49)"/><path class="cls-3" d="M1293.65,423.74a4.47,4.47,0,1,0,4.46,4.46A4.47,4.47,0,0,0,1293.65,423.74Z" transform="translate(0.28 -0.49)"/><path class="cls-3" d="M1306.17,451.18a4.47,4.47,0,1,0,4.47,4.47A4.47,4.47,0,0,0,1306.17,451.18Z" transform="translate(0.28 -0.49)"/><path class="cls-3" d="M1306.17,437.46a4.47,4.47,0,1,0,4.47,4.47A4.47,4.47,0,0,0,1306.17,437.46Z" transform="translate(0.28 -0.49)"/><path class="cls-3" d="M1318.69,451.18a4.47,4.47,0,1,0,4.47,4.47A4.47,4.47,0,0,0,1318.69,451.18Z" transform="translate(0.28 -0.49)"/><path class="cls-3" d="M1318.69,437.46a4.47,4.47,0,1,0,4.47,4.47A4.47,4.47,0,0,0,1318.69,437.46Z" transform="translate(0.28 -0.49)"/><path class="cls-3" d="M1318.69,423.74a4.47,4.47,0,1,0,4.47,4.46A4.46,4.46,0,0,0,1318.69,423.74Z" transform="translate(0.28 -0.49)"/><path class="cls-3" d="M1331.22,451.18a4.47,4.47,0,1,0,4.46,4.47A4.47,4.47,0,0,0,1331.22,451.18Z" transform="translate(0.28 -0.49)"/><path class="cls-3" d="M1331.22,437.46a4.47,4.47,0,1,0,4.46,4.47A4.47,4.47,0,0,0,1331.22,437.46Z" transform="translate(0.28 -0.49)"/><path class="cls-3" d="M1331.22,423.74a4.47,4.47,0,1,0,4.46,4.46A4.47,4.47,0,0,0,1331.22,423.74Z" transform="translate(0.28 -0.49)"/><path class="cls-3" d="M1331.22,410a4.47,4.47,0,1,0,4.46,4.47A4.47,4.47,0,0,0,1331.22,410Z" transform="translate(0.28 -0.49)"/><path class="cls-3" d="M1331.22,396.29a4.47,4.47,0,1,0,4.46,4.46A4.47,4.47,0,0,0,1331.22,396.29Z" transform="translate(0.28 -0.49)"/><path class="cls-3" d="M1343.74,451.18a4.47,4.47,0,1,0,4.46,4.47A4.47,4.47,0,0,0,1343.74,451.18Z" transform="translate(0.28 -0.49)"/><path class="cls-3" d="M1343.74,437.46a4.47,4.47,0,1,0,4.46,4.47A4.47,4.47,0,0,0,1343.74,437.46Z" transform="translate(0.28 -0.49)"/><path class="cls-3" d="M1343.74,423.74a4.47,4.47,0,1,0,4.46,4.46A4.47,4.47,0,0,0,1343.74,423.74Z" transform="translate(0.28 -0.49)"/><path class="cls-3" d="M1343.74,410a4.47,4.47,0,1,0,4.46,4.47A4.47,4.47,0,0,0,1343.74,410Z" transform="translate(0.28 -0.49)"/><path class="cls-3" d="M1356.26,451.18a4.47,4.47,0,1,0,4.47,4.47A4.47,4.47,0,0,0,1356.26,451.18Z" transform="translate(0.28 -0.49)"/><path class="cls-3" d="M1356.26,437.46a4.47,4.47,0,1,0,4.47,4.47A4.47,4.47,0,0,0,1356.26,437.46Z" transform="translate(0.28 -0.49)"/><path class="cls-3" d="M1356.26,423.74a4.47,4.47,0,1,0,4.47,4.46A4.47,4.47,0,0,0,1356.26,423.74Z" transform="translate(0.28 -0.49)"/><path class="cls-3" d="M1356.26,410a4.47,4.47,0,1,0,4.47,4.47A4.47,4.47,0,0,0,1356.26,410Z" transform="translate(0.28 -0.49)"/><path class="cls-3" d="M1356.26,396.29a4.47,4.47,0,1,0,4.47,4.46A4.47,4.47,0,0,0,1356.26,396.29Z" transform="translate(0.28 -0.49)"/><path class="cls-3" d="M1356.26,382.56a4.47,4.47,0,1,0,4.47,4.47A4.47,4.47,0,0,0,1356.26,382.56Z" transform="translate(0.28 -0.49)"/><path class="cls-3" d="M1368.78,451.18a4.47,4.47,0,1,0,4.47,4.47A4.47,4.47,0,0,0,1368.78,451.18Z" transform="translate(0.28 -0.49)"/><path class="cls-3" d="M1368.78,437.46a4.47,4.47,0,1,0,4.47,4.47A4.47,4.47,0,0,0,1368.78,437.46Z" transform="translate(0.28 -0.49)"/><path class="cls-3" d="M1368.78,423.74a4.47,4.47,0,1,0,4.47,4.46A4.46,4.46,0,0,0,1368.78,423.74Z" transform="translate(0.28 -0.49)"/><path class="cls-3" d="M1368.78,410a4.47,4.47,0,1,0,4.47,4.47A4.47,4.47,0,0,0,1368.78,410Z" transform="translate(0.28 -0.49)"/><path class="cls-3" d="M1368.78,396.29a4.47,4.47,0,1,0,4.47,4.46A4.46,4.46,0,0,0,1368.78,396.29Z" transform="translate(0.28 -0.49)"/><rect class="cls-4" x="1236.08" y="110.27" width="7.75" height="28.49"/><rect class="cls-4" x="1239.38" y="101.07" width="1.16" height="42.58"/><rect class="cls-4" x="1247.82" y="95.45" width="7.75" height="20.3"/><rect class="cls-4" x="1251.11" y="84.83" width="1.16" height="49.14"/><rect class="cls-4" x="1329.97" y="119.06" width="7.75" height="20.3"/><rect class="cls-4" x="1333.26" y="108.44" width="1.16" height="49.14"/><rect class="cls-4" x="1400.38" y="79.03" width="7.75" height="20.3"/><rect class="cls-4" x="1403.68" y="68.41" width="1.16" height="49.14"/><rect class="cls-4" x="1224.34" y="135.61" width="7.75" height="19.07"/><rect class="cls-4" x="1227.64" y="129.5" width="1.16" height="34.8"/><rect class="cls-4" x="1318.23" y="119.01" width="7.75" height="11.83"/><rect class="cls-4" x="1321.53" y="115.22" width="1.16" height="21.58"/><rect class="cls-4" x="1306.5" y="106.17" width="7.75" height="24.13"/><rect class="cls-4" x="1309.79" y="98.44" width="1.16" height="44.02"/><rect class="cls-4" x="1294.76" y="96.34" width="7.75" height="38.49"/><rect class="cls-4" x="1298.06" y="83.91" width="1.16" height="57.53"/><rect class="cls-4" x="1283.02" y="98.06" width="7.75" height="11.83"/><rect class="cls-4" x="1286.32" y="94.27" width="1.16" height="21.58"/><rect class="cls-4" x="1271.29" y="87.54" width="7.75" height="24.13"/><rect class="cls-4" x="1274.59" y="79.81" width="1.16" height="44.02"/><rect class="cls-4" x="1259.55" y="106.91" width="7.75" height="24.18"/><rect class="cls-4" x="1262.85" y="93.35" width="1.16" height="42.58"/><rect class="cls-4" x="1353.44" y="85.33" width="7.75" height="28.49"/><rect class="cls-4" x="1356.74" y="76.13" width="1.16" height="42.58"/><rect class="cls-4" x="1365.17" y="70.51" width="7.75" height="20.3"/><rect class="cls-4" x="1368.47" y="59.89" width="1.16" height="49.14"/><rect class="cls-4" x="1341.7" y="110.67" width="7.75" height="19.07"/><rect class="cls-4" x="1345" y="104.56" width="1.16" height="34.8"/><rect class="cls-4" x="1388.65" y="62.6" width="7.75" height="24.13"/><rect class="cls-4" x="1391.94" y="54.87" width="1.16" height="44.02"/><rect class="cls-4" x="1376.91" y="81.97" width="7.75" height="24.18"/><rect class="cls-4" x="1380.21" y="68.41" width="1.16" height="42.58"/><rect class="cls-4" x="1577.52" y="140.12" width="7.75" height="28.49"/><rect class="cls-4" x="1580.81" y="130.92" width="1.16" height="42.58"/><rect class="cls-4" x="1565.78" y="125.3" width="7.75" height="20.3"/><rect class="cls-4" x="1569.08" y="114.68" width="1.16" height="49.14"/><rect class="cls-4" x="1483.63" y="148.91" width="7.75" height="20.3"/><rect class="cls-4" x="1486.93" y="138.29" width="1.16" height="49.14"/><rect class="cls-4" x="1413.21" y="93.8" width="7.75" height="28.25"/><rect class="cls-4" x="1416.51" y="79.03" width="1.16" height="68.37"/><rect class="cls-4" x="1589.25" y="165.45" width="7.75" height="19.07"/><rect class="cls-4" x="1592.55" y="159.34" width="1.16" height="34.8"/><rect class="cls-4" x="1495.36" y="145.92" width="7.75" height="13.78"/><rect class="cls-4" x="1498.66" y="141.51" width="1.16" height="25.14"/><rect class="cls-4" x="1507.1" y="136.01" width="7.75" height="24.13"/><rect class="cls-4" x="1510.4" y="128.29" width="1.16" height="44.02"/><rect class="cls-4" x="1518.84" y="126.18" width="7.75" height="38.49"/><rect class="cls-4" x="1522.13" y="113.75" width="1.16" height="57.53"/><rect class="cls-4" x="1530.57" y="127.9" width="7.75" height="11.83"/><rect class="cls-4" x="1533.87" y="124.11" width="1.16" height="21.58"/><rect class="cls-4" x="1542.31" y="117.38" width="7.75" height="24.13"/><rect class="cls-4" x="1545.61" y="109.66" width="1.16" height="44.02"/><rect class="cls-4" x="1554.04" y="136.75" width="7.75" height="24.18"/><rect class="cls-4" x="1557.34" y="123.2" width="1.16" height="42.58"/><rect class="cls-4" x="1460.16" y="115.17" width="7.75" height="28.49"/><rect class="cls-4" x="1463.45" y="105.97" width="1.16" height="42.58"/><rect class="cls-4" x="1448.42" y="100.35" width="7.75" height="20.3"/><rect class="cls-4" x="1451.72" y="89.74" width="1.16" height="49.14"/><rect class="cls-4" x="1471.89" y="140.51" width="7.75" height="19.07"/><rect class="cls-4" x="1475.19" y="134.4" width="1.16" height="34.8"/><rect class="cls-4" x="1424.95" y="88.98" width="7.75" height="13.33"/><rect class="cls-4" x="1428.25" y="84.71" width="1.16" height="24.32"/><rect class="cls-4" x="1436.69" y="111.81" width="7.75" height="24.18"/><rect class="cls-4" x="1439.98" y="98.26" width="1.16" height="42.58"/><rect class="cls-4" x="965.01" y="103.43" width="7.75" height="28.49"/><rect class="cls-4" x="968.3" y="94.23" width="1.16" height="42.58"/><rect class="cls-4" x="976.74" y="88.61" width="7.75" height="20.3"/><rect class="cls-4" x="980.04" y="77.99" width="1.16" height="49.14"/><rect class="cls-4" x="1058.89" y="112.22" width="7.75" height="20.3"/><rect class="cls-4" x="1062.19" y="101.6" width="1.16" height="49.14"/><rect class="cls-4" x="1129.31" y="72.19" width="7.75" height="20.3"/><rect class="cls-4" x="1132.61" y="61.57" width="1.16" height="49.14"/><rect class="cls-4" x="953.27" y="128.76" width="7.75" height="19.07"/><rect class="cls-4" x="956.57" y="122.66" width="1.16" height="34.8"/><rect class="cls-4" x="1047.16" y="112.17" width="7.75" height="11.83"/><rect class="cls-4" x="1050.46" y="108.38" width="1.16" height="21.58"/><rect class="cls-4" x="1035.42" y="99.33" width="7.75" height="24.13"/><rect class="cls-4" x="1038.72" y="91.6" width="1.16" height="44.02"/><rect class="cls-4" x="1023.69" y="89.5" width="7.75" height="38.49"/><rect class="cls-4" x="1026.98" y="77.07" width="1.16" height="57.53"/><rect class="cls-4" x="1011.95" y="91.22" width="7.75" height="11.83"/><rect class="cls-4" x="1015.25" y="87.43" width="1.16" height="21.58"/><rect class="cls-4" x="1000.21" y="80.7" width="7.75" height="24.13"/><rect class="cls-4" x="1003.51" y="72.97" width="1.16" height="44.02"/><rect class="cls-4" x="988.48" y="100.07" width="7.75" height="24.18"/><rect class="cls-4" x="991.78" y="86.51" width="1.16" height="42.58"/><rect class="cls-4" x="1082.36" y="78.49" width="7.75" height="28.49"/><rect class="cls-4" x="1085.66" y="69.29" width="1.16" height="42.58"/><rect class="cls-4" x="1094.1" y="63.67" width="7.75" height="20.3"/><rect class="cls-4" x="1097.4" y="53.05" width="1.16" height="49.14"/><rect class="cls-4" x="1070.63" y="103.82" width="7.75" height="19.07"/><rect class="cls-4" x="1073.93" y="97.71" width="1.16" height="34.8"/><rect class="cls-4" x="1117.57" y="55.76" width="7.75" height="24.13"/><rect class="cls-4" x="1120.87" y="48.03" width="1.16" height="44.02"/><rect class="cls-4" x="1105.84" y="75.12" width="7.75" height="24.18"/><rect class="cls-4" x="1109.13" y="61.57" width="1.16" height="42.58"/><rect class="cls-4" x="1212.56" y="142.06" width="7.75" height="20.3"/><rect class="cls-4" x="1215.85" y="131.45" width="1.16" height="49.14"/><rect class="cls-4" x="1142.14" y="86.96" width="7.75" height="28.25"/><rect class="cls-4" x="1145.44" y="72.19" width="1.16" height="68.37"/><rect class="cls-4" x="1189.08" y="108.33" width="7.75" height="28.49"/><rect class="cls-4" x="1192.38" y="99.13" width="1.16" height="42.58"/><rect class="cls-4" x="1177.35" y="93.51" width="7.75" height="20.3"/><rect class="cls-4" x="1180.65" y="82.9" width="1.16" height="49.14"/><rect class="cls-4" x="1200.82" y="133.67" width="7.75" height="19.07"/><rect class="cls-4" x="1204.12" y="127.56" width="1.16" height="34.8"/><rect class="cls-4" x="1153.88" y="82.14" width="7.75" height="13.33"/><rect class="cls-4" x="1157.17" y="77.87" width="1.16" height="24.32"/><rect class="cls-4" x="1165.61" y="104.97" width="7.75" height="24.18"/><rect class="cls-4" x="1168.91" y="91.41" width="1.16" height="42.58"/><rect class="cls-4" x="1623.53" y="152.7" width="7.75" height="28.49"/><rect class="cls-4" x="1626.82" y="143.5" width="1.16" height="42.58"/><rect class="cls-4" x="1611.79" y="137.88" width="7.75" height="20.3"/><rect class="cls-4" x="1615.09" y="127.27" width="1.16" height="49.14"/><rect class="cls-4" x="1635.26" y="176.55" width="7.75" height="14.43"/><rect class="cls-4" x="1638.56" y="171.93" width="1.16" height="26.32"/><rect class="cls-4" x="1600.05" y="149.34" width="7.75" height="24.18"/><rect class="cls-4" x="1603.35" y="135.78" width="1.16" height="42.58"/><path class="cls-5" d="M1701.47,274.53a28,28,0,1,0,28,28A28,28,0,0,0,1701.47,274.53Z" transform="translate(0.28 -0.49)"/><polygon class="cls-6" points="1724.23 285.4 1724.23 285.4 1724.23 285.4 1724.23 285.4"/><path class="cls-6" d="M1701.47,274.53h0v28l22.5-16.6A27.91,27.91,0,0,0,1701.47,274.53Z" transform="translate(0.28 -0.49)"/><rect class="cls-7" x="1311.78" y="142.11" width="371.25" height="259.2" rx="15.38"/><rect class="cls-8" x="1435.37" y="401.31" width="124.06" height="42.06"/><path class="cls-9" d="M1568.45,443.86H1425.8a19.8,19.8,0,0,0-16.74,9.23l-5.45,8.63h187l-5.45-8.63A19.8,19.8,0,0,0,1568.45,443.86Z" transform="translate(0.28 -0.49)"/><path class="cls-10" d="M1666.37,143.54h-338.7a15.38,15.38,0,0,0-15.38,15.38V359h369.46V158.92A15.39,15.39,0,0,0,1666.37,143.54Z" transform="translate(0.28 -0.49)"/><rect class="cls-11" x="1325.44" y="154.69" width="343.71" height="188.82"/><rect class="cls-12" x="1414.22" y="301.3" width="11.22" height="14.17"/><rect class="cls-12" x="1419" y="296.72" width="1.67" height="21.18"/><rect class="cls-12" x="1431.21" y="293.93" width="11.22" height="10.1"/><rect class="cls-12" x="1435.98" y="288.64" width="1.67" height="24.45"/><rect class="cls-12" x="1550.1" y="305.67" width="11.22" height="10.1"/><rect class="cls-12" x="1554.87" y="300.39" width="1.67" height="24.45"/><rect class="cls-12" x="1652.01" y="278.26" width="11.22" height="14.05"/><rect class="cls-12" x="1656.78" y="270.91" width="1.67" height="34.01"/><rect class="cls-12" x="1397.24" y="313.9" width="11.22" height="9.49"/><rect class="cls-12" x="1402.01" y="310.86" width="1.67" height="17.31"/><rect class="cls-12" x="1533.11" y="304.19" width="11.22" height="6.85"/><rect class="cls-12" x="1537.89" y="301.99" width="1.67" height="12.51"/><rect class="cls-12" x="1516.13" y="299.26" width="11.22" height="12"/><rect class="cls-12" x="1520.9" y="295.41" width="1.67" height="21.9"/><rect class="cls-12" x="1499.15" y="294.37" width="11.22" height="19.15"/><rect class="cls-12" x="1503.92" y="288.18" width="1.67" height="28.62"/><rect class="cls-12" x="1482.16" y="295.22" width="11.22" height="5.89"/><rect class="cls-12" x="1486.93" y="293.34" width="1.67" height="10.74"/><rect class="cls-12" x="1465.18" y="289.99" width="11.22" height="12"/><rect class="cls-12" x="1469.95" y="286.15" width="1.67" height="21.9"/><rect class="cls-12" x="1448.19" y="299.63" width="11.22" height="12.03"/><rect class="cls-12" x="1452.96" y="292.88" width="1.67" height="21.18"/><rect class="cls-12" x="1584.07" y="288.89" width="11.22" height="14.17"/><rect class="cls-12" x="1588.84" y="284.31" width="1.67" height="21.18"/><rect class="cls-12" x="1601.05" y="281.52" width="11.22" height="10.1"/><rect class="cls-12" x="1605.82" y="276.24" width="1.67" height="24.45"/><rect class="cls-12" x="1567.08" y="301.49" width="11.22" height="9.49"/><rect class="cls-12" x="1571.86" y="298.46" width="1.67" height="17.31"/><rect class="cls-12" x="1635.02" y="275.86" width="11.22" height="6.63"/><rect class="cls-12" x="1639.79" y="273.74" width="1.67" height="12.1"/><rect class="cls-12" x="1618.04" y="287.22" width="11.22" height="12.03"/><rect class="cls-12" x="1622.81" y="280.47" width="1.67" height="21.18"/><rect class="cls-12" x="1347.64" y="307.56" width="11.22" height="14.17"/><rect class="cls-12" x="1352.41" y="302.98" width="1.67" height="21.18"/><rect class="cls-12" x="1364.62" y="300.19" width="11.22" height="10.1"/><rect class="cls-12" x="1369.39" y="294.91" width="1.67" height="24.45"/><rect class="cls-12" x="1330.65" y="319.42" width="11.22" height="7.18"/><rect class="cls-12" x="1335.42" y="317.13" width="1.67" height="13.1"/><rect class="cls-12" x="1381.6" y="305.89" width="11.22" height="12.03"/><rect class="cls-12" x="1386.38" y="299.14" width="1.67" height="21.19"/><rect class="cls-13" x="1412.81" y="236.38" width="11.22" height="30.65"/><rect class="cls-13" x="1417.58" y="209.56" width="1.67" height="62.74"/><rect class="cls-13" x="1429.79" y="203.51" width="11.22" height="38.76"/><rect class="cls-13" x="1434.57" y="192.09" width="1.67" height="69.79"/><rect class="cls-13" x="1548.68" y="245.83" width="11.22" height="21.85"/><rect class="cls-13" x="1553.46" y="234.41" width="1.67" height="52.87"/><rect class="cls-13" x="1650.59" y="180.9" width="11.22" height="36.03"/><rect class="cls-13" x="1655.36" y="165.01" width="1.67" height="73.56"/><rect class="cls-14" x="1395.82" y="263.64" width="11.22" height="20.52"/><rect class="cls-14" x="1400.6" y="257.06" width="1.67" height="37.44"/><rect class="cls-14" x="1531.7" y="242.63" width="11.22" height="14.82"/><rect class="cls-14" x="1536.47" y="237.88" width="1.67" height="27.05"/><rect class="cls-13" x="1514.72" y="215.05" width="11.22" height="42.88"/><rect class="cls-13" x="1519.49" y="206.73" width="1.67" height="64.28"/><rect class="cls-13" x="1497.73" y="204.47" width="11.22" height="58.33"/><rect class="cls-13" x="1502.5" y="191.09" width="1.67" height="78.82"/><rect class="cls-13" x="1480.75" y="206.32" width="11.22" height="12.73"/><rect class="cls-13" x="1485.52" y="202.24" width="1.67" height="40.14"/><rect class="cls-14" x="1463.76" y="195" width="11.22" height="42.88"/><rect class="cls-14" x="1468.53" y="186.69" width="1.67" height="64.28"/><rect class="cls-13" x="1446.78" y="215.84" width="11.22" height="42.94"/><rect class="cls-13" x="1451.55" y="201.26" width="1.67" height="62.73"/><rect class="cls-13" x="1582.65" y="203.9" width="11.22" height="36.29"/><rect class="cls-13" x="1587.43" y="194" width="1.67" height="51.46"/><rect class="cls-13" x="1599.64" y="187.96" width="11.22" height="27.48"/><rect class="cls-13" x="1604.41" y="176.53" width="1.67" height="58.51"/><rect class="cls-14" x="1565.67" y="236.8" width="11.22" height="20.52"/><rect class="cls-14" x="1570.44" y="230.23" width="1.67" height="37.44"/><rect class="cls-14" x="1633.61" y="175.72" width="11.22" height="14.34"/><rect class="cls-14" x="1638.38" y="171.13" width="1.67" height="43.08"/><rect class="cls-13" x="1616.62" y="200.28" width="11.22" height="54.22"/><rect class="cls-13" x="1621.39" y="185.7" width="1.67" height="74.01"/><rect class="cls-13" x="1346.22" y="249.92" width="11.22" height="30.65"/><rect class="cls-13" x="1350.99" y="240.02" width="1.67" height="45.82"/><rect class="cls-14" x="1363.21" y="217.06" width="11.22" height="38.76"/><rect class="cls-14" x="1367.98" y="205.63" width="1.67" height="69.79"/><rect class="cls-14" x="1329.24" y="275.58" width="11.22" height="15.52"/><rect class="cls-14" x="1334.01" y="270.61" width="1.67" height="28.32"/><rect class="cls-13" x="1380.19" y="246.3" width="11.22" height="26.02"/><rect class="cls-13" x="1384.96" y="214.8" width="1.67" height="62.73"/><path class="cls-15" d="M973.11,251.65c-9.77,9.77-16,19.35-14,21.4s11.62-4.23,21.39-14,16-19.35,14-21.39S982.89,241.88,973.11,251.65Z" transform="translate(0.28 -0.49)"/><path class="cls-16" d="M978.94,257.81c-9,8.57-14.62,17.31-12.52,19.52s11.12-2.94,20.14-11.51,14.62-17.31,12.52-19.52S988,249.24,978.94,257.81Z" transform="translate(0.28 -0.49)"/><path class="cls-15" d="M1043.16,237.36c-2.05,2,4.22,11.62,14,21.4s19.35,16,21.4,14-4.22-11.62-14-21.4S1045.2,235.32,1043.16,237.36Z" transform="translate(0.28 -0.49)"/><path class="cls-16" d="M1058.72,257.51c-9-8.56-18-13.72-20.13-11.5s3.5,10.95,12.52,19.52,18,13.72,20.14,11.5S1067.74,266.08,1058.72,257.51Z" transform="translate(0.28 -0.49)"/><rect class="cls-17" x="1034.78" y="241.62" width="46.7" height="33.5" transform="translate(127.5 823.4) rotate(-45)"/><rect class="cls-17" x="996.49" y="262.2" width="66.57" height="46.28" rx="22.02" transform="translate(100.13 811.25) rotate(-45)"/><rect class="cls-18" x="966.9" y="239.46" width="33.5" height="46.7" transform="translate(102.55 772.03) rotate(-45)"/><rect class="cls-18" x="988.87" y="256.49" width="46.28" height="66.57" rx="22.02" transform="translate(91.78 799.98) rotate(-45)"/><path class="cls-17" d="M1026.1,253.78c-1.43.47-18.95,5.77-19.32,7.14s-5.33,13.07-5.63,15.29,4.94,3.66,7.2,1.75,7.78-8.71,12.19-9.84a76.79,76.79,0,0,1,13.42-2.2l13.66-.83,10.79-8.13s-11.56-2.14-14.4-2.28S1027.53,253.31,1026.1,253.78Z" transform="translate(0.28 -0.49)"/><path class="cls-17" d="M1001.72,286a5.21,5.21,0,0,0-7.36,0L983.8,296.55a5.2,5.2,0,0,0,7.36,7.36l10.56-10.56a5.23,5.23,0,0,0,0-7.36Z" transform="translate(0.28 -0.49)"/><path class="cls-18" d="M1013.28,302.08a5.14,5.14,0,0,0-7.24,0l-.12.11a5.15,5.15,0,0,0,0,7.25L1021,324.52a5.15,5.15,0,0,0,7.25,0l.11-.12a5.14,5.14,0,0,0,0-7.24Z" transform="translate(0.28 -0.49)"/><path class="cls-18" d="M1016.62,290.87a5.15,5.15,0,0,0-7.25,0l-.11.12a5.15,5.15,0,0,0,0,7.25l21.39,21.39a5.15,5.15,0,0,0,7.25,0l.11-.12a5.14,5.14,0,0,0,0-7.24Z" transform="translate(0.28 -0.49)"/><path class="cls-18" d="M1023.6,283.26a5.12,5.12,0,0,0-7.24,0l-.12.11a5.15,5.15,0,0,0,0,7.25l21.4,21.39a5.14,5.14,0,0,0,7.24,0l.12-.12a5.14,5.14,0,0,0,0-7.24Z" transform="translate(0.28 -0.49)"/><path class="cls-18" d="M1035.24,280.2a5.12,5.12,0,0,0-7.24,0l-.12.11a5.15,5.15,0,0,0,0,7.25L1043,302.63a5.13,5.13,0,0,0,7.25,0l.11-.11a5.15,5.15,0,0,0,0-7.25Z" transform="translate(0.28 -0.49)"/><path class="cls-17" d="M1004.79,290.1l-15.63,15.63a5.2,5.2,0,1,0,7.36,7.36l15.63-15.63a5.2,5.2,0,1,0-7.36-7.36Z" transform="translate(0.28 -0.49)"/><path class="cls-17" d="M1012.34,297.15l-15.62,15.63a5.2,5.2,0,0,0,7.36,7.36l15.62-15.63a5.2,5.2,0,0,0-7.36-7.36Z" transform="translate(0.28 -0.49)"/><path class="cls-17" d="M1023.61,307.94a5.23,5.23,0,0,0-7.36,0l-10.56,10.56a5.2,5.2,0,0,0,7.36,7.36l10.56-10.56a5.23,5.23,0,0,0,0-7.36Z" transform="translate(0.28 -0.49)"/><path class="cls-19" d="M1038.59,246s4.2,1.39,18.33,14.26c11.23,10.25,13.92,17.22,13.92,17.22l21.63-21.35-32.14-32Z" transform="translate(0.28 -0.49)"/><path class="cls-19" d="M945.2,256.43l21.62,21.36s2.69-7,13.93-17.22c14.12-12.87,18.33-14.27,18.33-14.27l-21.74-21.85Z" transform="translate(0.28 -0.49)"/><path class="cls-20" d="M1067.36,213.16l-.06-.07-24.14,24.27s4.66,1.55,20.34,15.85c12.49,11.38,15,19.54,15,19.54l24.1-23.83c2-2-4.27-11.67-14.09-21.49C1079.12,218,1069.89,211.82,1067.36,213.16Z" transform="translate(0.28 -0.49)"/><path class="cls-10" d="M970.32,213.44C968,211.74,958.61,218,949,227.62s-15.69,18.79-14.24,21.24l-.05,0,.2.19h0l24.23,23.94s2.56-8.17,15-19.55c15.68-14.29,20.35-15.84,20.35-15.84l-24.14-24.27Z" transform="translate(0.28 -0.49)"/><rect class="cls-21" x="1144.63" y="406.92" width="111.78" height="30.51"/><path class="cls-22" d="M1109.73,462.6a56.83,56.83,0,0,0-15.7-7.17c3.83,13.21,4.28,34.56,3.37,56.05h16.68C1121.86,489.62,1123.37,471.17,1109.73,462.6Z" transform="translate(0.28 -0.49)"/><path class="cls-23" d="M1299.19,462.2c-13.7,8.6-12,27.24-4.07,49.28h14.23c-.95-21.16-.57-42.28,3-55.79A62.8,62.8,0,0,0,1299.19,462.2Z" transform="translate(0.28 -0.49)"/><path class="cls-19" d="M1082.55,442.18c-12.54,0-28.25,24.17-43.41,55.64a9.51,9.51,0,0,0,8.54,13.66h49.72c.91-21.49.46-42.84-3.37-56.05C1091.65,447.25,1088,442.19,1082.55,442.18Z" transform="translate(0.28 -0.49)"/><path class="cls-22" d="M1236.72,354.7c.38-15.67-66.28-17.45-66.55-1.78-.93,58.17-20.15,69.95-20.15,69.95s-2,51.6,11.81,88.61h28.38l2.6-29.12h14.89l2.41,29.12h29.55c12.53-37,10.84-88.61,10.84-88.61S1235.31,417,1236.72,354.7Z" transform="translate(0.28 -0.49)"/><path class="cls-19" d="M1324.15,441.11c-5.71,0-9.45,5.64-11.81,14.58-3.56,13.51-3.94,34.63-3,55.79h50.2a9.51,9.51,0,0,0,8.54-13.64C1352.78,465.84,1336.84,441.1,1324.15,441.11Z" transform="translate(0.28 -0.49)"/><path class="cls-19" d="M1200.25,454.31l.6,57.17h121.08c3.35-38,5.85-68.07,5.85-68.07l-77.28-20.54C1239.76,443,1200.25,454.31,1200.25,454.31Z" transform="translate(0.28 -0.49)"/><path class="cls-19" d="M1150,422.87,1075,445.38s3.22,29.1,7.44,66.1h118.45l-.6-57.17S1170.83,445.16,1150,422.87Z" transform="translate(0.28 -0.49)"/><polygon class="cls-21" points="1191.53 442.9 1181.42 447.34 1200.53 453.82 1196.21 444.66 1191.53 442.9"/><polygon class="cls-20" points="1200.53 481.87 1207.97 481.87 1219.64 448.36 1200.53 453.82 1200.53 481.87"/><polygon class="cls-10" points="1193.08 481.87 1200.53 481.87 1200.53 453.82 1181.42 448.36 1193.08 481.87"/><polygon class="cls-24" points="1127.21 429.3 1181.41 467.94 1196.21 444.66 1144.63 406.92 1127.21 429.3"/><polygon class="cls-21" points="1204.84 444.66 1200.53 453.82 1219.64 447.34 1209.17 442.9 1204.84 444.66"/><polygon class="cls-24" points="1204.84 444.66 1219.65 467.94 1273.85 429.3 1256.43 406.92 1204.84 444.66"/><polygon class="cls-20" points="1200.52 481.87 1200.49 510.99 1210.39 510.99 1207.98 481.87 1200.52 481.87"/><polygon class="cls-10" points="1190.49 510.99 1200.49 510.99 1200.52 481.87 1193.08 481.87 1190.49 510.99"/><path class="cls-17" d="M1201.07,227c-35.5,0-69,37.67-64.29,83.54,5,48.47,40.16,86.79,64.29,86.79,23.55,0,59-39.09,64.29-86.79C1270.44,264.65,1236.58,227,1201.07,227Z" transform="translate(0.28 -0.49)"/><path class="cls-25" d="M1199.62,210.74c-27.42,0-57.17,19.18-64.86,39.37-8.16,21.34-4.68,56.64-4.68,56.64l9.12,9.94s5.81-40.2,15.24-45.68c3-1.72,20.92-10.79,20.92-10.79s66,12.83,72.54,19.4c8.9,8.9,12.81,35.58,12.81,35.58l9.67-13.94s2.58-40-8.08-57.08C1254.66,232,1228.34,210.7,1199.62,210.74Z" transform="translate(0.28 -0.49)"/><path class="cls-20" d="M1130,345.53V312h-7.46v33.52c0,20.55,18.42,37.25,41.08,37.25h37.47v-7.46h-37.47C1145.09,375.32,1130,362,1130,345.53Z" transform="translate(0.28 -0.49)"/><path class="cls-10" d="M1137.11,219.51c-8.45,11.56-11.85,30.51-11.85,42.29,0,25.1.26,39.59.26,39.59l11,.56a293.55,293.55,0,0,1-.66-37.72c1.07-19.47,4.52-27.46,9.2-35.77,11.19-19.88,40.37-24.14,55.73-24.28V193.25S1159,189.61,1137.11,219.51Z" transform="translate(0.28 -0.49)"/><path class="cls-10" d="M1200.84,193.25v10.93c15.33.14,44.52,4.4,55.71,24.28,4.68,8.31,8.13,16.3,9.2,35.77a290.41,290.41,0,0,1-.67,37.72l11.06-.56s.26-14.49.26-39.59c0-11.78-3.41-30.73-11.85-42.29C1242.7,189.61,1200.84,193.25,1200.84,193.25Z" transform="translate(0.28 -0.49)"/><path class="cls-20" d="M1112.13,281c-1.92,0-3.48,1.89-3.48,4.22v38.9c0,2.33,1.56,4.21,3.48,4.21s3.5-1.88,3.5-4.21v-38.9C1115.63,282.9,1114.07,281,1112.13,281Z" transform="translate(0.28 -0.49)"/><path class="cls-20" d="M1287.67,278.28c-2,0-3.61,1.89-3.61,4.22v38.9c0,2.33,1.61,4.22,3.61,4.22s3.61-1.89,5.89-4.22V282.5C1291.28,280.17,1289.66,278.28,1287.67,278.28Z" transform="translate(0.28 -0.49)"/><path class="cls-10" d="M1127,263.84c-8.22,0-14.87,7.08-14.87,15.83v50c0,8.75,6.65,15.84,14.87,15.84s14.86-7.09,14.86-15.84v-50C1141.86,270.92,1135.21,263.84,1127,263.84Z" transform="translate(0.28 -0.49)"/><path class="cls-10" d="M1274.61,263.84a15.59,15.59,0,0,0-15.36,15.83v50a15.36,15.36,0,1,0,30.7,0v-50A15.59,15.59,0,0,0,1274.61,263.84Z" transform="translate(0.28 -0.49)"/><path class="cls-26" d="M1207.29,372h-12.37c-3.53,0-6.39,3.15-6.39,7s2.86,7,6.39,7h12.37c3.53,0,6.38-3.14,6.38-7S1210.82,372,1207.29,372Z" transform="translate(0.28 -0.49)"/><rect class="cls-14" x="1776.98" y="487.82" width="8.25" height="22.1"/><rect class="cls-14" x="1807.38" y="467.51" width="8.29" height="42.41"/><rect class="cls-27" x="1799.09" y="432.84" width="8.29" height="77.08"/><rect class="cls-27" x="1768.68" y="459.69" width="8.29" height="50.23"/><rect class="cls-14" x="1744.5" y="468.62" width="8.29" height="41.31"/><rect class="cls-27" x="1736.2" y="437.85" width="8.29" height="72.07"/><rect class="cls-14" x="1716.16" y="381.4" width="8.29" height="128.52"/><rect class="cls-27" x="1707.87" y="409" width="8.29" height="100.92"/><rect class="cls-14" x="1685.75" y="395.82" width="8.29" height="114.1"/><rect class="cls-27" x="1677.46" y="428.02" width="8.29" height="81.9"/><rect class="cls-14" x="1655.35" y="421.8" width="8.29" height="88.12"/><rect class="cls-27" x="1647.05" y="389.4" width="8.29" height="120.52"/><rect class="cls-14" x="1624.94" y="425.9" width="8.29" height="84.02"/><rect class="cls-27" x="1616.65" y="457.1" width="8.29" height="52.82"/><rect class="cls-14" x="1594.53" y="461.35" width="8.29" height="48.57"/><rect class="cls-27" x="1586.24" y="477.76" width="8.29" height="32.16"/><rect class="cls-14" x="1564.13" y="457.55" width="8.29" height="52.37"/><rect class="cls-27" x="1555.83" y="468.15" width="8.29" height="41.77"/><rect class="cls-14" x="1533.72" y="413.29" width="8.29" height="96.63"/><rect class="cls-27" x="1525.42" y="430.22" width="8.29" height="79.7"/><rect class="cls-14" x="1503.31" y="424.79" width="8.29" height="85.13"/><rect class="cls-27" x="1495.02" y="441.59" width="8.29" height="68.33"/><rect class="cls-14" x="1472.9" y="419.69" width="8.29" height="90.23"/><rect class="cls-27" x="1464.61" y="440.41" width="8.29" height="69.51"/><rect class="cls-26" x="1450.32" y="509.17" width="376.09" height="1.49"/><path class="cls-2" d="M1830.47,336.11l-4.38-.56a19.64,19.64,0,0,0-.58-4.88l4.13-1.74a.36.36,0,0,0,.2-.47l-.48-1.13-1.29-3.11a.39.39,0,0,0-.31-.22h0l-.14,0-4.06,1.7a19.57,19.57,0,0,0-3-3.93l2.72-3.57a.37.37,0,0,0,0-.4h0l-.09-.11-1.06-.8-2.6-2a.37.37,0,0,0-.51.06l-2.67,3.51a19.36,19.36,0,0,0-4.52-1.93l.57-4.45v-.08s0,0,0-.06v0a.36.36,0,0,0-.29-.24l-4.56-.59a.38.38,0,0,0-.3.11.38.38,0,0,0-.1.2l-.52,4-.05.37a19.3,19.3,0,0,0-4.88.59l-1.73-4.14a.35.35,0,0,0-.3-.22.34.34,0,0,0-.17,0l-4.24,1.77a.34.34,0,0,0-.2.22.36.36,0,0,0,0,.25l1.42,3.42.28.65a19.52,19.52,0,0,0-3.93,3l-3.57-2.72a.37.37,0,0,0-.39,0,.35.35,0,0,0-.12.1l-2.78,3.65a.33.33,0,0,0-.06.3.3.3,0,0,0,.12.21l3,2.29.5.38a19.12,19.12,0,0,0-1.93,4.52l-4.45-.57a.36.36,0,0,0-.35.18.29.29,0,0,0,0,.13l-.59,4.56a.35.35,0,0,0,.09.28.32.32,0,0,0,.22.13l3.61.46.77.1a19.76,19.76,0,0,0,.58,4.88l-4.13,1.73a.36.36,0,0,0-.22.33.32.32,0,0,0,0,.14l1.77,4.24a.34.34,0,0,0,.24.21.37.37,0,0,0,.23,0l3.53-1.48.54-.22a19.52,19.52,0,0,0,3,3.93l-2.72,3.56a.35.35,0,0,0,0,.38.31.31,0,0,0,.1.13l3.65,2.79a.37.37,0,0,0,.32.05.39.39,0,0,0,.19-.12l2.47-3.25.2-.25a19.55,19.55,0,0,0,4.52,1.93l-.57,4.44a.37.37,0,0,0,.18.36.28.28,0,0,0,.13,0l4.56.59h0a.35.35,0,0,0,.36-.18.5.5,0,0,0,0-.13l.38-3,.18-1.38a19.76,19.76,0,0,0,4.88-.58l1.73,4.14a.36.36,0,0,0,.47.19l3.1-1.3,1.14-.47a.38.38,0,0,0,.2-.48l-1.7-4.06a19.85,19.85,0,0,0,3.93-3l3.56,2.72a.36.36,0,0,0,.51-.06l1.61-2.11,1.18-1.55a.35.35,0,0,0-.07-.5l-3.5-2.67a19.62,19.62,0,0,0,1.93-4.53l4.44.57a.36.36,0,0,0,.36-.17.09.09,0,0,0,0,0,.16.16,0,0,0,0-.09l.59-4.56A.35.35,0,0,0,1830.47,336.11Zm-17.82.11a6.21,6.21,0,1,1-5.37-6.94A6.22,6.22,0,0,1,1812.65,336.22Z" transform="translate(0.28 -0.49)"/><path class="cls-28" d="M290.76,292.66q-3.15.27-6,.27c-5.28,0-9.18-.63-11.67-1.89a9.49,9.49,0,0,1-5-6.21c-.83-2.88-1.23-7.22-1.23-13s.39-10.13,1.2-13a9.5,9.5,0,0,1,5-6.21q3.78-1.92,11.7-1.92a54.51,54.51,0,0,1,5.82.33,42.92,42.92,0,0,1,5.1.81v8.7c-4.25-.36-6.9-.54-8-.54a16.55,16.55,0,0,0-5.94.72,3.58,3.58,0,0,0-2,2.88,54.35,54.35,0,0,0-.39,8.22,54.35,54.35,0,0,0,.39,8.22,3.58,3.58,0,0,0,2,2.88,16.55,16.55,0,0,0,5.94.72,62.69,62.69,0,0,0,8.22-.54V292A46.33,46.33,0,0,1,290.76,292.66Z" transform="translate(0.28 -0.49)"/><path class="cls-28" d="M306.72,291.1a8.22,8.22,0,0,1-4.66-5.82q-.88-4-.89-13.47t.89-13.47a8.22,8.22,0,0,1,4.66-5.82q3.73-1.83,12.63-1.83T332,252.52a8.2,8.2,0,0,1,4.64,5.82q.92,4,.91,13.47t-.91,13.47A8.2,8.2,0,0,1,332,291.1q-3.76,1.83-12.63,1.83T306.72,291.1Zm16.74-8c.69-.38,1.14-1.3,1.32-2.76s.26-4.29.26-8.49-.08-7-.26-8.49-.63-2.38-1.32-2.76a15.1,15.1,0,0,0-8.22,0c-.71.38-1.14,1.29-1.32,2.73a84.79,84.79,0,0,0-.27,8.52,84.79,84.79,0,0,0,.27,8.52c.18,1.44.61,2.35,1.32,2.73a15.1,15.1,0,0,0,8.22,0Z" transform="translate(0.28 -0.49)"/><path class="cls-28" d="M368,292.45l-11.82-21.3h-.3v21.3H344V251.17h12.66l10.56,18.48h.36V251.17h11.82v41.28Z" transform="translate(0.28 -0.49)"/><path class="cls-28" d="M394.58,292.45V261H383.84v-9.78h33.9V261h-10.8v31.5Z" transform="translate(0.28 -0.49)"/><path class="cls-28" d="M445.16,292.45l-1.92-7H429.92l-1.86,7H415.94l12.3-41.28h17l12.3,41.28Zm-8.4-30.9h-.48l-4,14.88h8.52Z" transform="translate(0.28 -0.49)"/><path class="cls-28" d="M484.37,292.66q-3.15.27-6,.27-7.92,0-11.67-1.89a9.52,9.52,0,0,1-5-6.21q-1.23-4.32-1.23-13t1.2-13a9.5,9.5,0,0,1,5-6.21q3.78-1.92,11.7-1.92a54.37,54.37,0,0,1,5.82.33,42.92,42.92,0,0,1,5.1.81v8.7q-6.36-.54-8-.54a16.55,16.55,0,0,0-5.94.72,3.58,3.58,0,0,0-2,2.88,55.76,55.76,0,0,0-.39,8.22,55.76,55.76,0,0,0,.39,8.22,3.58,3.58,0,0,0,2,2.88,16.55,16.55,0,0,0,5.94.72,62.58,62.58,0,0,0,8.22-.54V292A46,46,0,0,1,484.37,292.66Z" transform="translate(0.28 -0.49)"/><path class="cls-28" d="M503.48,292.45V261H492.74v-9.78h33.9V261h-10.8v31.5Z" transform="translate(0.28 -0.49)"/><path class="cls-28" d="M579.38,251.17v22.44q0,8.46-.93,12.18a7.94,7.94,0,0,1-4.41,5.43q-3.48,1.71-11.58,1.71t-11.55-1.71a7.84,7.84,0,0,1-4.41-5.43q-.9-3.72-.9-12.18V251.17h12.3v24.72a38.71,38.71,0,0,0,.24,5.34,2.4,2.4,0,0,0,1.11,1.89,7.8,7.8,0,0,0,3.21.45,8,8,0,0,0,3.27-.45,2.4,2.4,0,0,0,1.11-1.89,38.71,38.71,0,0,0,.24-5.34V251.17Z" transform="translate(0.28 -0.49)"/><path class="cls-28" d="M586.46,291.85V283q8,.66,12,.66a40,40,0,0,0,4-.15,3.9,3.9,0,0,0,1.89-.57,1.52,1.52,0,0,0,.6-.93,9,9,0,0,0,.12-1.71,4.77,4.77,0,0,0-.27-1.89,1.75,1.75,0,0,0-1.17-.84,23.22,23.22,0,0,0-3.12-.57l-7.32-.9q-4.68-.54-6.33-3.66t-1.65-9.06q0-5.22,2-8a9.73,9.73,0,0,1,5.49-3.72,33.69,33.69,0,0,1,8.61-.93,73.26,73.26,0,0,1,14,1.26v8.76a105.52,105.52,0,0,0-11.82-.72q-3.9,0-4.92.54a1.86,1.86,0,0,0-.81.87,4,4,0,0,0-.21,1.47,6.62,6.62,0,0,0,.18,1.86,1.27,1.27,0,0,0,.87.78A14.31,14.31,0,0,0,601,266l7.5.9a14.89,14.89,0,0,1,4.5,1.2A6.93,6.93,0,0,1,616,271q1.5,2.58,1.5,8.16,0,5.94-1.89,8.91a8.81,8.81,0,0,1-5.07,3.9,30,30,0,0,1-8.22.93A104.13,104.13,0,0,1,586.46,291.85Z" transform="translate(0.28 -0.49)"/></svg>